<svg width="56" height="37" viewBox="0 0 56 37" fill="none" xmlns="http://www.w3.org/2000/svg">
<path d="M10.48 23.42C10.46 23.23 8.37 4.84 24 0.51C36.29 -2.49 41.35 8.73 41.4 8.84L39.68 9.6C39.5 9.19 35.18 -0.289999 24.47 2.32C10.47 6.21 12.25 22.71 12.34 23.42H10.48Z" fill="#30A3E6"/>
<path d="M43.11 36.59H8.4C3.4 36.59 0 33.25 0 28.2C0 22.05 4.25 18.68 11.92 18.68V20.55C3.53 20.55 1.92 24.61 1.92 28.2C1.92 32.2 4.44 34.72 8.45 34.72H43.11C48.11 34.72 53.49 33.18 53.49 24.58C53.49 24.46 53.49 19.77 50.78 16.82C49.11 15 46.61 14.1 43.37 14.1C36.52 14.1 33.74 20.1 33.63 20.35L31.92 19.59C32.05 19.29 35.28 12.22 43.37 12.22C47.16 12.22 50.12 13.35 52.16 15.56C55.46 19.12 55.37 24.44 55.36 24.65C55.36 32.38 51.19 36.59 43.11 36.59Z" fill="#30A3E6"/>
<path d="M35.65 20.68L30.53 17.67L31.33 22.16L35.65 20.68Z" fill="#30A3E6"/>
<path d="M42.19 6.3L37 9.19L41.28 10.77L42.19 6.3Z" fill="#30A3E6"/>
</svg>
