<svg xmlns="http://www.w3.org/2000/svg" viewBox="0 0 30.87 30.87"><defs><style>.cls-1{fill:none;stroke:#30a3e6;stroke-linecap:round;stroke-linejoin:round;stroke-width:0.5px;}</style></defs><title>Ресурс 7</title><g id="Слой_2" data-name="Слой 2"><g id="Layer_1" data-name="Layer 1"><path class="cls-1" d="M30.62,15.44a15.18,15.18,0,0,1-4.44,10.74c-.24.24-.48.46-.73.68V25.68a10,10,0,0,0-7.07-9.55h0a5.34,5.34,0,1,0-5.79,0A10,10,0,0,0,5.5,25.68v1.24A15.19,15.19,0,1,1,30.62,15.44Z"/><path class="cls-1" d="M25.45,25.68v1.18a15.2,15.2,0,0,1-19.95.06V25.68a10,10,0,0,1,7.08-9.55,5.35,5.35,0,1,1,5.79,0h0a10,10,0,0,1,7.07,9.55Z"/></g></g></svg>