<svg xmlns="http://www.w3.org/2000/svg" viewBox="0 0 424.4 461.47"><defs><style>.cls-1,.cls-10,.cls-11,.cls-12{fill:none;stroke-linecap:round;stroke-linejoin:round;}.cls-1{stroke:#33b5fe;}.cls-2{fill:#195a81;}.cls-3{fill:#0e2d40;}.cls-4{fill:#2687be;}.cls-5{fill:#33b5fe;}.cls-6{fill:#febfa7;}.cls-7{fill:#e7978e;}.cls-8{fill:#fd8c01;}.cls-9{fill:#f46d02;}.cls-10{stroke:#e7978e;}.cls-11{stroke:#195a81;}.cls-12{stroke:#0e2d40;}.cls-13{fill:#30a3e6;}.cls-14,.cls-15{fill:#fff;}.cls-14{opacity:0.45;}</style></defs><title>Ресурс 1</title><g id="Слой_2" data-name="Слой 2"><g id="Layer_8" data-name="Layer 8"><path class="cls-1" d="M2.26,306.57S-8.41,258.71,22.84,239.5c28.75-17.68,46-1.27,52.4,4C94.35,260.7,114,255.94,119,255.94"/><path class="cls-1" d="M158.88,236.8s39.28-56.7,65.06-63.15,37.67,7.22,53.5,34.67"/><path class="cls-1" d="M38.6,307.8s2.65-9.27,12.12-11c8.66-1.24,13.53,6.51,22,19.25,7.64,12.21,29.83,43.68,29.83,43.68s22.91,10.79,55.9-14.36,81.25-69.24,100.8-79"/><path class="cls-1" d="M84.41,288.29s4.4,34.39,32.85,28.68S164,307.68,168,287c4.58-19.92,15.89-175.19,27.83-208.82,13.53-47.63,46.8-72.11,88.51-77.09C332.85-2.25,353.64,45,359,64.11s7.71,56,7.71,56"/><path class="cls-1" d="M137.23,379.82s135.37-94.94,185.33-88.1,58,62,58,62"/><path class="cls-1" d="M417.85,243.86s-47.81,68-78.31,20.9"/><path class="cls-1" d="M423.9,141.84s-3.34,32.13-39.3,59.71-60.52,21.23-66.78,43.88"/><path class="cls-2" d="M181.11,52.32a25,25,0,1,1,0-.86C181.11,51.74,181.11,52,181.11,52.32Z"/><path class="cls-3" d="M181.11,52.32A24.87,24.87,0,0,1,132,57.74c5.15,2.63,11.43,1.08,18.5-4.58,15.48-11.87,27.93-10.28,30.62-1.7C181.11,51.74,181.11,52,181.11,52.32Z"/><path class="cls-4" d="M295.53,366.79c-2.84,0-5.32-2.47-6.75-4.9-1.06-1.8-1.8-4.07-1.07-5.08a1.24,1.24,0,0,1,1.38-.44c3.42.74,7.6,8.34,7.78,8.66l-.88.48c-1.14-2.09-4.64-7.63-7.11-8.16-.28-.06-.34,0-.36,0-.28.39,0,2,1.12,4,1.36,2.32,3.74,4.68,6.34,4.38l.12,1A3.64,3.64,0,0,1,295.53,366.79Z"/><path class="cls-5" d="M340.55,384.56s-2.68,0-7-.12l-2.85-.08c-19-.48-58.87-1.64-58.87-1.64a26.41,26.41,0,0,1,1.76-7.22C275.35,370.6,282,370,289,370s10.21-12.88,10.21-12.88l2.42,3.76s21.71-.3,32.1.18c1.42.07,2.64.15,3.55.24a6.54,6.54,0,0,1,1.74.34c2.44,1.24,3,5,3,7.91S340.61,384.4,340.55,384.56Z"/><path class="cls-5" d="M360.38,445.6H319.47c-8.12,0-31-23.49-31-23.49,0-4.37-1-16.08,1.83-19.58l.42-.52a28.61,28.61,0,0,0,3.72-6.09s33.43,19.73,35.27,24.56a4.44,4.44,0,0,0,.24.49,6,6,0,0,0,2.49,2.53h0a4.87,4.87,0,0,0,1.34.54,6,6,0,0,1,.61-.18l.07,0a24.92,24.92,0,0,1,12.9.33c6.92,2.13,12.33,16.15,13.79,20.28A.86.86,0,0,1,360.38,445.6Z"/><path class="cls-4" d="M337.24,361.25l-3.65,23.19-2.85-.08-2.4-14.78,5.35-8.57C335.11,361.08,336.33,361.16,337.24,361.25Z"/><path class="cls-4" d="M330,421c-2.1.63-8.38,2.44-15.09,4.08-8.24,2-13.24,1.17-19.53-6.29a21.34,21.34,0,0,1-4.65-12.31,11.58,11.58,0,0,1,1.84-7,23.87,23.87,0,0,0,1.92-3.55s33.43,19.73,35.27,24.56A4.44,4.44,0,0,0,330,421Z"/><path class="cls-6" d="M246.84,118.91l-1.37,1.18-12,10.31s-4.21-9.38-7.8-11.94c-3-2.15-16.19-2-20.29-1.92a1.25,1.25,0,0,1-1.1-1.55c.81-4.58,5.29-3.67,8.22-3.67l9.24-.14c0-2.87,2.06-3.15,4.76-3.15a14.88,14.88,0,0,0,1.57-.1c.72-.07,1.5-.18,2.31-.3a51,51,0,0,1,5.36-.63h1a9.14,9.14,0,0,1,2.3.4h0l.58.21c2.43,1,3.13,3.13,4,5.4.08.24.17.48.26.71A16.7,16.7,0,0,0,246.84,118.91Z"/><path class="cls-7" d="M246.84,118.91l-1.37,1.18c-1.26-2.48-5.36-8.91-13.93-8.91h-9.82c3.13,0,5.19-1.17,6.33-3.25.72-.07,1.5-.18,2.31-.3a51,51,0,0,1,5.36-.63c.08,0,.46,0,1,0a9.14,9.14,0,0,1,2.3.4h0l.58.21c2.43,1,3.13,3.13,4,5.4.08.24.17.48.26.71A16.7,16.7,0,0,0,246.84,118.91Z"/><path class="cls-5" d="M393.47,137.62c-2-7.6-6.68-22.37-17.19-28.21-9.48-5.28-35.4-12.18-41-13.73-.59-.17-.91-.26-.91-.27s0-.06,0-.16c.05-1.44-.6-11.74-.6-11.74s.18-3.8-4.12-3.24-11,2.49-13.91,7a29.17,29.17,0,0,0-2.61,5v0a10.33,10.33,0,0,0-.66,2s-.33-.14-.93-.34c-2.59-.85-10.15-2.64-16.61,2.51C287,102.87,267.24,128,262.83,135.7l-5.69-6.52-.76-.87L248,118.69s-8.81-3-15.82,11.12c0,0,3.7,6.93,7.89,14.58l.61,1.11c4,7.29,8.29,14.95,10.18,17.78,4,5.95,5.59,8,14.59,6.47a55.18,55.18,0,0,0,11.25-3.52,95,95,0,0,0,8.77-4.19s1.09,19.34,1.71,23,2,4.7,4.76,6.26a36.56,36.56,0,0,1,5.46,3.52,5.07,5.07,0,0,1,1.52,1.85c.08.2.16.43.25.69.7,2.14,1.59,6.09,1.59,6.09l28.18-4.34,4.22-5.9,10.7-2.87,1.7-.45s2.37-1.3,6-3.39c4-2.25,9.44-5.41,15.07-8.82l.86-.52c9.28-5.63,18.78-11.82,22.44-15.61C397.58,154.08,395.43,145.23,393.47,137.62Zm-32.84,13.46-.42.47L359,152.83l-.4-1-1.34-2.87,3.49-5.85s2,2.66,3.34,4.57A42.79,42.79,0,0,0,360.63,151.08Z"/><path class="cls-2" d="M328.94,198.62S308.73,201,302.39,203s-8.52,3-11.6,12.1-14.05,45.45-13.31,57.71,21.1,80.92,21.1,80.92l-5.13,46.68A13.66,13.66,0,0,0,296.81,411c5,5.54,15.15,12.75,32.94,9.51-2-6.82-1.54-8.2,1.05-29.55s19.61-132,21.42-157.5.1-30-6.76-35.95C339.25,196.4,328.94,198.62,328.94,198.62Z"/><path class="cls-8" d="M349.81,187.63l-9.48,5.48a1.08,1.08,0,0,1-1.47-.4l-16.72-29-8.47-14.67-1.9-3.29a1.08,1.08,0,0,1,.39-1.47l32.63-19.37a1.07,1.07,0,0,1,1.47.39l12.81,27.48a8.76,8.76,0,0,1-.6.66l-.16.17c-.11.1-.22.21-.34.34l-.8.8L356,156c-2.41,2.42-5.17,5.22-6,6.13-1.57,1.72-6.91,7.89-6.91,7.89l8.49,16.54.5-.3.17-.1.51-.3.41-.24,1.94-1.15.7-.41.07,0,.7-.42,7.13-4.23.48-.28C366.57,177.64,349.81,187.63,349.81,187.63Z"/><path class="cls-4" d="M305.55,58.56a35.18,35.18,0,0,0,9.29-2.35c5-2.27,11.25,9.13,11.25,9.13l3.05.83,3.12-6.44V54.35a3.46,3.46,0,0,0-1.54-2.88c-3.64-2.39-10.69-6.85-14.44-9.21a8.8,8.8,0,0,0-6-1.33c-5.05.74-6.23,4.7-6.08,8.09C304.21,57.76,305.55,58.56,305.55,58.56Z"/><path class="cls-9" d="M352.28,189.76l-2.47-2.13-27.67-23.89-8.47-14.67L344,128.78a.82.82,0,0,1,1.18.29l13.28,24.4c-2.48,2.49-7.32,7.36-8.47,8.62-1.57,1.72-6.91,7.89-6.91,7.89l8.49,16.54Z"/><path class="cls-8" d="M372.8,181.4l-35.63,23.37a1.07,1.07,0,0,1-1.49-.31L306,159.14a1.08,1.08,0,0,1,.31-1.49l35.64-23.36a1.08,1.08,0,0,1,1.49.3l13.45,20.52c-2.57,2.57-5.92,6-6.85,7-1.57,1.72-6.91,7.89-6.91,7.89l8.49,16.54s13-7.68,18.62-11.05l2.91,4.44A1.07,1.07,0,0,1,372.8,181.4Z"/><path class="cls-7" d="M205.84,156.25s5.1-1,5.82-2.37-3.92-2.4-3.92-2.4S203.06,156.27,205.84,156.25Z"/><path class="cls-6" d="M221.79,140.82a68.86,68.86,0,0,1-6.58,3.52c-.45.21-.9.39-1.32.55a10.11,10.11,0,0,1-1.7.51c-2.82.5-.23-6.8,1.89-7.31l1.13-.28c1.62-.43,2.88-.84,2.88-.84a12.59,12.59,0,0,1,1.54-.58c1.15-.36,2.63-.61,3.27.15A3.36,3.36,0,0,1,221.79,140.82Z"/><path class="cls-7" d="M219.63,136.39l-4.42,8c-.45.21-.9.39-1.32.55l-1.41-1.48,2.73-5.6c1.62-.43,2.88-.84,2.88-.84A12.59,12.59,0,0,1,219.63,136.39Z"/><path class="cls-3" d="M108.94,456.36s-1.42-.17-1.62.78a6.67,6.67,0,0,0,0,2.12s5.27,2,15.88,2.19c7.74.12,11.33-.31,12.74-.64.45-.11,1.09-.32,1.09-.32l10.34-19.94-.36,7.94,1.36,0s2.69-14.72.64-18.91S109.57,454.7,108.94,456.36Z"/><path class="cls-2" d="M103.59,405.57s-21.4-.74-27.4-1.53-7.5-25.84-7.5-25.84l-.55,26.87h-2s-1.77-32.6-1.77-39.2a7.3,7.3,0,0,1,.86-3.41c2.26-4.3,8.18-6.4,8.18-6.4,3.16-.29,8.81,3.09,8.81,3.09l9.07,23.64a22.29,22.29,0,0,0,.19,7.1c.73,3.76,6.73,7.5,9.73,9.45S103.59,405.57,103.59,405.57Z"/><path class="cls-4" d="M39.7,137.82s-1.77-11.09,3.74-19.69S56.72,104,69.76,103.75c10.07,0,31.7,3.39,34.93-3.85s-4.25-12.48-2.28-21.17c2.52-11.12,6.06-14.55,19.9-17.78s35.49-9,38.56-3-7,11.88-7.4,15.74,1.26,5.74,6.21,7.47,25.73,10.39,21.48,22.27-19,20.53-19,20.53l-54.68,99.58s-20.1,7.41-37-10.12-31-58.12-31-58.12Z"/><path class="cls-6" d="M200.28,161.88a5.2,5.2,0,0,0-1.65.16,15.88,15.88,0,0,0-2,.56c-1,.35-6.45,4.39-12.91,9.26h0c-9.85,7.44-22,16.82-24.18,18a5.55,5.55,0,0,1-6.36-.63l0,0s-.08,1.1-.19,2.92q0,.57-.06,1.23c-.34,6.41-.72,18.7.74,25.44,2.05,9.4,6.22,64.49,5,75.85S146.23,317,146.23,317s0,10.45.67,26.68S150.76,402,150.76,402l-.18.16-2.48,2.29s.27,5.09.51,10.84c.1,2.18.19,4.45.25,6.57.09,2.65.15,5.07.15,6.79,0,6.78-8.67,21.67-13,28.6-9.31,3-23.5.28-27.07-.91,0-5.53,2.59-9,5.81-10.7s9.3-6.92,11.68-12.45c1.12-2.61,1.41-8,1.4-13,0-3.35-.15-6.48-.27-8.45-.07-1.29-.13-2.07-.13-2.07a9.46,9.46,0,0,1-1.08-.27,8.39,8.39,0,0,1-2.26-1s-14.17-51.34-15.79-68,.84-63.49,2.18-70.87-8.73-60.28-8.87-66.56c-.1-4.38,6.74-13.88,10.92-19.26,1.13-1.46,2.07-2.62,2.62-3.29.33-.41.52-.63.52-.63l-.06-.12-7.72-15.29L97.8,181.15l-.21.36c-1.71,2.93-13.55,23-19.88,27.07-6.83,4.42-13.2-3.9-20.95-11.13S21.41,158,19.4,155.26s-2.87-2.41-5.51-5c-1.87-1.83-.71-4,.12-5a1,1,0,0,1,1.34-.18l5.73,4.2c-.37-.47-6.36-8.1-6.15-10.55s3.34-2.36,3.34-2.36-.17-.21-1.49-2.14,2.57-4.35,3.54-3.43l9.6,9.25s-2.61-7.64-3.14-9.75-.11-3.28,2-4,4.11,4.32,5.79,7.56c-.22-1.25,1.25-2.92,2.89-.75s6.25,6.22,7.74,7.61S47.45,152,47.7,152.92s2.07,2.89,7.92,6.64,15.45,12.22,15.45,12.22.67-1.88,1.76-4.9L74,163.57c4.52-12.36,13-34.73,16.24-38.57,4.56-5.37,31.27-11.58,33.47-12.36s2.31-5.5,2.85-6.89c.39-1,.87-1.08,1.1-1l.11,0h0l.81-14.91s-1.19,2.35-5.16-1.16-1.93-8.67,1.08-8.75,4-.69,9.4-4.08,12.29-10.94,12.29-10.94,2.39,2.39,2.85,4.27c.86,3.74.87,18.44-1.46,25.31-2.3,6.23-4.6,5.42-5.19,5.22l-.13,0-.19,6-.12,4,2.89-.08s13.33-1.46,15.41.38c3.74,3.55,3.13,7.67,3.43,9.91s6.12,36.32,6.12,36.32h0c.16-.11,1.52-1.09,6.68-4.35,5.51-3.48,7-5.54,8.72-8.68s1.18-4.27,5-5.86c2.3-.7,2.11-5.83,2.95-6.52s1.41,0,3.23,2.74a7.84,7.84,0,0,1,.79,4.09c0,.43-.07.83-.12,1.22a26.9,26.9,0,0,1-1.21,5.3v0a36.53,36.53,0,0,1-4.53,9.57c-.1.14-.17.25-.22.31a.18.18,0,0,0-.05.07l0,0-.37,1.81Z"/><path class="cls-7" d="M142.32,99.66,142,109.72s-.83-8.86-.92-8.86-5,1.4-7.78-4.7a14.74,14.74,0,0,1-1.18-4.25C135.38,95.46,139.2,98.48,142.32,99.66Z"/><path class="cls-10" d="M171.82,166.31c-1.81-6.95-1.85-7.79-2.54-10.44"/><path class="cls-7" d="M148.1,404.47s.27,5.09.51,10.84c-8.32.87-17.9-2.37-21.05-3.55-.07-1.29-.13-2.07-.13-2.07a9.46,9.46,0,0,1-1.08-.27c.78-8.59,21.74-9,21.74-9s1.08.69,2.49,1.77Z"/><path class="cls-5" d="M169.86,156.25c-1.53,1.62-13.4,8.46-13.62,8.46l-3.05,24.53,0,0s-.08,1.1-.19,2.92q0,.57-.06,1.23l-14.82,5.25s-10.95-10.33-25.57-14.93c1.13-1.46,2.07-2.62,2.62-3.29.33-.41.52-.63.52-.63l-.06-.12-7.72-15.29a.11.11,0,0,0,0,0l-2.11,3.51-8,13.24-.21.36C82.26,180.81,76,168.72,74,163.57c4.52-12.36,13-34.73,16.24-38.57,2.43-2.86,11.14-6,19.08-8.34l.49-.15,1.16-.34c6.3-1.85,11.79-3.19,12.74-3.53,2.2-.77,2.31-5.5,2.85-6.89,0-.1.07-.18.11-.26s.07-.14.11-.2c.28-.48.58-.59.77-.59h.11l.11,0h0l.07,0c1.8.49,14.23.93,14.23.93l-.09,3,0,.52v.5h.08l.7,0,1.89,0h.22s13.33-1.46,15.41.38c3.77,3.13,3.13,7.67,3.43,9.91S169.86,156.25,169.86,156.25Z"/><path class="cls-7" d="M137.94,88.63a6.39,6.39,0,0,0,5.47,3.52c.93,0,2.92-2,2.92-3.18a1.37,1.37,0,0,0-1.76-1.48,2.3,2.3,0,0,0-1.14,1.09,1,1,0,0,0-1.11-1.16c-1.21,0-1.76,1.69-2.56,1.69A5.28,5.28,0,0,1,137.94,88.63Z"/><path class="cls-3" d="M146.23,317s.07,12.16.67,26.68c.67,16.23,3.86,58.37,3.86,58.37l-2.66,2.45s-6,6.56-20.67,5.22a9.09,9.09,0,0,1-3.34-1.31s-14.17-51.34-15.79-68,.84-63.49,2.18-70.87-8.73-60.28-8.87-66.56,14.06-23.18,14.06-23.18c.36.19,13.27,12.37,37.31,12.37-.34,5.93-.88,19.47.68,26.67,2.05,9.4,6.22,64.49,5,75.85-1,9.46-9,18.64-11.58,21.44C146.54,316.66,146.23,317,146.23,317Z"/><path class="cls-5" d="M146.68,227.08c-.09,7.36-.32,41.52-.11,47.77,0,12,.6,34,.5,41.25-.53.56-.84.87-.84.87s-.55-27.67-.55-41.27c-.21-6.26-.09-41.27,0-48.64a3.47,3.47,0,0,1,.62-1.94l4.08-6a.5.5,0,0,1,.7-.13.51.51,0,0,1,.13.69l-4.09,6A2.52,2.52,0,0,0,146.68,227.08Z"/><path class="cls-5" d="M151,199.38a.49.49,0,0,1-.46.3.65.65,0,0,1-.19,0c-23.85-10.4-35-19-35.09-19.09a.37.37,0,0,1-.13-.15c.33-.41.52-.63.52-.63l-.06-.12a.52.52,0,0,1,.28.11c.11.08,11.16,8.62,34.87,19A.49.49,0,0,1,151,199.38Z"/><path class="cls-3" d="M112.34,362l-.2.15-.68.47c-7.29,5.17-18.58,15.47-20.14,20.14-15.2-9.54-17.88-26.73-17.88-26.73s2-.8,7-4.76c7.72-5.89,10.2-12.2,16.07-20A129.06,129.06,0,0,1,107,319.32c.34-.35.66-.66,1-1,2.34-2.28,3.72-3.38,3.72-3.38S119.24,356.39,112.34,362Z"/><path class="cls-5" d="M112.34,362l-.2.15-.68.47A185.07,185.07,0,0,1,107.21,331a3,3,0,0,1,.9-2.27h0A193.08,193.08,0,0,0,112.34,362Z"/><path class="cls-2" d="M107.89,164.36a.11.11,0,0,0,0,0l-2.11,3.51-1.38-12.29Z"/><path class="cls-2" d="M129.58,163.68s1.5,1.72,10.16-7c.7,4.65-2.94,9.39-6.47,9.87C128.89,166.83,129.58,163.68,129.58,163.68Z"/><path class="cls-2" d="M156.24,164.71l.56-8.46s6.1-5.74,6.29-9.52c.07.94,1,.08.92,1.22-.7,4.21-4,10.53-4,14.65C160,167.72,156.12,166.62,156.24,164.71Z"/><path class="cls-7" d="M183.73,171.87c-9.85,7.44-22,16.82-24.18,18a5.55,5.55,0,0,1-6.36-.63l0,0s2.07-17.82,3.07-24.51a147.37,147.37,0,0,0,13.62-8.46c-2.26,3.37-4.83,5.57-8,13,3.42,11.52,0,17,0,17Z"/><path class="cls-2" d="M351.58,186.52c-3.66,2.09-6,3.39-6,3.39l-1.7.45L341.32,172l2.1-2.92A21.37,21.37,0,0,1,351.58,186.52Z"/><path class="cls-11" d="M152.44,130.05c3.74,3.79,11.94,10.34,11.08,17.78"/><path class="cls-7" d="M75.44,182.49a15.63,15.63,0,0,0-4.37-10.71l2.52-7C74.31,167.25,76.09,178.42,75.44,182.49Z"/><path class="cls-7" d="M34.6,133.85s-.17,3.39,1.56,5.12a3.52,3.52,0,0,1,.45,4.76c-.8,1-2.11,4.12-1,9.1.23-5.37.41-5.7,2.15-9.19.75-1.52.51-2.78-.67-4.31S34.51,136.94,34.6,133.85Z"/><path class="cls-2" d="M127.71,104.71h-.12c-.25,0-.57.13-.88.79,0,.08-.07.16-.11.26l15.42,4,2.92-.31Z"/><path class="cls-2" d="M122.59,137.25s-6.53-.63-11-10.09c-3.19-7.63.49-11.31.49-11.31l-1.54.44s-3.37,3.49-.54,12.29,8.88,13,13.17,13,11.35-22.53,12.37-26c2.34,3.82,7.82,12.46,12.67,12.46s4.43-14.36-3.31-18.56l-2.93.31a9.84,9.84,0,0,1,6.24,5.36c2.23,4.53,2.09,9.1-.86,9.1s-12.09-12.54-12.09-12.54S128.43,138.22,122.59,137.25Z"/><path class="cls-2" d="M142.13,105.7l-.09,3,0,.52-14.49-4,.37-.42C129.7,105.26,142.13,105.7,142.13,105.7Z"/><path class="cls-2" d="M324.08,193.33l-24.92,4c-.09-.26-.17-.49-.25-.69a5.07,5.07,0,0,0-1.52-1.85c4-.5,25.66-3.11,25.66-3.11Z"/><path class="cls-2" d="M358.62,151.83l.45,1-16.88,18.57a.49.49,0,0,1-.37.16.5.5,0,0,1-.37-.84Z"/><path class="cls-2" d="M360.63,151.08a.21.21,0,0,1,0,.06l-.38.41Z"/><path class="cls-7" d="M125,81.18a22.56,22.56,0,0,0,1.91,3c1,1.22,1,1.26,1,1.9,0,.31-.43.77-2.52-1.31S124.21,80,125,81.18Z"/><path class="cls-7" d="M18.27,136.35s7.25,10.33,7.94,9.29a2,2,0,0,0,.45-1.67S19.91,137.36,18.27,136.35Z"/><path class="cls-3" d="M75.32,403.83l1.74,1.84,28.29,2c.56,0,.46-2.06,0-2.08L75.4,403.65A.11.11,0,0,0,75.32,403.83Z"/><path class="cls-3" d="M68.69,378.2l-.55,26.87h-2s-1.77-32.6-1.77-39.2a7.3,7.3,0,0,1,.86-3.41C66,365.85,68.67,377.42,68.69,378.2Z"/><path class="cls-2" d="M149,428.67a18.29,18.29,0,0,1-.58,4.79c-2.2,7.63-8.86,18.54-12.42,24.23-7.62,2.46-18.55.91-24.21-.43a11.11,11.11,0,0,1-2.86-.9c0-5.53,2.59-9,5.81-10.7s8.32-8.6,10.7-14.13a28,28,0,0,0,2.35-9.94,4.14,4.14,0,0,1,1.28-2.8c3.76-3.58,10.55-4.82,15.36,3.33,1.27,2.08,3,3,4.42-.24C149,424.53,149,427,149,428.67Z"/><path class="cls-11" d="M155.38,128a10.73,10.73,0,0,1-1.28,3.71"/><path class="cls-7" d="M200.28,161.88a5.2,5.2,0,0,0-1.65.16l-8-4.48-1.72,1.6,1.36-9.47c2.7-1.55,6.06-7.17,6.89-10.81a26.9,26.9,0,0,1-1.21,5.3v0a36.53,36.53,0,0,1-4.53,9.57c-.1.14-.17.25-.22.31a.23.23,0,0,0-.05.07l0,0-.37,1.81Z"/><path class="cls-6" d="M335.07,65.36c-1.46,4.51-4.88,3.38-4.88,3.38V84.19c0,2.72-12.13,10.82-12.13,10.82V83.58h0a6.49,6.49,0,0,1-6.08-3.11c-2.29-3.66-2.14-23-2.14-23a50.37,50.37,0,0,0,10.34-5.15c0,4.21,7.77,12.29,7.77,12.29a37,37,0,0,1,3.72-5.19C333,58.1,336.53,60.85,335.07,65.36Z"/><path class="cls-6" d="M347.11,187.35c-.25,3.26-12.51,11-15.25,12.54-2.24,1.24-3.58.33-4.57-1.09-.12-.18-.25-.36-.36-.55s-.18-.3-.26-.45a3.29,3.29,0,0,1-2.21-1.57l-.18-.22-.23-.3-.15-.2-.33-.44h0c-.94-.32-1.79-.8-2.68-2.69h0c-.15-.31-.3-.65-.45-1s-.2-.52-.3-.81a13.76,13.76,0,0,1-1.86-1,5.15,5.15,0,0,1-.56-.43c-1.3-1.15-1.69-2.93-1.09-5.16-4.18,1.13-6.36-3.49-4.11-5.62s8.18-10.27,12.9-13,8.53,1,10.86,2.93a16.87,16.87,0,0,0,5.56,2.87C344.21,172,347.36,184.08,347.11,187.35Z"/><path class="cls-7" d="M328,76.79s-1.17,8.84-10,11.81v-5S323.22,83.46,328,76.79Z"/><path class="cls-7" d="M316.62,183.88s0-1.27,3.08-3.54,7.73-5.32,8.05-6.52a4.89,4.89,0,0,1,1.19-2.56s-6,3.29-9.26,6.42C317.11,180,316.15,181.48,316.62,183.88Z"/><path class="cls-7" d="M332,195.13c-.14.2-.93,2.89-5.1,3.12-.09-.15-.18-.3-.26-.45A13.7,13.7,0,0,0,332,195.13Z"/><path class="cls-7" d="M326.86,186.75c-.69,1.15-4.14,3.69-6.74,3.76a13.76,13.76,0,0,1-1.86-1,7.4,7.4,0,0,0,4.81-.55A15.21,15.21,0,0,0,326.86,186.75Z"/><path class="cls-7" d="M330.19,192.12a11.69,11.69,0,0,1-6.14,3.59l-.15-.2-.33-.44A15.52,15.52,0,0,0,330.19,192.12Z"/><path class="cls-3" d="M301.68,217.56l4.77,5.67-7.87,130.45V322.39s-11.05-2.61-8.34-39.38a24.86,24.86,0,0,0-3.38,6.55c-.39-4.76,2.25-11.07,5.82-17.56s10-16.29,12.07-48C304.91,222.31,301.68,217.56,301.68,217.56Z"/><line class="cls-12" x1="324.25" y1="205.15" x2="346.53" y2="219.95"/><line class="cls-10" x1="333.03" y1="62.24" x2="329.81" y2="65.97"/><path class="cls-7" d="M314.29,73.66s3.62,3.5,7.06-1.89c0,2.77-1.69,4.67-4,4.67C314.65,76.44,314.29,73.66,314.29,73.66Z"/><path class="cls-2" d="M285.8,129.17,285.46,162a95,95,0,0,1-8.77,4.19c0-3.11.07-7.72-.06-12a14.15,14.15,0,0,1,6.53-12.35C284.45,141.25,285.8,129.17,285.8,129.17Z"/><path class="cls-2" d="M262.83,135.71s2.57,2.75,2.57,9.5a6,6,0,0,0,1.53,1.34S268.48,139.29,262.83,135.71Z"/><path class="cls-2" d="M318.23,97.53l-6.43,5.77a6.69,6.69,0,0,0,1.7,3.88c-1.47,6.21-16.12,58.89-16.12,58.89l.17,7,5.5-5.37,13.37-59.88a4.93,4.93,0,0,0,2.54-4C319,102.79,318.23,97.53,318.23,97.53Z"/><path class="cls-2" d="M364.09,147.64c-1.34-1.91-3.34-4.57-3.34-4.57l-3.49,5.85-3.89-8.35s4.64-4,4.14-5.06a18.61,18.61,0,0,0-1.34-2.33s.25-1.55,1.21-.28,7.67,13.91,7.67,13.91,4.41-2.05,7.45-2c-4.88,2-11.38,5.82-13.35,7.92A62,62,0,0,1,364.09,147.64Z"/><path class="cls-2" d="M335.3,95.68c-2.32,5.55-14.84,18.23-15.41,18.8a.5.5,0,0,1-.53.12.53.53,0,0,1-.33-.43l-1.22-15.55L308.09,108a.5.5,0,0,1-.61.07.51.51,0,0,1-.21-.58L311.56,94c.6.2.93.34.93.34l-3.67,11.52,9.06-8.71a.49.49,0,0,1,.84.32l1.22,15.5c4.24-4.34,12.85-13.69,14.46-17.74,0,.1,0,.16,0,.16S334.71,95.51,335.3,95.68Z"/><path class="cls-2" d="M257.14,129.18c-9.75,1.49-15.4,13.78-16.47,16.32l-.61-1.11c1.62-3.65,7.05-14.28,16.32-16.08Z"/><path class="cls-2" d="M294.28,153.32a.52.52,0,0,1-.37-.16l-6.64-7.35a.52.52,0,0,1-.12-.45L291.21,128a.48.48,0,0,1,.23-.32.46.46,0,0,1,.38,0l16.73,4.57a.47.47,0,0,1,.3.23.49.49,0,0,1,0,.39l-5,17.37a.5.5,0,0,1-.34.34l-9.13,2.78A.39.39,0,0,1,294.28,153.32Zm-6.09-8,6.25,6.92,8.57-2.61L307.8,133l-15.74-4.3Z"/><path class="cls-2" d="M367.51,177.18l-.86.52c-1.25-2.09-7.63-12.07-17.43-14.44a.5.5,0,1,1,.24-1C359.75,164.78,366.19,174.92,367.51,177.18Z"/><circle class="cls-2" cx="239.66" cy="134.61" r="1.29"/><circle class="cls-2" cx="356.88" cy="178.37" r="1.3"/><circle class="cls-2" cx="324.25" cy="117.08" r="1.4"/><circle class="cls-2" cx="322.85" cy="125.07" r="1.4"/><circle class="cls-2" cx="307.8" cy="182.97" r="1.4"/><path class="cls-8" d="M372.36,174.18h0l0,0Z"/><path class="cls-4" d="M322.71,430.51a.51.51,0,0,1-.46-.71c.12-.25,2.4-5.15,5.57-7.84a63.88,63.88,0,0,1-6.83,1.13c-.56.72-2.67,3.53-3.07,5a.5.5,0,1,1-1-.27c.51-1.86,3.26-5.36,3.38-5.51a.48.48,0,0,1,.36-.19,67.33,67.33,0,0,0,9-1.58c1.93-3,5.5-7.41,7.32-7,.3.07.82.32.93,1.26.15,3.91-2.36,4.8-5.25,5.83-.78.28-1.58.56-2.42.93-3.83,1.66-7.06,8.59-7.09,8.66A.5.5,0,0,1,322.71,430.51Zm14-16c-.84,0-3.29,2.35-5.54,5.61l1.18-.43c2.94-1,4.71-1.67,4.59-4.82,0-.18-.08-.34-.15-.35Z"/><path class="cls-4" d="M334.43,423.86a18.59,18.59,0,0,0-6.35,3.39.55.55,0,0,1-.34.13.54.54,0,0,1-.37-.16.51.51,0,0,1,0-.71,18.43,18.43,0,0,1,5.07-3h0a4.87,4.87,0,0,0,1.34.54A6,6,0,0,1,334.43,423.86Z"/><polygon class="cls-3" points="334.78 362.33 340.51 362.06 336.42 351 334.78 362.33"/><path class="cls-13" d="M116.15,21.79a15.7,15.7,0,0,1-31,3.43,15.48,15.48,0,0,1-.38-3.43,15.7,15.7,0,0,1,31.4-.54C116.15,21.43,116.15,21.61,116.15,21.79Z"/><path class="cls-4" d="M116.15,21.79a15.7,15.7,0,0,1-31,3.43c3.25,1.66,7.22.68,11.68-2.89,9.78-7.5,17.63-6.5,19.34-1.08C116.15,21.43,116.15,21.61,116.15,21.79Z"/><path class="cls-5" d="M227.37,246.48a12.8,12.8,0,1,1,0-.44C227.37,246.18,227.37,246.33,227.37,246.48Z"/><path class="cls-13" d="M227.37,246.48a12.72,12.72,0,0,1-25.14,2.77c2.63,1.35,5.84.55,9.46-2.34,7.92-6.08,14.29-5.26,15.67-.87C227.37,246.18,227.37,246.33,227.37,246.48Z"/><path class="cls-5" d="M196.46,215.94a12.8,12.8,0,1,1,0-.44C196.46,215.65,196.46,215.79,196.46,215.94Z"/><path class="cls-4" d="M196.46,215.94a12.72,12.72,0,0,1-25.14,2.78c2.63,1.34,5.84.55,9.46-2.35,7.92-6.07,14.29-5.26,15.67-.87C196.46,215.65,196.46,215.79,196.46,215.94Z"/><circle class="cls-5" cx="73.44" cy="255.94" r="6.08"/><circle class="cls-5" cx="264.98" cy="6.08" r="6.08"/><circle class="cls-5" cx="86.21" cy="274.85" r="2.25"/><circle class="cls-5" cx="389.49" cy="255.94" r="2.25"/><circle class="cls-5" cx="258.03" cy="206.87" r="2.25"/><circle class="cls-4" cx="209.48" cy="305.19" r="3.65"/><circle class="cls-4" cx="283.49" cy="16.95" r="3.65"/><circle class="cls-4" cx="226.95" cy="306.57" r="3.65"/><path class="cls-3" d="M204,161.78a1.85,1.85,0,0,1-2.85.7L193.67,158l-2.44-1.47-2.88-1.74a2.08,2.08,0,0,1-.71-2.85l4.85-8,6-10,1.06-1.75,1.42-2.36,3.34-5.53a1.85,1.85,0,0,1,2.85-.7L213,127l2.45,1.48,1.82,1.1,2.74,1.65a1.82,1.82,0,0,1,.7,2.85l-2.85,4.73-8.12,13.46-1.43,2.36Z"/><path class="cls-5" d="M203.07,161.61a1.33,1.33,0,0,1-1.45.07l-3.93-2.35-.21-.12-.15-.09h0L195.47,158l-.4-.24,0,0L188.82,154a1.31,1.31,0,0,1-.44-1.8l0-.05.26-.42.94-1.55.51-.86.7-1.16.39-.65L199.41,134l1.5-2.49.91-1.52.17-.27.42-.7,1.82-3,.08-.14.74-1.23a1.31,1.31,0,0,1,1.8-.44l2.42,1.41h0l.12.09,0,0a.41.41,0,0,1,.05.09.6.6,0,0,1,0,.61,1.12,1.12,0,0,0-.18.5,1,1,0,0,0,0,.17,1.15,1.15,0,0,0,0,.19,1.21,1.21,0,0,0,.22.55,1.35,1.35,0,0,0,.4.39l4.77,2.87a1.28,1.28,0,0,0,1.32,0,1.32,1.32,0,0,0,.48-.46.52.52,0,0,1,.17-.19.61.61,0,0,1,.65,0l2.33,1.38a.5.5,0,0,1,.12.08,1.3,1.3,0,0,1,.45,1.45,1.59,1.59,0,0,1-.12.27L219,135.34l-.76,1.27-1,1.65-.41.68-.29.48h0l-.22.37-.77,1.27-.33.54-.54.91-.26.41-.12.21-1.68,2.78h0l-1.19,2h0l-2.9,4.8-3.74,6.2-.08.13h0l-.19.32-1,1.69-.12.19A1.16,1.16,0,0,1,203.07,161.61Z"/><polygon class="cls-14" points="208.31 154.63 193.67 157.97 191.23 156.5 209.74 152.27 208.31 154.63"/><path class="cls-14" d="M217.86,138.81,192,144.72l.51-.84,6-10,18.73-4.27,2.74,1.65c1.44.91,1.3,1.87.7,2.85Z"/><circle class="cls-15" cx="210.82" cy="127.11" r="0.21"/><polygon class="cls-14" points="215.45 128.48 199.6 132.1 201.02 129.74 213 127 215.45 128.48"/><path class="cls-6" d="M203.66,148.76a1.91,1.91,0,0,0,.33,2.13c.66.73,3.79,3.47,5.9,3.6a1.78,1.78,0,0,0,1.51-3.12c-.82-.69-2.89-2.93-5.89-3.39A1.74,1.74,0,0,0,203.66,148.76Z"/><path class="cls-6" d="M203.82,142.61a2.32,2.32,0,0,0,.17,2.5c.52.83,4.41,4.62,6.47,5.1s3-1,2.32-2.42a14.27,14.27,0,0,0-6.55-5.55C205,141.88,204.27,142,203.82,142.61Z"/><path class="cls-6" d="M209.07,138.47a1.83,1.83,0,0,0-.73,2.08c.22,1,2.07,5.07,3.85,6.21A1.9,1.9,0,0,0,215,145a9.87,9.87,0,0,0-3.46-6.27A2,2,0,0,0,209.07,138.47Z"/><path class="cls-5" d="M248.13,68.13a25,25,0,1,1,0-.86C248.13,67.55,248.13,67.84,248.13,68.13Z"/><path class="cls-13" d="M248.13,68.13A24.87,24.87,0,0,1,199,73.55c5.15,2.63,11.43,1.08,18.5-4.58,15.49-11.87,27.93-10.28,30.62-1.7C248.13,67.55,248.13,67.84,248.13,68.13Z"/><path class="cls-15" d="M212.2,69.27c0-.12-1.36-12,8.7-14.75,7.91-1.92,11.17,5.3,11.2,5.37l-1.11.48c-.11-.26-2.89-6.36-9.79-4.68-9,2.5-7.87,13.13-7.81,13.58Z"/><path class="cls-15" d="M233.2,77.75H210.85a5.1,5.1,0,0,1-5.4-5.4c0-4,2.74-6.13,7.68-6.13v1.21c-5.41,0-6.48,2.61-6.48,4.92a3.91,3.91,0,0,0,4.2,4.2H233.2c3.19,0,6.68-1,6.68-6.53a8.1,8.1,0,0,0-1.74-5,6.24,6.24,0,0,0-4.77-1.75,7.08,7.08,0,0,0-6.27,4l-1.1-.49a8.27,8.27,0,0,1,7.37-4.74A7.37,7.37,0,0,1,239,64.21a9.1,9.1,0,0,1,2.05,5.85C241.09,75,238.4,77.75,233.2,77.75Z"/><polygon class="cls-15" points="228.4 67.51 225.1 65.57 225.62 68.47 228.4 67.51"/><polygon class="cls-15" points="232.61 58.25 229.27 60.11 232.03 61.13 232.61 58.25"/></g></g></svg>