<svg xmlns="http://www.w3.org/2000/svg" xmlns:xlink="http://www.w3.org/1999/xlink" viewBox="0 0 193.72 215.47"><defs><style>.cls-1,.cls-6{fill:none;}.cls-2{isolation:isolate;}.cls-3{clip-path:url(#clip-path);}.cls-4{fill:#fff;}.cls-5{fill:#0e2d40;}.cls-6{stroke:#33b5fe;stroke-linecap:round;stroke-linejoin:round;}.cls-7{fill:#33b5fe;}.cls-8{opacity:0.64;mix-blend-mode:multiply;}.cls-9{clip-path:url(#clip-path-3);}.cls-10{fill:#8d8d8e;}</style><clipPath id="clip-path" transform="translate(0 0)"><rect class="cls-1" width="193.72" height="215.48"/></clipPath><clipPath id="clip-path-3" transform="translate(0 0)"><rect class="cls-1" x="44.97" y="59.21" width="130.88" height="118.1"/></clipPath></defs><title>Ресурс 1</title><g class="cls-2"><g id="Слой_2" data-name="Слой 2"><g id="Слой_1-2" data-name="Слой 1"><g class="cls-3"><g class="cls-3"><path class="cls-4" d="M147.73,63l27.65,51.31,11.81,21.93a7.07,7.07,0,0,1-2.85,9.6L86.72,198.9c-.6,5.58,1,9.56-12.8,16.07,2.46-4.2-1.52-11.92-3.39-15.36L32.7,129.4l-1.63-3a7.07,7.07,0,0,1,2.86-9.59l11.29-6.1L92.78,84.92l45.35-24.8a7.07,7.07,0,0,1,9.6,2.84" transform="translate(0 0)"/><path class="cls-5" d="M122.91,122.81l-20.65.43a1.61,1.61,0,0,0-1.57,1.53l-.56,13.9,27.43,8.58,4.6-2.6.91-2.85Z" transform="translate(0 0)"/><path class="cls-6" d="M147.73,63l27.65,51.31,11.81,21.93a7.07,7.07,0,0,1-2.85,9.6L86.72,198.9c-.6,5.58-1.41,13.57-12.8,16.07,2.46-4.2-1.52-11.92-3.39-15.36L32.7,129.4l-1.63-3a7.07,7.07,0,0,1,2.86-9.59l11.29-6.1L92.78,84.92l45.35-24.8A7.07,7.07,0,0,1,147.73,63Z" transform="translate(0 0)"/><path class="cls-6" d="M131.54,145.09,79,173.63a3.06,3.06,0,0,1-4.14-1.23L53,132.16A3,3,0,0,1,54.23,128l52.54-28.53a3,3,0,0,1,4.14,1.23L132.77,141A3,3,0,0,1,131.54,145.09Z" transform="translate(0 0)"/><path class="cls-6" d="M108.12,111.46a4.94,4.94,0,1,1-6.71-2A4.92,4.92,0,0,1,108.12,111.46Z" transform="translate(0 0)"/><path class="cls-7" d="M127.56,147.25l-51.15-16A4.13,4.13,0,0,0,71.23,134L65.09,154.4l9.77,18,3.4,2Z" transform="translate(0 0)"/><path class="cls-6" d="M172.11,139.32,85.36,186.43a2.53,2.53,0,0,1-3.43-1l-.07-.12a2.53,2.53,0,0,1,1-3.43l86.75-47.11a2.53,2.53,0,0,1,3.43,1l.06.12A2.52,2.52,0,0,1,172.11,139.32Z" transform="translate(0 0)"/><rect class="cls-6" x="114.17" y="87.21" width="31.74" height="5.19" transform="translate(-27.1 72.94) rotate(-28.5)"/><path class="cls-6" d="M156.05,109.75l-23.44,12.73a2.54,2.54,0,0,1-3.44-1l-.06-.12a2.53,2.53,0,0,1,1-3.43l23.44-12.73a2.52,2.52,0,0,1,3.43,1l.07.11A2.53,2.53,0,0,1,156.05,109.75Z" transform="translate(0 0)"/><path class="cls-6" d="M160.69,118.29,137.24,131a2.53,2.53,0,0,1-3.43-1l-.06-.12a2.53,2.53,0,0,1,1-3.43l23.44-12.73a2.53,2.53,0,0,1,3.43,1l.06.11A2.52,2.52,0,0,1,160.69,118.29Z" transform="translate(0 0)"/><path class="cls-6" d="M155,132.92l-13.38,7.26a2.53,2.53,0,0,1-3.43-1l-.06-.12a2.53,2.53,0,0,1,1-3.43l13.37-7.26a2.53,2.53,0,0,1,3.43,1l.07.12A2.53,2.53,0,0,1,155,132.92Z" transform="translate(0 0)"/><g class="cls-8"><g class="cls-9"><path class="cls-10" d="M148.21,62.77l27.64,51.31-44.56,24.16-11.2,6.1L89,161.23c-.31,2.83,0,5.24-1.52,7.78s-4.48,5.08-11.28,8.3A6.35,6.35,0,0,0,77,174c0-4.17-2.72-9.35-4.16-12l-7-13-11.33-21L45,110.25,92.53,84.49l45.6-24.37c3.45-1.87,8.22-.79,10.08,2.65" transform="translate(0 0)"/></g></g><path class="cls-4" d="M79.08,156.22c13.75-6.52,12.2-10.49,12.8-16.08l97.63-53.09a7.09,7.09,0,0,0,2.85-9.61L152.9,4.21a7.07,7.07,0,0,0-9.6-2.85L97.94,26.16,39.1,58a7.07,7.07,0,0,0-2.86,9.59l1.63,3L75.7,140.85c1.87,3.45,5.84,11.16,3.38,15.37" transform="translate(0 0)"/><path class="cls-6" d="M79.08,156.22c11.59-3.9,12.2-10.49,12.8-16.08l97.63-53.09a7.09,7.09,0,0,0,2.85-9.61L152.9,4.21a7.07,7.07,0,0,0-9.6-2.85L97.94,26.16,39.1,58a7.07,7.07,0,0,0-2.86,9.59l1.63,3L75.7,140.85C77.57,144.3,81.54,152,79.08,156.22Z" transform="translate(0 0)"/><path class="cls-6" d="M106.39,56.07a5,5,0,1,1-6.71-2A5,5,0,0,1,106.39,56.07Z" transform="translate(0 0)"/><path class="cls-7" d="M70.25,95.65l6.31-21A3.57,3.57,0,0,1,81,72.32L132.73,88.5,84.16,114.87l-2,.31L80,113.65Z" transform="translate(0 0)"/><path class="cls-5" d="M130.39,68.31l-15.74-4.75a3.56,3.56,0,0,0-4.34,2.09l-5.62,14.07,28,8.78L138,85l0-2.81Z" transform="translate(0 0)"/><path class="cls-6" d="M177.27,80.57,90.52,127.68a2.54,2.54,0,0,1-3.43-1l-.06-.12a2.53,2.53,0,0,1,1-3.43L174.8,76a2.54,2.54,0,0,1,3.43,1l.06.12A2.53,2.53,0,0,1,177.27,80.57Z" transform="translate(0 0)"/><path class="cls-6" d="M148.17,27,124.73,39.7a2.54,2.54,0,0,1-3.44-1l-.06-.11a2.53,2.53,0,0,1,1-3.43l23.44-12.73a2.52,2.52,0,0,1,3.43,1l.07.12A2.53,2.53,0,0,1,148.17,27Z" transform="translate(0 0)"/><path class="cls-6" d="M158.4,45.81,135,58.54a2.52,2.52,0,0,1-3.43-1l-.07-.11a2.53,2.53,0,0,1,1-3.43l23.44-12.73a2.52,2.52,0,0,1,3.43,1l.07.12A2.53,2.53,0,0,1,158.4,45.81Z" transform="translate(0 0)"/><path class="cls-6" d="M163,54.35,139.59,67.08a2.53,2.53,0,0,1-3.43-1L136.1,66a2.53,2.53,0,0,1,1-3.43l23.44-12.73a2.53,2.53,0,0,1,3.43,1l.06.12A2.52,2.52,0,0,1,163,54.35Z" transform="translate(0 0)"/><path class="cls-6" d="M159.94,73.72l-12.93,7a2.53,2.53,0,0,1-3.43-1l-.06-.12a2.53,2.53,0,0,1,1-3.43l12.92-7a2.53,2.53,0,0,1,3.43,1l.06.11A2.53,2.53,0,0,1,159.94,73.72Z" transform="translate(0 0)"/><path class="cls-7" d="M5.72,91.81l28-15.23s-11.49,13.78-17,13-11,2.23-11,2.23" transform="translate(0 0)"/><path class="cls-7" d="M14.75,108.45,42.8,93.22s-11.49,13.78-17,13-11,2.22-11,2.22" transform="translate(0 0)"/><path class="cls-7" d="M12.39,186.22l28-15.23s-11.49,13.79-17,13-11,2.22-11,2.22" transform="translate(0 0)"/><path class="cls-7" d="M0,161.28l28.05-15.23s-11.49,13.79-17,13-11,2.22-11,2.22" transform="translate(0 0)"/><path class="cls-7" d="M26.41,209.92l28.05-15.23s-11.49,13.78-17,13-11,2.23-11,2.23" transform="translate(0 0)"/><path class="cls-6" d="M136.71,86.34,84.16,114.87A3,3,0,0,1,80,113.65L58.17,73.41a3.06,3.06,0,0,1,1.23-4.14l52.54-28.54A3.06,3.06,0,0,1,116.08,42L137.93,82.2A3,3,0,0,1,136.71,86.34Z" transform="translate(0 0)"/></g></g></g></g></g></svg>