<svg xmlns="http://www.w3.org/2000/svg" viewBox="0 0 46.12 46.12"><defs><style>.cls-1{fill:#30a3e6;}</style></defs><title>Ресурс 3</title><g id="Слой_2" data-name="Слой 2"><g id="Layer_1" data-name="Layer 1"><path class="cls-1" d="M23.06,46.12a23,23,0,1,1,16.31-6.75c-.36.36-.72.71-1.11,1A23,23,0,0,1,23.06,46.12ZM23.06,1A22.06,22.06,0,1,0,37.61,39.65c.37-.32.71-.64,1.06-1a22.08,22.08,0,0,0,0-31.2A21.88,21.88,0,0,0,23.06,1Z"/><path class="cls-1" d="M37.94,38.28V40a22.58,22.58,0,0,1-29.64.09V38.28A14.79,14.79,0,0,1,23.12,23.46,14.66,14.66,0,0,1,33.59,27.8,14.77,14.77,0,0,1,37.94,38.28Z"/><circle class="cls-1" cx="23.12" cy="17.44" r="7.93"/></g></g></svg>