<svg xmlns="http://www.w3.org/2000/svg" xmlns:xlink="http://www.w3.org/1999/xlink" viewBox="0 0 760.3 436.98"><defs><style>.cls-1,.cls-14,.cls-15,.cls-20,.cls-24,.cls-35,.cls-36,.cls-37,.cls-4,.cls-9{fill:none;}.cls-2{clip-path:url(#clip-path);}.cls-3{clip-path:url(#clip-path-2);}.cls-15,.cls-4{stroke:#54b0e3;}.cls-15,.cls-24,.cls-36,.cls-4{stroke-miterlimit:10;}.cls-5{fill:#54b0e3;}.cls-6{fill:#33b5fe;}.cls-7{fill:#195a81;}.cls-8{fill:#0e2d40;}.cls-9{stroke:#f78c1e;}.cls-14,.cls-15,.cls-35,.cls-36,.cls-37,.cls-9{stroke-linecap:round;}.cls-14,.cls-20,.cls-35,.cls-37,.cls-9{stroke-linejoin:round;}.cls-10,.cls-21{fill:#fff;}.cls-11{fill:#f78c1e;}.cls-12{fill:#fcb715;}.cls-13{fill:#f36e21;}.cls-14,.cls-20,.cls-36,.cls-37{stroke:#0e2d40;}.cls-16{opacity:0.45;}.cls-17{clip-path:url(#clip-path-3);}.cls-18{clip-path:url(#clip-path-4);}.cls-19{clip-path:url(#clip-path-5);}.cls-21{font-size:10.02px;font-family:Montserrat-Bold, Montserrat;font-weight:700;}.cls-22{fill:#2888bf;}.cls-23{fill:#fbbfa8;}.cls-24{stroke:#f36e21;}.cls-25{fill:#e7988f;}.cls-26{fill:#3da1da;}.cls-27{opacity:0.2;}.cls-28{clip-path:url(#clip-path-7);}.cls-29{clip-path:url(#clip-path-8);}.cls-30{fill:#1a5b82;}.cls-31{clip-path:url(#clip-path-9);}.cls-32{clip-path:url(#clip-path-10);}.cls-33{clip-path:url(#clip-path-11);}.cls-34{clip-path:url(#clip-path-12);}.cls-35{stroke:#fff;}.cls-37{stroke-width:2px;}</style><clipPath id="clip-path"><rect class="cls-1" width="760.3" height="436.98"/></clipPath><clipPath id="clip-path-2"><rect class="cls-1" width="760.3" height="436.98"/></clipPath><clipPath id="clip-path-3"><rect class="cls-1" x="199.19" y="140.3" width="295.33" height="210.2"/></clipPath><clipPath id="clip-path-4"><rect class="cls-1" x="155.57" y="140.3" width="223.14" height="210.2"/></clipPath><clipPath id="clip-path-5"><rect class="cls-1" x="332.22" y="140.3" width="226.02" height="210.2"/></clipPath><clipPath id="clip-path-7"><rect class="cls-1" x="446.25" y="180.41" width="85.88" height="85.88"/></clipPath><clipPath id="clip-path-8"><rect class="cls-1" x="447.01" y="181.01" width="84.49" height="84.49"/></clipPath><clipPath id="clip-path-9"><rect class="cls-1" x="427.11" y="200.07" width="26.83" height="23.08"/></clipPath><clipPath id="clip-path-10"><rect class="cls-1" x="524.68" y="200.28" width="26.74" height="23.11"/></clipPath><clipPath id="clip-path-11"><rect class="cls-1" x="438.2" y="177.33" width="102.42" height="10.97"/></clipPath><clipPath id="clip-path-12"><rect class="cls-1" x="450.92" y="171.04" width="77.11" height="3.67"/></clipPath></defs><title>Ресурс 1</title><g id="Слой_2" data-name="Слой 2"><g id="Слой_1-2" data-name="Слой 1"><g class="cls-2"><g class="cls-3"><path class="cls-4" d="M.46,299.09s3.38,8.36,14.87,3.25S192.67,88.81,215.07,66.76C240,42.24,252.28,39.89,260.49,48.14c8.68,8.72,8.45,34.28,27.14,28.83"/><path class="cls-4" d="M3.74,363.82S10,376,29,368.1c25.37-10.53,103.3-88.83,132.52-121"/><path class="cls-4" d="M350.5,150S450.11,53.18,458.2,43.85,505.68-.75,533.48.53,581,26,593.48,55c11.55,26.78,33.95,83.15,86.16,76.37,48.24-6.26,59.72-37.63,67.39-57.25"/><path class="cls-4" d="M501.81,158.5s44.07-40.7,60.33-45.42,25.31-4.39,38.83,13c13,16.77,47.33,49.75,86.55,42.34,36.79-7,62.19-38,62.19-38"/><path class="cls-5" d="M468.44,20.43a2.58,2.58,0,1,1-2.58-2.57,2.58,2.58,0,0,1,2.58,2.57"/><path class="cls-5" d="M59.37,334.56A2.58,2.58,0,1,1,56.79,332a2.58,2.58,0,0,1,2.58,2.57"/><path class="cls-5" d="M575.76,65.15a2.57,2.57,0,1,1-2.57-2.57,2.57,2.57,0,0,1,2.57,2.57"/><path class="cls-5" d="M700.64,230.33a2.57,2.57,0,1,1-2.57-2.57,2.57,2.57,0,0,1,2.57,2.57"/><path class="cls-4" d="M759.83,187.05s-7.27-21.27-45.36,6.51C687.5,213.24,603.53,292,544.17,347"/><line class="cls-4" x1="236.9" y1="426.44" x2="301.78" y2="361.57"/><line class="cls-4" x1="298.9" y1="426.44" x2="363.77" y2="361.57"/><path class="cls-6" d="M269.53,126.23l9.17-2.63a52.43,52.43,0,0,0-.42-12.67l-9.32-2a41.73,41.73,0,0,0-1.65-5.41l6.61-6.84a53.37,53.37,0,0,0-6.7-10.76l-9.07,2.92A44.26,44.26,0,0,0,254,85l2.3-9.24a52.57,52.57,0,0,0-11.19-6l-6.38,7.07c-1.33-.4-2.68-.74-4.07-1l-1.43-.25-2.63-9.16a52.43,52.43,0,0,0-12.67.41l-2,9.33a42.21,42.21,0,0,0-5.41,1.65l-6.84-6.62A53.14,53.14,0,0,0,193,77.9L195.88,87A43.14,43.14,0,0,0,192,91.09l-9.24-2.31a52.37,52.37,0,0,0-6,11.2l7.06,6.38c-.4,1.33-.74,2.68-1,4.07-.1.48-.17.95-.25,1.43l-9.16,2.63a52.88,52.88,0,0,0,.41,12.66l9.33,2a43.83,43.83,0,0,0,1.64,5.41l-6.61,6.85a53.42,53.42,0,0,0,6.71,10.76l9.07-2.93a43.06,43.06,0,0,0,4.12,3.87l-2.31,9.23a52.41,52.41,0,0,0,11.2,6l6.38-7.06c1.33.39,2.68.74,4.07,1,.47.09.95.17,1.43.24l2.62,9.17a52.42,52.42,0,0,0,12.67-.41l2-9.33a43.2,43.2,0,0,0,5.4-1.65l6.85,6.61a53.25,53.25,0,0,0,10.76-6.71l-2.93-9.06a45.75,45.75,0,0,0,3.87-4.12l9.23,2.3a52.33,52.33,0,0,0,6-11.19l-7.06-6.38c.39-1.33.74-2.68,1-4.07.09-.48.17-1,.24-1.43m-8.4-.2a35.75,35.75,0,1,1-28.07-42A35.73,35.73,0,0,1,261.13,126"/><path class="cls-7" d="M551.72,379.44H159.29a8.43,8.43,0,0,1-8.43-8.43V148.73a8.44,8.44,0,0,1,8.43-8.43H551.72a8.44,8.44,0,0,1,8.43,8.43V371a8.43,8.43,0,0,1-8.43,8.43"/><path class="cls-7" d="M552.39,140.3H158.62a7.76,7.76,0,0,0-7.76,7.76V350.5H560.15V148.06a7.77,7.77,0,0,0-7.76-7.76"/><polygon class="cls-8" points="378.71 140.3 168.51 350.5 150.86 350.5 150.86 349.69 360.23 140.3 378.71 140.3"/><polygon class="cls-8" points="494.52 140.3 284.31 350.5 199.19 350.5 409.38 140.3 494.52 140.3"/><path class="cls-8" d="M558.24,143,350.7,350.5H332.22l210.2-210.2h10a7.76,7.76,0,0,1,5.85,2.66"/><path class="cls-8" d="M560.14,148.06v5.34c-.12-2.25-.81-6.11-4-7-4.61-1.2-5.62,4-11.87,4.9-9,1.29-8.1-1.4-24.75-4.29-8.47-1.48-68.93-2.83-92.5,8.78,0,0-5.17-10-26.52-11s-47.63,3.25-58,3.81c-8.75.47-55,2.84-66.43,3.49-13.32.76-21.38,1.32-30.27-3.55-5-2.76-11.77-5.75-24.75.06s-70.15.06-70.15.06v-.67a7.76,7.76,0,0,1,7.75-7.76H552.39a7.76,7.76,0,0,1,7.75,7.76"/><rect class="cls-6" x="164.64" y="154.71" width="381.73" height="181.93"/><polyline class="cls-9" points="573.93 152.41 576.43 152.16 576.66 154.38"/><path class="cls-10" d="M529.11,326.61H350.19a7.85,7.85,0,0,1-7.85-7.85V188.38a7.86,7.86,0,0,1,7.85-7.85H529.11a7.85,7.85,0,0,1,7.85,7.85V318.76a7.84,7.84,0,0,1-7.85,7.85"/><path class="cls-7" d="M517,291.36H362.25a5.56,5.56,0,0,1-5.57-5.56V200.43a5.57,5.57,0,0,1,5.57-5.57H517a5.56,5.56,0,0,1,5.56,5.57V285.8a5.56,5.56,0,0,1-5.56,5.56"/><path class="cls-6" d="M362.1,194.86H378v16.9H356.68V200.27a5.42,5.42,0,0,1,5.42-5.41"/><rect class="cls-6" x="379.04" y="194.86" width="29.09" height="16.89"/><rect class="cls-6" x="409.17" y="194.86" width="29.11" height="16.89"/><rect class="cls-6" x="439.33" y="194.86" width="29.11" height="16.89"/><rect class="cls-6" x="469.48" y="194.86" width="29.11" height="16.89"/><path class="cls-6" d="M522.51,200.27v11.49H499.63v-16.9h17.48a5.41,5.41,0,0,1,5.4,5.41"/><rect class="cls-6" x="356.68" y="212.8" width="21.31" height="29.11"/><rect class="cls-6" x="379.04" y="212.8" width="29.09" height="29.11"/><rect class="cls-6" x="409.17" y="212.8" width="29.11" height="29.11"/><rect class="cls-6" x="439.33" y="212.8" width="29.11" height="29.11"/><rect class="cls-6" x="469.48" y="212.8" width="29.11" height="29.11"/><rect class="cls-6" x="499.63" y="212.8" width="22.88" height="29.11"/><rect class="cls-6" x="356.68" y="242.95" width="21.31" height="29.11"/><rect class="cls-6" x="379.04" y="242.95" width="29.09" height="29.11"/><rect class="cls-6" x="409.17" y="242.95" width="29.11" height="29.11"/><rect class="cls-6" x="439.33" y="242.95" width="29.11" height="29.11"/><rect class="cls-6" x="469.48" y="242.95" width="29.11" height="29.11"/><rect class="cls-6" x="499.63" y="242.95" width="22.88" height="29.11"/><path class="cls-6" d="M356.68,273.11H378v18.25H362.1a5.41,5.41,0,0,1-5.42-5.4Z"/><rect class="cls-6" x="379.04" y="273.11" width="29.09" height="18.26"/><rect class="cls-6" x="409.17" y="273.11" width="29.11" height="18.26"/><rect class="cls-6" x="439.33" y="273.11" width="29.11" height="18.26"/><rect class="cls-6" x="469.48" y="273.11" width="29.11" height="18.26"/><path class="cls-6" d="M522.51,273.11V286a5.4,5.4,0,0,1-5.4,5.4H499.63V273.11Z"/><path class="cls-6" d="M520.76,301.51H358.54a1.8,1.8,0,0,1,0-3.6H520.76a1.8,1.8,0,0,1,0,3.6"/><path class="cls-6" d="M520.76,307.65H358.54a1.8,1.8,0,0,1,0-3.6H520.76a1.8,1.8,0,0,1,0,3.6"/><path class="cls-6" d="M454.84,313.79h-96.3a1.8,1.8,0,1,1,0-3.6h96.3a1.8,1.8,0,1,1,0,3.6"/><polyline class="cls-9" points="484.17 220.16 484.17 214.82 486.39 216.84"/><polyline class="cls-9" points="484.17 220.16 484.17 214.82 481.94 216.84"/><line class="cls-9" x1="484.17" y1="222.72" x2="484.17" y2="225.11"/><polyline class="cls-9" points="516.67 202.78 516.67 197.44 518.89 199.46"/><polyline class="cls-9" points="516.67 202.78 516.67 197.44 514.45 199.46"/><path class="cls-9" d="M364.05,270.6s10.84,21.58,26.41-4.7C407,235.55,416.31,250.53,421,257c25.84,39.52,65.95-31.75,74-40.16,0,0,8.16-11.22,21.16-10.44,11.56.37,14.53-2.36,23.55-11.81s36.67-42.46,36.67-42.46"/><path class="cls-11" d="M486.33,231.51a2.17,2.17,0,1,1-2.16-2.17,2.16,2.16,0,0,1,2.16,2.17"/><path class="cls-11" d="M516.92,208.18a2.16,2.16,0,1,1,1.9-2.39,2.16,2.16,0,0,1-1.9,2.39"/><path class="cls-11" d="M438,270.84a2.16,2.16,0,1,1,1.9-2.4,2.16,2.16,0,0,1-1.9,2.4"/><path class="cls-11" d="M408.82,249.79a2.16,2.16,0,1,1,1.9-2.4,2.18,2.18,0,0,1-1.9,2.4"/><path class="cls-11" d="M374.39,280.84a2.16,2.16,0,1,1,1.9-2.4,2.18,2.18,0,0,1-1.9,2.4"/><polyline class="cls-9" points="374.14 282.93 374.14 288.27 371.92 286.25"/><polyline class="cls-9" points="374.14 282.93 374.14 288.27 376.36 286.25"/><polyline class="cls-9" points="437.72 274.24 437.72 279.58 435.5 277.55"/><polyline class="cls-9" points="437.72 274.24 437.72 279.58 439.94 277.55"/><polyline class="cls-9" points="408.57 237.89 408.57 232.55 410.8 234.57"/><polyline class="cls-9" points="408.57 237.89 408.57 232.55 406.35 234.57"/><line class="cls-9" x1="408.57" y1="240.46" x2="408.57" y2="242.84"/><path class="cls-10" d="M298.48,234.73a44.09,44.09,0,1,0,15.83,33.83,43.94,43.94,0,0,0-15.83-33.83m-15.21,55.88a25.55,25.55,0,0,1-13.08,3.59A25.73,25.73,0,0,1,250.5,285a24.33,24.33,0,0,1-2.54-3.63,25.64,25.64,0,1,1,35.31,9.28"/><path class="cls-11" d="M314.31,268.56a44.16,44.16,0,0,1-24,39.24l-7.08-17.19a25.61,25.61,0,0,0,3.66-41.44l11.55-14.44a44.08,44.08,0,0,1,15.83,33.83"/><path class="cls-12" d="M259.53,291.86l-7,17.12a44,44,0,0,1-14.47-10.23L250.5,285a25.34,25.34,0,0,0,9,6.9"/><path class="cls-13" d="M250.5,285l-12.45,13.79a43.57,43.57,0,0,1-4.11-5.09l14-12.33A23.61,23.61,0,0,0,250.5,285"/><line class="cls-14" x1="232.92" y1="298.59" x2="225.15" y2="305.08"/><line class="cls-14" x1="269.32" y1="207.15" x2="269.37" y2="217.28"/><path class="cls-14" d="M222.77,310.39a3,3,0,1,1-3.22-2.82A3,3,0,0,1,222.77,310.39Z"/><path class="cls-14" d="M272.35,200.26a3,3,0,1,1-3-3A3,3,0,0,1,272.35,200.26Z"/><line class="cls-14" x1="327.48" y1="276.57" x2="317.35" y2="276.62"/><path class="cls-14" d="M334.36,279.6a3,3,0,1,1,3-3A3,3,0,0,1,334.36,279.6Z"/><line class="cls-14" x1="243.24" y1="307.56" x2="236.9" y2="315.46"/><path class="cls-14" d="M235.53,320.13a3,3,0,1,1-3.29-2.73A3,3,0,0,1,235.53,320.13Z"/><path class="cls-8" d="M560,350.5V336.64s-15.75-.34-25.58,8.36c0,0-65.36-15.45-129.6,3.31,0,0-16-9.33-34.46-10.33s-64.57-.34-85.64,8.69c0,0-9.95-5.62-27.44-1.67-16.22,3.67-106.56,3-106.56,3v2.5Z"/><path class="cls-10" d="M299.44,214.79h20.84a6.71,6.71,0,0,0,6.71-6.71V187.24a6.7,6.7,0,0,0-6.71-6.7H299.44a6.7,6.7,0,0,0-6.7,6.7v20.84a6.71,6.71,0,0,0,6.7,6.71"/><path class="cls-10" d="M201.07,210.53c0-.13-1.47-12.88,9.37-15.89,8.53-2.07,12,5.71,12.07,5.79l-1.19.52c-.12-.28-3.12-6.86-10.55-5-9.73,2.7-8.48,14.15-8.42,14.63Z"/><path class="cls-10" d="M223.7,219.67H199.62a5.5,5.5,0,0,1-5.83-5.81c0-4.27,3-6.61,8.28-6.61v1.3c-5.83,0-7,2.81-7,5.31a4.2,4.2,0,0,0,4.53,4.51H223.7c3.43,0,7.2-1.06,7.2-7A8.7,8.7,0,0,0,229,206a6.67,6.67,0,0,0-5.14-1.89,7.65,7.65,0,0,0-6.76,4.34l-1.19-.53a9,9,0,0,1,7.95-5.11,7.94,7.94,0,0,1,6.1,2.31,9.78,9.78,0,0,1,2.21,6.31c0,5.36-2.88,8.28-8.49,8.28"/><polygon class="cls-10" points="218.53 208.64 214.97 206.55 215.53 209.67 218.53 208.64"/><polygon class="cls-10" points="223.06 198.66 219.46 200.67 222.43 201.76 223.06 198.66"/><rect class="cls-10" x="164.64" y="154.71" width="381.73" height="11.07"/><path class="cls-11" d="M532.15,160.24a1.74,1.74,0,1,1-1.74-1.74,1.73,1.73,0,0,1,1.74,1.74"/><path class="cls-12" d="M527.35,160.24a1.74,1.74,0,1,1-1.74-1.74,1.74,1.74,0,0,1,1.74,1.74"/><path class="cls-6" d="M537,160.24a1.74,1.74,0,1,1-1.74-1.74,1.74,1.74,0,0,1,1.74,1.74"/><path class="cls-6" d="M170.36,162h266a1.74,1.74,0,1,0,0-3.48h-266a1.74,1.74,0,0,0,0,3.48"/><circle class="cls-4" cx="442.59" cy="160.05" r="1.19"/><line class="cls-15" x1="443.43" y1="160.89" x2="444.05" y2="161.51"/><g class="cls-16"><g class="cls-17"><polygon class="cls-10" points="494.52 140.3 284.31 350.5 199.19 350.5 409.38 140.3 494.52 140.3"/></g></g><g class="cls-16"><g class="cls-18"><polygon class="cls-10" points="378.71 140.3 168.51 350.5 155.88 350.5 155.74 350.5 155.57 344.98 360.23 140.3 378.71 140.3"/></g></g><g class="cls-16"><g class="cls-19"><path class="cls-10" d="M558.24,143,350.7,350.5H332.22l210.2-210.2h10a7.76,7.76,0,0,1,5.85,2.66"/></g></g><polygon class="cls-8" points="103.43 346.95 109.95 346.95 89.3 415.91 86.59 415.91 103.43 346.95"/><polygon class="cls-8" points="148.22 346.95 141.7 346.95 162.35 415.91 165.06 415.91 148.22 346.95"/><polygon class="cls-8" points="139.32 346.95 145.84 346.95 125.19 415.91 122.48 415.91 139.32 346.95"/><polygon class="cls-8" points="184.11 346.95 177.59 346.95 198.24 415.91 200.95 415.91 184.11 346.95"/><polygon class="cls-8" points="84.67 265.04 127.39 265.04 132.13 300.08 86.57 295.45 78.76 268.41 80.89 265.76 84.67 265.04"/><path class="cls-20" d="M628.64,294.73l1.13-30.09a20,20,0,0,1,39.89-.7l2.24,30.79"/><rect class="cls-11" x="576.66" y="292.93" width="123.38" height="131.63"/><path class="cls-8" d="M630.24,300.45a1.6,1.6,0,1,1-1.6-1.6,1.6,1.6,0,0,1,1.6,1.6"/><path class="cls-8" d="M673.5,300.45a1.6,1.6,0,1,1-1.6-1.6,1.6,1.6,0,0,1,1.6,1.6"/><path class="cls-20" d="M676.77,292.93v-4.4a2.87,2.87,0,0,1,5.74,0v19.26"/><path class="cls-12" d="M692.53,400.63h-20a3.15,3.15,0,0,1-3.15-3.15V310.79a3.15,3.15,0,0,1,3.15-3.14h20a3.14,3.14,0,0,1,3.14,3.14v86.69a3.14,3.14,0,0,1-3.14,3.15"/></g><text class="cls-21" transform="translate(679.31 339.55)">S</text><text class="cls-21" transform="translate(678.67 348.55)">A</text><text class="cls-21" transform="translate(679.48 357.55)">L</text><text class="cls-21" transform="translate(679.15 366.55)">E</text><g class="cls-3"><rect class="cls-6" x="423.73" y="388.04" width="228.02" height="48.94"/><rect class="cls-6" x="481.37" y="424.57" width="228.02" height="12.41"/><path class="cls-7" d="M260.71,390.36l-47.3,17.25s-4.52-4.68-5.65-8.67a6.87,6.87,0,0,1-.25-1.36,60.13,60.13,0,0,0-2.16-10.5l20.7-7.59.13-.05.11.14c.25.29.89,1,1.8,1.89a22.11,22.11,0,0,0,4.94,3.58c3.9,2,6.9.82,16.51-.83s11.17,6.14,11.17,6.14"/><path class="cls-8" d="M226.29,379.58l-.24-.09-20.7,7.59a60.13,60.13,0,0,1,2.16,10.5,6.87,6.87,0,0,0,.25,1.36c.69-1.41,2.36-4,6.19-6.91,4.62-3.56,11.46-8.6,14.14-10.56Z"/><path class="cls-7" d="M130.8,415.91V403c-2.66-2-2.92-7-2.92-7l5.51-9.86,1-1.79c2.35,9.17,5.47,13.83,8.36,16.13l.68.5h0a14.41,14.41,0,0,1,7.54.91,17.8,17.8,0,0,1,4.1,2.23A21.36,21.36,0,0,1,163,415.91Z"/><path class="cls-6" d="M142.75,400.47c-2.89-2.3-6-7-8.36-16.13l.41-.74Z"/><path class="cls-12" d="M215.43,267.32l-32,31.24-20.68,7.31-7.77,3.9-14,.54-2.7-6.89s-11.45-5.6-18.19-8.83l-2.52-1.2c-5.82-2.76-3-13.57-1.43-20.51s3-17,7.91-20.56,32.44-11,32.44-11,.51-6.83.67-8.67,2.65-2,2.65-2c6.55.21,8.28,4,9.73,5.08s1.71,3.6,1.71,3.6h0c.2-.07,1.59-.59,3.57-1.18,4.74-1.42,12.85-3.29,15.7-.47,10.34,10.8,24.88,29.66,24.88,29.66"/><path class="cls-22" d="M230,376.36s-4.56,11.46-22,11.55h0a44.49,44.49,0,0,1-5.13-.28c-4-12.82-13.86-44.48-14.47-46.44l0-.1L151,401.89a14.41,14.41,0,0,0-7.54-.91,7.63,7.63,0,0,1-.69-.51c-2.89-2.3-6-7-8.36-16.13-.15-.57-.29-1.16-.43-1.77,5-9.06,28.56-49.84,28.56-49.84s-1.52,1.2-16.84,1.2L141,310.31l12.63-.49,1.35-.05s21.74-12.19,30.23-13.59c8-1.31,15.74-1.33,19.5,3.95a7.28,7.28,0,0,1,.64,1c3.48,6.27,24.69,75.24,24.69,75.24"/><path class="cls-23" d="M175.35,290a1.71,1.71,0,0,1,.11,2.37,1.88,1.88,0,0,1-.57.47,1.37,1.37,0,0,1-.12,1.79H156.54V281.8s14.23-2.65,15.46-2a2.55,2.55,0,0,1,1.09,2.19,3.25,3.25,0,0,1-.16,1.31,16.87,16.87,0,0,1,2.95,3.38,2.72,2.72,0,0,1,.39,1.68,2.08,2.08,0,0,1-.92,1.59"/><path class="cls-13" d="M125.4,274.75a30.8,30.8,0,0,0,12.11,3.69c7.37.75,16.8,3.77,19,3.36a56.37,56.37,0,0,1-12.68-5.6c-2.11-1.36-7.94-3.68-11-2s-7.5.56-7.5.56"/><path class="cls-13" d="M167.45,242.83l-.17,6a1.21,1.21,0,0,0,1.13.33c.69,2.71,10,42.59,10,42.59l2.84,2.2.73-3.5-11.55-41.71a2,2,0,0,0,.76-1.1c1.33.92,3.07,2.07,3.07,2.07Z"/><polygon class="cls-13" points="156.51 241.35 156.51 242.16 167.76 255.69 167.76 248.99 167.28 248.88 167.15 253.57 156.51 241.35"/><polygon class="cls-13" points="145.84 279.46 142.1 294 142.96 294 146.69 279.63 145.84 279.46"/><path class="cls-13" d="M153.93,291.66a1,1,0,1,1-1-1,1,1,0,0,1,1,1"/><polygon class="cls-13" points="156.55 294.59 155.15 294.59 155.27 281.58 156.55 281.8 156.55 294.59"/><path class="cls-13" d="M194.16,267l-2.5,14.84-2-6.14-.82-18s-4.2-7.06-6.15-7.41a12.39,12.39,0,0,1-5.45-1.77C175,247.16,173,241.8,173,241.8l-.46.15,1.77,7.81-3-10.44h0c.2-.07,1.59-.59,3.57-1.18l.08.15,5.75,3.64,1.41,4.11s5.83,7.32,7.91,10.61S194.16,267,194.16,267"/><polygon class="cls-24" points="185.57 263.47 187.95 273.05 183.28 279.7 176.1 276.12 173.64 266.79 185.57 263.47"/><path class="cls-8" d="M204.7,300.13c-6-4.17-10.58-.25-12.89.67-2.61,1-6,.7-7.28-.28s-2.72-.76-6.47.77-9.35,3.86-16.15,6.68c-6.59,2.74-15.06,5.89-15.58,6.08l7.29-4.23,1.35-.05s21.74-12.19,30.23-13.59c8-1.31,15.74-1.33,19.5,3.95"/><path class="cls-8" d="M208.06,387.91a44.49,44.49,0,0,1-5.13-.28c-4-12.82-13.86-44.48-14.47-46.44l0-.1s3.71-7.45,4.63-10.77-1.25-9.46-6.9-10.87-9.84-.82-14.46,1.9-8.9,10.84-9.17,11.36a39,39,0,0,1,8.24-14c10.66-10.34,20-7.4,23.27-1.26s.17,13.54-.27,17.68,1.47,5.49,3.64,10.33-.54,16-.43,18.76c.08,1.95,3.49,12.14,5.51,18a9.31,9.31,0,0,0,5.57,5.7"/><path class="cls-8" d="M143.44,401l-3.74.91a11.92,11.92,0,0,1-6.19-10.21l-.12-5.55,1-1.79c2.35,9.17,5.47,13.83,8.36,16.13l.68.5Z"/><path class="cls-25" d="M175.46,292.33a1.88,1.88,0,0,1-.57.47,33.68,33.68,0,0,0-4-2.46Z"/><path class="cls-25" d="M176.27,288.37a2.08,2.08,0,0,1-.92,1.59l-3.51-4.47c.21.17,3.67,3.05,4.43,2.88"/><path class="cls-25" d="M172.93,283.31a15.61,15.61,0,0,0-2.62-2c1.45.4,2.3.6,2.78.7a3.25,3.25,0,0,1-.16,1.31"/><path class="cls-14" d="M141.41,400.36s-3.21-7.32.1-8.33S141.41,400.36,141.41,400.36Z"/><path class="cls-14" d="M141.8,400.89s8.16-1.73,8.89-4.66S143.57,395.59,141.8,400.89Z"/><path class="cls-14" d="M232.78,385s-2.4-5-.32-6.57S233.69,383.13,232.78,385Z"/><path class="cls-14" d="M229.83,389.93s.83-3.38,2.5-4.74"/><path class="cls-14" d="M232.2,389.11s0-2.46,1-3.45"/><path class="cls-14" d="M233.25,385.49s1.77-2.94,4.36-3.34S240,386.11,233.25,385.49Z"/><polygon class="cls-13" points="138.29 303.42 161.72 306.14 160.45 306.81 143.53 305.31 143.58 309.27 145.79 310.12 140.99 310.31 142.1 309.65 142 305.28 138.29 303.42"/><path class="cls-13" d="M155.42,293.85l-.27.74H120.1l-2.52-1.2Z"/><path class="cls-8" d="M182.71,296.92H149.15a1,1,0,0,1-1-1v-1.37h34.52Z"/><path class="cls-8" d="M195.66,265h46.57a1.75,1.75,0,0,1,1.64,2.39l-11.52,29.49H182l12-30.77a1.75,1.75,0,0,1,1.64-1.11"/><path class="cls-6" d="M219.3,281.9c-.88,2.1-3,3.24-4.62,2.54s-2.31-3-1.43-5.08,2.95-3.24,4.63-2.54,2.31,3,1.42,5.08"/><path class="cls-25" d="M540,199s-2,4.63-2.12,6.56c-.12,1.78-.54-3.83,1.52-7.47Z"/><path class="cls-8" d="M396.63,105.81H274a6.11,6.11,0,0,1-6.11-6.11V54.25A6.1,6.1,0,0,1,274,48.14H396.63a6.1,6.1,0,0,1,6.11,6.11V99.7a6.11,6.11,0,0,1-6.11,6.11"/><rect class="cls-26" x="72.26" y="415.91" width="399.55" height="21.07"/><rect class="cls-22" x="282.1" y="415.91" width="189.71" height="21.07"/><rect class="cls-22" x="514.48" y="388.04" width="137.26" height="48.94"/><path class="cls-8" d="M414.53,437h-98a.9.9,0,0,1-.9-.91v-4.46a.9.9,0,0,1,.9-.9h98a.9.9,0,0,1,.91.9v4.46a.91.91,0,0,1-.91.91"/><g class="cls-27"><g class="cls-28"><path class="cls-10" d="M532.13,223.44h0a42.55,42.55,0,0,0-4.77-19.81,43,43,0,0,0-7.54-10.37A42.94,42.94,0,0,0,472,184a42.82,42.82,0,0,0-20.87,19.46,42.53,42.53,0,0,0-4.89,19.79h0a42.94,42.94,0,0,0,85.88.19M489,259.63a36.27,36.27,0,0,1-30.27-56.16A36.72,36.72,0,0,1,469.16,193a36.18,36.18,0,0,1,40.09.18,36.4,36.4,0,0,1,10.24,10.41,35.85,35.85,0,0,1,5.86,19.81h0A36.35,36.35,0,0,1,489,259.63"/></g></g><rect class="cls-12" x="480.79" y="276.88" width="16.65" height="15.86" transform="translate(203.19 773.28) rotate(-89.87)"/><g class="cls-16"><g class="cls-29"><path class="cls-10" d="M489.17,265.5a42.22,42.22,0,0,1-35.24-65.38A42.9,42.9,0,0,1,466.08,188a42.24,42.24,0,0,1,65.41,35.39h0a42.29,42.29,0,0,1-42.33,42.14"/></g></g><rect class="cls-30" x="481.72" y="284.84" width="14.72" height="31.31" transform="translate(187.46 788.88) rotate(-89.87)"/><path class="cls-8" d="M502.22,388.12l-26.5-.07a5.64,5.64,0,0,1-5.64-5.66l.16-73.07a1.52,1.52,0,0,1,1.51-1.51l34.8.08a1.51,1.51,0,0,1,1.5,1.51l-.17,73.08a5.65,5.65,0,0,1-5.66,5.64"/><path class="cls-11" d="M497,284.92l0,6.28-15.53-6.28a61.89,61.89,0,0,0,7.63.49,60.92,60.92,0,0,0,7.92-.49"/><path class="cls-10" d="M504,311.92s-.12,54-.13,59.58.58,12.45-5.37,12.43l-12.48,0c9.46,0,3.62-15.48,8.91-29.56a87,87,0,0,1,3.89-8.88c-1.91-3.33-4.67-13.14-.69-19.61s5.85-5,5.87-13.93"/><path class="cls-10" d="M482.91,381.69a2.21,2.21,0,1,1-2.2-2.2,2.2,2.2,0,0,1,2.2,2.2"/><path class="cls-12" d="M545.94,248.78a62.06,62.06,0,0,0-5.31-60.48,63.94,63.94,0,0,0-9.08-10.55c-1.13-1.05-2.31-2.06-3.52-3s-2.66-2-4-3a62,62,0,0,0-68.42-.69c-1.61,1-3.15,2.14-4.65,3.32h0c-1.2.94-2.36,1.92-3.49,3h0a63,63,0,0,0-9.2,10.5,62.11,62.11,0,0,0,43,97,3.06,3.06,0,0,0,.32.05,57.94,57.94,0,0,0,7.62.5,62.19,62.19,0,0,0,56.82-36.63M489.17,265.5a42.22,42.22,0,0,1-35.24-65.38A42.9,42.9,0,0,1,466.08,188a42.24,42.24,0,0,1,65.41,35.39h0a42.29,42.29,0,0,1-42.33,42.14"/><g class="cls-16"><g class="cls-31"><path class="cls-10" d="M453.93,200.12a42.07,42.07,0,0,0-6.92,23l-7.58,0v0l-12.31,0a61.71,61.71,0,0,1,4.47-23Z"/></g></g><g class="cls-16"><g class="cls-32"><path class="cls-10" d="M551.42,223.39H531.49a41.73,41.73,0,0,0-6.81-23.07l22.35.06a61.79,61.79,0,0,1,4.39,23"/></g></g><g class="cls-16"><g class="cls-33"><path class="cls-10" d="M540.63,188.3,525,188.23l-12.29-.06a42.12,42.12,0,0,0-46.67-.21l-12-.06-15.87-.06a63,63,0,0,1,9.2-10.5h0l22,.11,40.42.21,21.71.1a63.94,63.94,0,0,1,9.08,10.55"/></g></g><g class="cls-16"><g class="cls-34"><path class="cls-10" d="M528,174.71l-27.22-.12h0l-22.3-.1-27.57-.13c1.5-1.18,3-2.28,4.65-3.32l68.42.69q2.07,1.41,4,3"/></g></g><path class="cls-10" d="M486.71,254.81a1.83,1.83,0,1,1-.75-2.48,1.83,1.83,0,0,1,.75,2.48"/><path class="cls-10" d="M492.66,252.91a27.46,27.46,0,0,0,13.9-5.36,25,25,0,0,0,5.37-5.4,26.37,26.37,0,0,0,2.09-3.21c.65-1.11,1.12-2.32,1.68-3.48l0,0a.31.31,0,0,1,.56.26c-.52,1.2-.95,2.46-1.56,3.62a29,29,0,0,1-7.35,9.28,29.13,29.13,0,0,1-14.6,6.33,1,1,0,1,1-.24-2h.13Z"/><path class="cls-7" d="M407.8,430.71h-83s7.35-6.69,7.51-21.27c.22-19.39,0-29.82,0-29.82H399.5s-.06,15.12,0,30.2,8.3,20.89,8.3,20.89"/><polygon class="cls-8" points="399.47 409.82 332.27 386.37 332.27 379.44 399.47 379.44 399.47 409.82"/><polygon class="cls-13" points="187.38 252.91 198.25 246.21 199.53 247.71 188.22 254.04 187.38 252.91"/><path class="cls-13" d="M195.22,245.67a1.06,1.06,0,1,1-2.11,0,1.06,1.06,0,0,1,2.11,0"/><polygon class="cls-8" points="171.67 231.16 177.01 235.7 182.91 229.37 173.73 219.81 171.67 231.16"/><path class="cls-22" d="M161.07,217.32s-.13-5.11.62-5.6a36,36,0,0,1,13.14-4.81c7.5-1.25,7.28,4.65,5.93,7.73a26.79,26.79,0,0,1-2.55,4.71,11.85,11.85,0,0,1-2.1-.9l-13.44,1.84Z"/><path class="cls-23" d="M176.1,218.45c-.64,2.68-2.71,9.83-5.09,14h0v0a.51.51,0,0,1-.08.13l0,.07c-1.32,2.22-2.73,3.46-4.05,2.46v5.67c-3-2-5.93-4.05-7.14-6.25V222.1a3.37,3.37,0,0,1-2-4c.68-2.93,3.61-2.58,4.23-1a17.3,17.3,0,0,1,.85,2.51s4.73-.19,6.62-7.89c2.91,3.57,4.71,5.78,6.78,6.73"/><path class="cls-23" d="M182.09,246l8.18-8.61a5,5,0,0,1-1-1.92c-.14-.9.34-2.68-.73-4.41s-3.93-5.62-5.14-6.21a2.63,2.63,0,0,0-1.84-.37,2.29,2.29,0,0,0-.62-2.12,2.1,2.1,0,0,0-2-.81,2,2,0,0,0-1-2.15c-1.33-.88-4,2.06-3.36,3.53a1.46,1.46,0,0,0,2,.88,2.14,2.14,0,0,0,.4,2.06,1.62,1.62,0,0,0,1.75.2s-1,2.73.37,3.07,2.23-1.52,2.23-1.52l1.58,1.72L177,235.7s-3.53-3.87-5.06-3.59-2.57,1.22-.9,2.46,3.5,2.77,3.87,4.94a5.88,5.88,0,0,0,4.66,4.46,3,3,0,0,1,2.51,2.06"/><path class="cls-25" d="M170.86,232.64c-1.32,2.22-2.73,3.46-4.05,2.46v2.33l-5.31-7.35c.27.23,4.7,4.07,6.9,3.7a3.83,3.83,0,0,0,2.46-1.14"/><path class="cls-25" d="M159.27,217.05s1.79.5,1.79,3.51c-.76-1.29-3.49-1.81-1.79-3.51"/><path class="cls-25" d="M165.55,225.89a3.45,3.45,0,0,0,2.51,2.32c1.51.33,1.84-.12,1.84-.12a2.23,2.23,0,0,1-3.24,1.23c-1.63-1.12-1.11-3.43-1.11-3.43"/><path class="cls-35" d="M299.22,69.15h4.73a2.36,2.36,0,0,1,2.36,2.36v13.3a2.37,2.37,0,0,1-2.37,2.37h-4.73a2.36,2.36,0,0,1-2.36-2.36V71.52A2.36,2.36,0,0,1,299.22,69.15Z"/><path class="cls-35" d="M311.15,69.15h4.73a2.36,2.36,0,0,1,2.36,2.36v13.3a2.37,2.37,0,0,1-2.37,2.37h-4.73a2.36,2.36,0,0,1-2.36-2.36V71.52A2.36,2.36,0,0,1,311.15,69.15Z"/><path class="cls-35" d="M334.14,69.15h4.73a2.36,2.36,0,0,1,2.36,2.36v13.3a2.37,2.37,0,0,1-2.37,2.37h-4.73a2.36,2.36,0,0,1-2.36-2.36V71.52A2.36,2.36,0,0,1,334.14,69.15Z"/><path class="cls-35" d="M346.07,69.15h4.73a2.36,2.36,0,0,1,2.36,2.36v13.3a2.37,2.37,0,0,1-2.37,2.37h-4.73a2.36,2.36,0,0,1-2.36-2.36V71.52A2.36,2.36,0,0,1,346.07,69.15Z"/><path class="cls-35" d="M362.09,69.15h4.73a2.36,2.36,0,0,1,2.36,2.36v13.3a2.37,2.37,0,0,1-2.37,2.37h-4.73a2.36,2.36,0,0,1-2.36-2.36V71.52A2.36,2.36,0,0,1,362.09,69.15Z"/><line class="cls-35" x1="373.74" y1="69.15" x2="373.74" y2="87.18"/><path class="cls-10" d="M325.72,74.79a.72.72,0,1,1-.71-.71.71.71,0,0,1,.71.71"/><path class="cls-10" d="M325.72,81.74A.72.72,0,1,1,325,81a.71.71,0,0,1,.71.72"/><line class="cls-35" x1="356.31" y1="87.18" x2="356.31" y2="89.16"/><path class="cls-8" d="M412,53.34a1.62,1.62,0,1,1-1.62-1.63A1.62,1.62,0,0,1,412,53.34"/><path class="cls-8" d="M412,65.15a1.62,1.62,0,1,1-1.62-1.62A1.62,1.62,0,0,1,412,65.15"/><path class="cls-8" d="M412,77a1.62,1.62,0,1,1-1.62-1.62A1.61,1.61,0,0,1,412,77"/><path class="cls-8" d="M412,88.79a1.62,1.62,0,1,1-1.62-1.62A1.62,1.62,0,0,1,412,88.79"/><path class="cls-8" d="M412,100.61A1.62,1.62,0,1,1,410.33,99a1.62,1.62,0,0,1,1.62,1.63"/><path class="cls-6" d="M389.42,45.93l-5.24-4c.07-.39.13-.78.17-1.16l6.14-2.35a20.89,20.89,0,0,0-.43-3.53l-6.52-.82c-.14-.37-.28-.73-.44-1.09l4.15-5.11a21.69,21.69,0,0,0-2.13-2.84l-6.06,2.55c-.3-.26-.61-.5-.93-.73l1-6.49c-.52-.28-1.05-.53-1.6-.77s-1.11-.44-1.67-.63l-4,5.24c-.39-.07-.78-.13-1.17-.17l-2.35-6.15a22.87,22.87,0,0,0-3.52.43l-.83,6.53c-.37.13-.73.28-1.09.44l-5.1-4.15A21.79,21.79,0,0,0,355,23.28l2.55,6.06q-.37.45-.72.93l-6.5-1c-.27.52-.53,1.05-.77,1.6s-.44,1.11-.62,1.67l5.24,4a11.82,11.82,0,0,0-.18,1.17L347.88,40a20.65,20.65,0,0,0,.43,3.52l6.53.82c.13.37.27.74.43,1.1l-4.15,5.1a21.79,21.79,0,0,0,2.13,2.85l6.06-2.55q.45.38.93.72l-1,6.5c.53.27,1.06.53,1.61.77s1.1.44,1.66.62l4-5.24c.39.07.77.13,1.16.17L370,60.52a22,22,0,0,0,3.53-.43l.82-6.53c.37-.13.73-.28,1.09-.43l5.11,4.14a20.76,20.76,0,0,0,2.84-2.12l-2.55-6.06c.25-.3.49-.61.73-.93l6.49,1c.27-.51.54-1,.77-1.6s.44-1.1.63-1.66m-12.65-3.47a8.25,8.25,0,1,1-4.34-10.83,8.26,8.26,0,0,1,4.34,10.83"/><path class="cls-23" d="M612.1,383l.45-17.64-14-47.06c-.7-4.22,10.24-3.17,15.74-2.39h0c1.83.27,3.05.5,3.05.5a44.51,44.51,0,0,0,2.39,4,24.75,24.75,0,0,0,3.53,4.27c3.15,2.85,2.4,7.8,1.5,13.51s-.3,9.83-.37,15.16a13.91,13.91,0,0,0,2.47,8.48l-11.18,21-3.6,2.93Z"/><path class="cls-8" d="M610.89,388s.08-5,2.68-5.09,4.82-3.64,4.82-3.64,3.7-3.95,3.3-5.49c0,0,.17-8.27,5.62-13.07a33.68,33.68,0,0,0,3.46,5.15,4.88,4.88,0,0,1,.52,5.69c-1.42,2.86-6.56,5.12-6.56,9.94v4.82a1.69,1.69,0,0,1-1.68,1.69Z"/><path class="cls-30" d="M578,234.29s-2.85,13.58-2.67,17.36,23.19,66.67,23.19,66.67,13.6-.55,18.8-1.89c-1.88-5.64-3.59-19.26-2.42-25.88s6.36-21.23,4.57-31.08S601,241.9,603,234.34s-25-.05-25-.05"/><polygon class="cls-8" points="533.48 187.3 552.92 225.51 617.36 218.5 605.03 187.3 533.48 187.3"/><path class="cls-23" d="M594.9,168.71s-5.85,12-7,15.16-.18,5.2,2.86,5.67c0,2.51-.06,5.56-.06,5.56l8.78.3s5.43-29.92-4.6-26.69"/><path class="cls-23" d="M574.24,228.23c-2.63,3.71-10.81,14.39-16.78,16.07s-10.8-2.69-13.85-11.29-8.84-34.51-9.13-37.61,1.13-3.05,1.13-3.05l3.82,5.78.6.91.05-.1c1.6-2.93,3.41-1.66,3.37.19,0,1,.2,4.67.2,4.67s2.9,2.32,4.11,3.47.18,5.43.18,5.43l3.4,4.16,3,3.67,3-5.73c.32-.3,11.74,8.79,16.86,13.43"/><path class="cls-23" d="M614,221.48s15.08.65,21.27-3c2.29,7.56,4.49,19.16,2.8,20.77s-4.41,4.49-11.36,1.78S605,229.28,605,229.28l6.69-8.9Z"/><path class="cls-6" d="M635.28,218.5s-2,2.54-13,3c-2.33.1-5.06.11-8.26,0l-2.27-1.09h0l-6.69,8.9s-2.21,3.3-2,5.06c0,0-4.75,5.23-13.82,5.07-8.07,0-11.12-5.12-11.12-5.12V230.6s-2.58-1.09-2.8-3.35l-1,1L557.38,214.8s5.77-11.1,10.39-14.86,26.56-6.61,26.56-6.61,34,4.54,37.09,12.95a93.46,93.46,0,0,1,3.86,12.22"/><path class="cls-25" d="M554.34,220.53s-3.77,6.6-4.48,4.6c-.53-1.5.78-6.07,1.48-8.27Z"/><path class="cls-25" d="M616.54,211.49a41.11,41.11,0,0,1-4.82,8.89c3.86,3.14,11,9.44,11,9.44l-.59-10.67-3.93-3.71v-3.86s-.94-.92-1.67-.09"/><path class="cls-30" d="M622.27,221.5c-2.33.1-5.06.11-8.26,0l-2.27-1.09h0a41.11,41.11,0,0,0,4.82-8.89c.72-.83,1.67.09,1.67.09v3.86l3.93,3.71Z"/><path class="cls-30" d="M574.24,228.23l1-1,7.63-3.8,1.09-7.73a.43.43,0,0,0-.75-.34l-10,12Z"/><path class="cls-25" d="M623.7,363.17a14.39,14.39,0,0,1-2.12-4.49c-.77-2.74-.24-24-1.38-28.54s-7.12-13-7.12-13a16.36,16.36,0,0,1,1.22-1.25h0c1.83.27,3.05.5,3.05.5a44.51,44.51,0,0,0,2.39,4c-.92.69-.79,2.24,1,8.47.69,2.6,1.48,18.52,1.2,24.45a21.21,21.21,0,0,0,1.74,9.82"/><path class="cls-22" d="M614.53,265.1s-6.4,32.21-5.51,40.26,4.06,11.82,4.06,11.82l4.28-.75-.37-1.22-3.22-.46s-2.71-5.76-3.35-9.59c-1.49-9.7,3.24-28.57,5-36.19,1.91-6.06-.92-3.87-.92-3.87"/><rect class="cls-30" x="586.18" y="173.58" width="7.31" height="1.17" transform="translate(163.61 617.53) rotate(-62.58)"/><rect class="cls-30" x="593.19" y="171.84" width="0.58" height="7.64" transform="translate(150.48 607.9) rotate(-60.78)"/><path class="cls-22" d="M591.16,157.29s-2.17,5.22,0,8.41,5.74,5.57,5,11.35-3.45,13.18-1.11,19.13,8.16,14.08,21.47,15.31,21.51-10,19.05-20.41-10-13.4-17.69-12.25c-6.08,1.09-3.53-6.62-6.21-10.07s-12-13.24-16.24-13.69c-3.56-.38-4.29,2.22-4.29,2.22"/><path class="cls-30" d="M605.9,388s.09-5,2.69-5.09,5.7,0,5.7,0,4.33-6.21,3.93-7.74c0,0-1.34-9.66,4.11-14.46a33.68,33.68,0,0,0,3.46,5.15,4.88,4.88,0,0,1,.52,5.69c-1.42,2.86-6.56,5.12-6.56,9.94v3.14a3.37,3.37,0,0,1-3.37,3.37Z"/><path class="cls-36" d="M296.86,113.26c3.9,0,3.9,4,7.8,4s3.9-4,7.8-4,3.9,4,7.8,4,3.9-4,7.8-4,3.9,4,7.8,4,3.9-4,7.8-4,3.9,4,7.8,4,3.91-4,7.81-4,3.9,4,7.8,4,3.9-4,7.81-4,3.9,4,7.8,4,3.91-4,7.81-4"/><path class="cls-36" d="M296.86,118.89c3.9,0,3.9,4,7.8,4s3.9-4,7.8-4,3.9,4,7.8,4,3.9-4,7.8-4,3.9,4,7.8,4,3.9-4,7.8-4,3.9,4,7.8,4,3.91-4,7.81-4,3.9,4,7.8,4,3.9-4,7.81-4,3.9,4,7.8,4,3.91-4,7.81-4"/><path class="cls-36" d="M296.86,124.11c3.9,0,3.9,4,7.8,4s3.9-4,7.8-4,3.9,4,7.8,4,3.9-4,7.8-4,3.9,4,7.8,4,3.9-4,7.8-4,3.9,4,7.8,4,3.91-4,7.81-4,3.9,4,7.8,4,3.9-4,7.81-4,3.9,4,7.8,4,3.91-4,7.81-4"/><path class="cls-36" d="M296.86,129.32c3.9,0,3.9,4,7.8,4s3.9-4,7.8-4,3.9,4,7.8,4,3.9-4,7.8-4,3.9,4,7.8,4,3.9-4,7.8-4,3.9,4,7.8,4,3.91-4,7.81-4,3.9,4,7.8,4,3.9-4,7.81-4,3.9,4,7.8,4,3.91-4,7.81-4"/><path class="cls-8" d="M397.43,113.08a.76.76,0,1,1-.76-.75.75.75,0,0,1,.76.75"/><path class="cls-8" d="M397.43,119a.76.76,0,1,1-.76-.75.76.76,0,0,1,.76.75"/><path class="cls-8" d="M397.43,124.32a.76.76,0,1,1-.76-.76.76.76,0,0,1,.76.76"/><path class="cls-8" d="M397.43,129.72a.76.76,0,1,1-.76-.76.76.76,0,0,1,.76.76"/><rect class="cls-12" x="449.23" y="34.52" width="54.78" height="85.28"/><path class="cls-11" d="M449.23,119.8h-13a4.82,4.82,0,0,1-4.81-4.81V65.15h17.76Z"/><rect class="cls-6" x="504.02" y="75.35" width="8.9" height="44.45"/><path class="cls-8" d="M519.79,97.57h-6.87V119.8h3.85a3,3,0,0,0,3-3Z"/></g><text class="cls-21" transform="translate(472.58 73.12)">N</text><text class="cls-21" transform="translate(472.96 82.12)">P</text><text class="cls-21" transform="translate(473.43 91.12)">S</text><g class="cls-3"><path class="cls-12" d="M228,180.41H86.22a3.6,3.6,0,0,1-3.6-3.6V128.66a3.6,3.6,0,0,1,3.6-3.59H228a3.59,3.59,0,0,1,3.59,3.59v48.15a3.6,3.6,0,0,1-3.59,3.6"/><path class="cls-12" d="M135.47,231.57H68.12a3.6,3.6,0,0,1-3.59-3.6V196.68a3.59,3.59,0,0,1,3.59-3.59h67.35a3.59,3.59,0,0,1,3.59,3.59V228a3.59,3.59,0,0,1-3.59,3.6"/><path class="cls-6" d="M93.16,347h55l-8.89-46.79A7.36,7.36,0,0,0,132,294h-28.2S85,295.07,81.6,270.48c0,0-1.17-5.44,3.07-5.44H81.94a6.11,6.11,0,0,0-6,7.48Z"/><polygon class="cls-8" points="148.19 346.95 154.32 346.95 162.37 333.46 145.59 333.46 148.19 346.95"/><path class="cls-10" d="M215,165.9H99.13a1.8,1.8,0,1,1,0-3.6H215a1.8,1.8,0,1,1,0,3.6"/><path class="cls-10" d="M215,172.12H99.13a1.8,1.8,0,1,1,0-3.6H215a1.8,1.8,0,1,1,0,3.6"/><path class="cls-10" d="M129.08,217.19H74.4a1.81,1.81,0,0,1,0-3.61h54.68a1.81,1.81,0,0,1,0,3.61"/><path class="cls-10" d="M129.08,223.31H74.4a1.8,1.8,0,1,1,0-3.6h54.68a1.8,1.8,0,0,1,0,3.6"/><path class="cls-10" d="M129.08,204.94H74.4a1.8,1.8,0,1,1,0-3.6h54.68a1.8,1.8,0,0,1,0,3.6"/><path class="cls-10" d="M129.08,211.06H74.4a1.8,1.8,0,1,1,0-3.6h54.68a1.8,1.8,0,0,1,0,3.6"/><path class="cls-10" d="M101.84,147.55c0-.08-.9-8,5.82-9.85a6.5,6.5,0,0,1,7.48,3.58l-.74.32a5.6,5.6,0,0,0-6.54-3.13c-6,1.68-5.26,8.78-5.22,9.08Z"/><path class="cls-10" d="M115.88,153.22H101a3.41,3.41,0,0,1-3.62-3.61c0-2.65,1.83-4.1,5.13-4.1v.81c-3.61,0-4.32,1.74-4.32,3.29a2.6,2.6,0,0,0,2.81,2.8h14.93c2.13,0,4.46-.66,4.46-4.36a5.31,5.31,0,0,0-1.16-3.34,4.14,4.14,0,0,0-3.19-1.17,4.74,4.74,0,0,0-4.19,2.69l-.73-.33a5.52,5.52,0,0,1,4.92-3.16,4.94,4.94,0,0,1,3.79,1.43,6.16,6.16,0,0,1,1.37,3.91c0,3.33-1.79,5.14-5.27,5.14"/><polygon class="cls-10" points="112.67 146.37 110.47 145.08 110.81 147.01 112.67 146.37"/><polygon class="cls-10" points="115.48 140.19 113.25 141.43 115.09 142.11 115.48 140.19"/><polygon class="cls-11" points="199.22 147.55 196.65 138.8 187.9 141.38 196.86 124.94 208.18 131.12 199.22 147.55"/><polygon class="cls-11" points="210.54 147.55 213.12 138.8 221.86 141.38 212.9 124.94 201.59 131.12 210.54 147.55"/><path class="cls-8" d="M219.87,123.34a14.14,14.14,0,1,1-14.14-14.13,14.14,14.14,0,0,1,14.14,14.13"/><path class="cls-12" d="M206.69,118.19l1,2.07a1,1,0,0,0,.8.59l2.29.33a1.07,1.07,0,0,1,.59,1.82l-1.66,1.62a1,1,0,0,0-.3.94l.39,2.28a1.07,1.07,0,0,1-1.55,1.13l-2.05-1.08a1.08,1.08,0,0,0-1,0L203.19,129a1.07,1.07,0,0,1-1.55-1.13l.39-2.28a1,1,0,0,0-.31-.94L200.07,123a1.06,1.06,0,0,1,.59-1.82l2.29-.33a1,1,0,0,0,.8-.59l1-2.07a1.06,1.06,0,0,1,1.91,0"/><path class="cls-6" d="M305.24,44.75a11,11,0,1,1-11-11,11,11,0,0,1,11,11"/><polyline class="cls-37" points="294.2 37.29 294.2 44.75 297.81 41.13"/></g></g></g></g></svg>