<svg xmlns="http://www.w3.org/2000/svg" viewBox="0 0 55.36 45.17"><defs><style>.cls-1{fill:#fff;}</style></defs><title>Ресурс 1</title><g id="Слой_2" data-name="Слой 2"><g id="Layer_1" data-name="Layer 1"><path class="cls-1" d="M10.48,23.42C10.46,23.23,8.37,4.84,24,.51c12.29-3,17.35,8.22,17.4,8.33l-1.72.76c-.18-.41-4.5-9.89-15.21-7.28-14,3.89-12.22,20.39-12.13,21.1Z"/><path class="cls-1" d="M43.11,36.59H8.4c-5,0-8.4-3.34-8.4-8.39,0-6.15,4.25-9.52,11.92-9.52v1.87c-8.39,0-10,4.06-10,7.65,0,4,2.52,6.52,6.53,6.52H43.11c5,0,10.38-1.54,10.38-10.14,0-.12,0-4.81-2.71-7.76C49.11,15,46.61,14.1,43.37,14.1c-6.85,0-9.63,6-9.74,6.25l-1.71-.76c.13-.3,3.36-7.37,11.45-7.37,3.79,0,6.75,1.13,8.79,3.34,3.3,3.56,3.21,8.88,3.2,9.09C55.36,32.38,51.19,36.59,43.11,36.59Z"/><polygon class="cls-1" points="35.65 20.68 30.53 17.67 31.33 22.16 35.65 20.68"/><polygon class="cls-1" points="42.19 6.3 37 9.19 41.28 10.77 42.19 6.3"/><path class="cls-1" d="M6.14,42H7v.72H6.17v2.4H5.24v-2.4H4.75V42h.49v-.14A1.14,1.14,0,0,1,5.57,41a1.19,1.19,0,0,1,.91-.32,1.67,1.67,0,0,1,.39,0,.88.88,0,0,1,.31.13l-.24.67a.62.62,0,0,0-.38-.12c-.28,0-.42.16-.42.47Z"/><path class="cls-1" d="M10.49,43.79H8.08a.72.72,0,0,0,.31.47,1,1,0,0,0,.6.17,1.45,1.45,0,0,0,.44-.07,1,1,0,0,0,.36-.24l.49.53A1.63,1.63,0,0,1,9,45.17,2.12,2.12,0,0,1,8,45a1.56,1.56,0,0,1-.64-.58,1.75,1.75,0,0,1,0-1.7A1.55,1.55,0,0,1,8,42.1a1.81,1.81,0,0,1,.87-.21,1.75,1.75,0,0,1,.85.2,1.41,1.41,0,0,1,.59.57,1.72,1.72,0,0,1,.22.88S10.5,43.63,10.49,43.79Zm-2.16-1a.72.72,0,0,0-.26.49H9.64a.76.76,0,0,0-.26-.48.82.82,0,0,0-.53-.19A.77.77,0,0,0,8.33,42.76Z"/><path class="cls-1" d="M14.23,43.79H11.82a.76.76,0,0,0,.31.47,1,1,0,0,0,.6.17,1.52,1.52,0,0,0,.45-.07,1.1,1.1,0,0,0,.35-.24l.5.53a1.65,1.65,0,0,1-1.32.52,2.12,2.12,0,0,1-1-.21,1.56,1.56,0,0,1-.64-.58,1.75,1.75,0,0,1,0-1.7,1.55,1.55,0,0,1,.61-.58,1.81,1.81,0,0,1,.87-.21,1.72,1.72,0,0,1,.85.2,1.41,1.41,0,0,1,.59.57,1.72,1.72,0,0,1,.22.88A2.09,2.09,0,0,1,14.23,43.79Zm-2.16-1a.76.76,0,0,0-.26.49h1.57a.76.76,0,0,0-.26-.48.84.84,0,0,0-1,0Z"/><path class="cls-1" d="M18.12,40.72v4.4h-.88v-.36a1.25,1.25,0,0,1-1,.41,1.74,1.74,0,0,1-.82-.2,1.51,1.51,0,0,1-.57-.58,1.71,1.71,0,0,1-.21-.86,1.75,1.75,0,0,1,.21-.87,1.42,1.42,0,0,1,.57-.57,1.63,1.63,0,0,1,.82-.2,1.19,1.19,0,0,1,1,.38V40.72ZM17,44.17a.9.9,0,0,0,.23-.64.92.92,0,0,0-.23-.65.77.77,0,0,0-.58-.24.79.79,0,0,0-.59.24.92.92,0,0,0-.23.65.9.9,0,0,0,.23.64.79.79,0,0,0,.59.24A.77.77,0,0,0,17,44.17Z"/><path class="cls-1" d="M21.67,42.09a1.56,1.56,0,0,1,.57.57,1.75,1.75,0,0,1,.21.87,1.71,1.71,0,0,1-.21.86,1.51,1.51,0,0,1-.57.58,1.7,1.7,0,0,1-.81.2,1.24,1.24,0,0,1-1-.41v.36H19v-4.4h.93v1.55a1.21,1.21,0,0,1,1-.38A1.6,1.6,0,0,1,21.67,42.09Zm-.39,2.08a.9.9,0,0,0,.23-.64.92.92,0,0,0-.23-.65.75.75,0,0,0-.58-.24.79.79,0,0,0-.59.24.92.92,0,0,0-.22.65.89.89,0,0,0,.22.64.79.79,0,0,0,.59.24A.75.75,0,0,0,21.28,44.17Z"/><path class="cls-1" d="M25.44,42.24a1.35,1.35,0,0,1,.39,1.06v1.82H25v-.39a1,1,0,0,1-1,.44,1.56,1.56,0,0,1-.64-.12A1,1,0,0,1,23,44.7a.84.84,0,0,1-.15-.5.85.85,0,0,1,.34-.7,1.7,1.7,0,0,1,1-.25h.74a.61.61,0,0,0-.18-.47.83.83,0,0,0-.56-.16,1.74,1.74,0,0,0-.5.08,1.4,1.4,0,0,0-.42.22l-.33-.65a1.92,1.92,0,0,1,.63-.28,2.66,2.66,0,0,1,.75-.1A1.66,1.66,0,0,1,25.44,42.24Zm-.79,2.2a.59.59,0,0,0,.26-.32v-.33h-.64c-.38,0-.56.12-.56.37a.32.32,0,0,0,.13.28.65.65,0,0,0,.39.11A.85.85,0,0,0,24.65,44.44Z"/><path class="cls-1" d="M27.33,45a1.54,1.54,0,0,1-.63-.58,1.64,1.64,0,0,1-.23-.85,1.61,1.61,0,0,1,.23-.85,1.54,1.54,0,0,1,.63-.58,2,2,0,0,1,.92-.21,1.79,1.79,0,0,1,.88.21,1.28,1.28,0,0,1,.55.6l-.72.38a.8.8,0,0,0-.72-.44.81.81,0,0,0-.6.24.92.92,0,0,0-.23.65.88.88,0,0,0,.23.64.81.81,0,0,0,.6.24A.76.76,0,0,0,29,44l.72.39a1.33,1.33,0,0,1-.55.6,1.79,1.79,0,0,1-.88.21A2,2,0,0,1,27.33,45Z"/><path class="cls-1" d="M31.56,43.87l-.45.44v.81h-.92v-4.4h.92v2.49l1.36-1.28h1.1l-1.33,1.35,1.45,1.84H32.57Z"/><path class="cls-1" d="M34.59,45a1.61,1.61,0,0,1,0-2.86,2,2,0,0,1,.92-.21,1.79,1.79,0,0,1,.88.21,1.28,1.28,0,0,1,.55.6l-.72.38a.8.8,0,0,0-.72-.44.81.81,0,0,0-.6.24.92.92,0,0,0-.23.65.88.88,0,0,0,.23.64.81.81,0,0,0,.6.24.76.76,0,0,0,.72-.44l.72.39a1.33,1.33,0,0,1-.55.6,1.79,1.79,0,0,1-.88.21A2,2,0,0,1,34.59,45Z"/><path class="cls-1" d="M37.45,40.72h.92v4.4h-.92Z"/><path class="cls-1" d="M39.85,45a1.54,1.54,0,0,1-.63-.58,1.63,1.63,0,0,1-.22-.85,1.61,1.61,0,0,1,.22-.85,1.54,1.54,0,0,1,.63-.58,1.9,1.9,0,0,1,.9-.21,1.87,1.87,0,0,1,.9.21,1.54,1.54,0,0,1,.63.58,1.61,1.61,0,0,1,.22.85,1.63,1.63,0,0,1-.22.85,1.54,1.54,0,0,1-.63.58,1.87,1.87,0,0,1-.9.21A1.9,1.9,0,0,1,39.85,45Zm1.49-.79a.89.89,0,0,0,.22-.64.92.92,0,0,0-.22-.65.85.85,0,0,0-1.18,0,.92.92,0,0,0-.23.65.9.9,0,0,0,.23.64.85.85,0,0,0,1.18,0Z"/><path class="cls-1" d="M46.33,41.93v3.19h-.88v-.38a1.13,1.13,0,0,1-.43.32,1.47,1.47,0,0,1-.56.11,1.35,1.35,0,0,1-1-.36,1.42,1.42,0,0,1-.37-1.07V41.93H44V43.6c0,.51.21.77.64.77a.7.7,0,0,0,.54-.22.93.93,0,0,0,.2-.64V41.93Z"/><path class="cls-1" d="M50.44,40.72v4.4h-.88v-.36a1.24,1.24,0,0,1-1,.41,1.68,1.68,0,0,1-.81-.2,1.47,1.47,0,0,1-.58-.58,1.82,1.82,0,0,1-.2-.86,1.86,1.86,0,0,1,.2-.87,1.39,1.39,0,0,1,.58-.57,1.57,1.57,0,0,1,.81-.2,1.21,1.21,0,0,1,1,.38V40.72ZM49.3,44.17a.85.85,0,0,0,.23-.64.88.88,0,0,0-.23-.65.75.75,0,0,0-.58-.24.79.79,0,0,0-.59.24.92.92,0,0,0-.23.65.9.9,0,0,0,.23.64.79.79,0,0,0,.59.24A.75.75,0,0,0,49.3,44.17Z"/></g></g></svg>