<svg xmlns="http://www.w3.org/2000/svg" xmlns:xlink="http://www.w3.org/1999/xlink" viewBox="0 0 211.9 177.91"><defs><style>.cls-1,.cls-8{fill:none;}.cls-2{clip-path:url(#clip-path);}.cls-3{fill:#33b5fe;}.cls-4,.cls-9{fill:#0e2d40;}.cls-5{fill:#fdb801;}.cls-6{fill:#fff;}.cls-7{fill:#f46d02;}.cls-8{stroke:#f46d02;stroke-linecap:round;stroke-linejoin:round;}.cls-9{font-size:13.04px;font-family:GothamPro-Bold, Gotham Pro;font-weight:700;}</style><clipPath id="clip-path"><rect class="cls-1" width="211.9" height="177.91"/></clipPath></defs><title>Ресурс 1</title><g id="Слой_2" data-name="Слой 2"><g id="Слой_1-2" data-name="Слой 1"><g class="cls-2"><path class="cls-3" d="M146.19,3.3V174.61a3.3,3.3,0,0,1-3.3,3.3H3.3a3.3,3.3,0,0,1-3.3-3.3V3.3A3.3,3.3,0,0,1,3.3,0H142.89a3.3,3.3,0,0,1,3.3,3.3"/><path class="cls-4" d="M126.4,56.48H55.55a2.62,2.62,0,0,1-2.62-2.62V42.7a2.62,2.62,0,0,1,2.62-2.62H129V53.86a2.62,2.62,0,0,1-2.63,2.62"/><path class="cls-5" d="M211.07,86.74,184.21,52.13a3.94,3.94,0,0,0-5.54-.7L116.86,99.38a3.94,3.94,0,0,0-.7,5.54L143,139.54a4,4,0,0,0,5.54.7l61.82-47.95a4,4,0,0,0,.7-5.55m-75.94,32.58a2.5,2.5,0,1,1,2.5-2.5,2.5,2.5,0,0,1-2.5,2.5"/><path class="cls-6" d="M117.57,82.28H32a3.5,3.5,0,0,1-3.5-3.5V68.67h89a3.5,3.5,0,0,1,3.5,3.5v6.61a3.5,3.5,0,0,1-3.5,3.5"/><path class="cls-6" d="M88.82,152.72H31.89a3.35,3.35,0,0,1-3.36-3.35V94.53a3.35,3.35,0,0,1,3.36-3.35H88.82a3.35,3.35,0,0,1,3.35,3.35v54.84a3.35,3.35,0,0,1-3.35,3.35"/><path class="cls-5" d="M78.32,142.85h-37a1.64,1.64,0,0,1-1.65-1.64V107.65A1.65,1.65,0,0,1,41.34,106h37A1.65,1.65,0,0,1,80,107.65v33.56a1.64,1.64,0,0,1-1.65,1.64"/><rect class="cls-7" x="56.45" y="108.84" width="7.8" height="34.02"/><path class="cls-8" d="M68.34,106s14.28-11.18,28.17,4.65,23.31,21,37.5,7.74"/><path class="cls-7" d="M68.45,107.29c3.72-2.36,3.34-4.94,3-6.12s-3.12-7-5.4-6.34-5.74,6.42-5.74,6.42-3.46-5.81-5.74-6.42-5.09,5.16-5.4,6.34-.68,3.76,3,6.12l-5.09,7.6,5.09-2s2.28,5.66,2.4,5.7,5.7-8.59,5.7-8.59,5.57,8.59,5.7,8.59,2.4-5.7,2.4-5.7l5.09,2Zm-11.52-1.86c-.72.8-2.55-1-3.88-2.13s-.34-2.2-.34-2.2c.71-.77,1.25,0,2.7,1.21,1.79,1.62,2.17,2.36,1.52,3.12m10.72-2.13c-1.33,1.18-3.16,2.93-3.88,2.13s-.27-1.5,1.52-3.12c1.45-1.25,2-2,2.7-1.21,0,0,1,1-.34,2.2"/><path class="cls-6" d="M108.92,168.46H10.86a1.41,1.41,0,0,1-1.41-1.41v-3.63A1.41,1.41,0,0,1,10.86,162h98.06a1.41,1.41,0,0,1,1.41,1.41v3.63a1.41,1.41,0,0,1-1.41,1.41"/><path class="cls-6" d="M125.83,168.4H122.2a1.41,1.41,0,0,1-1.41-1.41v-3.63a1.41,1.41,0,0,1,1.41-1.4h3.63a1.41,1.41,0,0,1,1.41,1.4V167a1.41,1.41,0,0,1-1.41,1.41"/><path class="cls-6" d="M135.33,168.4H131.7a1.41,1.41,0,0,1-1.41-1.41v-3.63a1.41,1.41,0,0,1,1.41-1.4h3.63a1.41,1.41,0,0,1,1.41,1.4V167a1.41,1.41,0,0,1-1.41,1.41"/><path class="cls-6" d="M24.41,75.47a6.81,6.81,0,1,1-6.81-6.8,6.74,6.74,0,0,1,6.81,6.8"/><path class="cls-4" d="M20,75.08a2.36,2.36,0,1,1-2.36-2.36A2.36,2.36,0,0,1,20,75.08"/><path class="cls-4" d="M22.34,80.35a6.76,6.76,0,0,1-4.74,1.93,6.69,6.69,0,0,1-4.74-1.94,4.88,4.88,0,0,1,9.48,0"/><path class="cls-4" d="M27.46,61.57H12.2a1.07,1.07,0,1,1,0-2.14H27.46a1.07,1.07,0,1,1,0,2.14"/><path class="cls-4" d="M128,61.57H112.69a1.07,1.07,0,1,1,0-2.14H128a1.07,1.07,0,1,1,0,2.14"/><path class="cls-4" d="M17.73,65.59H12.2a1.08,1.08,0,1,1,0-2.15h5.53a1.08,1.08,0,0,1,0,2.15"/><path class="cls-4" d="M39.45,13.33H10.53a1.08,1.08,0,1,1,0-2.15H39.45a1.08,1.08,0,1,1,0,2.15"/><path class="cls-4" d="M22.08,19.49H10.53a1.07,1.07,0,1,1,0-2.14H22.08a1.07,1.07,0,0,1,0,2.14"/><path class="cls-4" d="M39.45,19.49h-5.4a1.07,1.07,0,1,1,0-2.14h5.4a1.07,1.07,0,1,1,0,2.14"/><path class="cls-4" d="M35.13,87.85H29.61a1.07,1.07,0,1,1,0-2.14h5.52a1.07,1.07,0,1,1,0,2.14"/><path class="cls-4" d="M35.13,157.9H29.61a1.07,1.07,0,1,1,0-2.14h5.52a1.07,1.07,0,1,1,0,2.14"/><path class="cls-4" d="M55.22,15.34a4.16,4.16,0,1,1-4.15-4.16,4.15,4.15,0,0,1,4.15,4.16"/><path class="cls-4" d="M115.77,18.42H100a1.17,1.17,0,0,1-1.17-1.17V13.43A1.17,1.17,0,0,1,100,12.26h15.76a1.17,1.17,0,0,1,1.17,1.17v3.82a1.17,1.17,0,0,1-1.17,1.17"/><path class="cls-4" d="M135.57,18.42H119.8a1.17,1.17,0,0,1-1.17-1.17V13.43a1.17,1.17,0,0,1,1.17-1.17h15.77a1.17,1.17,0,0,1,1.17,1.17v3.82a1.17,1.17,0,0,1-1.17,1.17"/><rect class="cls-4" y="28.58" width="146.19" height="2.37"/></g><text class="cls-9" transform="matrix(0.79, -0.61, 0.61, 0.79, 148.54, 112.39)">BONUS</text></g></g></svg>