<svg xmlns="http://www.w3.org/2000/svg" viewBox="0 0 24.72 24.72"><defs><style>.cls-1{fill:none;stroke:#fff;stroke-linejoin:round;stroke-width:0.5px;}</style></defs><title>Ресурс 1</title><g id="Слой_2" data-name="Слой 2"><g id="Layer_1" data-name="Layer 1"><path class="cls-1" d="M24.47,12.36a12.08,12.08,0,0,1-3.54,8.57c-.19.19-.38.37-.58.54v-.94a8,8,0,0,0-5.64-7.61h0a4.25,4.25,0,1,0-4.62,0,8,8,0,0,0-5.64,7.61v1a12.11,12.11,0,1,1,20-9.16Z"/><path class="cls-1" d="M20.35,20.53v.94a12.12,12.12,0,0,1-15.91.05v-1a8,8,0,0,1,5.64-7.61,4.26,4.26,0,1,1,4.62,0h0a8,8,0,0,1,5.64,7.61Z"/></g></g></svg>