<svg xmlns="http://www.w3.org/2000/svg" xmlns:xlink="http://www.w3.org/1999/xlink" viewBox="0 0 224.71 204.86"><defs><style>.cls-1,.cls-13,.cls-15,.cls-16{fill:none;}.cls-2{clip-path:url(#clip-path);}.cls-3{fill:#195a81;}.cls-4{fill:#0e2d40;}.cls-5{fill:#febfa7;}.cls-6{fill:#e7978e;}.cls-7{fill:#fff;}.cls-8{fill:#33b5fe;}.cls-9{fill:#30a3e6;}.cls-10{opacity:0.45;}.cls-11{clip-path:url(#clip-path-3);}.cls-12{clip-path:url(#clip-path-4);}.cls-13,.cls-15{stroke:#cd938b;}.cls-13{stroke-miterlimit:10;}.cls-14{clip-path:url(#clip-path-5);}.cls-15,.cls-16{stroke-linecap:round;stroke-linejoin:round;}.cls-16{stroke:#33b5fe;}</style><clipPath id="clip-path" transform="translate(0 0)"><rect class="cls-1" width="224.71" height="204.86"/></clipPath><clipPath id="clip-path-3" transform="translate(0 0)"><rect class="cls-1" x="29.5" y="36.92" width="65.77" height="87.78"/></clipPath><clipPath id="clip-path-4" transform="translate(0 0)"><rect class="cls-1" x="49.78" y="117.51" width="46.66" height="46.49"/></clipPath><clipPath id="clip-path-5" transform="translate(0 0)"><rect class="cls-1" x="29.2" y="37.25" width="39.98" height="39.8"/></clipPath></defs><title>Ресурс 1</title><g id="Слой_2" data-name="Слой 2"><g id="Слой_1-2" data-name="Слой 1"><g class="cls-2"><rect class="cls-3" x="160.51" y="103.94" width="5.94" height="8.5"/><polygon class="cls-4" points="160.51 103.94 166.46 103.94 166.46 109.64 165 108.81 164.73 108.66 160.51 106.25 160.51 103.94"/><g class="cls-2"><path class="cls-5" d="M110.43,67.17c-1.59,2.7-5.59,6.93-9.44,10.7-3,2.89-5.82,5.5-7.41,6.93-.8.73-1.28,1.15-1.28,1.15s.09-2.35.27-5.51c.34-6.19,1-15.51,2-16.37a40.36,40.36,0,0,1,6.94-5.22,11.81,11.81,0,0,1,2.29-1c4-1.29,10.07,3.52,6.65,9.36" transform="translate(0 0)"/><path class="cls-6" d="M101,77.87c-2.95,2.89-5.82,5.5-7.41,6.93a4.09,4.09,0,0,1-.78,0l-.23-4.41c.35-6.19,1-15.51,2-16.37a40.36,40.36,0,0,1,6.94-5.22c-1.4,1.52-3.74,4.64-2.31,7.14,1.68,3,3.14,7.55,1.81,11.88" transform="translate(0 0)"/><path class="cls-4" d="M97,156a7.22,7.22,0,0,1-7.07,7.33l-30.23.54-9.88.18-11.62.21a7.18,7.18,0,0,1-7.33-7.07l-.59-32.44L29.5,84.15l-.12-7.09-.18-9.54-.4-22.33c-.08-4,1.05-7.33,7.07-7.33l23.42-.43,9.89-.18,7.35-.13,11.07-.2c5.39,0,7.33,2,7.33,7.07l.34,19.12,1,54.4.17,9.54Z" transform="translate(0 0)"/><path class="cls-7" d="M90.69,161.06,37,162a4.62,4.62,0,0,1-4.69-4.53L30.25,44a4.62,4.62,0,0,1,4.53-4.69l10.69-.19a2.11,2.11,0,0,1,2.15,2.08,4.61,4.61,0,0,0,4.7,4.52l19.57-.35a4.6,4.6,0,0,0,4.52-4.69,2.12,2.12,0,0,1,2.08-2.16l10-.18a4.61,4.61,0,0,1,4.69,4.52l2.06,113.49a4.62,4.62,0,0,1-4.53,4.69" transform="translate(0 0)"/><path class="cls-8" d="M94.88,158.17a4.58,4.58,0,0,1-4.19,2.89l-16.57.3-.84,0h-.65l-7.63.13-1.64,0h-.15L37,162a4.62,4.62,0,0,1-4.69-4.53v-.18l0-1.73-.12-6.38-.06-3.51L32,140.92l0-2.65L31,82.44l-.18-10.23L30.65,66l0-1.11L30.58,62l-.22-12.35,0-.57L30.25,44a4.62,4.62,0,0,1,4.53-4.69l10.66-.19h0a2.87,2.87,0,0,1,.52,0l.19.06a2.33,2.33,0,0,1,.33.14,2.13,2.13,0,0,1,1.11,1.83A4.75,4.75,0,0,0,48,43a4.83,4.83,0,0,0,.3.55,5.3,5.3,0,0,0,.39.54,4.65,4.65,0,0,0,1.67,1.24,4.75,4.75,0,0,0,1.93.38l19.57-.35a4.59,4.59,0,0,0,4.52-4.69,2.13,2.13,0,0,1,.18-.88,2.1,2.1,0,0,1,1.9-1.27l10-.19.49,0A4.59,4.59,0,0,1,93,41.88a4.23,4.23,0,0,1,.14,1l.13,7.19.09,5.19L93.5,62l0,2.81,0,2v0l0,1.52.09,5.21.05,2.25.06,3.71,0,1.7,0,.85.2,11.43h0l.15,8.1h0l.36,19.71L95,146.81v.52h0l0,1.32.13,6.94,0,.78a4.51,4.51,0,0,1-.34,1.8" transform="translate(0 0)"/><path class="cls-9" d="M82.39,147l-37.48.84a2,2,0,0,1-2.1-2l-1-41.79a2.07,2.07,0,0,1,2-2.11l37.47-.85a2.07,2.07,0,0,1,2.11,2l.94,41.79a2.06,2.06,0,0,1-2,2.11" transform="translate(0 0)"/><path class="cls-9" d="M72.87,154.73l-22.16.5a.74.74,0,0,1-.75-.72v-.07a.74.74,0,0,1,.72-.76l22.16-.5a.74.74,0,0,1,.75.72V154a.74.74,0,0,1-.72.76" transform="translate(0 0)"/><g class="cls-10"><g class="cls-11"><path class="cls-7" d="M95.27,63.11,33.68,124.7H30.24L29.5,84.15l47-47,11.07-.2c6.56,0,7.26,3.09,7.33,7.07Z" transform="translate(0 0)"/></g></g><path class="cls-5" d="M70.62,194.78c-2.28,5.34-14.16,4.81-30.68,3.1s-23.62-3.32-32.44-9.67S0,159.27.15,150.86s5.09-16.59,9.7-25.92a110.6,110.6,0,0,0,7.22-20.34c.69-2.66,1.23-5.07,1.62-7,0-.12,0-.23.07-.35,1.26-6.44,7-6.08,7-6.08A9.07,9.07,0,0,1,32,93.87c8.45,9.75-1.6,36.68,7.27,47.54C48.52,153.84,48,164,48,164s32.5-.45,39.75-.64c-3.19,8.41-10.68,13.67-14,16s-.92,10.05-3.18,15.39" transform="translate(0 0)"/><g class="cls-10"><g class="cls-12"><polygon class="cls-7" points="96.43 127.05 59.66 163.82 49.78 164 96.26 117.51 96.43 127.05"/></g></g><path class="cls-5" d="M107.2,118.28c-4,4.52-10.58,8.19-14.58,3.46a7.24,7.24,0,0,1-1.51-6.39A12.49,12.49,0,0,1,93,111c4.82-8,9-10.62,12.62-10a8.06,8.06,0,0,1,4.17,2.29c4.39,4.19,1.46,10.47-2.56,15" transform="translate(0 0)"/><path class="cls-5" d="M101.1,123.4c-2.74.1-6.18,1.77-10.68,6-3.63,3.48-4.17,7.24-2.76,9.43s5,4.94,12.93,1,8.38-10.12,6.92-12.39-3.67-4.08-6.41-4" transform="translate(0 0)"/><path class="cls-6" d="M103.35,109.37c-1.94,2.18-9,3.23-12.24,6A12.49,12.49,0,0,1,93,111c4.82-8,9-10.62,12.61-10-.26,2.36-.91,6.65-2.23,8.36" transform="translate(0 0)"/><path class="cls-5" d="M101.05,90s-6.52-4.76-12.24.64-13.57,17.12-7.43,22.65,17.44-7.21,20.75-11.91c2-2.93,2.93-8-1.08-11.38" transform="translate(0 0)"/><path class="cls-6" d="M87.79,163.34c-17.33,17.2-38.9,10.39-38.9,10.39s-.27.39-2.73,4.75C47.11,174.22,48,164,48,164s32.5-.45,39.75-.64" transform="translate(0 0)"/><path class="cls-13" d="M22.39,105.61c-1,1.07-4,.76-5.06-.86.69-2.66,1.23-5.07,1.62-7a2.9,2.9,0,0,1,4.21-.84C25.12,98.73,24.05,103.5,22.39,105.61Z" transform="translate(0 0)"/><path class="cls-13" d="M91.13,135.52s-1,2.63,2.15,3.76c2.08-.14,5.79-2,4.38-5.14C95.22,131.1,91.13,135.52,91.13,135.52Z" transform="translate(0 0)"/><path class="cls-13" d="M85.5,101.75s5.15-.33,5.77,4.34c0,0-2.82,5.63-6.71,3.78S85.5,101.75,85.5,101.75Z" transform="translate(0 0)"/><path class="cls-13" d="M97.82,112.39s5.3-.36,4.88,4.17c-2.71,4-4.85,4.87-6.79,3.54C93.48,118.32,95.8,114.12,97.82,112.39Z" transform="translate(0 0)"/><path class="cls-6" d="M4.69,154.81c-.46,4.76,1,21.84,6.54,26.1s7.34,4.09,5.64,5.69c-1.51,1.12-6.78-1-9.92-6.21-3.74-5.54-4.26-19.13-2.26-25.58" transform="translate(0 0)"/><path class="cls-9" d="M36.86,50.59h3.06a.67.67,0,0,1,.66.67v.51a.67.67,0,0,1-.66.67H36.86a.67.67,0,0,1-.67-.67v-.51a.67.67,0,0,1,.67-.67" transform="translate(0 0)"/><g class="cls-10"><g class="cls-14"><polygon class="cls-7" points="69.18 37.25 29.38 77.06 29.2 67.52 59.29 37.43 69.18 37.25"/></g></g><path class="cls-5" d="M211.35,197.59c-14.45,8.43-43.41,7.41-50.17,7s-8.88-4.4-9.07-7.09-.38-6.91-.76-11.35c-4.4-2.17-8.83-6.86-8.83-6.86-3.05,1.21-12.29-3.29-17.91-7.23s-8.27-9.41-7.94-13.65c.37-4.8,4.89-8,4.89-8-1.52-5.41-3.32-9.87-.5-17.29a15.37,15.37,0,0,1,7.14-7.83s-4-7-.85-11.86,11-9.55,16.71-9.76c5.4-.2,9.1,7.6,9.44,8.36l0,.06,17.23-2.66a2.26,2.26,0,0,0,0-.24,8.53,8.53,0,0,0,.07-1.14,14.1,14.1,0,0,0-1.76-6.27c-2.39-4.56-7.09-1.41-10.88-2.25a6.4,6.4,0,0,1-5.35-5.27,8.41,8.41,0,0,1-.12-2c.21-3.72,4.49-5.68,11.22-9.68a15.51,15.51,0,0,1,17.83,1.12c3.79,3.3,13,21.48,13,21.48s8.11,5.35,10.11,7.27c3.81,3.67,14.79,25.68,17,32.55,1.19,3.77,2.53,10.28,2.74,22.7s1.2,21.54-13.26,30" transform="translate(0 0)"/><path class="cls-6" d="M189,128.1s1.86,10.51-1.18,15.54c-.14.23-.28.47-.44.72-1,1.76-2.41,4.09-3.79,6.68-2.79,5.22-5.64,11.47-6.15,16.16-.81,7.33.8,16.78.8,16.78s-1.05-.62-3.29-4.91a100.74,100.74,0,0,0-13,.25l6.9,1.62s-15.64,9.22-26.35-1.66c4.62-2.32,4.16-8.6,1.55-11.34,3-1.55,4.29-2.37,5.34-4.6a9.82,9.82,0,0,0,.38-6.46,0,0,0,0,0,0,0c-.53-1.79-10.5-15.63-10.5-15.63a5.8,5.8,0,0,1-.67.05,6.68,6.68,0,0,1-6-3c-2.23-3.56-3.64-11-3.72-11.42.14.45,2.4,7.63,3.84,9a6.08,6.08,0,0,0,7.15,1.76,16.46,16.46,0,0,0,3.81-2,6,6,0,0,0,2.53-4.72,16.94,16.94,0,0,0-.56-4.35s0,0,0,0c-.57-2.46-1.44-5.23-2-7.48a14.53,14.53,0,0,1-.6-3.45c.05-2.58,5.29-2.24,8.27-2.94a5.86,5.86,0,0,0,1.05-.35,7.18,7.18,0,0,1,1.17-.39c2.76-.75,8.56-1.56,12.91-2.18,1.83-.26,3.41-.49,4.39-.66l.37-.07c.36-.07.45-.23.34-.45a2.21,2.21,0,0,0-.64-.62,11.29,11.29,0,0,0-.26-2.2,15.87,15.87,0,0,0-1.5-4.07c-2.39-4.56-7.09-1.41-10.88-2.25a6.4,6.4,0,0,1-5.35-5.27,6.86,6.86,0,0,0,5.24,3.3c2.61-3,5.22-7.09,9.57-9.14S179.87,91,182.61,88a69.47,69.47,0,0,1-7.4,7.5s10.88-2.17,17.9,8.64c-3.17-1.43-6.22-4.54-9.51-5s-6.65-.07-8.27,3.23a3.93,3.93,0,0,0-.32.95,10.19,10.19,0,0,0,.35,4.72,20.69,20.69,0,0,0,3,6.36h0a9.49,9.49,0,0,0,.76.93c1.75,1.89,5.77,7.21,8.11,10.36h0L189,128.1" transform="translate(0 0)"/><path class="cls-8" d="M189.08,135.24A25.59,25.59,0,0,1,183.6,151a24.62,24.62,0,0,1-4.69,4.6,25.58,25.58,0,0,1-40.3-14.37,21.57,21.57,0,0,1-.56-3.13,6.61,6.61,0,0,0,1.79-.47c3.36-1.36,6.09-2.86,6.34-6.71a24.46,24.46,0,0,0-1.18-6.79c-.23-.86-.48-1.72-.71-2.56s-.48-1.71-.68-2.49a25.49,25.49,0,0,1,19.87-9.48,25.76,25.76,0,0,1,2.93.17l.36,0a25.4,25.4,0,0,1,11.58,4.54h0a9.49,9.49,0,0,0,.76.93c1.75,1.89,5.77,7.21,8.11,10.36h0a25.39,25.39,0,0,1,1.84,9.53" transform="translate(0 0)"/><rect class="cls-8" x="169.17" y="108.32" width="6.07" height="2.65" transform="translate(19.43 245.06) rotate(-74.04)"/><path class="cls-4" d="M175.36,108l-.25.86a.73.73,0,0,1-.9.51l-2.7-.78-.88-.25a.72.72,0,0,1-.5-.9l.48-1.67.78-2.76a.74.74,0,0,1,.91-.5l2.71.77a10.19,10.19,0,0,0,.35,4.72" transform="translate(0 0)"/><path class="cls-4" d="M189.08,135.24A25.59,25.59,0,0,1,183.6,151a24.62,24.62,0,0,1-4.69,4.6c3.26-2.82,8.53-10.71,5.77-13.1-1.36,2.16-1.66,4.37-8.36,9.34A16,16,0,0,1,165.24,155c6.86-1.53,20.44-21.94,12.71-34.66-2.78-4.59-8.42-9.48-11.18-10.48a25.4,25.4,0,0,1,11.58,4.54h0a9.49,9.49,0,0,0,.76.93c1.75,1.89,5.77,7.21,8.11,10.36h0a25.39,25.39,0,0,1,1.84,9.53" transform="translate(0 0)"/><path class="cls-4" d="M152.48,114.79a50.28,50.28,0,0,0-7.48,9.38c-.23-.86-.86-3.07-1.09-3.91,1.07-1.48,4.51-3.93,8.57-5.47" transform="translate(0 0)"/><path class="cls-7" d="M183.32,135.24a19.84,19.84,0,0,1-39.67.44,6,6,0,0,0,2.53-4.72,16.94,16.94,0,0,0-.56-4.35s0,0,0,0a19.84,19.84,0,0,1,37.7,8.64" transform="translate(0 0)"/><rect class="cls-8" x="158.63" y="99.08" width="9.86" height="4.86"/><rect class="cls-3" x="159.57" y="99.08" width="0.95" height="4.86"/><rect class="cls-3" x="163.01" y="99.08" width="0.95" height="4.86"/><rect class="cls-3" x="166.46" y="99.08" width="0.95" height="4.86"/><path class="cls-15" d="M135.78,134.59s2.49-2.73,5.22-3.39c-.49-2.52-1.8-5.33-5.44-3.83C130.59,130.16,135.78,134.59,135.78,134.59Z" transform="translate(0 0)"/><path class="cls-15" d="M142.23,164.67a8.23,8.23,0,0,0,3.58-4c-2.71-2.85-4.36-4.15-6.48-2.42C137,160.47,141.21,164.48,142.23,164.67Z" transform="translate(0 0)"/><path class="cls-15" d="M140,176.49c.88,0,3.13-3.09,1.83-4.84-1.5-1.62-5-2.45-6.35.15S139.16,176.49,140,176.49Z" transform="translate(0 0)"/><path class="cls-15" d="M155.33,88.58s1.12-1,4.71-.3c0,0,4.9-2.36,3.44-3.8S155.33,88.58,155.33,88.58Z" transform="translate(0 0)"/><path class="cls-15" d="M191.62,103.94s1.2,3.72-3.24,3.82-6.08-4.35-6-5.94,1.68-2.51,4.3-1.22A26.54,26.54,0,0,1,191.62,103.94Z" transform="translate(0 0)"/><path class="cls-6" d="M208.56,190c2.24-1.34,4.94-2.8,6.85-5.4s3.3-4.72,3.66-10.61a53.31,53.31,0,0,0-.41-11.45c1.1,5.3,3,14.12-.35,21.81-2.9,6.66-9.46,8.84-10.46,8.58-1.21-.28-1.82-1.42.71-2.93" transform="translate(0 0)"/><path class="cls-6" d="M204.71,192.92a1.12,1.12,0,1,1-1.12-1.12,1.12,1.12,0,0,1,1.12,1.12" transform="translate(0 0)"/><path class="cls-6" d="M129.8,158.51c7.25,7.37,11.47,9,13.26,9.36a16.16,16.16,0,0,1-6.39-2.66,35.55,35.55,0,0,1-15.11-14.84,28.56,28.56,0,0,1-1.94-8.58c.85,3.3,5.13,11.58,10.18,16.72" transform="translate(0 0)"/><path class="cls-7" d="M114.21,80.09c5.44-4.71,4.23-6.32,3.79-8.94l37.7-36.56a3.35,3.35,0,0,0,.08-4.74L128.52,1.52a3.35,3.35,0,0,0-4.73-.08l-17.5,17-22.75,22a3.35,3.35,0,0,0-.08,4.73l1.13,1.17,26.13,27.16c1.29,1.33,4.08,4.34,3.49,6.56" transform="translate(0 0)"/><line class="cls-16" x1="126.26" y1="12.28" x2="93.94" y2="43.74"/><line class="cls-16" x1="130.14" y1="16.16" x2="97.82" y2="47.62"/><line class="cls-16" x1="134.05" y1="20.07" x2="101.73" y2="51.53"/><line class="cls-16" x1="120.28" y1="50.96" x2="110.98" y2="59.98"/><path class="cls-16" d="M114.21,80.09c5.41-2.55,4.23-6.32,3.79-8.94l37.7-36.56a3.35,3.35,0,0,0,.08-4.74L128.52,1.52a3.35,3.35,0,0,0-4.73-.08l-17.5,17-22.75,22a3.35,3.35,0,0,0-.08,4.73l1.13,1.17,26.13,27.16C112,74.86,114.8,77.87,114.21,80.09Z" transform="translate(0 0)"/><path class="cls-16" d="M178.48,135.24a15,15,0,1,1-15-15A15,15,0,0,1,178.48,135.24Z" transform="translate(0 0)"/><path class="cls-16" d="M168.64,129.86a5.16,5.16,0,1,1-5.16-5.16A5.15,5.15,0,0,1,168.64,129.86Z" transform="translate(0 0)"/><circle class="cls-16" cx="163.48" cy="142.54" r="3.04"/><line class="cls-16" x1="163.56" y1="137.13" x2="163.56" y2="125.16"/><line class="cls-16" x1="146.68" y1="135.24" x2="150.22" y2="135.24"/><line class="cls-16" x1="163.56" y1="151.87" x2="163.56" y2="148.33"/><line class="cls-16" x1="163.56" y1="122.01" x2="163.56" y2="118.47"/><line class="cls-16" x1="176.71" y1="135.24" x2="180.25" y2="135.24"/><line class="cls-16" x1="151.06" y1="124.17" x2="153.56" y2="126.68"/><line class="cls-16" x1="172.33" y1="144.93" x2="174.83" y2="147.43"/><line class="cls-16" x1="151.45" y1="147.43" x2="153.96" y2="144.93"/><line class="cls-16" x1="173.46" y1="126.68" x2="175.96" y2="124.17"/><path class="cls-7" d="M54,41.61a.61.61,0,1,1-.61-.61.6.6,0,0,1,.61.61" transform="translate(0 0)"/><path class="cls-7" d="M58.18,41.61a.61.61,0,1,1-.6-.61.6.6,0,0,1,.6.61" transform="translate(0 0)"/><path class="cls-7" d="M75.3,140.58l-22.15.5a.74.74,0,0,1-.76-.72l-.14-6.28a.74.74,0,0,1,.72-.75l22.16-.5a.73.73,0,0,1,.75.72l.15,6.28a.75.75,0,0,1-.73.75" transform="translate(0 0)"/><path class="cls-7" d="M52.64,86c0-.11-1.24-10.9,7.93-13.45,7.22-1.75,10.19,4.83,10.22,4.9l-1,.44a7.64,7.64,0,0,0-8.93-4.27c-8.24,2.28-7.18,12-7.12,12.38Z" transform="translate(0 0)"/><path class="cls-7" d="M71.8,93.75H51.41a4.65,4.65,0,0,1-4.93-4.92c0-3.62,2.5-5.6,7-5.6v1.1c-4.93,0-5.9,2.38-5.9,4.5a3.56,3.56,0,0,0,3.83,3.82H71.8c2.9,0,6.09-.9,6.09-6a7.36,7.36,0,0,0-1.59-4.56A5.67,5.67,0,0,0,72,80.54a6.46,6.46,0,0,0-5.72,3.67l-1-.44A7.58,7.58,0,0,1,72,79.44a6.71,6.71,0,0,1,5.16,2A8.28,8.28,0,0,1,79,86.74c0,4.54-2.45,7-7.19,7" transform="translate(0 0)"/><polygon class="cls-7" points="67.42 84.41 64.41 82.64 64.88 85.28 67.42 84.41"/><polygon class="cls-7" points="71.25 75.96 68.21 77.66 70.72 78.59 71.25 75.96"/><path class="cls-4" d="M77.47,76.56,92.89,62.5s-5.14,10.55-8.76,10.92a13.32,13.32,0,0,0-6.66,3.14" transform="translate(0 0)"/><path class="cls-4" d="M71.44,69.53,86.87,55.47S81.73,66,78.11,66.39a13.37,13.37,0,0,0-6.67,3.14" transform="translate(0 0)"/><path class="cls-4" d="M83.36,82.9,98.79,68.85S93.65,79.39,90,79.76a13.47,13.47,0,0,0-6.67,3.14" transform="translate(0 0)"/></g></g></g></g></svg>