<svg xmlns="http://www.w3.org/2000/svg" viewBox="0 0 504.09 420.29"><defs><style>.cls-1,.cls-10{fill:none;}.cls-1{stroke:#33b5fe;stroke-linecap:round;stroke-linejoin:round;}.cls-2{fill:#33b5fe;}.cls-3{fill:#0e2d40;}.cls-4{fill:#195a81;}.cls-5{fill:#febfa7;}.cls-6{fill:#e7978e;}.cls-7,.cls-9{fill:#fff;}.cls-8{fill:#30a3e6;}.cls-9{opacity:0.45;}.cls-11,.cls-9{isolation:isolate;}.cls-10{stroke:#e7978e;stroke-miterlimit:10;}</style></defs><title>Ресурс 1</title><g id="Слой_2" data-name="Слой 2"><g id="Слой_1-2" data-name="Слой 1"><g id="Layer_12" data-name="Layer 12"><path class="cls-1" d="M.5,123.38s8.92-30,34.77-23.94S95.2,127,141.29,121c45.49-5.91,50.7-11.08,77.49-47.47"/><path class="cls-1" d="M.5,328.59s8.92-30,34.77-23.94,60.94,32.89,106,21.6C258.4,296.93,306.27,40.53,503.59,21"/><path class="cls-1" d="M.5,392.49s8.92-30,34.77-23.94,60.94,32.88,106,21.6c117.11-29.32,165-285.73,362.3-305.29"/><ellipse class="cls-2" cx="190.45" cy="3.25" rx="3.33" ry="3.25"/><ellipse class="cls-2" cx="116.34" cy="352.55" rx="3.33" ry="3.25"/><ellipse class="cls-2" cx="24.73" cy="120.73" rx="3.33" ry="3.25"/><ellipse class="cls-2" cx="31.84" cy="111.25" rx="2.2" ry="2.15"/><ellipse class="cls-2" cx="463.42" cy="154.79" rx="2.26" ry="2.21"/><ellipse class="cls-2" cx="149.9" cy="297.21" rx="2.26" ry="2.21"/><ellipse class="cls-2" cx="431.74" cy="66.77" rx="2.2" ry="2.15"/><path class="cls-3" d="M455.52,248.7v8.53a3.52,3.52,0,0,1-3.52,3.51H27.67a3.51,3.51,0,0,1-3.51-3.51h0V248.7a3.5,3.5,0,0,1,3.49-3.51H452a3.5,3.5,0,0,1,3.52,3.48Z"/><path class="cls-3" d="M411,36.2V235.28a9.9,9.9,0,0,1-9.89,9.91H78.6a9.75,9.75,0,0,1-2.94-.45,9.89,9.89,0,0,1-7-9.46V36.2a9.91,9.91,0,0,1,9.91-9.9H401.09a10.18,10.18,0,0,1,2.52.32,9.93,9.93,0,0,1,7.26,8A10.42,10.42,0,0,1,411,36.2Z"/><path class="cls-4" d="M404.35,44v66.65L400.83,116s-1.36-15.89-2.31-25c-.35-3.41-1.83-7.88-3.53-12.13V55.54a9.9,9.9,0,0,0-9.91-9.89H94.59a9.9,9.9,0,0,0-9.91,9.89h0V160c0,19.38-16,34.13-16,34.13v-147c.84-6,2.31-10,6.58-13.43,3.58-2.84,6.55-3.45,11.53-2.81,3.9.51,10.57,4.78,15,6.91,8.56,4.11,27.88,1.78,46.94-4.16s28.27-.88,32.43.94,10.52,1.32,10.52,1.32l202.06-.15C403.72,35.73,404.35,44,404.35,44Z"/><path class="cls-2" d="M395,55.54V211.81a9.91,9.91,0,0,1-9.91,9.9H94.59a9.91,9.91,0,0,1-9.91-9.9V55.54a9.9,9.9,0,0,1,9.91-9.89H385.08A9.9,9.9,0,0,1,395,55.53Z"/><path class="cls-4" d="M78,245.16s-5.35-8.72,1.53-16.62c9.66-11.09,39.91,3.33,52.16,6.88s28.63-.32,33.55-2.84-1.09,4.38,12,5.69,32.41-.09,55-3.67,61.21-10.7,86.88-9,12.4,19.59,12.4,19.59Z"/><path class="cls-5" d="M341.35,190.39v51.73s-17.7-2.27-23.89-9.82a8.53,8.53,0,0,1-2.11-5.91c.46-10.94,8.57-11.46,20.42-10.92,1.51.06,3.09.15,4.72.23-1.52-.16-3-.35-4.35-.58a50,50,0,0,1-5.94-1.34,25.41,25.41,0,0,1-9-4.35h0c-4.46-3.7-5-8.61-1.13-14,3.56-4.71,11.83-5.37,16.95-5.29A41.74,41.74,0,0,1,341.35,190.39Z"/><path class="cls-5" d="M341.35,276.77a30.86,30.86,0,0,1-9.9-1.59c-4.06-1.46-7.82-4.27-7.82-9.65,0-9.77,7.31-12.25,12.43-12.79a23.6,23.6,0,0,1,4.9,0Z"/><path class="cls-6" d="M341.35,190.39v51.73s-17.7-2.27-23.89-9.82a22.47,22.47,0,0,0,10.89,2.86c.78-7.11,4.46-16.74,7.42-19.69a2,2,0,0,1,.37-.35,29.52,29.52,0,0,1-5.94-1.34,38.16,38.16,0,0,1-9-4.35h0c.31,0,6.65,1.09,9.38,1.15-.21-4.17,2.73-16.06,6.43-20.44A41.93,41.93,0,0,1,341.35,190.39Z"/><path class="cls-6" d="M341.35,276.77a30.86,30.86,0,0,1-9.9-1.59c-1.66-12.57,2.61-19.81,4.61-22.44a23.6,23.6,0,0,1,4.9,0Z"/><path class="cls-3" d="M444,295.31a11.31,11.31,0,0,1-11.27,11.35h-33.8l-31.72.09-15.31.05h-.46a11.31,11.31,0,0,1-11.35-11.27h0L340,279.2l-.08-29v-15l-.08-26.1-.07-25.25V168.64l-.06-18.93-.09-30c0-6.25,2.14-11.35,11.28-11.35h81.28c10.86,0,11.34,7.49,11.35,11.28l.1,35.09v26.12l.1,34.4h0v29.31Z"/><path class="cls-7" d="M350.05,303.44l84.36-.24a7.24,7.24,0,0,0,7.22-7.26h0l-.52-178.32a7.23,7.23,0,0,0-7.25-7.21H417.05a3.31,3.31,0,0,0-3.31,3.31v0h0a7.24,7.24,0,0,1-7.22,7.26h0l-30.76.09a7.23,7.23,0,0,1-7.25-7.21h0a3.32,3.32,0,0,0-3.34-3.31H349.5a7.24,7.24,0,0,0-7.22,7.26h0l.52,178.32a7.23,7.23,0,0,0,7.16,7.3Z"/><path class="cls-7" d="M343.38,299a7.23,7.23,0,0,0,6.67,4.4l26-.07h17.16l41.17-.12A7.24,7.24,0,0,0,441.6,296h0V265.7l-.31-87.7-.05-16.07V145.88l-.06-19.4v-8.84a7.23,7.23,0,0,0-7.25-7.21H417.12a3.24,3.24,0,0,0-.82.11l-.28.09a2.45,2.45,0,0,0-.52.24,3.3,3.3,0,0,0-1.69,2.9,7.38,7.38,0,0,1-.58,2.86,7.15,7.15,0,0,1-1.05,1.73,6.93,6.93,0,0,1-2.58,2,7.22,7.22,0,0,1-3,.67l-30.76.09a7.23,7.23,0,0,1-7.25-7.21h0a3.25,3.25,0,0,0-.3-1.37,3.34,3.34,0,0,0-3-1.94H348.85a7.25,7.25,0,0,0-6.28,5.65,6.87,6.87,0,0,0-.17,1.57v37.6h0v23.94l.05,18h0v12.73h0l.08,31,.12,40V282h0v14.21A7.13,7.13,0,0,0,343.38,299Z"/><rect class="cls-8" x="373.3" y="290.49" width="37.14" height="2.44" rx="0.74"/><rect class="cls-8" x="357.2" y="234.89" width="68.47" height="43.17" rx="4.59"/><path class="cls-9" d="M443.61,175.59,340,279.2l-.08-29v-15l-.08-26.1,99.36-99.36a5.83,5.83,0,0,1,1.58,1.21c2.24,2.24,2.7,5.27,2.71,8.42l.1,35.09v15Z"/><polygon class="cls-9" points="443.76 230.24 367.17 306.84 351.86 306.89 443.73 215.03 443.76 230.24"/><path class="cls-5" d="M382.7,355.73c3.75,8.32,22.4,7.09,48.28,3.87s37-6,50.63-16.27,10.82-45.7,10.31-58.91-8.53-25.89-16.08-40.39c-5.2-10-9.28-21.93-12-31.69-1.18-4.16-2.1-7.93-2.78-11a2.71,2.71,0,0,0-.12-.55c-2.18-10.07-11.21-9.31-11.21-9.31s-4.79-.24-9.68,4.46c-12.94,15.59,3.73,57.55-9.85,74.9-14.13,19.84-13,35.74-13,35.74s-51.06.37-62.44.31C360,320,372,328,377.25,331.64S379,347.42,382.7,355.73Z"/><path class="cls-6" d="M354.7,306.92c27.77,26.44,61.42,15,61.42,15s.44.6,4.45,7.36c-1.63-6.65-3.43-22.71-3.43-22.71S366.08,307,354.7,306.92Z"/><path class="cls-10" d="M455.5,214.09c1.55,1.65,6.24,1.07,7.92-1.51-1.17-4.16-2.1-7.93-2.78-11a4.54,4.54,0,0,0-6.24-1.45l-.39.27C451,203.38,452.83,210.83,455.5,214.09Z"/><path class="cls-6" d="M484.92,290.78c.88,7.46-.89,34.33-9.4,41.21s-11.39,6.67-8.67,9.12c2.4,1.72,10.62-1.84,15.37-10.07C487.91,322.21,488.28,300.84,484.92,290.78Z"/><rect class="cls-8" x="348.76" y="128.76" width="6.9" height="2.9" rx="0.67"/><rect class="cls-8" x="424.84" y="128.76" width="6.9" height="2.9" rx="0.67"/><rect class="cls-4" x="381.89" y="113.86" width="17.65" height="2.9" rx="1.45"/><path class="cls-2" d="M275.55,245.19h-1.08a.87.87,0,0,1,.06.32v4a1.33,1.33,0,0,1-1.33,1.32H204.29a1.33,1.33,0,0,1-1.33-1.32v-4a.87.87,0,0,1,.06-.32h-1.08v4.32a2.38,2.38,0,0,0,2.37,2.37H273.2a2.38,2.38,0,0,0,2.37-2.37v-4C275.57,245.4,275.56,245.29,275.55,245.19Z"/><rect class="cls-7" x="367.7" y="248.55" width="45.96" height="5.88" rx="1.68"/><rect class="cls-7" x="367.7" y="261.22" width="45.96" height="5.88" rx="1.68"/><circle class="cls-7" cx="101.97" cy="117.41" r="2.04"/><circle class="cls-7" cx="101.97" cy="126.75" r="2.04"/><circle class="cls-7" cx="101.97" cy="136.1" r="2.04"/><circle class="cls-7" cx="101.97" cy="145.44" r="2.04"/><circle class="cls-7" cx="101.97" cy="154.79" r="2.04"/><path class="cls-8" d="M373.48,187.6c0-.18-2.1-18.57,13.52-22.9,12.29-3,17.35,8.22,17.4,8.33l-1.72.75c-.17-.4-4.5-9.88-15.21-7.27-14,3.89-12.22,20.39-12.13,21.09Z"/><path class="cls-8" d="M406.11,200.78H371.4c-5,0-8.4-3.34-8.4-8.39,0-6.15,4.25-9.52,11.93-9.52v1.87c-8.4,0-10.06,4.06-10.06,7.65,0,4,2.52,6.52,6.53,6.52h34.71c4.95,0,10.38-1.55,10.38-10.15,0-.11,0-4.81-2.71-7.76-1.67-1.8-4.17-2.72-7.41-2.72-6.85,0-9.63,6-9.74,6.26l-1.71-.76c.13-.3,3.36-7.37,11.45-7.37,3.79,0,6.75,1.12,8.8,3.33,3.29,3.57,3.2,8.88,3.19,9.1C418.36,196.57,414.2,200.78,406.11,200.78Z"/><polygon class="cls-8" points="398.66 184.87 393.53 181.86 394.34 186.35 398.66 184.87"/><polygon class="cls-8" points="405.19 170.48 400 173.38 404.29 174.96 405.19 170.48"/><path class="cls-5" d="M350.36,334.26s.57,5.9,1,18.83c.09,2.75-1,5.86-2.81,9.14-3,5.43-8.19,11.31-13.69,16.67a182.33,182.33,0,0,1-18.64,15.79c-10.41,7.58-12.93,26.42-21.22,25.57-11.9-1.42-25.29-6.75-37.57-13.12h-.07q-2.21-1.14-4.37-2.33c-15-8.25-27.76-17.57-33.17-22.31-10.26-9,4.77-27.12,4.77-27.12a82.14,82.14,0,0,1-2.24-9.42c-2.53-11,6.32-28.81,15.17-45.53s19.17-34.25,31.28-33.27c10,1.69,10.74,7.55,10.74,7.55a20.12,20.12,0,0,1,19.57-3.26c8.9,3.13,9.66,14.36,9.66,14.36s9.27-6,19.11-.5c9.61,5.35,5.38,18.68,5.18,19.31.55-1.05,18-34.53,24.58-42.28s20.14-4.78,22,4.36-28.76,66.72-29.22,67.59Z"/><path class="cls-6" d="M334.85,378.9a182.33,182.33,0,0,1-18.64,15.79c-10.41,7.58-12.93,26.42-21.22,25.57-11.9-1.42-25.29-6.75-37.57-13.12,6.82,3.15,20.57,7.58,34.67,1l-1.79,3.43s5.08-.84,9.87-8.52C304.09,396.73,322.1,387.91,334.85,378.9Z"/><path class="cls-6" d="M351.35,353.09c.09,2.75-1,5.86-2.81,9.14-1.08-4.86.59-12.36.59-12.36s-.4.6-4.29,1.89-2.79,1.7-4.38,4.79c-2.4-3.19,9.9-22.29,9.9-22.29S350.93,340.16,351.35,353.09Z"/><circle class="cls-6" cx="224.56" cy="377.67" r="2.02"/><path class="cls-6" d="M228.71,381.51a126.4,126.4,0,0,0,23.17,13.74c-5.81-4.65-17-12.17-19.61-15.05S227.54,380.63,228.71,381.51Z"/><g class="cls-11"><g class="cls-11"><path class="cls-8" d="M369.15,206.19H370v.71h-.8v2.41h-.92V206.9h-.49v-.71h.49v-.14a1.21,1.21,0,0,1,.32-.87,1.26,1.26,0,0,1,.91-.32,1.75,1.75,0,0,1,.4,0,1.11,1.11,0,0,1,.31.12l-.24.67a.7.7,0,0,0-.38-.11c-.28,0-.42.16-.42.46Z"/></g><g class="cls-11"><path class="cls-8" d="M373.49,208h-2.41a.74.74,0,0,0,.31.46,1,1,0,0,0,.6.18,1.09,1.09,0,0,0,.8-.31l.5.53a1.64,1.64,0,0,1-1.32.52,2,2,0,0,1-1-.21,1.58,1.58,0,0,1-.87-1.43,1.61,1.61,0,0,1,.22-.85,1.57,1.57,0,0,1,.61-.59,1.81,1.81,0,0,1,.87-.21,1.84,1.84,0,0,1,.85.2,1.59,1.59,0,0,1,.6.58,1.79,1.79,0,0,1,.21.88A2.09,2.09,0,0,1,373.49,208Zm-2.16-1a.76.76,0,0,0-.26.49h1.57a.76.76,0,0,0-.26-.49.78.78,0,0,0-.52-.18A.79.79,0,0,0,371.33,207Z"/><path class="cls-8" d="M377.24,208h-2.42a.78.78,0,0,0,.31.46,1,1,0,0,0,.61.18,1.23,1.23,0,0,0,.44-.08,1.16,1.16,0,0,0,.36-.23l.49.53a1.64,1.64,0,0,1-1.32.52,2,2,0,0,1-.95-.21,1.53,1.53,0,0,1-.64-.59,1.6,1.6,0,0,1-.23-.84,1.71,1.71,0,0,1,.22-.85,1.64,1.64,0,0,1,.61-.59,1.91,1.91,0,0,1,1.72,0,1.59,1.59,0,0,1,.6.58,1.79,1.79,0,0,1,.21.88S377.25,207.82,377.24,208Zm-2.17-1a.76.76,0,0,0-.26.49h1.57a.76.76,0,0,0-.26-.49.78.78,0,0,0-.52-.18A.79.79,0,0,0,375.07,207Z"/><path class="cls-8" d="M381.12,204.91v4.4h-.88v-.37a1.23,1.23,0,0,1-1,.42,1.74,1.74,0,0,1-.82-.2,1.51,1.51,0,0,1-.57-.58,2,2,0,0,1,0-1.73,1.51,1.51,0,0,1,.57-.58,1.74,1.74,0,0,1,.82-.2,1.21,1.21,0,0,1,1,.39v-1.55ZM380,208.36a1,1,0,0,0,0-1.29.77.77,0,0,0-.58-.24.79.79,0,0,0-.59.24,1,1,0,0,0,0,1.29.79.79,0,0,0,.59.24A.77.77,0,0,0,380,208.36Z"/></g><g class="cls-11"><path class="cls-8" d="M384.67,206.28a1.31,1.31,0,0,1,.57.57,1.89,1.89,0,0,1,0,1.73,1.36,1.36,0,0,1-.57.57,1.58,1.58,0,0,1-.81.21,1.22,1.22,0,0,1-1-.42v.37H382v-4.4h.92v1.55a1.24,1.24,0,0,1,1-.39A1.58,1.58,0,0,1,384.67,206.28Zm-.38,2.08a1.06,1.06,0,0,0,0-1.29.79.79,0,0,0-.59-.24.77.77,0,0,0-.58.24,1,1,0,0,0,0,1.29.77.77,0,0,0,.58.24A.79.79,0,0,0,384.29,208.36Z"/></g><g class="cls-11"><path class="cls-8" d="M388.44,206.43a1.32,1.32,0,0,1,.4,1.06v1.82H388v-.4a1,1,0,0,1-1,.45,1.44,1.44,0,0,1-.64-.13.92.92,0,0,1-.41-.34.94.94,0,0,1-.14-.5.83.83,0,0,1,.33-.7,1.73,1.73,0,0,1,1-.25h.74a.6.6,0,0,0-.19-.47.8.8,0,0,0-.55-.16,1.42,1.42,0,0,0-.5.08,1.27,1.27,0,0,0-.42.21l-.33-.64a2.09,2.09,0,0,1,.62-.29,3.22,3.22,0,0,1,.75-.1A1.62,1.62,0,0,1,388.44,206.43Zm-.79,2.2a.67.67,0,0,0,.27-.33V208h-.64c-.38,0-.57.12-.57.37a.34.34,0,0,0,.14.28.61.61,0,0,0,.38.1A.82.82,0,0,0,387.65,208.63Z"/></g><g class="cls-11"><path class="cls-8" d="M390.34,209.15a1.56,1.56,0,0,1-.63-.59,1.67,1.67,0,0,1,0-1.69,1.56,1.56,0,0,1,.63-.59,2,2,0,0,1,.92-.21,1.79,1.79,0,0,1,.88.21,1.28,1.28,0,0,1,.55.6l-.72.39a.8.8,0,0,0-.72-.44.81.81,0,0,0-.6.24,1,1,0,0,0,0,1.29.81.81,0,0,0,.6.24.78.78,0,0,0,.72-.44l.72.39a1.31,1.31,0,0,1-.55.59,1.69,1.69,0,0,1-.88.22A2,2,0,0,1,390.34,209.15Z"/></g><g class="cls-11"><path class="cls-8" d="M394.57,208.06l-.45.44v.81h-.92v-4.4h.92v2.49l1.35-1.28h1.11l-1.33,1.35,1.45,1.84h-1.13Z"/></g><g class="cls-11"><path class="cls-8" d="M397.6,209.15a1.56,1.56,0,0,1-.63-.59,1.67,1.67,0,0,1,0-1.69,1.56,1.56,0,0,1,.63-.59,2,2,0,0,1,.92-.21,1.79,1.79,0,0,1,.88.21,1.28,1.28,0,0,1,.55.6l-.72.39a.79.79,0,0,0-.72-.44.81.81,0,0,0-.6.24,1,1,0,0,0,0,1.29.81.81,0,0,0,.6.24.78.78,0,0,0,.72-.44l.72.39a1.31,1.31,0,0,1-.55.59,1.69,1.69,0,0,1-.88.22A2,2,0,0,1,397.6,209.15Z"/></g><g class="cls-11"><path class="cls-8" d="M400.46,204.91h.92v4.4h-.92Z"/><path class="cls-8" d="M402.86,209.15a1.56,1.56,0,0,1-.63-.59,1.67,1.67,0,0,1,0-1.69,1.56,1.56,0,0,1,.63-.59,2,2,0,0,1,1.8,0,1.53,1.53,0,0,1,.62.59,1.67,1.67,0,0,1,0,1.69,1.53,1.53,0,0,1-.62.59,2,2,0,0,1-1.8,0Zm1.48-.79a1,1,0,0,0,0-1.29.75.75,0,0,0-.58-.24.79.79,0,0,0-.59.24,1,1,0,0,0,0,1.29.79.79,0,0,0,.59.24A.75.75,0,0,0,404.34,208.36Z"/><path class="cls-8" d="M409.34,206.12v3.19h-.88v-.38a1.28,1.28,0,0,1-.44.32,1.42,1.42,0,0,1-.55.11,1.34,1.34,0,0,1-1-.36,1.44,1.44,0,0,1-.37-1.08v-1.8H407v1.67c0,.51.22.77.65.77a.7.7,0,0,0,.53-.22.88.88,0,0,0,.21-.64v-1.58Z"/><path class="cls-8" d="M413.45,204.91v4.4h-.88v-.37a1.23,1.23,0,0,1-1,.42,1.74,1.74,0,0,1-.82-.2,1.51,1.51,0,0,1-.57-.58,1.89,1.89,0,0,1,0-1.73,1.51,1.51,0,0,1,.57-.58,1.74,1.74,0,0,1,.82-.2,1.19,1.19,0,0,1,.95.39v-1.55Zm-1.14,3.45a1,1,0,0,0,0-1.29.77.77,0,0,0-.58-.24.79.79,0,0,0-.59.24,1,1,0,0,0,0,1.29.79.79,0,0,0,.59.24A.77.77,0,0,0,412.31,208.36Z"/></g></g><rect class="cls-8" x="189.05" y="90.07" width="105.16" height="99.47" rx="5.53"/><path class="cls-7" d="M289.58,105.35v69.23a4.69,4.69,0,0,1-4.69,4.71H199.78a4.71,4.71,0,0,1-4.72-4.7h0V105.35a4.72,4.72,0,0,1,4.72-4.72h85.1a4.71,4.71,0,0,1,4.7,4.72Z"/><rect class="cls-8" x="193.47" y="119.57" width="97.96" height="3.59"/><rect class="cls-8" x="193.47" y="169.88" width="97.96" height="1.79"/><path class="cls-3" d="M301.38,89.87v18.7a3.65,3.65,0,0,1-.63,2.05h0a3.7,3.7,0,0,1-3.08,1.65h-8.09v-6.93a4.71,4.71,0,0,0-4.7-4.72h-85.1a4.72,4.72,0,0,0-4.72,4.72h0v6.93H187a3.72,3.72,0,0,1-3.71-3.71V89.87a3.71,3.71,0,0,1,3.71-3.7H297.67A3.71,3.71,0,0,1,301.38,89.87Z"/><path class="cls-4" d="M300.75,110.62h0a3.7,3.7,0,0,1-3.08,1.65h-8.09v-6.93a4.71,4.71,0,0,0-4.7-4.72h-85.1a4.72,4.72,0,0,0-4.72,4.72h0v6.93H187a3.72,3.72,0,0,1-3.71-3.71V94.43s.31-4.36,5.42-4.36H268.4c6.34,0,9.11,4.8,14.75,3.15s3.57-2.52,9-2.52,5.56,1,5.56,7.21v8.53C297.69,107.22,300.93,107.07,300.75,110.62Z"/><circle class="cls-8" cx="210.31" cy="106.86" r="3.95"/><circle class="cls-8" cx="226.34" cy="106.86" r="3.95"/><circle class="cls-8" cx="242.37" cy="106.86" r="3.95"/><circle class="cls-8" cx="258.4" cy="106.86" r="3.95" transform="translate(111.53 344.81) rotate(-80.78)"/><circle class="cls-8" cx="274.43" cy="106.86" r="3.95"/><rect class="cls-3" x="208.87" y="93.02" width="2.88" height="12.89" rx="1.31"/><rect class="cls-3" x="224.9" y="93.02" width="2.88" height="12.89" rx="1.31"/><rect class="cls-3" x="240.93" y="93.02" width="2.88" height="12.89" rx="1.31"/><rect class="cls-3" x="256.96" y="93.02" width="2.88" height="12.89" rx="1.31"/><rect class="cls-3" x="272.99" y="93.02" width="2.88" height="12.89" rx="1.31"/><g class="cls-11"><path class="cls-8" d="M253.17,129.46v3.71l-9.18,21h-6.22l8.87-20.07h-8.2v4h-5.09v-8.7Z"/></g><g class="cls-11"><path class="cls-8" d="M234.63,163v2.36h-1.22V164.1h-4.32v1.25h-1.22V163h.27q.53,0,.72-.69a8.45,8.45,0,0,0,.26-1.88l.07-1.92h4.62V163Zm-4.47-.9a1.72,1.72,0,0,1-.42.9h2.76v-3.38h-2.15l0,.91A11.25,11.25,0,0,1,230.16,162.09Z"/><path class="cls-8" d="M235.81,158.5h1.31v2.28h2.82V158.5h1.31v5.6h-1.31v-2.21h-2.82v2.21h-1.31Z"/><path class="cls-8" d="M248.23,161.72h-4.4a1.53,1.53,0,0,0,.61,1,2,2,0,0,0,1.21.36,2,2,0,0,0,1.52-.61l.7.81a2.34,2.34,0,0,1-1,.68,3.38,3.38,0,0,1-1.3.23,3.53,3.53,0,0,1-1.63-.36,2.62,2.62,0,0,1-1.08-1,2.81,2.81,0,0,1-.38-1.48,2.92,2.92,0,0,1,.37-1.47,2.59,2.59,0,0,1,1-1,3.16,3.16,0,0,1,2.95,0,2.61,2.61,0,0,1,1,1,3.09,3.09,0,0,1,.36,1.51C248.25,161.42,248.24,161.55,248.23,161.72Zm-3.88-1.86a1.61,1.61,0,0,0-.53,1H247a1.59,1.59,0,0,0-.51-1,1.54,1.54,0,0,0-1.07-.38A1.58,1.58,0,0,0,244.35,159.86Z"/><path class="cls-8" d="M249.68,158.5H251v3.69l3.09-3.69h1.2v5.6H254v-3.69l-3.08,3.69h-1.21Zm1.42-1.05a1.47,1.47,0,0,1-.45-1.15h.87a.81.81,0,0,0,.23.6.86.86,0,0,0,.64.22.88.88,0,0,0,.63-.22.83.83,0,0,0,.25-.6h.89a1.47,1.47,0,0,1-.46,1.15,2.36,2.36,0,0,1-2.6,0Z"/></g><polygon class="cls-9" points="415.44 108.17 339.73 183.88 339.69 168.67 400.13 108.22 415.44 108.17"/><path class="cls-10" d="M359.37,271.2c2.65,3.52,6.53,5.46,11.4,6.15,0,0,5.57-8.45-.45-12.33C364,261.67,359.37,271.2,359.37,271.2Z"/><path class="cls-9" d="M364.38,26.3,145.49,245.19H78.6a9.75,9.75,0,0,1-2.94-.45L294.1,26.3Z"/><polygon class="cls-9" points="268.78 26.3 68.69 226.39 68.69 211.14 253.52 26.3 268.78 26.3"/><path class="cls-9" d="M410.86,34.61,200.29,245.19H185L403.6,26.62A9.93,9.93,0,0,1,410.86,34.61Z"/><circle class="cls-8" cx="360.26" cy="130.21" r="1.55"/><circle class="cls-8" cx="420.66" cy="130.21" r="1.55"/><circle class="cls-8" cx="415.44" cy="130.21" r="1.55"/><circle class="cls-7" cx="376.01" cy="115.31" r="1.55"/></g></g></g></svg>