<svg xmlns="http://www.w3.org/2000/svg" xmlns:xlink="http://www.w3.org/1999/xlink" viewBox="0 0 571.97 475.65"><defs><style>.cls-1{fill:url(#Безымянный_градиент_12);}.cls-2{fill:url(#Безымянный_градиент_12-2);}.cls-3{fill:url(#Безымянный_градиент_12-3);}.cls-4{fill:url(#Безымянный_градиент_12-4);}.cls-5{fill:url(#Безымянный_градиент_12-5);}.cls-6{fill:url(#Безымянный_градиент_12-6);}.cls-14,.cls-19,.cls-37,.cls-50,.cls-51,.cls-7{fill:none;}.cls-8{clip-path:url(#clip-path);}.cls-9{fill:#33b5fe;}.cls-10{fill:#e6e7e8;}.cls-11{fill:#00162d;}.cls-12{fill:#023373;}.cls-13{fill:#fff;}.cls-14,.cls-37{stroke:#fff;}.cls-14,.cls-19,.cls-37,.cls-50{stroke-linecap:round;}.cls-14,.cls-51{stroke-miterlimit:10;}.cls-15,.cls-17,.cls-18{fill:#88bf0f;}.cls-16{fill:#0476d9;}.cls-17{font-size:23.72px;}.cls-17,.cls-18{font-family:GothamPro-Black, Gotham Pro;font-weight:800;}.cls-18{font-size:18.68px;}.cls-19{stroke:#00162d;stroke-width:0.99px;}.cls-19,.cls-37,.cls-50{stroke-linejoin:round;}.cls-20{opacity:0.7;}.cls-21{clip-path:url(#clip-path-4);}.cls-22{clip-path:url(#clip-path-5);}.cls-23{mask:url(#mask);}.cls-24{fill:url(#Безымянный_градиент_11);}.cls-25{clip-path:url(#clip-path-6);}.cls-26{clip-path:url(#clip-path-7);}.cls-27{mask:url(#mask-2);}.cls-28{fill:url(#Безымянный_градиент_11-2);}.cls-29{clip-path:url(#clip-path-8);}.cls-30{clip-path:url(#clip-path-9);}.cls-31{mask:url(#mask-3);}.cls-32{fill:url(#Безымянный_градиент_11-3);}.cls-33{fill:#febfa7;}.cls-34{fill:#f9987a;}.cls-35{fill:#0e2d40;}.cls-36{fill:#195a81;}.cls-38{clip-path:url(#clip-path-10);}.cls-39{clip-path:url(#clip-path-11);}.cls-40{mask:url(#mask-4);}.cls-41{fill:url(#Безымянный_градиент_11-4);}.cls-42{clip-path:url(#clip-path-12);}.cls-43{clip-path:url(#clip-path-13);}.cls-44{mask:url(#mask-5);}.cls-45{fill:url(#Безымянный_градиент_11-5);}.cls-46{clip-path:url(#clip-path-14);}.cls-47{clip-path:url(#clip-path-15);}.cls-48{mask:url(#mask-6);}.cls-49{fill:url(#Безымянный_градиент_11-6);}.cls-50,.cls-51{stroke:#f9987a;}</style><linearGradient id="Безымянный_градиент_12" x1="51.62" y1="392.97" x2="52.62" y2="392.97" gradientTransform="matrix(298.59, 0, 0, -298.59, -15288.45, 117573.32)" gradientUnits="userSpaceOnUse"><stop offset="0"/><stop offset="0.08" stop-color="#252525"/><stop offset="0.22" stop-color="#5e5e5e"/><stop offset="0.36" stop-color="#8f8f8f"/><stop offset="0.5" stop-color="#b8b8b8"/><stop offset="0.63" stop-color="#d7d7d7"/><stop offset="0.76" stop-color="#ededed"/><stop offset="0.89" stop-color="#fafafa"/><stop offset="1" stop-color="#fff"/></linearGradient><linearGradient id="Безымянный_градиент_12-2" x1="51.62" y1="392.96" x2="52.62" y2="392.96" gradientTransform="matrix(298.59, 0, 0, -298.59, -15303.74, 117570.72)" xlink:href="#Безымянный_градиент_12"/><linearGradient id="Безымянный_градиент_12-3" x1="51.62" y1="392.95" x2="52.62" y2="392.95" gradientTransform="matrix(298.59, 0, 0, -298.59, -15319.18, 117557.44)" xlink:href="#Безымянный_градиент_12"/><linearGradient id="Безымянный_градиент_12-4" x1="51.62" y1="392.96" x2="52.62" y2="392.96" gradientTransform="matrix(79.52, 0, 0, -79.52, -3654.06, 31446.6)" xlink:href="#Безымянный_градиент_12"/><linearGradient id="Безымянный_градиент_12-5" x1="51.62" y1="392.96" x2="52.62" y2="392.96" gradientTransform="matrix(79.42, 0, 0, -79.42, -3648.59, 31440.47)" xlink:href="#Безымянный_градиент_12"/><linearGradient id="Безымянный_градиент_12-6" x1="51.62" y1="392.96" x2="52.62" y2="392.96" gradientTransform="matrix(62.08, 0, 0, -62.08, -2736.32, 24652.57)" xlink:href="#Безымянный_градиент_12"/><clipPath id="clip-path"><rect class="cls-7" x="51.62" y="94.95" width="520.35" height="298.01"/></clipPath><clipPath id="clip-path-4"><rect class="cls-7" x="205.57" y="133.4" width="216.11" height="209.16"/></clipPath><clipPath id="clip-path-5"><path class="cls-7" d="M421.68,141.05,220.17,342.56h-14.6L414.73,133.4a9.5,9.5,0,0,1,6.95,7.65"/></clipPath><mask id="mask" x="104.82" y="29.3" width="417.62" height="417.37" maskUnits="userSpaceOnUse"><rect class="cls-1" x="164.32" y="89.34" width="298.61" height="297.28" transform="translate(-80.07 238.24) rotate(-37.23)"/></mask><linearGradient id="Безымянный_градиент_11" x1="51.62" y1="392.97" x2="52.62" y2="392.97" gradientTransform="matrix(298.59, 0, 0, -298.59, -15288.45, 117573.31)" gradientUnits="userSpaceOnUse"><stop offset="0" stop-color="#fff"/><stop offset="1" stop-color="#fff"/></linearGradient><clipPath id="clip-path-6"><rect class="cls-7" x="100.9" y="133.09" width="276.29" height="209.47"/></clipPath><clipPath id="clip-path-7"><path class="cls-7" d="M377.19,133.09,167.72,342.56h-64a9.33,9.33,0,0,1-2.81-.43l209-209Z"/></clipPath><mask id="mask-2" x="0" y="0" width="478.1" height="475.66" maskUnits="userSpaceOnUse"><rect class="cls-2" x="65.69" y="70.86" width="346.72" height="333.94" transform="matrix(0.8, -0.6, 0.6, 0.8, -95.17, 193.08)"/></mask><linearGradient id="Безымянный_градиент_11-2" x1="51.62" y1="392.96" x2="52.62" y2="392.96" gradientTransform="matrix(298.59, 0, 0, -298.59, -15303.73, 117570.71)" xlink:href="#Безымянный_градиент_11"/><clipPath id="clip-path-8"><rect class="cls-7" x="94.23" y="133.09" width="191.48" height="191.48"/></clipPath><clipPath id="clip-path-9"><polygon class="cls-7" points="285.71 133.09 94.23 324.57 94.23 309.98 271.11 133.09 285.71 133.09"/></clipPath><mask id="mask-3" x="2" y="40.85" width="375.96" height="375.96" maskUnits="userSpaceOnUse"><rect class="cls-3" x="55.82" y="94.68" width="268.31" height="268.31" transform="translate(-99.73 161.56) rotate(-37.23)"/></mask><linearGradient id="Безымянный_градиент_11-3" x1="51.62" y1="392.95" x2="52.62" y2="392.95" gradientTransform="matrix(298.59, 0, 0, -298.59, -15319.18, 117557.43)" xlink:href="#Безымянный_градиент_11"/><clipPath id="clip-path-10"><rect class="cls-7" x="451.17" y="135.6" width="79.52" height="124.27"/></clipPath><clipPath id="clip-path-11"><path class="cls-7" d="M530.69,180.47l-79.4,79.4-.06-23.41-.06-21.63,79.24-79.23a5.68,5.68,0,0,1,.16,1.32l0,6.41V144l0,15.64v5l0,7.89Z"/></clipPath><mask id="mask-4" x="451.17" y="135.6" width="79.52" height="124.27" maskUnits="userSpaceOnUse"><rect class="cls-4" x="451.17" y="135.6" width="79.52" height="124.27"/></mask><linearGradient id="Безымянный_градиент_11-4" x1="51.62" y1="392.96" x2="52.62" y2="392.96" gradientTransform="matrix(79.52, 0, 0, -79.52, -3654.06, 31446.6)" xlink:href="#Безымянный_градиент_11"/><clipPath id="clip-path-12"><rect class="cls-7" x="451.32" y="188.01" width="79.42" height="88.12"/></clipPath><clipPath id="clip-path-13"><polygon class="cls-7" points="530.74 196.72 451.34 276.12 451.33 271.05 451.33 269.38 451.32 269.37 451.32 267.4 530.72 188 530.74 196.72"/></clipPath><mask id="mask-5" x="451.32" y="188.01" width="79.42" height="88.12" maskUnits="userSpaceOnUse"><rect class="cls-5" x="451.32" y="188.01" width="79.42" height="88.12"/></mask><linearGradient id="Безымянный_градиент_11-5" x1="51.62" y1="392.96" x2="52.62" y2="392.96" gradientTransform="matrix(79.42, 0, 0, -79.42, -3648.59, 31440.47)" xlink:href="#Безымянный_градиент_11"/><clipPath id="clip-path-14"><rect class="cls-7" x="468.77" y="224.55" width="62.08" height="62.06"/></clipPath><clipPath id="clip-path-15"><polygon class="cls-7" points="530.85 233.26 477.52 286.58 468.77 286.61 530.82 224.55 530.85 233.26"/></clipPath><mask id="mask-6" x="468.77" y="224.55" width="62.09" height="62.06" maskUnits="userSpaceOnUse"><rect class="cls-6" x="468.77" y="224.55" width="62.08" height="62.06"/></mask><linearGradient id="Безымянный_градиент_11-6" x1="51.62" y1="392.96" x2="52.62" y2="392.96" gradientTransform="matrix(62.08, 0, 0, -62.08, -2736.32, 24652.57)" xlink:href="#Безымянный_градиент_11"/></defs><title>Ресурс 1</title><g id="Слой_2" data-name="Слой 2"><g id="Слой_1-2" data-name="Слой 1"><g class="cls-8"><g class="cls-8"><path class="cls-9" d="M562.64,211.86c-4.83-11.46-9.72-22.91-15.24-34.06-10.61-21.44-24-42.12-43.31-56.68C486,107.5,463,99.33,440.29,103.75c-23.11,4.5-42.06,20.47-57.7,37.21-17.2,18.4-53.9,38.64-75.94,25.43-39.36-23.61-29.59-61.65-79.34-70.93a41.34,41.34,0,0,0-28.06,5.68c-36.09,22.64-45.13,61.65-55.33,96.08a690.31,690.31,0,0,0-18.85,81.65c-4.45,26.5-7.72,29.75-8.71,56.61-.74,20,2.21,43.58,22.71,52.94,9.57,4.37,21,6,34.37,3.08,11.8-2.57,330-87.25,354.16-98.81,10.33-4.94,21.3-9.56,30.26-16.84,8.67-7.05,13.77-16.75,14-28,.26-12.51-4.46-24.67-9.23-36"/><path class="cls-10" d="M103.71,346.39a13.32,13.32,0,0,1-13.3-13.31V142.57a13.32,13.32,0,0,1,13.3-13.3H412.32a13.28,13.28,0,0,1,13.14,11.17,13.6,13.6,0,0,1,.17,2.13V333.08a13.32,13.32,0,0,1-13.31,13.31Z"/><path class="cls-10" d="M103.71,343.55a10.48,10.48,0,0,1-10.47-10.47V142.57a10.49,10.49,0,0,1,10.47-10.47H412.32a10.84,10.84,0,0,1,2.66.34,10.47,10.47,0,0,1,7.68,8.45,10.29,10.29,0,0,1,.14,1.68V333.08a10.48,10.48,0,0,1-10.48,10.47Z"/><path class="cls-11" d="M421.8,142.57V333.08a9.47,9.47,0,0,1-9.48,9.48H103.71a9.47,9.47,0,0,1-9.48-9.48V142.57a9.48,9.48,0,0,1,9.48-9.48H412.32a9.48,9.48,0,0,1,9.36,8,9.45,9.45,0,0,1,.12,1.52"/><path class="cls-12" d="M415.14,150.72v64.09c0,13.63-8.65,17.47-4.79,38.14,7.06,37.94-3.86,53.06-3.86,53.06V161.08a9.48,9.48,0,0,0-9.48-9.47H119a9.48,9.48,0,0,0-9.48,9.47v100a68.75,68.75,0,0,1-8.64,32.66V153c0-16.28,12.68-17.21,18.09-8.36,4.73,7.76,16.87,1.65,35.45-2.8,23.49-5.62,25.51,1.44,39.9,1.44,11.93,0,201.19-.47,210.69-.47s10.11,7.9,10.11,7.9"/><path class="cls-9" d="M406.49,161.08V310.62a9.48,9.48,0,0,1-9.48,9.47H119a9.48,9.48,0,0,1-9.48-9.47V161.08a9.48,9.48,0,0,1,9.48-9.47H397a9.48,9.48,0,0,1,9.48,9.47"/><path class="cls-12" d="M103.16,342.54a13.38,13.38,0,0,1,4.71-15c10.93-8.87,34.2,3,45.93,6.44s16.38,5.68,29.14-1c4.69-2.45,8.4,4.15,17.38,4.88,12.53,1,28.81-2.07,50.43-5.5s58.54-7.89,83.14-8.64c7.89-.24,10,3.91,9.7,6.61-.84,7.51,3.14,10.17,19,5.3,19.21-5.9,47.77,6.84,47.77,6.84Z"/><path class="cls-13" d="M126.09,220.82a1,1,0,1,1-1-1,1,1,0,0,1,1,1"/><path class="cls-13" d="M126.09,229.92a1,1,0,1,1-1-1,1,1,0,0,1,1,1"/><path class="cls-13" d="M126.09,239a1,1,0,1,1-1-1,1,1,0,0,1,1,1"/><path class="cls-13" d="M126.09,248.11a1,1,0,1,1-1-1,1,1,0,0,1,1,1"/><path class="cls-13" d="M126.09,257.21a1,1,0,1,1-1-1,1,1,0,0,1,1,1"/><path class="cls-13" d="M130.2,173.22c0-.07-.83-7.36,5.37-9.08a6,6,0,0,1,6.9,3.3l-.68.3a5.18,5.18,0,0,0-6-2.88c-5.56,1.54-4.84,8.09-4.81,8.36Z"/><path class="cls-13" d="M143.15,178.45H129.38a3.14,3.14,0,0,1-3.33-3.33c0-2.44,1.68-3.77,4.73-3.77v.74c-3.33,0-4,1.61-4,3a2.41,2.41,0,0,0,2.59,2.59h13.77c2,0,4.11-.62,4.11-4a5,5,0,0,0-1.07-3.07,3.84,3.84,0,0,0-2.94-1.08,4.39,4.39,0,0,0-3.87,2.48l-.67-.3a5.1,5.1,0,0,1,4.54-2.92,4.53,4.53,0,0,1,3.49,1.32,5.6,5.6,0,0,1,1.26,3.6c0,3.07-1.65,4.74-4.85,4.74"/><polygon class="cls-13" points="140.19 172.14 138.16 170.94 138.47 172.73 140.19 172.14"/><polygon class="cls-13" points="142.78 166.43 140.72 167.58 142.42 168.21 142.78 166.43"/><line class="cls-14" x1="274.23" y1="166.39" x2="284.49" y2="166.39"/><line class="cls-14" x1="258.02" y1="166.39" x2="268.28" y2="166.39"/><line class="cls-14" x1="290.44" y1="166.39" x2="300.7" y2="166.39"/><line class="cls-14" x1="306.65" y1="166.39" x2="316.91" y2="166.39"/><line class="cls-14" x1="344.28" y1="166.39" x2="354.54" y2="166.39"/><path class="cls-14" d="M372.88,167.8H362.65a1.42,1.42,0,1,1,0-2.83h10.23a1.42,1.42,0,1,1,0,2.83Z"/><path class="cls-15" d="M305.06,287.34H210.29a5.53,5.53,0,0,1-5.53-5.53V197.73a5.54,5.54,0,0,1,5.53-5.53h94.77a5.53,5.53,0,0,1,5.52,5.53v84.08a5.52,5.52,0,0,1-5.52,5.53"/><path class="cls-13" d="M305.3,207.49v69.23a4.71,4.71,0,0,1-4.71,4.71h-85.1a4.71,4.71,0,0,1-4.72-4.71V207.49a4.72,4.72,0,0,1,4.72-4.72h85.1a4.72,4.72,0,0,1,4.71,4.72"/><path class="cls-12" d="M317.09,192v18.7a3.7,3.7,0,0,1-.62,2h0c-.67,1-5.77-6-5.77-6l-5.4.71a4.72,4.72,0,0,0-4.71-4.72L199,196.57V192a3.71,3.71,0,0,1,3.71-3.7H313.38a3.71,3.71,0,0,1,3.71,3.7"/><path class="cls-16" d="M316.47,212.76h0a3.71,3.71,0,0,1-3.09,1.66H305.3v-6.93a4.72,4.72,0,0,0-4.71-4.72h-85.1a4.72,4.72,0,0,0-4.72,4.72v6.93h-8.1a3.71,3.71,0,0,1-3.71-3.71V196.57s.3-4.36,5.41-4.36h79.69c6.34,0,9.11,4.8,14.76,3.15s3.56-2.52,9-2.52,5.55,1,5.55,7.21v4.57c-.17,6,3.24,4.59,3.07,8.14"/><path class="cls-16" d="M230,209a4,4,0,1,1-3.95-3.94A4,4,0,0,1,230,209"/><path class="cls-16" d="M246,209a4,4,0,1,1-3.95-3.94A4,4,0,0,1,246,209"/><path class="cls-16" d="M262,209a4,4,0,1,1-3.95-3.94A4,4,0,0,1,262,209"/><path class="cls-16" d="M278.06,209a4,4,0,1,1-3.95-3.94,4,4,0,0,1,3.95,3.94"/><path class="cls-16" d="M294.09,209a4,4,0,1,1-3.95-3.94,4,4,0,0,1,3.95,3.94"/><path class="cls-11" d="M226.15,208h-.27a1.3,1.3,0,0,1-1.3-1.31V196.46a1.31,1.31,0,0,1,1.3-1.31h.27a1.31,1.31,0,0,1,1.31,1.31v10.27a1.31,1.31,0,0,1-1.31,1.31"/><path class="cls-11" d="M242.18,208h-.27a1.3,1.3,0,0,1-1.3-1.31V196.46a1.31,1.31,0,0,1,1.3-1.31h.27a1.31,1.31,0,0,1,1.31,1.31v10.27a1.31,1.31,0,0,1-1.31,1.31"/><path class="cls-11" d="M258.21,208H258a1.3,1.3,0,0,1-1.31-1.31V196.46a1.31,1.31,0,0,1,1.31-1.31h.26a1.31,1.31,0,0,1,1.31,1.31v10.27a1.31,1.31,0,0,1-1.31,1.31"/><path class="cls-11" d="M274.24,208H274a1.3,1.3,0,0,1-1.31-1.31V196.46a1.31,1.31,0,0,1,1.31-1.31h.26a1.31,1.31,0,0,1,1.31,1.31v10.27a1.31,1.31,0,0,1-1.31,1.31"/><path class="cls-11" d="M290.27,208H290a1.3,1.3,0,0,1-1.31-1.31V196.46a1.31,1.31,0,0,1,1.31-1.31h.26a1.31,1.31,0,0,1,1.31,1.31v10.27a1.3,1.3,0,0,1-1.31,1.31"/></g><text class="cls-17" transform="translate(225.41 252.57)">7</text><text class="cls-18" transform="translate(241.31 252.57)">дней</text><g class="cls-8"><path class="cls-19" d="M254.13,287.34h51a5.41,5.41,0,0,0,5.41-5.41V251.36"/><line class="cls-19" x1="310.58" y1="239.08" x2="310.58" y2="241.03"/><path class="cls-19" d="M210.77,227.42v49.86a4.15,4.15,0,0,0,4.15,4.15h27.13"/><line class="cls-19" x1="247.34" y1="281.43" x2="248.59" y2="281.43"/><g class="cls-20"><g class="cls-21"><g class="cls-22"><g class="cls-23"><rect class="cls-24" x="164.32" y="89.34" width="298.61" height="297.28" transform="translate(-80.07 238.24) rotate(-37.23)"/></g></g></g></g><g class="cls-20"><g class="cls-25"><g class="cls-26"><g class="cls-27"><rect class="cls-28" x="65.69" y="70.86" width="346.72" height="333.94" transform="translate(-95.17 193.08) rotate(-37.23)"/></g></g></g></g><g class="cls-20"><g class="cls-29"><g class="cls-30"><g class="cls-31"><rect class="cls-32" x="55.82" y="94.68" width="268.31" height="268.31" transform="translate(-99.73 161.56) rotate(-37.23)"/></g></g></g></g><path class="cls-10" d="M464.41,338.92v8.16a3.36,3.36,0,0,1-3.36,3.36H55a3.36,3.36,0,0,1-3.36-3.36v-8.16A3.35,3.35,0,0,1,55,335.56H461.05a3.35,3.35,0,0,1,3.36,3.36"/><path class="cls-19" d="M433.83,335.56h27.22a3.35,3.35,0,0,1,3.36,3.36v8.16a3.36,3.36,0,0,1-3.36,3.36H310.58"/><path class="cls-11" d="M292.19,335.56h-1a.81.81,0,0,1,0,.31v3.86a1.27,1.27,0,0,1-1.27,1.27H224a1.27,1.27,0,0,1-1.27-1.27v-3.86a.81.81,0,0,1,.05-.31h-1a3,3,0,0,0,0,.31v3.86A2.27,2.27,0,0,0,224,342h65.94a2.27,2.27,0,0,0,2.27-2.27v-3.86a3,3,0,0,0,0-.31"/><line class="cls-19" x1="303.81" y1="350.44" x2="302.52" y2="350.44"/><path class="cls-33" d="M450.19,195.55v41.68s-14.26-1.83-19.25-7.91a6.87,6.87,0,0,1-1.7-4.76c.37-8.82,6.9-9.24,16.45-8.8l3.8.18c-1.22-.13-2.39-.28-3.5-.46a42.14,42.14,0,0,1-4.79-1.08,20.5,20.5,0,0,1-7.22-3.51l0,0h0c-3.59-3-4.05-6.93-.91-11.28,2.87-3.79,9.53-4.32,13.66-4.26,2.06,0,3.49.22,3.49.22"/><path class="cls-33" d="M450.19,265.15a25,25,0,0,1-8-1.28c-3.27-1.18-6.3-3.45-6.3-7.78,0-7.87,5.89-9.87,10-10.3a18.24,18.24,0,0,1,3.95,0Z"/><path class="cls-34" d="M450.19,195.55v41.68s-14.26-1.83-19.25-7.91a18.12,18.12,0,0,0,8.77,2.3c.63-5.73,3.6-13.49,6-15.86a1.58,1.58,0,0,1,.3-.28,24.47,24.47,0,0,1-4.79-1.08,30.55,30.55,0,0,1-7.22-3.51l0,0c.25,0,5.36.88,7.56.93-.17-3.36,2.2-12.94,5.18-16.47,2.06,0,3.49.22,3.49.22"/><path class="cls-34" d="M450.19,265.15a25,25,0,0,1-8-1.28c-1.34-10.13,2.1-16,3.71-18.08a18.24,18.24,0,0,1,3.95,0Z"/><path class="cls-35" d="M532.86,280.08a9.12,9.12,0,0,1-9.09,9.15l-14.71,0-12.51,0-25.56.07-12.34,0h-.37a9.11,9.11,0,0,1-9.14-9.08l0-13.22L449,243.75l0-12.07-.06-21-.06-20.34,0-12.26-.05-15.25-.07-24.2c0-5,1.73-9.14,9.09-9.14l14,0,9.3,0,12.52,0h3.9l12.33,0,13.42,0c8.75,0,9.14,6,9.15,9.08l.08,28.28,0,12.07,0,4.93v4.05l.08,27.72h0l0,12.26,0,11.36Z"/><path class="cls-13" d="M457.2,286.64l68-.2a5.84,5.84,0,0,0,5.82-5.85l-.42-143.67a5.83,5.83,0,0,0-5.85-5.81l-13.54,0a2.68,2.68,0,0,0-2.67,2.68,5.82,5.82,0,0,1-5.81,5.85l-24.78.08a5.84,5.84,0,0,1-5.85-5.82,2.69,2.69,0,0,0-2.69-2.67l-12.63,0a5.82,5.82,0,0,0-5.81,5.85l.41,143.66a5.86,5.86,0,0,0,5.85,5.82"/><path class="cls-13" d="M451.83,283.09a5.82,5.82,0,0,0,5.37,3.55l21-.06h1.89l9.66,0H492l33.18-.09a5.84,5.84,0,0,0,5.82-5.85v-2.43l0-8.07,0-4.44v-9.42l-.21-70.68,0-13,0-7.87v-5l0-15.64v-.71l0-6.41a5.83,5.83,0,0,0-5.85-5.81l-13.49,0h-.05a2.91,2.91,0,0,0-.66.08l-.22.07a2,2,0,0,0-.42.2,2.68,2.68,0,0,0-1.37,2.33,5.71,5.71,0,0,1-.46,2.31,6.85,6.85,0,0,1-.37.71,5.33,5.33,0,0,1-.48.69,6,6,0,0,1-2.08,1.61,5.75,5.75,0,0,1-2.42.53l-24.78.08a5.81,5.81,0,0,1-5.08-2.94,5.74,5.74,0,0,1-.77-2.88,2.65,2.65,0,0,0-.24-1.1,2.7,2.7,0,0,0-2.45-1.57l-12.63,0a4.29,4.29,0,0,0-.62,0,5.82,5.82,0,0,0-5.05,4.55,5.32,5.32,0,0,0-.14,1.27l0,9.09,0,6.57,0,8.58v8l0,6.6v10.77l0,14.47h0l0,10.26h0l.06,25,.1,32.26v.65h0v1.67l0,8.79v1a5.91,5.91,0,0,0,.48,2.27"/><path class="cls-36" d="M484.64,134.34h12.78a.72.72,0,0,1,0,1.44H484.64a.72.72,0,1,1,0-1.44"/><path class="cls-9" d="M476.62,278.17h28.54a.69.69,0,0,0,0-1.38H476.62a.69.69,0,0,0,0,1.38"/><path class="cls-9" d="M466.89,232.39l46-.13a4.59,4.59,0,0,1,4.6,4.58l.08,25.6A4.59,4.59,0,0,1,513,267l-46,.14a4.59,4.59,0,0,1-4.61-4.58l-.07-25.6a4.59,4.59,0,0,1,4.57-4.61"/><path class="cls-9" d="M456.82,145.9h4.23a.67.67,0,0,1,.67.66v1a.67.67,0,0,1-.67.66h-4.23a.67.67,0,0,1-.66-.66v-1a.67.67,0,0,1,.66-.66"/><path class="cls-9" d="M518.13,145.9h4.23a.67.67,0,0,1,.66.66v1a.67.67,0,0,1-.66.66h-4.23a.67.67,0,0,1-.67-.66v-1a.67.67,0,0,1,.67-.66"/><path class="cls-9" d="M474.16,198.34c0-.17-1.94-17.05,12.4-21,11.28-2.75,15.92,7.54,16,7.65l-1.57.69c-.16-.37-4.13-9.07-14-6.68-12.87,3.57-11.21,18.71-11.13,19.36Z"/><path class="cls-9" d="M504.1,210.42H472.24a7.26,7.26,0,0,1-7.7-7.69c0-5.64,3.9-8.74,10.94-8.74v1.72c-7.7,0-9.22,3.72-9.22,7a5.56,5.56,0,0,0,6,6H504.1c4.54,0,9.52-1.42,9.52-9.31,0-.1,0-4.41-2.49-7.12-1.53-1.65-3.82-2.49-6.8-2.49-6.28,0-8.83,5.5-8.94,5.74l-1.56-.7c.12-.28,3.08-6.76,10.5-6.76,3.48,0,6.2,1,8.07,3.06,3,3.26,3,8.14,2.93,8.34,0,7.09-3.82,10.95-11.23,10.95"/><polygon class="cls-9" points="497.25 195.83 492.55 193.06 493.29 197.19 497.25 195.83"/><polygon class="cls-9" points="503.25 182.63 498.49 185.29 502.42 186.74 503.25 182.63"/><path class="cls-9" d="M466.68,147.06a1.25,1.25,0,1,1-1.25-1.24,1.25,1.25,0,0,1,1.25,1.24"/><path class="cls-9" d="M515.33,147.06a1.25,1.25,0,1,1-1.24-1.24,1.25,1.25,0,0,1,1.24,1.24"/><path class="cls-9" d="M511.13,147.06a1.25,1.25,0,1,1-1.25-1.24,1.25,1.25,0,0,1,1.25,1.24"/><path class="cls-13" d="M506.77,259.73H473.1a1.68,1.68,0,0,1-1.68-1.68v-.51a1.68,1.68,0,0,1,1.68-1.67h33.67a1.68,1.68,0,0,1,1.68,1.67v.51a1.68,1.68,0,0,1-1.68,1.68"/><path class="cls-36" d="M479,135.06a.89.89,0,1,1-.88-.88.88.88,0,0,1,.88.88"/><line class="cls-19" x1="537.91" y1="329.55" x2="538.2" y2="329.49"/><line class="cls-37" x1="470.25" y1="240.91" x2="508.45" y2="240.91"/><line class="cls-37" x1="470.25" y1="245.68" x2="508.45" y2="245.68"/><line class="cls-37" x1="470.25" y1="250.75" x2="508.45" y2="250.75"/><g class="cls-20"><g class="cls-38"><g class="cls-39"><g class="cls-40"><rect class="cls-41" x="451.17" y="135.6" width="79.52" height="124.27"/></g></g></g></g><g class="cls-20"><g class="cls-42"><g class="cls-43"><g class="cls-44"><rect class="cls-45" x="451.32" y="188.01" width="79.42" height="88.12"/></g></g></g></g><g class="cls-20"><g class="cls-46"><g class="cls-47"><g class="cls-48"><rect class="cls-49" x="468.77" y="224.55" width="62.08" height="62.06"/></g></g></g></g><path class="cls-33" d="M483.51,328.77c3,6.7,18.05,5.71,38.89,3.11s29.81-4.83,40.8-13.1,8.71-36.83,8.31-47.47-6.88-20.86-13-32.54a139.69,139.69,0,0,1-9.69-25.54c-.94-3.35-1.69-6.38-2.23-8.83,0-.15-.07-.3-.1-.44-1.76-8.12-9-7.51-9-7.51s-3.86-.19-7.8,3.6c-10.43,12.56,3,46.37-7.94,60.34-11.39,16-10.51,28.8-10.51,28.8s-41.14.3-50.31.25c4.26,10.55,13.88,17,18.13,19.94s1.43,12.69,4.44,19.39"/><path class="cls-34" d="M460.94,289.44c22.38,21.3,49.49,12.11,49.49,12.11s.36.49,3.59,5.94c-1.31-5.36-2.77-18.3-2.77-18.3s-41.14.3-50.31.25"/><path class="cls-50" d="M547,204.49c-1.66-2.79-4.65-2-6-.85-2.43,2.38-.54,7,1.61,9.63,1.25,1.33,5,.86,6.38-1.22"/><path class="cls-34" d="M565.87,276.43c.71,6-.73,27.67-7.58,33.21s-9.18,5.37-7,7.35c1.94,1.38,8.56-1.49,12.38-8.12,4.59-7.12,4.89-24.33,2.19-32.44"/><path class="cls-19" d="M539.82,196.44s-8.12-.9-11.78,6.15-2,28.23-2,28.23"/><line class="cls-19" x1="526.29" y1="237.23" x2="526.29" y2="238.37"/><path class="cls-19" d="M481.77,318a39.06,39.06,0,0,0,.9,8.33c1,3.83,3.11,6.62,9.26,7.11,12.5,1,40.65-2.94,40.65-2.94"/><path class="cls-33" d="M457.45,311.47s.46,4.75.8,15.17A14.75,14.75,0,0,1,456,334c-2.45,4.38-6.59,9.11-11,13.43a147.82,147.82,0,0,1-15,12.72c-8.39,6.11-10.42,21.29-17.1,20.6-9.59-1.14-20.38-5.43-30.27-10.57a.09.09,0,0,1-.06,0c-1.18-.61-2.36-1.24-3.52-1.87-12.08-6.65-22.36-14.16-26.72-18-8.27-7.25,3.84-21.85,3.84-21.85a65.93,65.93,0,0,1-1.81-7.59c-2-8.83,5.1-23.21,12.23-36.68s15.44-27.6,25.2-26.81c8,1.36,8.65,6.08,8.65,6.08a16.23,16.23,0,0,1,15.77-2.62c7.17,2.52,7.78,11.57,7.78,11.57s7.47-4.82,15.4-.41c7.74,4.31,4.34,15.05,4.17,15.56.45-.84,14.49-27.82,19.81-34.06S479.53,249.64,481,257s-23.17,53.76-23.54,54.46Z"/><path class="cls-34" d="M445,347.43a147.82,147.82,0,0,1-15,12.72c-8.39,6.11-10.42,21.29-17.1,20.6-9.59-1.14-20.38-5.43-30.27-10.57,5.49,2.54,16.57,6.11,27.93.78l-1.44,2.77s4.09-.68,7.95-6.87c3.16-5.06,17.67-12.17,27.94-19.43"/><path class="cls-34" d="M458.25,326.64A14.75,14.75,0,0,1,456,334c-.87-3.92.48-10,.48-10s-.32.49-3.46,1.53-2.24,1.36-3.53,3.85c-1.93-2.57,8-17.95,8-17.95s.46,4.75.8,15.17"/><path class="cls-34" d="M357.72,346.44a1.63,1.63,0,1,1-1.63-1.63,1.63,1.63,0,0,1,1.63,1.63"/><path class="cls-34" d="M359.44,349.53a101.34,101.34,0,0,0,18.67,11.07c-4.68-3.74-13.68-9.8-15.81-12.12s-3.81.35-2.86,1"/><path class="cls-51" d="M464.71,260.66c2.14,2.83,5.26,4.4,9.18,5,0,0,4.49-6.82-.36-9.94C468.46,253,464.71,260.66,464.71,260.66Z"/><path class="cls-19" d="M459.06,259.65s5.61-11.85,15-9.44,7.28,10,4.46,16.93c-1.42,3.49-6.64,15.71-12.52,27.62C460.2,306.51,453.74,318,453.74,318"/><path class="cls-19" d="M371.72,274.84s-13.61,26-15,29.76c-2.28,6.34-4.6,16.24-.65,23.85,0,0-6.68,9.23-6.71,14.64,0,4.46-.24,6.86,28.71,24.69"/><line class="cls-19" x1="381.69" y1="369.72" x2="382.57" y2="370.18"/><path class="cls-19" d="M378,265.62s7.35-10.09,15.15-8c6.58,1.8,7.24,5.79,7.24,5.79s6.65-6.71,17.26-2"/><line class="cls-19" x1="375.99" y1="268.24" x2="376.35" y2="267.75"/><path class="cls-19" d="M457.45,311.47l.8,15.17s.54,3.4-4.17,10.38"/></g></g></g></g></svg>