<svg xmlns="http://www.w3.org/2000/svg" xmlns:xlink="http://www.w3.org/1999/xlink" viewBox="0 0 543.83 385.21"><defs><style>.cls-1{clip-path:url(#clip-path);}.cls-15,.cls-2,.cls-37,.cls-38,.cls-52,.cls-53,.cls-60,.cls-61{fill:none;}.cls-3{isolation:isolate;}.cls-4{fill:#fff;}.cls-5{fill:url(#Безымянный_градиент_14);}.cls-6{fill:url(#Безымянный_градиент_14-2);}.cls-7{fill:url(#Безымянный_градиент_10);}.cls-8{fill:url(#Безымянный_градиент_14-3);}.cls-9{fill:url(#Безымянный_градиент_10-2);}.cls-10{fill:url(#Безымянный_градиент_14-4);}.cls-11{fill:url(#Безымянный_градиент_14-5);}.cls-12{clip-path:url(#clip-path-2);}.cls-13{fill:#33b5fe;}.cls-14{fill:#f23568;}.cls-15{stroke:#e6e7e8;}.cls-15,.cls-38,.cls-61{stroke-miterlimit:10;}.cls-16{fill:#3f8c08;}.cls-17{fill:#88bf0f;}.cls-18{fill:#0476d9;}.cls-19{fill:#104009;}.cls-20{fill:#1c590b;}.cls-21{fill:#023373;}.cls-22{fill:#e6e7e8;}.cls-23{fill:#febfa7;}.cls-24{fill:#f9987a;}.cls-25{fill:#00162d;}.cls-26{opacity:0.45;}.cls-27{clip-path:url(#clip-path-4);}.cls-28{mask:url(#mask);}.cls-29{clip-path:url(#clip-path-5);}.cls-30{fill:#d1d3d4;}.cls-31{clip-path:url(#clip-path-6);}.cls-32{mask:url(#mask-2);}.cls-33{fill:url(#Безымянный_градиент_13);}.cls-34{clip-path:url(#clip-path-7);}.cls-35{mask:url(#mask-3);}.cls-36{fill:url(#Безымянный_градиент_13-2);}.cls-37,.cls-38,.cls-61{stroke:#fff;}.cls-37,.cls-52,.cls-53,.cls-60,.cls-61{stroke-linecap:round;}.cls-37,.cls-52,.cls-53,.cls-60{stroke-linejoin:round;}.cls-37,.cls-38{stroke-width:0.99px;}.cls-39{opacity:0.7;}.cls-40{clip-path:url(#clip-path-8);}.cls-41{clip-path:url(#clip-path-9);}.cls-42{mask:url(#mask-4);}.cls-43{fill:url(#Безымянный_градиент_13-3);}.cls-44{clip-path:url(#clip-path-10);}.cls-45{clip-path:url(#clip-path-11);}.cls-46{mask:url(#mask-5);}.cls-47{fill:url(#Безымянный_градиент_13-4);}.cls-48{clip-path:url(#clip-path-12);}.cls-49{clip-path:url(#clip-path-13);}.cls-50{mask:url(#mask-6);}.cls-51{fill:url(#Безымянный_градиент_13-5);}.cls-52{stroke:#f9987a;}.cls-53{stroke:#023373;stroke-width:1.42px;}.cls-54{clip-path:url(#clip-path-14);}.cls-55{mask:url(#mask-7);}.cls-56{fill:url(#Безымянный_градиент_13-6);}.cls-57{clip-path:url(#clip-path-15);}.cls-58{mask:url(#mask-8);}.cls-59{fill:url(#Безымянный_градиент_13-7);}.cls-60{stroke:#00162d;}</style><clipPath id="clip-path"><rect class="cls-2" x="120.43" y="6.75" width="374.03" height="374.05"/></clipPath><linearGradient id="Безымянный_градиент_14" y1="385.22" x2="1" y2="385.22" gradientTransform="matrix(-60.41, 0, 0, 60.41, 347.3, -23050.03)" gradientUnits="userSpaceOnUse"><stop offset="0"/><stop offset="0.08" stop-color="#252525"/><stop offset="0.22" stop-color="#5e5e5e"/><stop offset="0.36" stop-color="#8f8f8f"/><stop offset="0.5" stop-color="#b8b8b8"/><stop offset="0.63" stop-color="#d7d7d7"/><stop offset="0.76" stop-color="#ededed"/><stop offset="0.89" stop-color="#fafafa"/><stop offset="1" stop-color="#fff"/></linearGradient><linearGradient id="Безымянный_градиент_14-2" x1="0" y1="385.18" x2="1" y2="385.18" gradientTransform="matrix(-60.41, 0, 0, 60.41, 308.85, -23069.81)" xlink:href="#Безымянный_градиент_14"/><linearGradient id="Безымянный_градиент_10" y1="385.21" x2="1" y2="385.21" gradientTransform="matrix(83.36, 0, 0, -83.36, 242, 32387.32)" gradientUnits="userSpaceOnUse"><stop offset="0"/><stop offset="1" stop-color="#fff"/></linearGradient><linearGradient id="Безымянный_градиент_14-3" x1="0" y1="385.21" x2="1" y2="385.21" gradientTransform="matrix(141.08, 0, 0, -141.08, 244.38, 54489.41)" xlink:href="#Безымянный_градиент_14"/><linearGradient id="Безымянный_градиент_10-2" x1="0" y1="385.21" x2="1" y2="385.21" gradientTransform="matrix(141.08, 0, 0, -141.08, 247.1, 54528.13)" xlink:href="#Безымянный_градиент_10"/><linearGradient id="Безымянный_градиент_14-4" x1="0" y1="385.22" x2="1" y2="385.22" gradientTransform="matrix(-56.19, 0, 0, 56.19, 202.24, -21418)" xlink:href="#Безымянный_градиент_14"/><linearGradient id="Безымянный_градиент_14-5" x1="0" y1="385.19" x2="1" y2="385.19" gradientTransform="matrix(-56.19, 0, 0, 56.19, 180.46, -21430.89)" xlink:href="#Безымянный_градиент_14"/><clipPath id="clip-path-2"><rect class="cls-2" width="543.83" height="385.21"/></clipPath><clipPath id="clip-path-4"><rect class="cls-2" x="299.95" y="68.08" width="89.89" height="87.6"/></clipPath><mask id="mask" x="120.43" y="6.75" width="374.03" height="376.85" maskUnits="userSpaceOnUse"><g class="cls-1"><rect x="120.43" y="6.75" width="374.03" height="376.85"/><g class="cls-3"><path class="cls-4" d="M210.93,263.94a8.39,8.39,0,0,0,4.88,7.87l27.41,12.55,1.39.64,1,.48,0,0,12.62,5.77,2.72,1.24.24.11,43.35,19.85a8.38,8.38,0,0,0,11.11-4.13l.14-.31,1.31-2.86L322,294.62l2.66-5.8,3.63-7.93,2-4.38,42.28-92.35,7.74-16.92L385.05,157l.83-1.83,2.19-4.77,9.35-20.43.43-.93,3.83-8.37a8.38,8.38,0,0,0-4.13-11.11l-17.63-8.07-.06,0a3.85,3.85,0,0,0-.91-.29l-.34,0a3.64,3.64,0,0,0-.66,0,3.84,3.84,0,0,0-3.19,2.23,8.36,8.36,0,0,1-2,2.73,8.68,8.68,0,0,1-.9.7,8.37,8.37,0,0,1-8.21.7L331.27,92.62a8.38,8.38,0,0,1-4.13-11.11,3.78,3.78,0,0,0,.35-1.59,3.85,3.85,0,0,0-2.25-3.51l-16.5-7.56a8.34,8.34,0,0,0-10.16,2.56,8,8,0,0,0-.95,1.57l-14.5,31.68L281,109.31l-1.49,3.25s0,0,0,0l-1.16,2.51-3.95,8.63-1.7,3.71-2.81,6.14-1.29,2.82-.64,1.4-8.66,18.91h0l-6.14,13.4h0l-14.93,32.59-19.3,42.15-.39.86h0l-1,2.18-5.26,11.48-.59,1.29a8.32,8.32,0,0,0-.75,3.24"/></g></g></mask><clipPath id="clip-path-5"><rect class="cls-2" x="120.43" y="6.75" width="374.03" height="374.05"/></clipPath><clipPath id="clip-path-6"><path class="cls-2" d="M300,218.84s-1.28,27.95,10.63,27.95,18.06-18.31,18.06-34.47c-.27-11.08-2.42-17.31-2.91-18.57h0c-4.71.7-22.33,7.26-24.36,10.83S300,218.84,300,218.84"/></clipPath><mask id="mask-2" x="277.04" y="181.5" width="73.32" height="77.54" maskUnits="userSpaceOnUse"><rect class="cls-5" x="283.26" y="194.76" width="60.89" height="51.02" transform="translate(-26.24 397.37) rotate(-62.59)"/></mask><linearGradient id="Безымянный_градиент_13" y1="385.22" x2="1" y2="385.22" gradientTransform="matrix(-60.41, 0, 0, 60.41, 347.3, -23050.03)" gradientUnits="userSpaceOnUse"><stop offset="0" stop-color="#fff"/><stop offset="1" stop-color="#fff"/></linearGradient><clipPath id="clip-path-7"><path class="cls-2" d="M257.13,206.92c2.93,10.88,26.84,3.91,29.51,3.1l.25-.08a1.3,1.3,0,0,0,.24-.06,1,1,0,0,0,.26-.06c2.12-.45,10.37-2.44,12.89-4.95s4.28-17.71,4.24-24.33c0-.81,0-1.48-.11-2h0c-1.42-.14-8-.58-18.67,2-15.6,4.19-31.7,14.87-28.6,26.38"/></clipPath><mask id="mask-3" x="237.75" y="157.3" width="83.1" height="81.15" maskUnits="userSpaceOnUse"><rect class="cls-6" x="249.98" y="166.27" width="58.64" height="63.2" transform="translate(-24.93 354.74) rotate(-62.59)"/></mask><linearGradient id="Безымянный_градиент_13-2" x1="0" y1="385.18" x2="1" y2="385.18" gradientTransform="matrix(-60.41, 0, 0, 60.41, 308.85, -23069.81)" xlink:href="#Безымянный_градиент_13"/><clipPath id="clip-path-8"><rect class="cls-2" x="242.43" y="265.88" width="92.75" height="23.24"/></clipPath><clipPath id="clip-path-9"><polygon class="cls-2" points="242.43 283.99 335.18 265.88 331.5 273.9 253.6 289.12 245.69 285.5 245.65 285.48 244.61 285 243.22 284.36 242.43 283.99"/></clipPath><mask id="mask-4" x="241.13" y="260.67" width="95.36" height="33.65" maskUnits="userSpaceOnUse"><rect class="cls-7" x="241.85" y="263.29" width="93.91" height="28.42" transform="translate(-15.14 16.67) rotate(-3.22)"/></mask><linearGradient id="Безымянный_градиент_13-3" x1="0" y1="385.21" x2="1" y2="385.21" gradientTransform="matrix(83.36, 0, 0, -83.36, 242, 32387.32)" xlink:href="#Безымянный_градиент_13"/><clipPath id="clip-path-10"><rect class="cls-2" x="247.69" y="108.35" width="154.75" height="73.72"/></clipPath><clipPath id="clip-path-11"><path class="cls-2" d="M401.68,120.62,397.85,129l-.43.93-9.35,20.43-2.17,4.73-138.21,27,5.46-11.93h0l6.14-13.4h0L268,137.81l.64-1.4,1.29-2.82.4-.88L395,108.35l2.53,1.16a8.38,8.38,0,0,1,4.13,11.11"/></clipPath><mask id="mask-5" x="243.56" y="99.6" width="164.19" height="91.22" maskUnits="userSpaceOnUse"><rect class="cls-8" x="245.74" y="104.02" width="159.82" height="82.37" transform="translate(-7.65 18.53) rotate(-3.22)"/></mask><linearGradient id="Безымянный_градиент_13-4" x1="0" y1="385.21" x2="1" y2="385.21" gradientTransform="matrix(141.08, 0, 0, -141.08, 244.38, 54489.41)" xlink:href="#Безымянный_градиент_13"/><clipPath id="clip-path-12"><rect class="cls-2" x="238.92" y="166.18" width="141.9" height="35.02"/></clipPath><clipPath id="clip-path-13"><polygon class="cls-2" points="242.6 193.17 380.82 166.18 380.33 167.24 377.14 174.21 238.92 201.2 242.6 193.17"/></clipPath><mask id="mask-6" x="236.96" y="158.21" width="145.83" height="50.95" maskUnits="userSpaceOnUse"><rect class="cls-9" x="238.05" y="162.22" width="143.64" height="42.94" transform="translate(-9.84 17.71) rotate(-3.22)"/></mask><linearGradient id="Безымянный_градиент_13-5" x1="0" y1="385.21" x2="1" y2="385.21" gradientTransform="matrix(141.08, 0, 0, -141.08, 247.1, 54528.13)" xlink:href="#Безымянный_градиент_13"/><clipPath id="clip-path-14"><path class="cls-2" d="M184,211.16c-3.09.46-14.64,4.76-16,7.1s-.93,9.34-.93,9.34-.84,18.33,7,18.33,11.84-12,11.84-22.6c-.18-7.27-1.59-11.35-1.91-12.18Z"/></clipPath><mask id="mask-7" x="150.05" y="201.99" width="52.09" height="53.11" maskUnits="userSpaceOnUse"><rect class="cls-10" x="156.19" y="210.6" width="39.8" height="35.87" transform="translate(-111.98 244.52) rotate(-55.56)"/></mask><linearGradient id="Безымянный_градиент_13-6" x1="0" y1="385.22" x2="1" y2="385.22" gradientTransform="matrix(-56.19, 0, 0, 56.19, 202.24, -21418)" xlink:href="#Безымянный_градиент_13"/><clipPath id="clip-path-15"><path class="cls-2" d="M157.75,202.49c-10.23,2.75-20.78,9.75-18.75,17.3,1.92,7.13,17.6,2.56,19.35,2l.16,0,.16,0a.68.68,0,0,0,.17,0c1.39-.3,6.8-1.6,8.45-3.25s2.81-11.61,2.78-15.95c0-.53,0-1-.07-1.31h0c-.29,0-.92-.08-1.85-.08a44.62,44.62,0,0,0-10.39,1.4"/></clipPath><mask id="mask-8" x="124.92" y="185.64" width="57.22" height="56.73" maskUnits="userSpaceOnUse"><rect class="cls-11" x="133.51" y="193.04" width="40.04" height="41.93" transform="translate(-109.79 219.6) rotate(-55.56)"/></mask><linearGradient id="Безымянный_градиент_13-7" x1="0" y1="385.19" x2="1" y2="385.19" gradientTransform="matrix(-56.19, 0, 0, 56.19, 180.46, -21430.89)" xlink:href="#Безымянный_градиент_13"/></defs><title>Ресурс 1</title><g id="Слой_2" data-name="Слой 2"><g id="Слой_1-2" data-name="Слой 1"><g class="cls-12"><g class="cls-12"><path class="cls-13" d="M495.68,150.18c-2.85-22.05-22.74-32.78-39.67-45C443.74,96.35,346,11.8,286.09,1.5,224.2-9.14,202.14,39.89,196.6,50c-13.1,23.73-17.78,49.21-48.2,53.72a76.65,76.65,0,0,1-34.78-2.75c-11-3.38-22.34-7.37-34.09-6.59-37.8,2.51-45,36.59-49.22,66.52-3.91,27.6-4.79,59.62-5.81,87.47-.51,14,.15,28,0,41.94-.44,60.58,46.39,83.95,74.88,89.26,53.14,9.92,106.65-5.34,151.47-32.41C275,332.55,443.63,250.41,471.64,214c13.82-17.94,27.08-40.38,24-63.86"/><path class="cls-4" d="M273.29,79.2l1,.46A1.31,1.31,0,0,0,276,79l.45-1a1.3,1.3,0,0,0-.65-1.72l-1-.45a1.3,1.3,0,0,0-1.72.65l-.45,1a1.29,1.29,0,0,0,.65,1.72"/><path class="cls-4" d="M283.79,67.6a1.31,1.31,0,0,1,.65,1.72l-1,2.21-1,2.21a1.31,1.31,0,0,0,.66,1.72l1,.45a1.3,1.3,0,0,0,1.72-.65l1-2.21,1.53-3.39,1.52-3.4,1.52-3.39,1-2.2a1.3,1.3,0,0,0-.66-1.72l-2.2-1-3.4-1.52-2.2-1a1.3,1.3,0,0,0-1.72.65l-.46,1a1.3,1.3,0,0,1-1.72.66l-2.2-1-2.21-1a1.3,1.3,0,0,0-1.72.65l-.46,1a1.3,1.3,0,0,0,.66,1.72l2.2,1,2.21,1a1.29,1.29,0,0,1,.65,1.72l-.45,1a1.3,1.3,0,0,0,.65,1.72l2.21,1Zm2-7.24,1,.46a1.3,1.3,0,0,1,.65,1.72l-.45,1a1.3,1.3,0,0,1-1.72.65l-1-.45a1.32,1.32,0,0,1-.66-1.73l.46-1a1.3,1.3,0,0,1,1.72-.66"/><path class="cls-4" d="M278.2,77.33l1,.45a1.3,1.3,0,0,0,1.72-.65l.46-1a1.3,1.3,0,0,0-.66-1.72l-1-.46a1.3,1.3,0,0,0-1.72.66l-.46,1a1.31,1.31,0,0,0,.65,1.72"/><path class="cls-4" d="M276.67,68.49l1-2.21a1.3,1.3,0,0,0-.65-1.72l-2.21-1-2.2-1a1.29,1.29,0,0,0-1.72.65l-.46,1a1.31,1.31,0,0,0,.66,1.72l1,.45a1.31,1.31,0,0,1,.66,1.72l-.46,1a1.3,1.3,0,0,0,.66,1.72l1,.46a1.31,1.31,0,0,0,1.72-.66Z"/><path class="cls-4" d="M282.81,82l.46-1a1.31,1.31,0,0,0-.65-1.72l-1-.45a1.3,1.3,0,0,0-1.72.65l-.46,1a1.3,1.3,0,0,0,.66,1.72l1,.46a1.3,1.3,0,0,0,1.72-.66"/><path class="cls-4" d="M270.56,69.83l-1-.46a1.3,1.3,0,0,0-1.72.66l-1,2.2-1,2.21a1.3,1.3,0,0,0,.65,1.72l1,.45a1.3,1.3,0,0,0,1.72-.65l1-2.21,1-2.2a1.3,1.3,0,0,0-.66-1.72"/><path class="cls-4" d="M253.5,111.08l1-2.21a1.3,1.3,0,0,0-.66-1.72l-1-.45a1.29,1.29,0,0,0-1.72.65l-1,2.21L248.58,113l-1.52,3.39-1.52,3.4-1,2.2a1.3,1.3,0,0,0,.66,1.72l1,.46a1.31,1.31,0,0,0,1.72-.66l1-2.2,1-2.21a1.3,1.3,0,0,1,1.72-.65l1,.45a1.3,1.3,0,0,0,1.72-.65l.46-1a1.3,1.3,0,0,0-.66-1.72l-1-.46a1.3,1.3,0,0,1-.66-1.72Z"/><path class="cls-4" d="M234.66,98.56l-2.2-1a1.3,1.3,0,0,0-1.72.65l-1,2.21-1.52,3.39-1,2.21a1.3,1.3,0,0,0,.65,1.72l2.21,1,3.39,1.52,2.21,1a1.31,1.31,0,0,0,1.72-.66l1-2.2,1.53-3.4,1-2.2a1.29,1.29,0,0,0-.65-1.72l-2.21-1Z"/><path class="cls-4" d="M254.79,62.75l2.2,1a1.3,1.3,0,0,0,1.72-.65l1-2.21,1.52-3.39,1-2.21a1.31,1.31,0,0,0-.66-1.72l-2.2-1L256,51.05l-2.21-1a1.29,1.29,0,0,0-1.72.65l-1,2.21-1.52,3.39-1,2.2a1.3,1.3,0,0,0,.66,1.72l2.2,1Z"/><path class="cls-4" d="M244.49,94.81l-3.39-1.52-3.4-1.52-3.39-1.52-3.39-1.52-2.21-1a1.31,1.31,0,0,0-1.72.66l-1,2.2L224.48,94,223,97.39l-1.52,3.39-1.52,3.39-1.52,3.4-1,2.2a1.3,1.3,0,0,0,.65,1.72l2.21,1,3.39,1.52,3.4,1.52,3.39,1.52,3.39,1.52,3.4,1.53,2.2,1a1.29,1.29,0,0,0,1.72-.65l1-2.21,1.52-3.39,1.52-3.39,1.52-3.4,1.52-3.39,1.52-3.39,1-2.21a1.3,1.3,0,0,0-.65-1.72l-2.21-1Zm.35,8.31-1.52,3.39-1.52,3.4-1.52,3.39-1,2.21a1.31,1.31,0,0,1-1.72.65l-2.21-1L232,113.65l-3.39-1.52-3.4-1.52-2.2-1a1.3,1.3,0,0,1-.66-1.72l1-2.21,1.52-3.39,1.52-3.39,1.52-3.39,1-2.21a1.31,1.31,0,0,1,1.72-.66l2.21,1,3.39,1.52,3.4,1.53L243,98.21l2.2,1a1.29,1.29,0,0,1,.66,1.71Z"/><path class="cls-4" d="M245,66.5,248.35,68l3.39,1.52,3.4,1.52,3.39,1.52,2.21,1a1.3,1.3,0,0,0,1.72-.65l1-2.21L265,67.32l1.53-3.4L268,60.53l1.52-3.39,1.52-3.4,1-2.2a1.3,1.3,0,0,0-.66-1.72l-2.2-1-3.4-1.52-3.39-1.52L259,44.27l-3.4-1.52-3.39-1.52-2.2-1a1.3,1.3,0,0,0-1.72.65l-1,2.21-1.52,3.39-1.52,3.39-1.53,3.4-1.52,3.39-1.52,3.39-1,2.21a1.31,1.31,0,0,0,.66,1.72l2.2,1Zm-.35-8.31,1.52-3.39,1.52-3.4L249.17,48l1-2.2a1.3,1.3,0,0,1,1.72-.66l2.2,1,3.4,1.52,3.39,1.52,3.39,1.52,2.21,1a1.3,1.3,0,0,1,.65,1.72l-1,2.21L264.61,59l-1.52,3.39-1.52,3.4-1,2.2a1.3,1.3,0,0,1-1.72.66l-2.2-1-3.4-1.52-3.39-1.52-3.39-1.52-2.21-1a1.3,1.3,0,0,1-.65-1.72Z"/><path class="cls-4" d="M285.27,140.19l.46-1a1.3,1.3,0,0,0-.66-1.72l-1-.46a1.31,1.31,0,0,0-1.72.65l-.45,1a1.3,1.3,0,0,0,.65,1.72l1,.46a1.3,1.3,0,0,0,1.72-.66"/><path class="cls-4" d="M252,126.7l1,.46a1.3,1.3,0,0,0,1.72-.66l.46-1a1.3,1.3,0,0,0-.66-1.72l-1-.46a1.31,1.31,0,0,0-1.72.65l-.46,1a1.3,1.3,0,0,0,.66,1.72"/><path class="cls-4" d="M271.7,134.11l.46-1a1.31,1.31,0,0,0-.66-1.72l-1-.46a1.31,1.31,0,0,0-1.72.66l-.45,1a1.29,1.29,0,0,0,.65,1.72l1,.45a1.3,1.3,0,0,0,1.72-.65"/><path class="cls-4" d="M300.28,103.52l-1-.45a1.31,1.31,0,0,1-.65-1.72l.46-1a1.3,1.3,0,0,0-.66-1.72l-1-.46a1.31,1.31,0,0,0-1.72.66l-.45,1a1.3,1.3,0,0,1-1.72.65l-1-.45a1.29,1.29,0,0,0-1.72.65l-1,2.21-1,2.2a1.3,1.3,0,0,0,.66,1.72l1,.46a1.3,1.3,0,0,1,.66,1.72l-.46,1a1.31,1.31,0,0,0,.66,1.72l1,.45a1.3,1.3,0,0,0,1.72-.65l.45-1a1.31,1.31,0,0,1,1.72-.66l2.21,1,2.2,1a1.3,1.3,0,0,0,1.72-.65l.46-1a1.3,1.3,0,0,0-.66-1.72l-1-.46a1.3,1.3,0,0,1-.66-1.72l.46-1a1.31,1.31,0,0,0-.66-1.72"/><path class="cls-4" d="M288.07,115.77l-.46,1a1.3,1.3,0,0,1-1.72.66l-1-.46a1.3,1.3,0,0,1-.65-1.72l.45-1a1.3,1.3,0,0,0-.65-1.72l-1-.45a1.3,1.3,0,0,0-1.72.65l-.45,1a1.32,1.32,0,0,1-1.73.66l-1-.46a1.3,1.3,0,0,0-1.72.65l-.46,1a1.3,1.3,0,0,0,.66,1.72l1,.46a1.3,1.3,0,0,1,.66,1.72l-.46,1a1.31,1.31,0,0,0,.66,1.72l1,.45a1.3,1.3,0,0,0,1.72-.65l.45-1a1.31,1.31,0,0,1,1.72-.66l1,.46a1.3,1.3,0,0,1,.66,1.72l-.46,1a1.3,1.3,0,0,1-1.72.65l-1-.45a1.3,1.3,0,0,0-1.72.65l-1,2.21-1,2.2a1.3,1.3,0,0,0,.66,1.72l1,.46a1.3,1.3,0,0,1,.65,1.72l-.45,1a1.29,1.29,0,0,0,.65,1.72l1,.45a1.3,1.3,0,0,0,1.72-.65l1-2.21,1.52-3.39,1-2.21a1.31,1.31,0,0,1,1.72-.65l1,.46a1.32,1.32,0,0,0,1.73-.66l1-2.2,1.53-3.4,1.52-3.39,1-2.21a1.29,1.29,0,0,0-.65-1.72l-1-.45a1.3,1.3,0,0,0-1.72.65l-.45,1a1.32,1.32,0,0,1-1.73.66l-1-.46a1.31,1.31,0,0,0-1.72.65"/><path class="cls-4" d="M271,117.49l.45-1a1.3,1.3,0,0,0-.65-1.72l-1-.46a1.3,1.3,0,0,0-1.72.66l-.46,1a1.3,1.3,0,0,1-1.72.66l-1-.46a1.3,1.3,0,0,1-.66-1.72l.46-1a1.31,1.31,0,0,0-.66-1.72l-1-.45a1.3,1.3,0,0,1-.65-1.72l.45-1a1.29,1.29,0,0,0-.65-1.72l-1-.46a1.31,1.31,0,0,0-1.72.66l-1,2.2-1.52,3.4-1,2.2a1.3,1.3,0,0,0,.66,1.72l2.2,1,2.21,1a1.29,1.29,0,0,1,.65,1.72l-.45,1a1.3,1.3,0,0,1-1.72.65l-1-.45a1.3,1.3,0,0,0-1.72.65l-.46,1a1.3,1.3,0,0,0,.66,1.72l1,.46a1.3,1.3,0,0,1,.65,1.72l-.45,1a1.3,1.3,0,0,0,.65,1.72l1,.46a1.31,1.31,0,0,0,1.72-.65l.46-1a1.3,1.3,0,0,1,1.72-.66l2.2,1,2.21,1a1.31,1.31,0,0,0,1.72-.66l.45-1a1.31,1.31,0,0,1,1.72-.66l1,.46a1.3,1.3,0,0,0,1.72-.66l1-2.2,1-2.21a1.31,1.31,0,0,0-.66-1.72l-2.2-1-2.21-1a1.3,1.3,0,0,1-.65-1.72m-6.44,5.27.46-1a1.3,1.3,0,0,1,1.72-.65l1,.45a1.3,1.3,0,0,1,.65,1.72l-.46,1a1.3,1.3,0,0,1-1.72.66l-1-.46a1.3,1.3,0,0,1-.66-1.72"/><path class="cls-4" d="M293.8,93.89l-.46,1a1.3,1.3,0,0,0,.66,1.72l1,.46a1.31,1.31,0,0,0,1.72-.66l.45-1a1.29,1.29,0,0,0-.65-1.72l-1-.46a1.31,1.31,0,0,0-1.72.65"/><path class="cls-4" d="M258.59,99.71l.46-1A1.31,1.31,0,0,0,258.4,97l-1-.45a1.29,1.29,0,0,0-1.72.65l-1,2.21-1,2.2a1.3,1.3,0,0,0,.66,1.72l2.2,1,2.21,1a1.31,1.31,0,0,0,1.72-.66l.45-1a1.3,1.3,0,0,0-.65-1.72l-1-.46a1.3,1.3,0,0,1-.66-1.72"/><path class="cls-4" d="M303.32,96.74l-1-.46a1.3,1.3,0,0,0-1.72.66l-.46,1a1.31,1.31,0,0,0,.66,1.72l1,.45a1.3,1.3,0,0,0,1.72-.65l.46-1a1.3,1.3,0,0,0-.66-1.72"/><path class="cls-4" d="M316.68,70.12l-3.39-1.52-3.4-1.52-3.39-1.52L303.11,64l-3.4-1.52-2.2-1a1.3,1.3,0,0,0-1.72.66l-1,2.2-1.52,3.4-1.52,3.39-1.52,3.39L288.72,78l-1.52,3.4-1,2.2a1.3,1.3,0,0,0,.65,1.72l2.21,1,3.39,1.52,3.39,1.52,3.4,1.52,3.39,1.53L306,93.88l2.21,1a1.31,1.31,0,0,0,1.72-.66L311,92l1.52-3.39L314,85.22l1.52-3.39,1.52-3.4L318.55,75l1-2.21a1.31,1.31,0,0,0-.65-1.72Zm-3,6.79-1.52,3.39-1.52,3.4-1.52,3.39-1,2.21a1.3,1.3,0,0,1-1.72.65l-2.21-1-3.39-1.52-3.4-1.52L294,84.4l-2.2-1a1.3,1.3,0,0,1-.66-1.72l1-2.2,1.52-3.4,1.52-3.39,1.52-3.39,1-2.21a1.29,1.29,0,0,1,1.72-.65l2.21,1L305,69l3.39,1.53,3.4,1.52,2.2,1a1.3,1.3,0,0,1,.66,1.72Z"/><path class="cls-4" d="M260.42,89.73l1,.46a1.3,1.3,0,0,1,.65,1.72l-1,2.2-1,2.21a1.29,1.29,0,0,0,.65,1.72l1,.45a1.3,1.3,0,0,0,1.72-.65l1-2.21L266,92.24,267,90a1.31,1.31,0,0,0-.66-1.72l-2.2-1-2.21-1a1.29,1.29,0,0,1-.65-1.72l.45-1a1.31,1.31,0,0,1,1.72-.66l1,.46a1.3,1.3,0,0,0,1.72-.66l.46-1A1.3,1.3,0,0,0,266,80l-2.21-1L260.4,77.5l-2.2-1a1.3,1.3,0,0,0-1.72.65l-.46,1a1.3,1.3,0,0,0,.66,1.72l1,.46a1.3,1.3,0,0,1,.66,1.72l-.46,1a1.31,1.31,0,0,1-1.72.65l-1-.46a1.31,1.31,0,0,1-.65-1.72l.46-1a1.3,1.3,0,0,0-.66-1.72l-1-.46a1.3,1.3,0,0,1-.65-1.72l.45-1a1.3,1.3,0,0,0-.65-1.72l-2.21-1-3.39-1.52-3.39-1.52L240,68.37l-2.2-1a1.3,1.3,0,0,0-1.72.66l-1,2.2-1.52,3.4-1,2.2a1.31,1.31,0,0,0,.65,1.72l1,.46a1.3,1.3,0,0,0,1.72-.66l1-2.2L238,73a1.3,1.3,0,0,1,1.72-.65l1,.45a1.3,1.3,0,0,1,.65,1.72l-1,2.21-1.52,3.39-1,2.21a1.3,1.3,0,0,1-1.72.65l-2.2-1-2.21-1a1.31,1.31,0,0,0-1.72.66l-.45,1a1.3,1.3,0,0,0,.65,1.72l2.21,1,3.39,1.52,3.39,1.52,3.4,1.52,2.2,1a1.3,1.3,0,0,0,1.72-.66l1-2.2,1-2.21a1.3,1.3,0,0,1,1.72-.65l2.21,1,2.2,1a1.31,1.31,0,0,1,.66,1.72l-.46,1a1.3,1.3,0,0,1-1.72.66l-1-.46a1.31,1.31,0,0,0-1.72.66l-.45,1a1.3,1.3,0,0,0,.65,1.72l2.21,1,2.2,1a1.3,1.3,0,0,0,1.72-.65l1-2.21,1-2.21a1.31,1.31,0,0,1,1.72-.65"/><path class="cls-4" d="M303.46,72.35l-2.21-1a1.31,1.31,0,0,0-1.72.66l-1,2.2L297,77.61l-1,2.21a1.29,1.29,0,0,0,.65,1.72l2.21,1,3.39,1.52,2.2,1a1.32,1.32,0,0,0,1.73-.66l1-2.2,1.53-3.4,1-2.2a1.3,1.3,0,0,0-.65-1.72l-2.21-1Z"/><path class="cls-4" d="M274,110.71l.46-1a1.3,1.3,0,0,0-.66-1.72l-1-.46a1.31,1.31,0,0,0-1.72.66l-.45,1a1.29,1.29,0,0,0,.65,1.72l1,.45a1.3,1.3,0,0,0,1.72-.65"/><path class="cls-4" d="M279.61,110.56l1,.45a1.3,1.3,0,0,0,1.72-.65l1-2.21,1-2.2a1.3,1.3,0,0,0-.65-1.72l-1-.46a1.3,1.3,0,0,0-1.72.66l-1,2.2-1,2.21a1.31,1.31,0,0,0,.66,1.72"/><path class="cls-4" d="M288.93,110.66l-1-.45a1.28,1.28,0,0,0-1.71.65l-.46,1a1.31,1.31,0,0,0,.65,1.72l1,.45a1.29,1.29,0,0,0,1.72-.65l.46-1a1.31,1.31,0,0,0-.66-1.72"/><path class="cls-4" d="M265.38,102.75l.46-1a1.31,1.31,0,0,0-.66-1.72l-1-.45a1.3,1.3,0,0,0-1.72.65l-.45,1a1.3,1.3,0,0,0,.65,1.72l1,.46a1.3,1.3,0,0,0,1.72-.66"/><path class="cls-4" d="M289.75,90.65l-1-.45a1.29,1.29,0,0,0-1.71.65l-.46,1a1.3,1.3,0,0,0,.65,1.72l1,.46a1.3,1.3,0,0,0,1.72-.66l.46-1a1.31,1.31,0,0,0-.66-1.72"/><path class="cls-4" d="M267.25,107.67l.46-1a1.3,1.3,0,0,0-.66-1.72l-1-.46a1.3,1.3,0,0,0-1.72.66l-.46,1a1.3,1.3,0,0,0,.65,1.72l1,.46a1.3,1.3,0,0,0,1.72-.65"/><path class="cls-4" d="M270.91,78.13l-1-.45a1.3,1.3,0,0,0-1.72.65l-.46,1a1.3,1.3,0,0,0,.66,1.72l1,.46a1.3,1.3,0,0,0,1.72-.66l.46-1a1.31,1.31,0,0,0-.66-1.72"/><path class="cls-4" d="M273.16,103.59l1-2.21a1.3,1.3,0,0,1,1.72-.65l2.21,1,2.2,1a1.32,1.32,0,0,0,1.73-.66l.45-1a1.3,1.3,0,0,1,1.72-.65l1,.45a1.3,1.3,0,0,0,1.72-.65l.46-1a1.3,1.3,0,0,0-.66-1.72l-1-.46a1.3,1.3,0,0,1-.65-1.72l.45-1a1.3,1.3,0,0,0-.65-1.72l-1-.46a1.29,1.29,0,0,1-.65-1.72l.45-1a1.3,1.3,0,0,0-.65-1.72l-1-.45a1.29,1.29,0,0,0-1.72.65l-.46,1a1.3,1.3,0,0,1-1.72.65L277,89a1.31,1.31,0,0,1-.65-1.72l.46-1a1.3,1.3,0,0,0-.66-1.72l-1-.46a1.31,1.31,0,0,0-1.72.66l-1,2.2-1,2.21a1.29,1.29,0,0,0,.65,1.72l1,.46a1.3,1.3,0,0,1,.65,1.72l-.45,1a1.31,1.31,0,0,1-1.72.66l-1-.46a1.3,1.3,0,0,0-1.72.66l-.46,1a1.31,1.31,0,0,0,.66,1.72l1,.45a1.3,1.3,0,0,1,.65,1.72l-1,2.21-1,2.2a1.3,1.3,0,0,0,.66,1.72l1,.46a1.31,1.31,0,0,0,1.72-.66Zm5.75-9.65,1,.46a1.3,1.3,0,0,1,.66,1.72l-.46,1a1.3,1.3,0,0,1-1.72.65l-1-.45a1.32,1.32,0,0,1-.66-1.73l.46-1a1.3,1.3,0,0,1,1.72-.66"/><path class="cls-13" d="M440,316l-31.46-13.64a3.17,3.17,0,0,1-1.64-4.16l13.65-31.46a3.16,3.16,0,0,1,4.16-1.64l31.45,13.65a3.16,3.16,0,0,1,1.64,4.16L444.1,314.39A3.15,3.15,0,0,1,440,316"/><polyline class="cls-13" points="412 286.36 430.14 278.64 445.01 312.29"/><polyline class="cls-13" points="437.28 294.8 447.99 290.57 451.06 298.35"/><path class="cls-13" d="M447.17,283.51a3.4,3.4,0,1,1-1.76-4.47,3.4,3.4,0,0,1,1.76,4.47"/><path class="cls-14" d="M300.91,305.18a5.85,5.85,0,1,1-5.85-5.85,5.85,5.85,0,0,1,5.85,5.85"/><path class="cls-4" d="M52.18,205.66A121.61,121.61,0,0,0,169,327.18c1.6.07,3.21.1,4.83.1A121.64,121.64,0,0,0,223.6,94.67,121.75,121.75,0,0,0,173.8,84,121.63,121.63,0,0,0,52.18,205.66"/><path class="cls-15" d="M52.18,205.66A121.61,121.61,0,0,0,169,327.18c1.6.07,3.21.1,4.83.1A121.64,121.64,0,0,0,223.6,94.67,121.75,121.75,0,0,0,173.8,84,121.63,121.63,0,0,0,52.18,205.66Z"/><polygon class="cls-4" points="119.98 141.22 122.78 140.13 133.41 143.82 156.72 199.01 138.35 235.03 105.05 237.81 93.38 231.39 90.56 216.66 89.46 199.73 93.38 181.5 100.06 165.51 110.56 149.49 119.98 141.22"/><path class="cls-16" d="M93.38,231.39q1,2.28,1.9,4.32c3.32,7.38,6,12.44,7.88,15.8l.1.18c.65,1.11,1.21,2,1.69,2.79a25.72,25.72,0,0,0,2.12,3l3.05,2.8,14.77,13.55,3.7,2.62,4.56,2.57,14.45,6.39.16.07s15.81,4.12,16.24,4.12,25.29-1.38,25.29-1.38l10.28-2.17s33.3-10.05,50.17-44.57c12.1-24.76,6.44-52.14,5.59-56-2.22-9.94-14.14-30.87-14.14-30.87l-16.56-15.84-14-8.65-23-7.82-18.19-.55-14.83,2.1L142,128.2l-.29.16-16.1,9-.48.31-4.46,2.94.21.07c1.48.5,10.34,4,11.16,17.41.88,14.6,4.6,18.14,9.47,24.34s7.16,21.85-2.39,25.48-17.13,6-21.66,15.1-6.94,11.2-23.4,8.46l-.68-.12"/><path class="cls-17" d="M94.06,231.51l1.22,4.2,2.44,5.63,5.44,10.17.1.18,1.69,2.79,5.17,5.81,3.26,3.66,10.83,9.46.68.43,8.26,5.19.2.13,13.94,6.18.31.08,11,2.81a17.66,17.66,0,0,0-8-16.1c-9.27-6.25-13-15.83-10.21-25.41s17.91-16.87,25.31-27.07,8.48-32.57-4.17-44.57c-9.58-9.58-12.7-17.18-14.26-31-1.16-10.22-4.11-14.27-5.58-15.69-.52-.51-.8-.36-.8-.36l-12.32,7.27-3.46,2.44-4.25,3c1.48.5,10.34,4,11.16,17.41.88,14.6,3.1,18.35,7.59,24.83,7.3,10.52,2.14,20.95-9.45,22.75-11.74,1.82-13.88,2.93-14.87,10.79-1.25,10-4.79,17.75-21.25,15"/><path class="cls-17" d="M185.86,157.63c33,17,24.95,43.57,42.19,45.94,13.83,1.9,25.16-21.56,22.53-31.93-1.45-5.73-5.81-7.15-7.29-13.1a84.18,84.18,0,0,0-19-20,82,82,0,0,0-7.28-4.91A80.22,80.22,0,0,0,200.61,126a122.43,122.43,0,0,0-21.31-4.3c-6.39,1.67-8.89,28,6.56,35.93"/><path class="cls-18" d="M152.56,124.41c23.63-.15,34,7.84,43.3,15,4.2,3.23,8.18,6.29,13,8.21a18.65,18.65,0,0,0,6.59,1.4,8.13,8.13,0,0,0,7.54-4.14,11.68,11.68,0,0,0,1.28-6.3,82,82,0,0,0-7.28-4.91c1.25,2.61,1.85,6.35.78,8.26s-4.68.88-6.73.1c-4-1.59-7.46-4.27-11.5-7.38-5.82-4.49-12.47-9.59-22.61-12.85-1,0-2.06-.06-3.1-.06a84.06,84.06,0,0,0-21.24,2.71"/><path class="cls-13" d="M126.87,136c7.07,7,14.28,5.89,22.46,4.65a84.09,84.09,0,0,1,11-1.14h.28c8.33,0,19.93,8,30.18,15.14A167.87,167.87,0,0,0,206,164.49a40.32,40.32,0,0,0,5.48,2.52,23.92,23.92,0,0,0,8.21,1.48c.53,0,1.05,0,1.56-.05,8.46-.58,17.19-5.23,20.62-11.91l-3.62-4.67c-.35.42-9.28,14.73-24.73,9.51-5.42-1.84-12.16-6.65-19.34-11.62-11.66-8.08-23.72-16.46-34-16.21a89,89,0,0,0-11.73,1.21c-7.16,1.08-11.72,1.77-16.28-2-1.8,1-3.57,2.14-5.29,3.3"/><path class="cls-19" d="M239.81,169.79l.41-1.95c-5.4-1.15-9-3.59-10.83-7.26-3.57-7.3,1.19-17.21,1.24-17.31l-1.79-.88c-.22.44-5.24,10.89-1.25,19.07,2.07,4.25,6.19,7.06,12.22,8.33"/><path class="cls-20" d="M133.15,279c3.18-3.55,6-4.74,9.24-4.76h0a10.64,10.64,0,0,1,7.14,3.12l2.22-2a13.49,13.49,0,0,0-9.35-4.11h0c-4.13,0-8.15,2.14-11.94,6.36Z"/><path class="cls-18" d="M109.6,151.57c5.84,10.13,13.84,9.52,26.3,8.58,4.32-.32,9.22-.69,15-.74h.24c12,0,22.06,7.51,32.66,15.45,5.63,4.22,11.38,8.53,17.62,11.83,1,.55,2.1,1.08,3.17,1.57a47.41,47.41,0,0,0,10.61,3.46l.14,0a76.65,76.65,0,0,0,7.69.58c18.45.92,29.7-14,30-14.28l-2.53-6.4a41.45,41.45,0,0,1-17.82,13.43,14.08,14.08,0,0,1-2.15.53,41.46,41.46,0,0,1-14.29.21,46,46,0,0,1-14.09-5.57q-1.53-.87-3-1.83c-4-2.55-7.93-5.47-11.76-8.35-11-8.24-22.4-16.74-36.55-16.65-6,.05-11,.43-15.44.76-12.77,1-17.43,1.31-21.56-7.32-1.49,1.51-2.92,3.09-4.29,4.72"/><path class="cls-18" d="M94.35,232.83c.63,1.86,1.33,3.68,2.09,5.48,6.48,4.73,16.5,10.43,28.66,12.08,2.63.39,5.12.66,7.49.83,1.13.09,2.24.16,3.32.2,5.69.26,10.69.05,15.3-.15,14.25-.61,24.54-1.06,40,13.76l2.07-2.16c-16.37-15.71-27.76-15.22-42.19-14.6a145.37,145.37,0,0,1-18.86-.08c-1.08-.09-2.17-.2-3.3-.33s-2.23-.27-3.39-.44c-14.23-1.93-25.59-9.91-31.18-14.59"/><path class="cls-18" d="M90.34,196.59a16.82,16.82,0,1,0,10.29-30.13c-.37,0-.74,0-1.1,0a83.79,83.79,0,0,0-7.28,19.14q-.73,3-1.25,6.15-.41,2.39-.66,4.8"/><path class="cls-21" d="M91,191.79c4,5.1,13.25,5.19,16.84.61-3.74,1.69-7.25-1-10.22-4-3.56-3.6-5.37-2.73-5.37-2.73q-.73,3-1.25,6.15"/><path class="cls-21" d="M107.07,178.43a1.79,1.79,0,1,0,1.75-1.39,1.6,1.6,0,0,0-1.75,1.39"/><path class="cls-22" d="M197.61,320.76s-31.67,9.35-60.53-3.29c10.86,1.78,15.53,2.33,19.65-.76s11.68.07,13.33,1.65c2.61-3,12.41-10.3,20.53-9.69s15.74,10.22,7,12.09"/><path class="cls-19" d="M157.28,160.69c1.33,2.65,5.57,8.11,9.81,4.45s.79-11.92-.64-15.79-5.62-3.93-5.62-3.93c-1.2,0-3.6,7-4.11,9.17s-.76,3.45.56,6.1m6.17-5.88a20.74,20.74,0,0,1,1.07-3.61c.06.08,3.55,9.51,1.09,12.36s-2.46-7-2.16-8.75"/><path class="cls-22" d="M114.35,307.34s-18.79-9.74-24.89-19.11c4.39,2.89,7.17,5.51,13.65,7.76s9,4.93,11,8.3,1,3.63.21,3"/><path class="cls-22" d="M74.46,144.93a2.94,2.94,0,0,1,1.46,3.48c-.46,2.54-7.58,4.59-10.71,12.67,2.06-7.54,7.58-17.08,9.25-16.15"/><path class="cls-22" d="M253.82,118.07S233.46,97.72,202.28,92c3.68,1.62,4.56,1.41,5,3.21.41,1.64,1.24,5.13,9.87,7.11s23.28,5,36.65,15.78"/><path class="cls-20" d="M241.23,220.52l1.63-1.15c-6.45-9.14-12.18-13.77-17-13.77h-.11a6.24,6.24,0,0,0-5,2.47l1.67,1.11-.84-.56.83.56a4.3,4.3,0,0,1,3.43-1.59h0c2.86,0,7.85,2.25,15.39,12.92"/><path class="cls-19" d="M156.7,242.75c0,1.31.11,11.93,3.75,11.33,3.88-.63,7.63-5,6.73-7.47-.74-2.06-5-7.84-6.47-9.75a.51.51,0,0,0-.85.06l-3.09,5.59a.42.42,0,0,0-.07.24m4.77-2.44c.33-.11,3.16,6.66,3.16,6.66s.3,1.14-.7,1.17-1.4-1.22-1.92-3.45-.88-4.27-.54-4.38"/><path class="cls-19" d="M146.16,242.87c1.33,1.48,6,5.41,6.37,1.59s-3.35-8.09-5.42-10.38c-1.73-2-2.7-1.85-2.7-1.85s-1.31-.29-2.22,1.63c-1.14,2.29,2.63,7.54,4,9m-.86-8.08c.55-.49,2,1.49,2.54,2.38s2.67,4.18,2.49,5.52a14.59,14.59,0,0,1-3.43-3.78c-1.45-2.34-2.16-3.63-1.6-4.12"/><path class="cls-19" d="M157.64,169.08s-.73,1.66-5.27-.87-5.92-4.46-5.3-5.42,4.29-.61,7.46,2,3.46,3.78,3.11,4.31"/><path class="cls-4" d="M117.09,228.7a1.35,1.35,0,1,0,1.35-1.35,1.34,1.34,0,0,0-1.35,1.35"/><path class="cls-4" d="M127,268.05a1.27,1.27,0,1,0,1.27-1.26,1.26,1.26,0,0,0-1.27,1.26"/><path class="cls-4" d="M210.51,137.4a1.42,1.42,0,1,0,1.42-1.43,1.43,1.43,0,0,0-1.42,1.43"/><path class="cls-4" d="M203.4,152.45a1.35,1.35,0,1,0,1.35-1.36,1.35,1.35,0,0,0-1.35,1.36"/><path class="cls-20" d="M136.72,263.09c7.55-23.22-10.82-32.19-11-32.27l-1.28,2.71.64-1.36-.64,1.36c.66.32,16.14,8,9.42,28.63Z"/><path class="cls-20" d="M208.86,161.47l3-.06A15.3,15.3,0,0,1,218,148.8l-1.66-2.5a18.32,18.32,0,0,0-7.51,15.17"/><path class="cls-20" d="M126.32,251.28l3-.3c-.66-6.44-3.5-9.51-3.62-9.64l-2.18,2.06,1.09-1-1.1,1s2.28,2.54,2.83,7.89"/><rect class="cls-19" x="195.32" y="164.52" width="2" height="7.11" transform="translate(-54.35 105.2) rotate(-26.49)"/><path class="cls-19" d="M216.1,175.22l2-.48c-2-8.07,0-17.6,0-17.69l-2-.42c-.09.41-2.08,10.06,0,18.59"/><path class="cls-4" d="M228.6,155.67a12.93,12.93,0,0,0,1.69-.1l-.3-2a12.2,12.2,0,0,1-7.41-1.49l-1.07,1.69a13.44,13.44,0,0,0,7.09,1.88"/><path class="cls-4" d="M224.5,173.62a2,2,0,1,0,2-2,2,2,0,0,0-2,2"/><path class="cls-4" d="M255.08,226.26s-16.25,14.46-31.41,5.52c-15.94-9.4-32.45,2.2-27.5,19.5,6,20.94-22.44,38.33-22.44,38.33a83.24,83.24,0,0,0,33.68-6.51c19.29-8.26,40.16-25.38,47.67-56.84"/><path class="cls-13" d="M188.31,288l5.65-.4c-.06-1.16-.3-11.52,12.53-13.28,17.61-2.42,22.15-26.18,26.16-47.14l.27-1.41c1.85-9.63,5.56-16.37,11-20.05a18.47,18.47,0,0,1,12.71-2.9l1.16-5.55A23.84,23.84,0,0,0,240.9,201c-6.84,4.54-11.4,12.54-13.55,23.76l-.27,1.42c-3.65,19.08-7.79,40.72-21.36,42.58-14.71,2-17.82,13.5-17.41,19.3"/><path class="cls-18" d="M234.69,263.89c.37-.38,8.16-7.13,8.16-31.06,0-5.48,1.45-9.7,4.31-12.56a15.69,15.69,0,0,1,10.06-4.16l0-5.67a21.41,21.41,0,0,0-14,5.76c-4,4-6.06,9.55-6,16.63.1,24.45-10.56,38.06-10.64,38.14Z"/><path class="cls-17" d="M201.37,257.59l1.86-.73c-2.3-5.87-2.41-10.76-.33-14.54,3-5.46,9.68-6.82,9.75-6.84l-.38-2c-.31.06-7.65,1.53-11.11,7.82-2.39,4.32-2.32,9.79.21,16.25"/><rect class="cls-18" x="215.38" y="222.33" width="2.83" height="12" transform="translate(-64.14 86.16) rotate(-19.64)"/><path class="cls-18" d="M200.91,253.89a17.18,17.18,0,0,0,4.56-.6,15.25,15.25,0,0,0,9.13-6.79l-2.49-1.34a12.6,12.6,0,0,1-7.44,5.41c-5,1.34-11.11-.13-18.07-4.38l-1.48,2.42c5.76,3.51,11,5.28,15.79,5.28"/><path class="cls-4" d="M221.8,220.6a.7.7,0,0,1,0,1.4.7.7,0,0,1,0-1.4"/><path class="cls-4" d="M199.51,263a.8.8,0,0,1,.21-.37l.17-.13a.89.89,0,0,1,.42-.12.59.59,0,0,1,.32.08.65.65,0,0,1,.27.17.55.55,0,0,1,.17.27.56.56,0,0,1,.07.32l0,.22a.91.91,0,0,1-.21.37l-.17.12a.79.79,0,0,1-.42.12A.71.71,0,0,1,200,264a.77.77,0,0,1-.27-.17.65.65,0,0,1-.17-.27.6.6,0,0,1-.07-.32l0-.22"/><path class="cls-19" d="M195.21,287.3l1-.37c-.48-.72-11.93-17.62-27-19.89-7.6-1.15-12.49,1.66-16.81,4.15-5.1,2.93-9.13,5.25-15.82-.6-1.7-1.49-3.25-2.88-4.67-4.17-9-8.14-13.57-12.23-24-9l.29,1c9.88-3,14,.69,23,8.83,1.43,1.29,3,2.68,4.69,4.18,7.22,6.32,11.74,3.72,17,.71,4.18-2.41,8.91-5.13,16.16-4,14.6,2.2,26,19.09,26.16,19.27"/><path class="cls-16" d="M99.84,246.19c10.13,0,12.14-6.71,14.53-13.81,2.31-6.83,4.69-13.9,14.41-15.89,8.63-1.77,18.83-7.37,22.18-15.91,2.15-5.48,1.08-11.46-3.1-17.3-5.15-7.2-12.2-17.06-11.52-31a19.82,19.82,0,0,0-8-17.54l-.74.62c3.84,2.81,8.17,8,7.74,16.87-.69,14.31,6.48,24.33,11.71,31.65,4,5.63,5,11.13,3,16.35-3.22,8.19-13.09,13.58-21.45,15.3-10.29,2.1-12.87,9.78-15.15,16.55-2.4,7.13-4.43,13.28-14.21,13.12l.92.9c.13,0-.43.11-.3.11"/><path class="cls-18" d="M184,289l2.71-.82c0-.14-4.48-14.29-19.33-15.2-12.9-.76-20.53,11.23-20.85,11.75l2.41,1.5c.07-.11,7.09-11.1,18.27-10.42,12.85.78,16.63,12.68,16.79,13.19"/><path class="cls-15" d="M143.15,283.91l-.87-.35-.3-.13a84.66,84.66,0,0,1-45.6-45.1c-.8-1.89-1.48-3.68-2.09-5.49l-.05-.13a81.81,81.81,0,0,1-2.84-10.64c-.15-.71-.29-1.42-.4-2.12a83.85,83.85,0,0,1,18.55-68.42c1.4-1.68,2.85-3.27,4.29-4.73a85.22,85.22,0,0,1,13-10.83c1.68-1.13,3.46-2.24,5.3-3.3a83.53,83.53,0,0,1,20.41-8.33,84.37,84.37,0,0,1,21.26-2.71c1,0,2.07,0,3.1.06a86.53,86.53,0,0,1,13.3,1.54,84.06,84.06,0,0,1,67.62,82.43,84.33,84.33,0,0,1-66.66,82.21c-.69.15-1.39.29-2.08.41a85,85,0,0,1-15.28,1.39A83.7,83.7,0,0,1,143.15,283.91Z"/><path class="cls-4" d="M218.05,213.06a3.08,3.08,0,1,0,3.08-3.07,3.08,3.08,0,0,0-3.08,3.07"/><path class="cls-23" d="M251.18,100.91c.68,5.66,4.28,15.63,8,24.7,2.82,7,5.69,13.41,7.3,17,.81,1.79,1.3,2.84,1.3,2.84s1.56-4,3.56-9.37c3.93-10.58,9.59-26.6,8.61-28.73a74.14,74.14,0,0,0-7.77-13.76,22.79,22.79,0,0,0-3.07-3.4c-5.72-5-19.35-1.46-17.89,10.77"/><path class="cls-24" d="M259.14,125.61c2.82,7,5.69,13.41,7.3,17a9,9,0,0,0,1.27.65L271.3,136c3.93-10.58,9.59-26.6,8.61-28.73a74.14,74.14,0,0,0-7.77-13.76c1.22,3.56,1.36,9.72-4.22,13.1-5.27,3.19-9.65,6.35-8.78,19"/><path class="cls-25" d="M213.47,275.14l89.71,41.07a10.84,10.84,0,0,0,14.36-5.34l86.68-189.32a10.82,10.82,0,0,0-5.34-14.35L309.17,66.12a10.82,10.82,0,0,0-14.35,5.34L208.14,260.78a10.84,10.84,0,0,0,5.33,14.36"/><path class="cls-4" d="M215.81,271.81l88.81,40.66a8.38,8.38,0,0,0,11.11-4.13l85.95-187.72a8.38,8.38,0,0,0-4.13-11.11l-17.69-8.1a3.84,3.84,0,0,0-5.1,1.9,8.38,8.38,0,0,1-11.11,4.13L331.27,92.62a8.38,8.38,0,0,1-4.13-11.11,3.87,3.87,0,0,0-1.9-5.11l-16.5-7.55A8.38,8.38,0,0,0,297.63,73L211.68,260.7a8.4,8.4,0,0,0,4.13,11.11"/><path class="cls-4" d="M210.93,263.94a8.39,8.39,0,0,0,4.88,7.87l27.41,12.55,1.39.64,1,.48,0,0,12.62,5.77,2.72,1.24.24.11,43.35,19.85a8.38,8.38,0,0,0,11.11-4.13l.14-.31,1.31-2.86L322,294.62l2.66-5.8,3.63-7.93,2-4.38,42.28-92.35,7.74-16.92L385.05,157l.83-1.83,2.19-4.77,9.35-20.43.43-.93,3.83-8.37a8.38,8.38,0,0,0-4.13-11.11l-17.63-8.07-.06,0a3.85,3.85,0,0,0-.91-.29l-.34,0a3.64,3.64,0,0,0-.66,0,3.84,3.84,0,0,0-3.19,2.23,8.36,8.36,0,0,1-2,2.73,8.68,8.68,0,0,1-.9.7,8.37,8.37,0,0,1-8.21.7L331.27,92.62a8.38,8.38,0,0,1-4.13-11.11,3.78,3.78,0,0,0,.35-1.59,3.85,3.85,0,0,0-2.25-3.51l-16.5-7.56a8.34,8.34,0,0,0-10.16,2.56,8,8,0,0,0-.95,1.57l-14.5,31.68L281,109.31l-1.49,3.25s0,0,0,0l-1.16,2.51-3.95,8.63-1.7,3.71-2.81,6.14-1.29,2.82-.64,1.4-8.66,18.91h0l-6.14,13.4h0l-14.93,32.59-19.3,42.15-.39.86h0l-1,2.18-5.26,11.48-.59,1.29a8.32,8.32,0,0,0-.75,3.24"/><g class="cls-26"><g class="cls-27"><path class="cls-4" d="M300,70l2.86,2.86.78.78,39.7,39.71h0l10.85,10.85,6,6h0l1.36,1.36.54.55,2.36,2.35,21.23,21.24.25-.56,2.19-4.77,1.77-3.88L315.16,71.79l-6.42-2.94a8.43,8.43,0,0,0-.83-.33,8,8,0,0,0-1.32-.33,8.75,8.75,0,0,0-1.34-.11c-.22,0-.44,0-.65,0a6.82,6.82,0,0,0-.79.1l-.61.13-.32.09a1.31,1.31,0,0,0-.28.09l-.16,0-.31.12-.36.16-.32.15a6.44,6.44,0,0,0-.63.36l-.29.19c-.2.14-.39.29-.58.44"/></g></g><g class="cls-28"><g class="cls-29"><path class="cls-17" d="M122,193.78c0,100,79.1,181.48,178.13,185.34q3.66.15,7.37.15a186.23,186.23,0,0,0,38.93-4.1c83.75-17.89,146.56-92.31,146.56-181.39A185.5,185.5,0,0,0,383.4,24.5,185.81,185.81,0,0,0,307.45,8.27C205,8.27,122,91.33,122,193.78"/><polygon class="cls-4" points="225.37 95.5 229.64 93.84 245.84 99.47 281.4 183.64 253.38 238.57 202.59 242.81 184.79 233.02 180.5 210.56 178.82 184.74 184.79 156.94 194.98 132.55 211 108.12 225.37 95.5"/><path class="cls-16" d="M184.79,233c1,2.32,2,4.52,2.9,6.59,5.06,11.26,9.07,19,12,24.1l.15.27c1,1.69,1.85,3.1,2.58,4.26a40.18,40.18,0,0,0,3.23,4.59l4.65,4.27,22.53,20.66,5,4.55,7.64,3.37,22,9.74.24.11s24.11,6.29,24.77,6.29,38.57-2.11,38.57-2.11l15.91-2.5s50.56-16.13,76.29-68.77c18.46-37.77,9.83-79.52,8.53-85.34C428.42,147.93,410.24,116,410.24,116L385,91.85,363.6,78.66,328.46,66.73l-27.74-.84-22.62,3.2L259,75.64l-.45.24L234,89.67l-.73.47-6.81,4.49.32.1c2.26.77,15.77,6.15,17,26.56,1.35,22.26,7,27.66,14.45,37.12s10.92,33.32-3.65,38.86-26.12,9.09-33,23c-6.82,13.76-10.59,17.08-35.69,12.9l-1-.18"/><path class="cls-17" d="M185.83,233.2l1.86,6.41,2.38,8.19,9.64,15.91.15.27,2.58,4.26,7.88,8.86,5,5.58,16.52,14.43,1,.65,12.6,7.92.3.2L267,315.3l.48.13,16.76,4.28a26.93,26.93,0,0,0-12.16-24.55C258,285.62,252.23,271,256.52,256.4s27.32-25.73,38.6-41.29,12.94-49.66-6.36-68c-14.61-14.61-19.37-26.2-21.75-47.33-1.77-15.59-6.26-21.76-8.51-23.93a5.62,5.62,0,0,0-1.31-1l-18.7,11.57-5.27,3.72-6.49,4.59c2.26.77,15.77,6.15,17,26.56,1.35,22.26,4.74,28,11.59,37.87,11.13,16.05,3.26,32-14.41,34.69-17.91,2.78-21.18,4.48-22.68,16.47-1.91,15.24-7.32,27.06-32.42,22.88"/><path class="cls-17" d="M325.85,120.53c50.38,25.88,38,66.45,64.34,70.06,21.09,2.9,38.37-32.87,34.36-48.69-2.21-8.74-8.86-10.91-11.12-20a128.18,128.18,0,0,0-29.06-30.5,121.8,121.8,0,0,0-11.1-7.49c-12.4-7.46-41.83-16.18-57.43-18.2-9.74,2.55-13.56,42.71,10,54.81"/><path class="cls-18" d="M275.05,69.86c36-.23,51.92,12,66,22.81,6.41,4.93,12.48,9.6,19.78,12.53a28.57,28.57,0,0,0,10.05,2.13c6.68,0,10-3.61,11.5-6.31a17.91,17.91,0,0,0,2-9.61,123.36,123.36,0,0,0-11.11-7.49c1.91,4,2.82,9.68,1.19,12.6s-7.14,1.34-10.26.15c-6.06-2.43-11.38-6.51-17.54-11.26-8.88-6.84-19-14.62-34.49-19.59-1.57-.07-3.14-.1-4.72-.1a128.22,128.22,0,0,0-32.4,4.14"/><path class="cls-13" d="M235.87,87.58c10.78,10.65,21.78,9,34.25,7.09a128.6,128.6,0,0,1,16.75-1.74h.43c12.7,0,30.39,12.27,46,23.09,8.17,5.66,16,11.11,23.24,15a61.55,61.55,0,0,0,8.36,3.84,36.39,36.39,0,0,0,12.52,2.26c.81,0,1.6,0,2.38-.08,12.9-.88,26.22-8,31.45-18.16l-5.52-7.12c-.53.65-14.15,22.47-37.72,14.5-8.27-2.8-18.55-10.14-29.5-17.72-17.78-12.33-36.17-25.11-51.88-24.73a134.14,134.14,0,0,0-17.89,1.85c-10.92,1.65-17.88,2.7-24.83-3.08-2.75,1.58-5.45,3.26-8.07,5"/><path class="cls-19" d="M408.13,139.08l.63-3c-8.24-1.74-13.8-5.46-16.53-11.06-5.44-11.14,1.83-26.26,1.9-26.41l-2.74-1.34c-.33.68-8,16.62-1.9,29.09,3.16,6.49,9.44,10.77,18.64,12.71"/><path class="cls-20" d="M244.79,306.6c4.85-5.4,9.82-8.15,14.76-8.17h.06c6.44,0,10.84,4.71,10.89,4.76l3.39-3.07a20.62,20.62,0,0,0-14.28-6.27h0c-6.31,0-12.43,3.27-18.21,9.69Z"/><path class="cls-18" d="M209.53,111.28c8.91,15.45,21.11,14.52,40.11,13.09,6.59-.49,14.06-1.05,22.94-1.13H273c18.37,0,33.64,11.45,49.81,23.56,8.58,6.44,17.35,13,26.87,18,1.59.83,3.21,1.64,4.84,2.39a72.48,72.48,0,0,0,16.18,5.28l.21,0c4.23.62,8.14.7,11.73.88,28.14,1.41,45.3-21.32,45.82-21.78l-3.86-9.75a63,63,0,0,1-27.18,20.47,20.17,20.17,0,0,1-3.28.81,63,63,0,0,1-21.79.32A70.11,70.11,0,0,1,350.81,155q-2.34-1.33-4.63-2.79c-6.14-3.89-12.09-8.35-17.93-12.74-16.78-12.57-34.16-25.53-55.75-25.39-9.18.07-16.8.65-23.54,1.16-19.48,1.48-26.59,2-32.89-11.17-2.27,2.31-4.45,4.72-6.54,7.2"/><path class="cls-18" d="M186.27,235.22c1,2.83,2,5.61,3.19,8.35,9.88,7.22,25.16,15.91,43.71,18.43q6,.88,11.42,1.27c1.73.13,3.42.24,5.07.3,8.67.4,16.3.08,23.33-.23,21.74-.93,37.43-1.62,61,21l3.16-3.3c-25-24-42.34-23.21-64.35-22.26a221.87,221.87,0,0,1-28.76-.13c-1.65-.13-3.31-.3-5-.5s-3.41-.41-5.17-.67c-21.71-2.94-39-15.11-47.56-22.25"/><path class="cls-18" d="M180.15,179.94A25.66,25.66,0,1,0,195.85,134q-.85,0-1.68.06a127.6,127.6,0,0,0-11.1,29.19q-1.12,4.62-1.91,9.38-.61,3.65-1,7.32"/><path class="cls-21" d="M181.16,172.62c6,7.78,20.22,7.92,25.69.93-5.71,2.58-11.06-1.57-15.59-6.14-5.43-5.49-8.19-4.17-8.19-4.17q-1.12,4.62-1.91,9.38"/><path class="cls-21" d="M205.67,152.25a2.74,2.74,0,1,0,2.67-2.12,2.45,2.45,0,0,0-2.67,2.12"/><path class="cls-30" d="M343.76,369.33s-48.3,14.26-92.31-5c16.56,2.71,23.68,3.55,30-1.16s17.81.1,20.32,2.51c4-4.5,18.93-15.7,31.31-14.76s24,15.58,10.71,18.43"/><path class="cls-30" d="M307.45,380.79c103.12,0,187-83.89,187-187A187.08,187.08,0,0,0,368.51,17l-1,2.88a184,184,0,0,1,123.9,173.94c0,101.44-82.53,184-184,184s-184-82.52-184-184,82.53-184,184-184A184.3,184.3,0,0,1,348,14.3l.68-3a187.52,187.52,0,0,0-41.24-4.58c-103.13,0-187,83.9-187,187s83.89,187,187,187"/><path class="cls-19" d="M282.25,125.19c2,4,8.5,12.37,15,6.79s1.21-18.18-1-24.08-8.58-6-8.58-6c-1.83,0-5.49,10.6-6.26,14s-1.16,5.26.85,9.3m9.41-9a31.27,31.27,0,0,1,1.63-5.5c.09.12,5.42,14.5,1.66,18.85s-3.75-10.68-3.29-13.35"/><path class="cls-30" d="M216.78,348.86s-28.65-14.85-38-29.14c6.7,4.41,10.94,8.41,20.82,11.84s13.71,7.51,16.82,12.65,1.46,5.53.32,4.65"/><path class="cls-30" d="M155.93,101.17c.37.2,2.95,1.41,2.24,5.29s-11.56,7-16.34,19.33c3.14-11.49,11.57-26,14.1-24.62"/><path class="cls-30" d="M429.49,60.2s-31.05-31-78.6-39.81c5.61,2.47,6.95,2.15,7.65,4.9.63,2.49,1.89,7.82,15,10.83s35.52,7.57,55.9,24.08"/><path class="cls-20" d="M410.29,216.45l2.49-1.76c-9.84-13.93-18.58-21-26-21h-.17a9.49,9.49,0,0,0-7.64,3.78l2.55,1.68-1.28-.84,1.27.85a6.48,6.48,0,0,1,5.22-2.42h.05c4.37,0,12,3.43,23.47,19.7"/><path class="cls-19" d="M281.36,250.36c0,2,.17,18.19,5.72,17.28,5.92-1,11.64-7.6,10.27-11.39-1.13-3.15-7.67-12-9.87-14.87a.77.77,0,0,0-1.3.09L281.47,250a.64.64,0,0,0-.11.37m7.28-3.72c.5-.17,4.82,10.15,4.82,10.15s.46,1.74-1.07,1.79-2.13-1.86-2.93-5.26-1.34-6.52-.82-6.68"/><path class="cls-19" d="M265.29,250.54c2,2.25,9.07,8.25,9.71,2.42s-5.11-12.33-8.26-15.83c-2.64-3-4.12-2.82-4.12-2.82s-2-.44-3.39,2.49c-1.74,3.49,4,11.49,6.06,13.74M264,238.22c.84-.75,3,2.27,3.87,3.63s4.07,6.37,3.8,8.42a22.19,22.19,0,0,1-5.23-5.77c-2.21-3.57-3.3-5.54-2.44-6.28"/><path class="cls-19" d="M282.8,138s-1.11,2.53-8-1.33-9-6.8-8.09-8.25,6.55-.94,11.39,3,5.26,5.77,4.73,6.57"/><path class="cls-4" d="M221,228.93a2.07,2.07,0,1,0,2.07-2.07,2.07,2.07,0,0,0-2.07,2.07"/><path class="cls-4" d="M236.11,288.94A1.93,1.93,0,1,0,238,287a1.93,1.93,0,0,0-1.93,1.92"/><path class="cls-4" d="M363.44,89.67a2.17,2.17,0,1,0,2.17-2.17,2.17,2.17,0,0,0-2.17,2.17"/><path class="cls-4" d="M352.59,112.62a2.07,2.07,0,1,0,2.06-2.06,2.07,2.07,0,0,0-2.06,2.06"/><path class="cls-20" d="M250.89,281.37c11.52-35.41-16.49-49.08-16.77-49.22l-2,4.14,1-2.07-1,2.07c1,.48,24.63,12.17,14.38,43.67Z"/><path class="cls-20" d="M360.92,126.39l4.57-.09a23.39,23.39,0,0,1,9.42-19.24l-2.53-3.81a28,28,0,0,0-11.46,23.14"/><path class="cls-20" d="M235,263.37l4.55-.47c-1-9.82-5.34-14.5-5.52-14.7l-3.32,3.15,1.66-1.58-1.68,1.56s3.47,3.88,4.31,12"/><rect class="cls-19" x="340.27" y="131.03" width="3.05" height="10.84" transform="translate(-24.98 166.72) rotate(-26.48)"/><path class="cls-19" d="M372,147.35l3-.72c-3-12.32,0-26.84,0-27l-3-.63c-.13.62-3.17,15.34,0,28.34"/><path class="cls-4" d="M391,117.55a17.79,17.79,0,0,0,2.58-.16l-.45-3c-.06,0-6.32.88-11.3-2.28l-1.63,2.58a20.53,20.53,0,0,0,10.8,2.88"/><path class="cls-4" d="M384.78,144.92a3,3,0,1,0,3-3,3,3,0,0,0-3,3"/><path class="cls-4" d="M431.41,225.21s-24.78,22-47.9,8.41C359.19,219.28,334,237,341.57,263.37c9.14,31.94-34.22,58.45-34.22,58.45a126.94,126.94,0,0,0,51.37-9.93c29.41-12.59,61.24-38.7,72.69-86.68"/><path class="cls-13" d="M329.58,319.38l8.63-.61c-.11-1.77-.47-17.57,19.1-20.26,26.85-3.69,33.78-39.92,39.9-71.89l.41-2.16c2.81-14.67,8.47-25,16.82-30.56a28.07,28.07,0,0,1,19.39-4.43L435.6,181a36.3,36.3,0,0,0-25.82,5.6c-10.42,6.92-17.37,19.11-20.65,36.22l-.42,2.17c-5.56,29.11-11.87,62.1-32.58,64.94C333.7,293,329,310.54,329.58,319.38"/><path class="cls-18" d="M399.79,284.33c.56-.58,13-12.61,13-49.11,0-8.35,2.21-14.79,6.56-19.15,6.29-6.28,15.24-6.35,15.34-6.35l.08-8.65c-.49,0-12.52,0-21.43,8.79-6.1,6-9.24,14.57-9.2,25.36.15,37.29-16.11,58.06-16.22,58.17Z"/><path class="cls-17" d="M349.5,273l2.84-1.11c-3.51-9-3.68-16.42-.51-22.19,4.58-8.33,14.77-10.4,14.87-10.42l-.58-3c-.47.09-11.66,2.33-16.94,11.92-3.65,6.6-3.54,14.94.32,24.79"/><rect class="cls-18" x="370.86" y="219.21" width="4.32" height="18.3" transform="translate(-55.05 138.64) rotate(-19.64)"/><path class="cls-18" d="M348.79,267.34a26.69,26.69,0,0,0,7-.9,23.31,23.31,0,0,0,13.92-10.36l-3.8-2.06a19.24,19.24,0,0,1-11.34,8.27c-7.68,2-17-.21-27.57-6.69l-2.25,3.69c8.78,5.36,16.84,8,24.07,8"/><path class="cls-4" d="M380.66,216.58a1.07,1.07,0,0,1,0,2.13,1.07,1.07,0,0,1,0-2.13"/><path class="cls-4" d="M346.66,281.29a1.28,1.28,0,0,1,.33-.56l.25-.2a1.3,1.3,0,0,1,.64-.17.91.91,0,0,1,.49.11.93.93,0,0,1,.41.26,1,1,0,0,1,.26.41.91.91,0,0,1,.11.49c0,.11,0,.22,0,.34a1.28,1.28,0,0,1-.33.56l-.26.19a1.19,1.19,0,0,1-.64.18,1.06,1.06,0,0,1-.49-.11,1,1,0,0,1-.4-.26,1.09,1.09,0,0,1-.27-.41,1,1,0,0,1-.11-.49c0-.11,0-.23.05-.34"/><path class="cls-19" d="M340.3,318.58l1.27-.84c-.73-1.1-18.19-26.88-41.13-30.34-11.59-1.76-19.05,2.54-25.64,6.33-7.78,4.47-13.93,8-24.13-.91-2.6-2.27-4.95-4.4-7.13-6.36C229.76,274,222.85,267.79,207,272.67l.45,1.46c15.07-4.63,21.35,1.05,35.12,13.46,2.18,2,4.54,4.1,7.15,6.38,11,9.63,17.91,5.67,25.9,1.08,6.36-3.67,13.58-7.82,24.64-6.15,22.27,3.37,39.92,29.42,40.09,29.68"/><path class="cls-16" d="M194.26,255.6c15.46,0,18.91-10.23,22.55-21.06,3.52-10.42,7.15-21.21,22-24.24,13.15-2.7,28.71-11.24,33.82-24.26,3.28-8.36,1.65-17.48-4.72-26.39-7.85-11-18.61-26-17.57-47.31.67-13.84-6.11-22.13-12.2-26.74l-1.14.93c5.86,4.3,12.47,12.19,11.81,25.73-1.06,21.83,9.88,37.12,17.86,48.28,6.14,8.58,7.67,17,4.54,24.94-4.9,12.49-20,20.71-32.7,23.32-15.7,3.22-19.64,14.92-23.12,25.25-3.66,10.87-6.75,20.26-21.66,20l0,1.52h.58"/><path class="cls-30" d="M328,158.84c-9.06-4.81-34,13.21-43.92,31.83-6.52,12.28-5.95,21.12-1.46,27.51a15.3,15.3,0,0,1,.22,17.24L226.05,321a14,14,0,1,0,24.68,13.1l39.08-94.92a15.29,15.29,0,0,1,14.4-9.47c7.8.14,15.45-4.34,22-16.62,9.89-18.62,11.31-49.14,1.77-54.21"/><path class="cls-18" d="M323,320.91l4.14-1.25c-.06-.22-6.83-21.81-29.48-23.19-19.67-1.16-31.31,17.13-31.79,17.92l3.66,2.29c.11-.17,10.81-16.93,27.86-15.9C317,302,322.8,320.14,323,320.91"/><path class="cls-30" d="M260.18,314.45l-1.33-.53-.47-.19a130.68,130.68,0,0,1-70.33-69.56c-1.23-2.91-2.28-5.68-3.22-8.47l-.07-.2a125.17,125.17,0,0,1-4.39-16.4c-.23-1.1-.44-2.2-.61-3.28a129.57,129.57,0,0,1-1.88-22,129.21,129.21,0,0,1,30.48-83.48c2.17-2.58,4.4-5,6.63-7.29a130.93,130.93,0,0,1,20-16.69c2.58-1.74,5.32-3.46,8.16-5.1a129.15,129.15,0,0,1,64.27-17c1.6,0,3.19,0,4.78.09a132.13,132.13,0,0,1,20.51,2.38,128.15,128.15,0,0,1,41.32,15.94,126.13,126.13,0,0,1,11.23,7.58A129.55,129.55,0,0,1,437,193.78c0,61-43.24,114.29-102.8,126.78-1.06.23-2.14.45-3.21.64a130.93,130.93,0,0,1-23.56,2.14,128.91,128.91,0,0,1-47.27-8.89M275.43,71.33A125.86,125.86,0,0,0,244.7,83.87c-2.77,1.6-5.45,3.27-8,5a128.63,128.63,0,0,0-19.56,16.31c-2.17,2.2-4.35,4.6-6.47,7.12a126.17,126.17,0,0,0-29,67.84,126.86,126.86,0,0,0,1.1,35.21c.17,1.06.36,2.1.59,3.16a122.5,122.5,0,0,0,4.35,16.23l.09.25h0c.89,2.64,1.9,5.26,3.06,8a127.57,127.57,0,0,0,68.68,67.92l.47.2,1.28.51a127.16,127.16,0,0,0,69.19,6.58c1-.18,2.07-.39,3.1-.61C391.75,305.38,434,253.31,434,193.78A126.51,126.51,0,0,0,383.46,92.63a123.15,123.15,0,0,0-11-7.4,125.1,125.1,0,0,0-40.34-15.57,128.37,128.37,0,0,0-20-2.32c-1.55-.06-3.1-.09-4.66-.09a127,127,0,0,0-32,4.08"/><path class="cls-4" d="M374.94,205.07a4.7,4.7,0,1,0,4.69-4.69,4.69,4.69,0,0,0-4.69,4.69"/><path class="cls-25" d="M323.81,193.54h.05l9.24-.53a6.72,6.72,0,0,0,4.68-2.3l7-8.14a.76.76,0,0,0-1.15-1l-7,8.13a5.21,5.21,0,0,1-3.61,1.78l-9.25.53a.77.77,0,0,0,0,1.53"/><path class="cls-25" d="M305.28,179.87h.1A.77.77,0,0,0,306,179l-1.17-9.18A5.21,5.21,0,0,1,306,166l6.71-8.39a.76.76,0,1,0-1.19-.95L304.76,165a6.74,6.74,0,0,0-1.41,5l1.18,9.19a.76.76,0,0,0,.75.66"/><path class="cls-25" d="M257,211.43c2.82,0,12.66-6.34,24.27-14,3.26-2.15,6.08-4,7.39-4.75,4-2.3,5.36-1,5.37-1a.77.77,0,0,0,1.07,0,.75.75,0,0,0,.08-1c-.21-.25-2.17-2.29-7.28.64-1.35.78-4.05,2.56-7.47,4.8-7.8,5.13-20.85,13.71-23.42,13.73a27.27,27.27,0,0,1-4.84-.68.77.77,0,0,0-.36,1.49,30.07,30.07,0,0,0,5.19.71"/><path class="cls-25" d="M299.91,186a.76.76,0,0,0,.16-1.51l-2.51-.53a1.11,1.11,0,0,1-.88-1.11l.22-11.28a3.19,3.19,0,0,0-1.33-2.68l-5.67-4.06a.76.76,0,1,0-.88,1.24l5.66,4.06a1.7,1.7,0,0,1,.7,1.41l-.23,11.28a2.66,2.66,0,0,0,2.09,2.64l2.52.52a.39.39,0,0,0,.15,0"/><path class="cls-25" d="M340.94,206.16a.76.76,0,0,0,.49-1.34l-5.27-4.56a3.24,3.24,0,0,0-2.91-.68l-10.92,2.85a1.13,1.13,0,0,1-1.29-.6l-1.1-2.32a.76.76,0,0,0-1-.36.75.75,0,0,0-.36,1l1.09,2.32a2.64,2.64,0,0,0,3,1.42l10.92-2.84a1.69,1.69,0,0,1,1.53.35l5.28,4.56a.73.73,0,0,0,.5.19"/><path class="cls-25" d="M307.05,254a.73.73,0,0,0,.35-.09.76.76,0,0,0,.32-1,29,29,0,0,1-1.87-4.55c-.61-2.48,4.44-17.25,7.46-26.07,1.32-3.88,2.37-6.94,2.78-8.44,1.57-5.68-.9-7.07-1.18-7.21a.76.76,0,0,0-.69,1.36c.07,0,1.61,1.08.4,5.44-.4,1.46-1.49,4.65-2.76,8.35-4.49,13.15-8.16,24.25-7.48,27a29.39,29.39,0,0,0,2,4.87.77.77,0,0,0,.68.41"/><path class="cls-21" d="M323.76,198.17S313.12,215.41,300,218.84s-13.29-10.07-13.29-10.07-.25-14.36,20.74-33c10.13-5.35,19.9,2.45,19.9,2.45s2.9,8.2-3.59,20"/><path class="cls-25" d="M331.14,175.85s-6.95-7-13.2-9.13.34,14.9.34,14.9l8.85-.4s5.65-3.27,4-5.37"/><path class="cls-21" d="M320.79,181.62a6.78,6.78,0,1,0,6.78-6.78,6.77,6.77,0,0,0-6.78,6.78"/><path class="cls-21" d="M308.76,173.06a6.79,6.79,0,1,0,6.78-6.78,6.78,6.78,0,0,0-6.78,6.78"/><path class="cls-25" d="M286.64,210c0,4.32.37,7,3.07,8.82,3.05,2,10.29,0,10.29,0s-.62-10.7,1.42-14.25,19.65-10.13,24.36-10.83h0c.06-.29.7-3.68-3.49-6.29-4.38-2.71-7.08,1.62-12.91-.81s-2.06-10.61-1.93-10.9a10.08,10.08,0,0,0-3.05,2.78h0c.06.52.09,1.19.11,2,0,6.62-1.65,21.76-4.24,24.33s-10.77,4.5-12.89,4.95a1,1,0,0,1-.26.06,1.3,1.3,0,0,1-.24.06l-.25.08"/><path class="cls-25" d="M327.14,177.49a3.08,3.08,0,0,1,1,3.15c-.37,2.26-.33,4.71,3,4.27-1.45,2-5.23,2.31-6.75.63-1.68-1.53-2.48-6.6,2.75-8"/><path class="cls-25" d="M311.82,169.63s-2.48,1.33-1.1,4.69,3.69,2.76,4.12,2.6,1.2-1.87-.76-3.19-3.44-1.94-2.26-4.1"/><path class="cls-25" d="M316.54,176.27a1.07,1.07,0,0,1,.15-1.49c.76-.84,1.54-1,1.93-.55a1,1,0,0,1-.17,1.43c-.68.66-1.47,1-1.91.61"/><g class="cls-31"><g class="cls-32"><rect class="cls-33" x="283.26" y="194.76" width="60.89" height="51.02" transform="translate(-26.24 397.37) rotate(-62.59)"/></g></g><g class="cls-34"><g class="cls-35"><rect class="cls-36" x="249.98" y="166.27" width="58.64" height="63.2" transform="translate(-24.93 354.74) rotate(-62.59)"/></g></g><path class="cls-25" d="M324.16,174.84a.78.78,0,0,0,.6-.3l10.67-13.9a.75.75,0,0,0-.14-1.07.76.76,0,0,0-1.07.14l-10.67,13.9a.77.77,0,0,0,.14,1.07.81.81,0,0,0,.47.16"/><path class="cls-25" d="M325.1,174.76a.7.7,0,0,0,.51-.2c2-1.84,5.39-1.41,5.42-1.4a.77.77,0,0,0,.21-1.52c-.16,0-4.09-.53-6.65,1.79a.76.76,0,0,0,0,1.08.75.75,0,0,0,.56.25"/><path class="cls-25" d="M323.81,173.22a.78.78,0,0,0,.7-.45c.78-1.74.48-4.33.22-5.72a.73.73,0,0,0-.76-.73.79.79,0,0,0-.76.8,1.23,1.23,0,0,0,0,.2,9.21,9.21,0,0,1-.11,4.82.77.77,0,0,0,.38,1,.87.87,0,0,0,.31.07"/><path class="cls-25" d="M336,161.74a.77.77,0,0,0,.6-.29.76.76,0,0,0-.13-1.07l-2.3-1.82a.76.76,0,0,0-1.07.13.75.75,0,0,0,.12,1.07l2.31,1.81a.75.75,0,0,0,.47.17"/></g></g><path class="cls-25" d="M213.47,275.14l89.71,41.07a10.82,10.82,0,0,0,14.35-5.34l86.69-189.32a10.83,10.83,0,0,0-5.34-14.36L309.17,66.12a10.82,10.82,0,0,0-14.35,5.34L208.14,260.78a10.84,10.84,0,0,0,5.33,14.36m-2.54-11.2a8.32,8.32,0,0,1,.75-3.24l.59-1.29,5.26-11.48,1-2.18h0l.39-.86,6.88-15,4.85-10.58,22.5-49.14,6.14-13.4h0L268,137.81l.64-1.4,1.29-2.82,2.81-6.14L273.8,125l.59-1.28,3.95-8.63,1.16-2.51s0,0,0,0l1.49-3.25,2.13-4.65,4.45-9.72,6.67-14.59L297.63,73a8,8,0,0,1,.95-1.57A7.69,7.69,0,0,1,300,70c.19-.15.38-.3.58-.44l.29-.19a6.44,6.44,0,0,1,.63-.36l.32-.15.36-.16.31-.12.16,0a1.31,1.31,0,0,1,.28-.09l.32-.09.61-.13a6.82,6.82,0,0,1,.79-.1c.21,0,.43,0,.65,0a8.75,8.75,0,0,1,1.34.11,9.1,9.1,0,0,1,1.32.33,8.43,8.43,0,0,1,.83.33l6.42,2.94,10.08,4.62a3.85,3.85,0,0,1,2.25,3.51,3.78,3.78,0,0,1-.35,1.59,7.7,7.7,0,0,0-.56,1.7,0,0,0,0,0,0,0,6.56,6.56,0,0,0-.14.87,7.89,7.89,0,0,0,0,1.61,8.36,8.36,0,0,0,4.86,6.9l8.7,4,23.68,10.84a8.32,8.32,0,0,0,8.21-.7,8.68,8.68,0,0,0,.9-.7,8.36,8.36,0,0,0,2-2.73,3.84,3.84,0,0,1,3.19-2.23,3.64,3.64,0,0,1,.66,0l.34,0a3.85,3.85,0,0,1,.91.29l.06,0,17.63,8.07a8.38,8.38,0,0,1,4.13,11.11L397.85,129l-.43.93-7.58,16.55-1.77,3.88-2.19,4.77-.25.56-.58,1.27-4.46,9.73-.26.56-7.74,16.92-12.45,27.19-29.83,65.16-2,4.38-3.63,7.93-2.66,5.8-4.83,10.55L315.87,308l-.14.31a8.38,8.38,0,0,1-11.11,4.13l-43.35-19.85-.24-.11-2.72-1.24-12.62-5.77,0,0-1-.48-1.39-.64-27.41-12.55a8.39,8.39,0,0,1-4.88-7.87"/><line class="cls-37" x1="281.08" y1="287.58" x2="247.97" y2="272.71"/><path class="cls-4" d="M309.51,88.42l73.09,33.47a1.91,1.91,0,0,1,.95,2.53l-1.94,4.24a1.92,1.92,0,0,1-2.54.94L306,96.13A1.91,1.91,0,0,1,305,93.6L307,89.36a1.9,1.9,0,0,1,2.53-.94"/><path class="cls-38" d="M295.37,257l-6.7-3.06.31-4.46a1.56,1.56,0,0,0-.91-1.53l-13.24-6a1.56,1.56,0,0,0-1.75.31l-3.17,3.16-6.7-3.06a2.6,2.6,0,0,0-3.45,1.28l-8.64,18.92a2.59,2.59,0,0,0,1.29,3.44l32.16,14.7a2.6,2.6,0,0,0,3.44-1.29l8.64-18.91A2.6,2.6,0,0,0,295.37,257ZM278,252.49a9.88,9.88,0,1,1-13.09,4.88A9.88,9.88,0,0,1,278,252.49Z"/><path class="cls-38" d="M267.74,258.67a6.76,6.76,0,1,0,9-3.34A6.77,6.77,0,0,0,267.74,258.67Z"/><g class="cls-39"><g class="cls-40"><g class="cls-41"><g class="cls-42"><rect class="cls-43" x="241.85" y="263.29" width="93.91" height="28.42" transform="translate(-15.14 16.67) rotate(-3.22)"/></g></g></g></g><g class="cls-39"><g class="cls-44"><g class="cls-45"><g class="cls-46"><rect class="cls-47" x="245.74" y="104.02" width="159.82" height="82.37" transform="translate(-7.65 18.53) rotate(-3.22)"/></g></g></g></g><g class="cls-39"><g class="cls-48"><g class="cls-49"><g class="cls-50"><rect class="cls-51" x="238.05" y="162.22" width="143.64" height="42.94" transform="translate(-9.84 17.71) rotate(-3.22)"/></g></g></g></g><path class="cls-23" d="M219.39,188.48c3.42,10.45,11.69,21.35,21.81,16.36a13.19,13.19,0,0,0,7.15-9.56,22.59,22.59,0,0,0,.05-8.56c-2.25-16.79-7.31-24.26-13.75-25.87a14.7,14.7,0,0,0-8.63.79c-10.37,3.79-10,16.4-6.63,26.84"/><path class="cls-24" d="M248.35,195.28a22.59,22.59,0,0,0,.05-8.56c-2.25-16.79-7.31-24.26-13.75-25.87-1.28,4.13-3.09,25.66,13.7,34.43"/><path class="cls-52" d="M239.31,185.48s-8.56-4.46-11.16,3.41c1.57,8.69,4.53,11.64,8.75,10.83C242.25,198.51,241.44,189.82,239.31,185.48Z"/><path class="cls-23" d="M250.23,145.73s14.33-3.19,20,10,10.18,38.41-4.08,43.17-23.83-24.71-25.94-34.94c-1.19-6.35.94-15.48,10.07-18.21"/><path class="cls-52" d="M267.6,176.68s-8.35-4.28-12.79,3c0,0,.62,11.45,8.46,11.19S267.6,176.68,267.6,176.68Z"/><path class="cls-23" d="M225.84,201.45c4.51,2.15,9,7.44,13.48,17.72,3.51,8.44,1.67,15.1-2.26,17.72s-11.9,4.61-22.28-7.76-6.61-23-2.52-25.69,9.07-4.14,13.58-2"/><path class="cls-52" d="M233.65,228.91s-.27,5.08-6.31,4.7c-3.37-1.74-8.21-7.52-3.56-11.75C230.06,218.57,233.65,228.91,233.65,228.91Z"/><path class="cls-21" d="M336.93,86.53a1.4,1.4,0,0,1-2.79,0,1.4,1.4,0,1,1,2.79,0"/><line class="cls-53" x1="343.45" y1="90.27" x2="359.21" y2="97.64"/><path class="cls-23" d="M224.77,342.62c-.1,10.56,20.11,18.32,48.88,27.48s41.81,11.64,61.12,7.46,33.54-42.8,39.42-56.93,3.58-31.36,2.68-50.27c-.61-13,.89-27.56,2.74-39.15.78-4.94,1.63-9.35,2.4-12.88.05-.21.09-.42.14-.63,2.59-11.65-7.27-15.23-7.27-15.23s-4.92-2.57-12.34,0c-21.17,10.11-24,62.31-46.69,74-24.48,14-31.05,31.25-31.05,31.25s-53.86-24.43-65.8-30c-.8,16.33,7.86,30.61,11.65,37s-5.78,17.42-5.88,28"/><path class="cls-24" d="M219,277.67c16.38,41.27,57.29,45.65,57.29,45.65s.17.85,1.1,9.9a110.83,110.83,0,0,1,7.48-25.72s-53.28-25-65.87-29.83"/><path class="cls-52" d="M382.58,218.71c-.89-4.92-3.68-5.66-6.13-5-3.16.78-7,7.51-5.81,12.23.83,2.49,7,4.67,10,2.77"/><path class="cls-24" d="M363.75,323.91c-9,22.35-18.23,33.8-29.88,38.77-6.32,2.7-14.06,1.7-13.54,5.38.49,3.52,12.06,3.21,21-3.14,10.27-6.52,21-28.8,22.38-41"/><path class="cls-24" d="M310.4,367.87a2.49,2.49,0,1,0,2.49-2.49,2.49,2.49,0,0,0-2.49,2.49"/><path class="cls-22" d="M189.12,184c-7.28-4.32-28.56,9.53-37.45,24.48-5.86,9.85-5.73,17.17-2.29,22.6a12.63,12.63,0,0,1-.5,14.21L98.74,313.53a11.58,11.58,0,1,0,19.81,11.78l36-76.65a12.61,12.61,0,0,1,12.24-7.23c6.42.42,12.9-3,18.76-12.82,8.88-15,11.27-40,3.61-44.59"/><path class="cls-25" d="M182.72,211h0l6.06-.35a4.39,4.39,0,0,0,3.07-1.51l4.6-5.33a.51.51,0,0,0-.06-.71.49.49,0,0,0-.7,0l-4.6,5.34a3.43,3.43,0,0,1-2.37,1.17l-6.06.34a.51.51,0,0,0-.47.53.5.5,0,0,0,.5.47"/><path class="cls-25" d="M170.57,202.05h.07a.5.5,0,0,0,.43-.56l-.77-6a3.36,3.36,0,0,1,.71-2.54l4.4-5.5a.52.52,0,0,0-.08-.71.5.5,0,0,0-.7.08l-4.4,5.5a4.39,4.39,0,0,0-.93,3.29l.78,6a.49.49,0,0,0,.49.43"/><path class="cls-25" d="M138.91,222.75c1.84,0,8.29-4.16,15.91-9.17,2.14-1.4,4-2.62,4.84-3.11,2.62-1.51,3.52-.64,3.53-.63a.51.51,0,0,0,.7,0,.49.49,0,0,0,.05-.68c-.14-.16-1.42-1.5-4.77.42-.89.51-2.66,1.67-4.9,3.15-5.11,3.36-13.67,9-15.36,9a17,17,0,0,1-3.17-.45.5.5,0,0,0-.24,1,20.8,20.8,0,0,0,3.41.47"/><path class="cls-25" d="M167.05,206.07a.5.5,0,0,0,.1-1l-1.64-.34a.73.73,0,0,1-.58-.73l.15-7.4a2.15,2.15,0,0,0-.88-1.76l-3.71-2.66a.5.5,0,0,0-.59.81l3.72,2.67a1.13,1.13,0,0,1,.46.92l-.15,7.4a1.72,1.72,0,0,0,1.37,1.72l1.65.35h.1"/><path class="cls-25" d="M194,219.29a.48.48,0,0,0,.37-.17.5.5,0,0,0,0-.71l-3.45-3a2.11,2.11,0,0,0-1.91-.44l-7.16,1.86a.72.72,0,0,1-.85-.39l-.72-1.52a.5.5,0,1,0-.9.43l.72,1.52a1.73,1.73,0,0,0,2,.93l7.16-1.87a1.1,1.1,0,0,1,1,.24l3.46,3a.5.5,0,0,0,.33.12"/><path class="cls-25" d="M171.73,250.62a.5.5,0,0,0,.44-.73,18.51,18.51,0,0,1-1.23-3c-.4-1.63,2.91-11.31,4.89-17.1.87-2.54,1.56-4.55,1.83-5.53,1-3.73-.59-4.64-.78-4.73a.51.51,0,0,0-.67.23.49.49,0,0,0,.22.66s1,.71.26,3.57c-.26,1-1,3.05-1.81,5.48-2.94,8.61-5.34,15.89-4.9,17.67a19.07,19.07,0,0,0,1.3,3.19.51.51,0,0,0,.45.27"/><path class="cls-21" d="M182.69,214.05s-7,11.31-15.58,13.55-8.72-6.6-8.72-6.6-.16-9.41,13.6-21.66c6.64-3.5,13,1.61,13,1.61s1.9,5.38-2.35,13.1"/><path class="cls-25" d="M187.52,199.42s-4.55-4.57-8.65-6,.22,9.77.22,9.77l5.8-.26s3.71-2.15,2.63-3.52"/><path class="cls-21" d="M180.74,203.2a4.45,4.45,0,1,0,4.44-4.45,4.44,4.44,0,0,0-4.44,4.45"/><path class="cls-21" d="M172.85,197.59a4.45,4.45,0,1,0,4.45-4.45,4.45,4.45,0,0,0-4.45,4.45"/><path class="cls-25" d="M158.35,221.82c0,2.83.24,4.6,2,5.78,2,1.34,6.75,0,6.75,0s-.41-7,.93-9.34,12.88-6.64,16-7.1h0c0-.19.46-2.41-2.29-4.12s-4.64,1.06-8.46-.53-1.35-7-1.27-7.15a6.66,6.66,0,0,0-2,1.82h0c0,.34.06.78.07,1.31,0,4.34-1.08,14.27-2.78,15.95s-7.06,2.95-8.45,3.25a.68.68,0,0,1-.17,0l-.16,0-.16,0"/><path class="cls-25" d="M184.9,200.49a2,2,0,0,1,.63,2.07c-.24,1.48-.22,3.08,2,2.79a3,3,0,1,1-2.62-4.86"/><path class="cls-25" d="M174.86,195.34s-1.63.87-.73,3.07,2.42,1.81,2.71,1.71.78-1.23-.5-2.09-2.26-1.28-1.48-2.69"/><path class="cls-25" d="M178,199.69a.7.7,0,0,1,.1-1c.49-.54,1-.63,1.27-.36a.68.68,0,0,1-.12.94c-.44.44-1,.63-1.25.4"/></g><g class="cls-54"><g class="cls-55"><rect class="cls-56" x="156.19" y="210.6" width="39.8" height="35.87" transform="translate(-111.98 244.52) rotate(-55.56)"/></g></g><g class="cls-57"><g class="cls-58"><rect class="cls-59" x="133.51" y="193.04" width="40.04" height="41.93" transform="translate(-109.79 219.6) rotate(-55.56)"/></g></g><g class="cls-12"><path class="cls-25" d="M182.94,198.75a.53.53,0,0,0,.4-.19l7-9.12a.5.5,0,0,0-.09-.7.5.5,0,0,0-.7.09l-7,9.12a.49.49,0,0,0,.39.8"/><path class="cls-25" d="M183.56,198.7a.5.5,0,0,0,.34-.13,5,5,0,0,1,3.55-.92.5.5,0,1,0,.14-1,5.9,5.9,0,0,0-4.36,1.17.5.5,0,0,0,.33.87"/><path class="cls-25" d="M182.72,197.69a.51.51,0,0,0,.46-.3,7.06,7.06,0,0,0,.14-3.74.48.48,0,0,0-.5-.48.53.53,0,0,0-.5.52.68.68,0,0,0,0,.14,6,6,0,0,1-.08,3.15.5.5,0,0,0,.25.66.54.54,0,0,0,.21.05"/><path class="cls-25" d="M190.7,190.16a.49.49,0,0,0,.39-.19.5.5,0,0,0-.08-.7l-1.52-1.19a.5.5,0,0,0-.61.79l1.51,1.19a.5.5,0,0,0,.31.1"/><line class="cls-60" x1="150.34" y1="257.55" x2="128.64" y2="303.8"/><path class="cls-60" d="M98.77,327.28s4.8,6.42,12.17,4.32c5.92-1.68,8.53-8.26,8.53-8.26"/><line class="cls-60" x1="126.82" y1="307.69" x2="126.67" y2="308"/><path class="cls-4" d="M339.36,156c15.95,6.26,22.65-1.3,24.16-2.33l80.53,35a8.1,8.1,0,0,0,10.65-4.2L483.34,119a8.08,8.08,0,0,0-4.2-10.65l-18.24-7.93L390.76,69.91a8.08,8.08,0,0,0-10.64,4.18l-1.57,3.6-27.07,62c-1.78,4.11-6.6,15.64-12.12,16.39"/><line class="cls-60" x1="458.8" y1="124.57" x2="393.96" y2="96.84"/><line class="cls-60" x1="454.34" y1="133.81" x2="389.51" y2="106.08"/><line class="cls-60" x1="450.9" y1="142.82" x2="386.06" y2="115.09"/><line class="cls-60" x1="446.44" y1="152.07" x2="381.6" y2="124.34"/><line class="cls-60" x1="400.93" y1="143.41" x2="377.92" y2="133.46"/><path class="cls-60" d="M474.32,139.65l9-20.65a8.08,8.08,0,0,0-4.2-10.65l-18.24-7.93"/><path class="cls-60" d="M372.16,92.32l-20.68,47.33c-1.78,4.11-6.6,15.64-12.12,16.39,15.95,6.26,22.65-1.3,24.16-2.33l80.53,35a8.1,8.1,0,0,0,10.65-4.2l9.09-20.8"/><line class="cls-60" x1="465.9" y1="158.92" x2="466.2" y2="158.23"/><path class="cls-60" d="M399.35,253.11c15.55,7.79,18,3.59,23.48.2l80.53,35a8.09,8.09,0,0,0,10.65-4.2l28.64-65.56a8.07,8.07,0,0,0-4.2-10.64L520.21,200,450.08,169.5a8.07,8.07,0,0,0-10.64,4.19l-1.58,3.59-27.06,62C409,243.35,404.86,252.36,399.35,253.11Z"/><line class="cls-60" x1="518.11" y1="224.16" x2="453.28" y2="196.43"/><line class="cls-60" x1="476.92" y1="217.69" x2="448.82" y2="205.67"/><line class="cls-60" x1="472.84" y1="226.43" x2="445.38" y2="214.68"/><line class="cls-60" x1="469.06" y1="235.97" x2="440.92" y2="223.93"/><line class="cls-60" x1="460.25" y1="243" x2="437.24" y2="233.05"/><path class="cls-60" d="M497.65,261l-23.27-10.1a3.16,3.16,0,0,1-1.65-4.16l10.1-23.27a3.17,3.17,0,0,1,4.16-1.65l23.28,10.1a3.16,3.16,0,0,1,1.64,4.16l-10.1,23.28A3.16,3.16,0,0,1,497.65,261Z"/><polyline class="cls-60" points="476.48 238.09 490.64 232.07 502.25 258.33"/><polyline class="cls-60" points="496.21 244.68 504.57 241.38 506.97 247.45"/><path class="cls-60" d="M503.93,235.86a2.65,2.65,0,1,1-1.38-3.49A2.66,2.66,0,0,1,503.93,235.86Z"/><path class="cls-60" d="M443.29,324.46l-31.45-13.65a3.16,3.16,0,0,1-1.64-4.16l13.64-31.45a3.16,3.16,0,0,1,4.16-1.64l31.46,13.65a3.16,3.16,0,0,1,1.64,4.16l-13.65,31.45A3.17,3.17,0,0,1,443.29,324.46Z"/><polyline class="cls-60" points="415.35 294.79 433.49 287.07 448.36 320.72"/><polyline class="cls-60" points="440.63 303.23 451.34 299 454.41 306.78"/><path class="cls-60" d="M450.52,291.93a3.4,3.4,0,1,1-1.77-4.47A3.39,3.39,0,0,1,450.52,291.93Z"/><path class="cls-60" d="M47.06,229.89c2.7,7.18,1.82,12.4-1.1,16.17a4.73,4.73,0,0,0-.32.46h0l-.24.35a10.6,10.6,0,0,0-1.55,7l6.55,12.68,31.19,52.24a9.68,9.68,0,0,1,1,7.79,10.92,10.92,0,0,1-.49,1.28,9.7,9.7,0,0,1-11.12,5.3,8.89,8.89,0,0,1-1.38-.45A9.67,9.67,0,0,1,64.13,327L43.32,268.78l0-.07-5.13-11.95a10.49,10.49,0,0,0-7.51-3.48c-5.39-.16-10.52-3.5-14.61-12.18L16,241c-.27-.58-.51-1.15-.74-1.74-2-5.38-6.9-18.38-11-29.67-1.42-3.91-2.68-7.65-3.69-10.81a.72.72,0,0,1,1.34-.53c4.41,9.08,11.58,23.95,17.24,36a1.77,1.77,0,0,0,2.35.85l0,0a1.76,1.76,0,0,0,.88-2.25L11.62,206.17c-1.61-4-3-7.67-4.09-10.75a.72.72,0,0,1,1.32-.59c4.71,9,12.4,23.68,18.47,35.55a1.77,1.77,0,0,0,2.33.79h0a1.77,1.77,0,0,0,.87-2.3c-3-6.83-11-25.82-15.71-36.94a.52.52,0,0,1,.93-.46c6.15,10.87,16.76,29.69,19.73,35.11a1.77,1.77,0,0,0,3.21-.25,1.79,1.79,0,0,0-.06-1.36C33,213,26.12,198.14,21.9,189a.73.73,0,0,1,1.27-.7c1.78,2.77,3.83,6.07,5.9,9.57,5.11,8.61,10.69,18.26,13.69,23.49,0-.06-.07-.11-.1-.16.26.46,1,1.66,2.31,4.07a2.15,2.15,0,0,1,.14.26A25.15,25.15,0,0,1,47.06,229.89Z"/><path class="cls-60" d="M146.93,297.91s.79,53.28,23.06,58c8.25,1.74,12.95-9.34,6.6-13.68-10-6.78-27.84.12-24,17.33,6.81,30.82,69.17,40.41,98.33-12.43"/><polyline class="cls-60" points="248.85 348.08 250.88 347.11 251.29 349.23"/><path class="cls-60" d="M356.61,186.64s28.31,19.42,54.67-2.95c26-22.06,43.06-34.88,101.15-7.65"/><path class="cls-4" d="M257.4,30.15s1.56-5.09,6.14-4.45a4.31,4.31,0,0,1,3.6,4.15h-.54a3.72,3.72,0,0,0-3.15-3.63c-4.1-.57-5.51,4-5.56,4.14Z"/><path class="cls-4" d="M264.44,37.3l-9.08-3.94a2.26,2.26,0,0,1-1.24-3.15c.7-1.61,2.19-2,4.2-1.13l-.22.49c-2.19-1-3.08-.09-3.49.85a1.73,1.73,0,0,0,1,2.45l9.08,3.94c1.29.56,2.89.77,3.86-1.47a3.54,3.54,0,0,0,.18-2.34,2.81,2.81,0,0,0-1.63-1.55,3.13,3.13,0,0,0-3.26.53l-.36-.4a3.68,3.68,0,0,1,3.83-.62,3.25,3.25,0,0,1,1.92,1.87,4,4,0,0,1-.2,2.74c-.87,2-2.44,2.64-4.55,1.73"/><polygon class="cls-4" points="264.29 32.29 263.3 30.92 263 32.19 264.29 32.29"/><polygon class="cls-4" points="267.63 29.27 265.95 29.44 266.89 30.34 267.63 29.27"/><line class="cls-61" x1="275.8" y1="40.6" x2="295.27" y2="49.71"/><line class="cls-61" x1="277.51" y1="36.19" x2="322.02" y2="57.01"/><line class="cls-61" x1="279.23" y1="31.61" x2="323.73" y2="52.43"/><polyline class="cls-60" points="512.01 174.56 512.8 176.14 511.25 176.67"/><path class="cls-60" d="M377.06,253.89s-.08,17.91.37,26.47,2.38,26.71-3.24,40.27"/><line class="cls-60" x1="377.62" y1="246.79" x2="377.51" y2="247.95"/><path class="cls-60" d="M227,332.55s-6.84,13.28,3.33,19.33"/><path class="cls-60" d="M261.6,87.92s-8.09.41-10.06,7.8,3.63,19.53,8.94,33.31"/><line class="cls-60" x1="266.31" y1="88.54" x2="266.72" y2="88.71"/><path class="cls-60" d="M240.16,163.94a12,12,0,0,0-12.64-2.74c-4.58,1.51-10.23,4.82-10.23,14.4,0,14.22,7,22.78,7,22.78"/><path class="cls-60" d="M268.31,152.31s-6.71-9.92-18.93-6.29c-12.64,3.75-9.47,19.07-7.2,25.56a124.83,124.83,0,0,0,8.89,19.51"/><path class="cls-60" d="M256.65,197.11s9.16,7.08,16.63-4"/><line class="cls-60" x1="253.11" y1="193.85" x2="253.39" y2="194.12"/><path class="cls-60" d="M219,276.31s-1,13.15,4.29,23.92"/></g></g></g></g></svg>