<svg xmlns="http://www.w3.org/2000/svg" xmlns:xlink="http://www.w3.org/1999/xlink" viewBox="0 0 658.91 505.52"><defs><style>.cls-1{fill:url(#Безымянный_градиент_6);}.cls-2{fill:url(#Безымянный_градиент_6-2);}.cls-3{fill:url(#Безымянный_градиент_6-3);}.cls-12,.cls-17,.cls-18,.cls-19,.cls-34,.cls-38,.cls-4,.cls-48,.cls-49,.cls-7,.cls-8{fill:none;}.cls-5{clip-path:url(#clip-path);}.cls-6{fill:#33b5fe;}.cls-17,.cls-34,.cls-7{stroke:#00162d;}.cls-12,.cls-17,.cls-19,.cls-48,.cls-49,.cls-7,.cls-8{stroke-linecap:round;}.cls-18,.cls-19,.cls-38,.cls-7,.cls-8{stroke-miterlimit:10;}.cls-48,.cls-8{stroke:#fff;}.cls-9{fill:#e6e7e8;}.cls-10{fill:#023373;}.cls-11{fill:#00162d;}.cls-12{stroke:#104009;}.cls-12,.cls-17,.cls-34,.cls-48,.cls-49{stroke-linejoin:round;}.cls-13,.cls-35{fill:#fff;}.cls-14{fill:#195a81;}.cls-15{fill:#3f8c08;}.cls-16{fill:#88bf0f;}.cls-18,.cls-19{stroke:#54b0e3;}.cls-20{opacity:0.7;}.cls-21{clip-path:url(#clip-path-3);}.cls-22{clip-path:url(#clip-path-4);}.cls-23{mask:url(#mask);}.cls-24{fill:url(#Безымянный_градиент_5);}.cls-25{clip-path:url(#clip-path-5);}.cls-26{clip-path:url(#clip-path-6);}.cls-27{mask:url(#mask-2);}.cls-28{fill:url(#Безымянный_градиент_5-2);}.cls-29{clip-path:url(#clip-path-7);}.cls-30{clip-path:url(#clip-path-8);}.cls-31{mask:url(#mask-3);}.cls-32{fill:url(#Безымянный_градиент_5-3);}.cls-33{fill:#104009;}.cls-35{font-size:10.02px;font-family:Montserrat-Bold, Montserrat;font-weight:700;}.cls-36{fill:#0476d9;}.cls-37{fill:#fbbfa8;}.cls-38{stroke:#3f8c08;}.cls-39{fill:#e7988f;}.cls-40{opacity:0.2;}.cls-41{clip-path:url(#clip-path-10);}.cls-42{opacity:0.45;}.cls-43{clip-path:url(#clip-path-11);}.cls-44{clip-path:url(#clip-path-12);}.cls-45{clip-path:url(#clip-path-13);}.cls-46{clip-path:url(#clip-path-14);}.cls-47{clip-path:url(#clip-path-15);}.cls-49{stroke:#0e2d40;stroke-width:2px;}</style><linearGradient id="Безымянный_градиент_6" x1="2.52" y1="470.42" x2="3.52" y2="470.42" gradientTransform="matrix(279.33, 0, 0, -279.33, -539.63, 131655.04)" gradientUnits="userSpaceOnUse"><stop offset="0"/><stop offset="0.08" stop-color="#252525"/><stop offset="0.22" stop-color="#5e5e5e"/><stop offset="0.36" stop-color="#8f8f8f"/><stop offset="0.5" stop-color="#b8b8b8"/><stop offset="0.63" stop-color="#d7d7d7"/><stop offset="0.76" stop-color="#ededed"/><stop offset="0.89" stop-color="#fafafa"/><stop offset="1" stop-color="#fff"/></linearGradient><linearGradient id="Безымянный_градиент_6-2" x1="2.52" y1="470.41" x2="3.52" y2="470.41" gradientTransform="matrix(279.33, 0, 0, -279.33, -563.2, 131653.1)" xlink:href="#Безымянный_градиент_6"/><linearGradient id="Безымянный_градиент_6-3" x1="2.52" y1="470.42" x2="3.52" y2="470.42" gradientTransform="matrix(279.33, 0, 0, -279.33, -510.54, 131655.98)" xlink:href="#Безымянный_градиент_6"/><clipPath id="clip-path"><rect class="cls-4" x="2.52" y="6.26" width="656.39" height="464.16"/></clipPath><clipPath id="clip-path-3"><rect class="cls-4" x="148.72" y="147.66" width="295.33" height="210.2"/></clipPath><clipPath id="clip-path-4"><polygon class="cls-4" points="444.05 147.66 233.84 357.86 148.72 357.86 358.91 147.66 444.05 147.66"/></clipPath><mask id="mask" x="43.62" y="0" width="505.52" height="505.52" maskUnits="userSpaceOnUse"><rect class="cls-1" x="117.77" y="73.91" width="357.22" height="357.7" transform="translate(-91.79 285.16) rotate(-45.23)"/></mask><linearGradient id="Безымянный_градиент_5" x1="2.52" y1="470.42" x2="3.52" y2="470.42" gradientTransform="matrix(279.33, 0, 0, -279.33, -539.63, 131655.02)" gradientUnits="userSpaceOnUse"><stop offset="0" stop-color="#fff"/><stop offset="1" stop-color="#fff"/></linearGradient><clipPath id="clip-path-5"><rect class="cls-4" x="105.1" y="147.66" width="223.14" height="210.2"/></clipPath><clipPath id="clip-path-6"><polygon class="cls-4" points="328.24 147.66 118.04 357.86 105.41 357.86 105.27 357.86 105.1 352.34 309.76 147.66 328.24 147.66"/></clipPath><mask id="mask-2" x="0" y="36.09" width="433.34" height="433.34" maskUnits="userSpaceOnUse"><rect class="cls-2" x="63.48" y="99.53" width="306.38" height="306.45" transform="translate(-115.37 228.57) rotate(-45.23)"/></mask><linearGradient id="Безымянный_градиент_5-2" x1="2.52" y1="470.41" x2="3.52" y2="470.41" gradientTransform="matrix(279.33, 0, 0, -279.33, -563.2, 131653.08)" xlink:href="#Безымянный_градиент_5"/><clipPath id="clip-path-7"><rect class="cls-4" x="281.75" y="147.66" width="226.02" height="210.2"/></clipPath><clipPath id="clip-path-8"><path class="cls-4" d="M507.77,150.32,300.23,357.86H281.75L492,147.66h10a7.76,7.76,0,0,1,5.85,2.66"/></clipPath><mask id="mask-3" x="176.65" y="34.65" width="436.21" height="436.21" maskUnits="userSpaceOnUse"><rect class="cls-3" x="240.56" y="98.51" width="308.41" height="308.5" transform="translate(-62.7 355) rotate(-45.23)"/></mask><linearGradient id="Безымянный_градиент_5-3" x1="2.52" y1="470.42" x2="3.52" y2="470.42" gradientTransform="matrix(279.33, 0, 0, -279.33, -510.54, 131655.96)" xlink:href="#Безымянный_градиент_5"/><clipPath id="clip-path-10"><rect class="cls-4" x="395.78" y="187.77" width="85.88" height="85.88"/></clipPath><clipPath id="clip-path-11"><rect class="cls-4" x="396.54" y="188.37" width="84.49" height="84.49"/></clipPath><clipPath id="clip-path-12"><rect class="cls-4" x="376.63" y="207.43" width="26.83" height="23.08"/></clipPath><clipPath id="clip-path-13"><rect class="cls-4" x="474.2" y="207.65" width="26.74" height="23.11"/></clipPath><clipPath id="clip-path-14"><rect class="cls-4" x="387.73" y="184.69" width="102.42" height="10.97"/></clipPath><clipPath id="clip-path-15"><rect class="cls-4" x="400.44" y="178.41" width="77.11" height="3.67"/></clipPath></defs><title>Ресурс 1</title><g id="Слой_2" data-name="Слой 2"><g id="Слой_1-2" data-name="Слой 1"><g class="cls-5"><g class="cls-5"><path class="cls-6" d="M23.6,120.86,171.35,15.58A50.2,50.2,0,0,1,229,15.14L434.55,157a50.2,50.2,0,0,0,49.36,4.35l30.32-13.83A50.21,50.21,0,0,1,581,172.81l66.43,149.86a50.21,50.21,0,0,1-14.32,59.39l-95.44,77.19a50.22,50.22,0,0,1-31.74,11.17l-352.37-1.17A50.19,50.19,0,0,1,107,437.38L6,180.1a50.21,50.21,0,0,1,17.6-59.24"/><path class="cls-7" d="M233.06,136.68l9.16-2.63a52.43,52.43,0,0,0-.41-12.67l-9.33-2a42.21,42.21,0,0,0-1.65-5.41l6.62-6.84a53.42,53.42,0,0,0-6.71-10.76l-9.06,2.93a44.4,44.4,0,0,0-4.13-3.87l2.31-9.24a52.37,52.37,0,0,0-11.2-6l-6.38,7.06c-1.33-.4-2.68-.74-4.06-1L196.78,86l-2.63-9.16a52.35,52.35,0,0,0-12.66.41l-2,9.33a42.07,42.07,0,0,0-5.4,1.65l-6.85-6.62a53.42,53.42,0,0,0-10.76,6.71l2.93,9.07a44.37,44.37,0,0,0-3.87,4.12l-9.23-2.3a52.09,52.09,0,0,0-6,11.19l7.06,6.38c-.4,1.33-.74,2.68-1,4.07-.09.48-.17,1-.24,1.43L137,124.94a52.46,52.46,0,0,0,.42,12.67l9.32,2a45.1,45.1,0,0,0,1.65,5.41l-6.61,6.85a52.54,52.54,0,0,0,6.71,10.76l9.06-2.93a43.06,43.06,0,0,0,4.12,3.87l-2.3,9.24a52.75,52.75,0,0,0,11.19,5.95l6.38-7.06c1.33.4,2.68.74,4.07,1,.48.1,1,.17,1.43.24l2.63,9.17a52.43,52.43,0,0,0,12.67-.41l2-9.33a43.2,43.2,0,0,0,5.4-1.65l6.85,6.62a53.87,53.87,0,0,0,10.76-6.71l-2.92-9.07a45.64,45.64,0,0,0,3.86-4.12l9.24,2.31a52.37,52.37,0,0,0,5.95-11.2l-7.06-6.38c.4-1.33.74-2.68,1-4.07C232.91,137.63,233,137.16,233.06,136.68Zm-8.4-.2a35.75,35.75,0,1,1-28.07-42A35.74,35.74,0,0,1,224.66,136.48Z"/><path class="cls-8" d="M208.46,47.77l4-1.14a22.92,22.92,0,0,0-.18-5.5l-4-.86a18.25,18.25,0,0,0-.71-2.35l2.87-3a23,23,0,0,0-2.91-4.67l-3.94,1.27a17.79,17.79,0,0,0-1.79-1.68l1-4a23.06,23.06,0,0,0-4.86-2.59l-2.77,3.07c-.57-.17-1.16-.32-1.76-.44l-.62-.11-1.14-4a22.9,22.9,0,0,0-5.5.18L185.21,26a18.78,18.78,0,0,0-2.35.72l-3-2.88a23,23,0,0,0-4.67,2.92l1.27,3.93a20.32,20.32,0,0,0-1.68,1.79l-4-1a22.57,22.57,0,0,0-2.58,4.86l3.06,2.77c-.17.58-.32,1.16-.44,1.77,0,.2-.07.41-.11.62l-4,1.14a23.44,23.44,0,0,0,.18,5.5l4,.86a18.78,18.78,0,0,0,.72,2.35l-2.87,3A23,23,0,0,0,171.74,59l3.93-1.27a18.93,18.93,0,0,0,1.79,1.68l-1,4A23.31,23.31,0,0,0,181.32,66L184.09,63c.58.17,1.17.32,1.77.44.21.05.41.08.62.11l1.14,4a22.9,22.9,0,0,0,5.5-.18l.87-4a18.6,18.6,0,0,0,2.34-.71l3,2.87A23.58,23.58,0,0,0,204,62.51l-1.27-3.93a20.21,20.21,0,0,0,1.67-1.79l4,1A22.85,22.85,0,0,0,211,52.93l-3.07-2.77c.17-.58.33-1.16.45-1.77C208.4,48.19,208.43,48,208.46,47.77Zm-3.64-.08a15.52,15.52,0,1,1-12.19-18.25A15.52,15.52,0,0,1,204.82,47.69Z"/><path class="cls-9" d="M501.25,386.8H108.82a8.42,8.42,0,0,1-8.43-8.42V156.09a8.43,8.43,0,0,1,8.43-8.43H501.25a8.43,8.43,0,0,1,8.42,8.43V378.38a8.42,8.42,0,0,1-8.42,8.42"/><path class="cls-10" d="M501.92,147.66H108.14a7.76,7.76,0,0,0-7.75,7.76V357.86H509.67V155.42a7.76,7.76,0,0,0-7.75-7.76"/><polygon class="cls-11" points="328.24 147.66 118.04 357.86 100.39 357.86 100.39 357.05 309.76 147.66 328.24 147.66"/><polygon class="cls-11" points="444.05 147.66 233.84 357.86 148.72 357.86 358.91 147.66 444.05 147.66"/><path class="cls-11" d="M507.77,150.32,300.23,357.86H281.75L492,147.66h10a7.76,7.76,0,0,1,5.85,2.66"/><path class="cls-11" d="M509.67,155.42v5.34c-.12-2.25-.81-6.11-4-6.95-4.61-1.2-5.63,4-11.87,4.9-9,1.29-8.1-1.4-24.75-4.29-8.47-1.48-68.93-2.83-92.5,8.78,0,0-5.17-9.95-26.52-11s-47.63,3.25-58,3.81c-8.75.47-55,2.84-66.43,3.49-13.32.76-21.38,1.32-30.27-3.55-5-2.76-11.77-5.75-24.75.06s-70.15.06-70.15.06v-.67a7.76,7.76,0,0,1,7.75-7.76H501.92a7.76,7.76,0,0,1,7.75,7.76"/><rect class="cls-6" x="114.16" y="162.07" width="381.73" height="181.93"/><polyline class="cls-12" points="523.45 159.78 525.96 159.52 526.18 161.75"/><path class="cls-13" d="M478.64,334H299.72a7.85,7.85,0,0,1-7.85-7.85V195.75a7.85,7.85,0,0,1,7.85-7.85H478.64a7.85,7.85,0,0,1,7.85,7.85V326.12a7.85,7.85,0,0,1-7.85,7.85"/><path class="cls-14" d="M466.52,298.72H311.78a5.56,5.56,0,0,1-5.57-5.56V207.79a5.57,5.57,0,0,1,5.57-5.57H466.52a5.57,5.57,0,0,1,5.57,5.57v85.37a5.56,5.56,0,0,1-5.57,5.56"/><path class="cls-6" d="M311.63,202.22h15.89v16.9H306.21V207.63a5.42,5.42,0,0,1,5.42-5.41"/><rect class="cls-6" x="328.56" y="202.22" width="29.09" height="16.89"/><rect class="cls-6" x="358.7" y="202.22" width="29.11" height="16.89"/><rect class="cls-6" x="388.85" y="202.22" width="29.11" height="16.89"/><rect class="cls-6" x="419.01" y="202.22" width="29.11" height="16.89"/><path class="cls-6" d="M472,207.63v11.49H449.16v-16.9h17.48a5.41,5.41,0,0,1,5.4,5.41"/><rect class="cls-6" x="306.21" y="220.16" width="21.31" height="29.11"/><rect class="cls-6" x="328.56" y="220.16" width="29.09" height="29.11"/><rect class="cls-6" x="358.7" y="220.16" width="29.11" height="29.11"/><rect class="cls-6" x="388.85" y="220.16" width="29.11" height="29.11"/><rect class="cls-6" x="419.01" y="220.16" width="29.11" height="29.11"/><rect class="cls-6" x="449.16" y="220.16" width="22.88" height="29.11"/><rect class="cls-6" x="306.21" y="250.31" width="21.31" height="29.11"/><rect class="cls-6" x="328.56" y="250.31" width="29.09" height="29.11"/><rect class="cls-6" x="358.7" y="250.31" width="29.11" height="29.11"/><rect class="cls-6" x="388.85" y="250.31" width="29.11" height="29.11"/><rect class="cls-6" x="419.01" y="250.31" width="29.11" height="29.11"/><rect class="cls-6" x="449.16" y="250.31" width="22.88" height="29.11"/><path class="cls-6" d="M306.21,280.47h21.31v18.26H311.63a5.42,5.42,0,0,1-5.42-5.41Z"/><rect class="cls-6" x="328.56" y="280.47" width="29.09" height="18.26"/><rect class="cls-6" x="358.7" y="280.47" width="29.11" height="18.26"/><rect class="cls-6" x="388.85" y="280.47" width="29.11" height="18.26"/><rect class="cls-6" x="419.01" y="280.47" width="29.11" height="18.26"/><path class="cls-6" d="M472,280.47v12.85a5.41,5.41,0,0,1-5.4,5.41H449.16V280.47Z"/><path class="cls-6" d="M470.29,308.87H308.07a1.8,1.8,0,0,1,0-3.6H470.29a1.8,1.8,0,0,1,0,3.6"/><path class="cls-6" d="M470.29,315H308.07a1.8,1.8,0,1,1,0-3.6H470.29a1.8,1.8,0,0,1,0,3.6"/><path class="cls-6" d="M404.37,321.15h-96.3a1.8,1.8,0,0,1,0-3.6h96.3a1.8,1.8,0,1,1,0,3.6"/><polyline class="cls-12" points="433.69 227.52 433.69 222.18 435.92 224.2"/><polyline class="cls-12" points="433.69 227.52 433.69 222.18 431.47 224.2"/><line class="cls-12" x1="433.69" y1="230.08" x2="433.69" y2="232.47"/><polyline class="cls-12" points="466.2 210.14 466.2 204.8 468.42 206.82"/><polyline class="cls-12" points="466.2 210.14 466.2 204.8 463.98 206.82"/><path class="cls-12" d="M313.58,278s10.83,21.57,26.4-4.71c16.57-30.35,25.86-15.37,30.58-8.87,25.85,39.52,66-31.75,74-40.16,0,0,8.16-11.22,21.15-10.44,11.56.37,14.53-2.36,23.55-11.81S526,159.52,526,159.52"/><path class="cls-15" d="M435.86,238.87a2.17,2.17,0,1,1-2.17-2.17,2.17,2.17,0,0,1,2.17,2.17"/><path class="cls-15" d="M466.45,215.55a2.16,2.16,0,1,1,1.9-2.4,2.18,2.18,0,0,1-1.9,2.4"/><path class="cls-15" d="M387.5,278.2a2.16,2.16,0,1,1,1.89-2.4,2.16,2.16,0,0,1-1.89,2.4"/><path class="cls-15" d="M358.35,257.15a2.16,2.16,0,1,1,1.9-2.4,2.18,2.18,0,0,1-1.9,2.4"/><path class="cls-15" d="M323.91,288.2a2.16,2.16,0,1,1,1.9-2.4,2.17,2.17,0,0,1-1.9,2.4"/><polyline class="cls-12" points="323.67 290.29 323.67 295.63 321.44 293.61"/><polyline class="cls-12" points="323.67 290.29 323.67 295.63 325.89 293.61"/><polyline class="cls-12" points="387.25 281.6 387.25 286.94 385.02 284.92"/><polyline class="cls-12" points="387.25 281.6 387.25 286.94 389.47 284.92"/><polyline class="cls-12" points="358.1 245.25 358.1 239.91 360.32 241.93"/><polyline class="cls-12" points="358.1 245.25 358.1 239.91 355.88 241.93"/><line class="cls-12" x1="358.1" y1="247.82" x2="358.1" y2="250.2"/><path class="cls-13" d="M248,242.09a44.11,44.11,0,0,0-60.44,64A44.53,44.53,0,0,0,202,316.35a44.11,44.11,0,0,0,46-74.26M232.8,298a25.58,25.58,0,0,1-13.08,3.59,25.73,25.73,0,0,1-19.7-9.24,24.27,24.27,0,0,1-2.53-3.63A25.63,25.63,0,1,1,232.8,298"/><path class="cls-15" d="M263.84,275.93a44.17,44.17,0,0,1-24,39.23L232.8,298a25.62,25.62,0,0,0,3.66-41.44L248,242.09a44.1,44.1,0,0,1,15.83,33.84"/><path class="cls-16" d="M209.05,299.22l-7,17.13a44.53,44.53,0,0,1-14.47-10.23L200,292.32a25.52,25.52,0,0,0,9,6.9"/><path class="cls-15" d="M200,292.32l-12.45,13.8a44.43,44.43,0,0,1-4.1-5.1l14-12.33a24.27,24.27,0,0,0,2.53,3.63"/><line class="cls-17" x1="182.45" y1="305.95" x2="174.68" y2="312.44"/><line class="cls-17" x1="218.85" y1="214.51" x2="218.89" y2="224.64"/><path class="cls-17" d="M172.3,317.75a3,3,0,1,1-3.22-2.82A3,3,0,0,1,172.3,317.75Z"/><path class="cls-17" d="M221.88,207.62a3,3,0,1,1-3-3A3,3,0,0,1,221.88,207.62Z"/><line class="cls-17" x1="277.01" y1="283.93" x2="266.88" y2="283.98"/><path class="cls-17" d="M283.89,287a3,3,0,1,1,3-3A3,3,0,0,1,283.89,287Z"/><line class="cls-17" x1="192.77" y1="314.93" x2="186.43" y2="322.82"/><path class="cls-17" d="M185.06,327.49a3,3,0,1,1-3.29-2.73A3,3,0,0,1,185.06,327.49Z"/><path class="cls-11" d="M509.55,357.86V344s-15.76-.34-25.58,8.36c0,0-65.36-15.45-129.6,3.32,0,0-16.06-9.34-34.46-10.34s-64.57-.34-85.65,8.7c0,0-9.94-5.63-27.43-1.68-16.22,3.67-106.56,3-106.56,3v2.49Z"/><path class="cls-13" d="M249,222.15h20.84a6.71,6.71,0,0,0,6.71-6.71V194.6a6.71,6.71,0,0,0-6.71-6.7H249a6.71,6.71,0,0,0-6.71,6.7v20.84a6.71,6.71,0,0,0,6.71,6.71"/><path class="cls-13" d="M150.59,217.9c0-.13-1.46-12.89,9.38-15.9,8.52-2.07,12,5.71,12.07,5.79l-1.19.52c-.13-.28-3.12-6.86-10.55-5.05-9.73,2.7-8.48,14.15-8.42,14.64Z"/><path class="cls-13" d="M173.23,227H149.15a5.49,5.49,0,0,1-5.83-5.81c0-4.27,3-6.61,8.27-6.61v1.3c-5.82,0-7,2.81-7,5.31a4.2,4.2,0,0,0,4.53,4.52h24.08c3.43,0,7.19-1.07,7.19-7a8.59,8.59,0,0,0-1.87-5.38,6.74,6.74,0,0,0-5.15-1.89,7.63,7.63,0,0,0-6.75,4.34l-1.19-.53a8.93,8.93,0,0,1,7.94-5.11,8,8,0,0,1,6.11,2.31,9.84,9.84,0,0,1,2.21,6.31c0,5.36-2.89,8.28-8.49,8.28"/><polygon class="cls-13" points="168.05 216 164.5 213.91 165.06 217.03 168.05 216"/><polygon class="cls-13" points="172.59 206.02 168.99 208.03 171.96 209.13 172.59 206.02"/><rect class="cls-13" x="114.16" y="162.07" width="381.73" height="11.07"/><path class="cls-15" d="M481.68,167.6a1.74,1.74,0,1,1-1.74-1.74,1.73,1.73,0,0,1,1.74,1.74"/><path class="cls-16" d="M476.88,167.6a1.74,1.74,0,1,1-1.74-1.74,1.73,1.73,0,0,1,1.74,1.74"/><path class="cls-6" d="M486.49,167.6a1.74,1.74,0,1,1-1.74-1.74,1.73,1.73,0,0,1,1.74,1.74"/><path class="cls-6" d="M119.89,169.34h266a1.74,1.74,0,1,0,0-3.48h-266a1.74,1.74,0,1,0,0,3.48"/><path class="cls-18" d="M393,166.57a1.19,1.19,0,1,1-1.68,0A1.2,1.2,0,0,1,393,166.57Z"/><line class="cls-19" x1="392.96" y1="168.25" x2="393.58" y2="168.87"/><g class="cls-20"><g class="cls-21"><g class="cls-22"><g class="cls-23"><rect class="cls-24" x="117.77" y="73.91" width="357.22" height="357.7" transform="translate(-91.79 285.16) rotate(-45.23)"/></g></g></g></g><g class="cls-20"><g class="cls-25"><g class="cls-26"><g class="cls-27"><rect class="cls-28" x="63.48" y="99.53" width="306.38" height="306.45" transform="translate(-115.37 228.57) rotate(-45.23)"/></g></g></g></g><g class="cls-20"><g class="cls-29"><g class="cls-30"><g class="cls-31"><rect class="cls-32" x="240.56" y="98.51" width="308.41" height="308.5" transform="translate(-62.7 355) rotate(-45.23)"/></g></g></g></g><polygon class="cls-11" points="52.96 354.32 59.48 354.32 38.83 423.27 36.12 423.27 52.96 354.32"/><polygon class="cls-11" points="97.75 354.32 91.22 354.32 111.88 423.27 114.59 423.27 97.75 354.32"/><polygon class="cls-11" points="88.85 354.32 95.37 354.32 74.72 423.27 72.01 423.27 88.85 354.32"/><polygon class="cls-11" points="133.64 354.32 127.11 354.32 147.77 423.27 150.48 423.27 133.64 354.32"/><polygon class="cls-33" points="34.2 272.4 76.92 272.4 81.65 307.44 36.09 302.81 28.29 275.78 30.41 273.13 34.2 272.4"/><path class="cls-34" d="M578.17,302.09,579.29,272a20,20,0,0,1,39.9-.7l2.24,30.79"/><rect class="cls-15" x="526.18" y="300.3" width="123.38" height="131.63"/><path class="cls-11" d="M579.77,307.81a1.6,1.6,0,1,1-1.6-1.6,1.6,1.6,0,0,1,1.6,1.6"/><path class="cls-11" d="M623,307.81a1.6,1.6,0,1,1-1.59-1.6,1.6,1.6,0,0,1,1.59,1.6"/><path class="cls-34" d="M626.3,300.3v-4.41a2.87,2.87,0,0,1,5.74,0v19.26"/><path class="cls-16" d="M642.06,408H622a3.15,3.15,0,0,1-3.15-3.15V318.16A3.15,3.15,0,0,1,622,315h20a3.15,3.15,0,0,1,3.14,3.15v86.68a3.15,3.15,0,0,1-3.14,3.15"/></g><text class="cls-35" transform="translate(628.84 346.91)">S</text><text class="cls-35" transform="translate(628.2 355.91)">A</text><text class="cls-35" transform="translate(629.01 364.91)">L</text><text class="cls-35" transform="translate(628.68 373.91)">E</text><g class="cls-5"><rect class="cls-9" x="373.25" y="395.4" width="228.02" height="48.94"/><rect class="cls-9" x="506.91" y="431.93" width="152.01" height="12.41"/><path class="cls-10" d="M210.24,397.72,162.94,415s-4.52-4.68-5.65-8.67a6.87,6.87,0,0,1-.25-1.36,60.13,60.13,0,0,0-2.16-10.5l20.7-7.59.13-.05.11.14c.25.29.89,1,1.8,1.89a22.11,22.11,0,0,0,4.94,3.58c3.9,2,6.9.82,16.51-.83s11.17,6.14,11.17,6.14"/><path class="cls-11" d="M175.82,386.94l-.24-.09-20.7,7.59a60.13,60.13,0,0,1,2.16,10.5,6.87,6.87,0,0,0,.25,1.36c.69-1.41,2.36-4,6.19-6.91,4.62-3.56,11.46-8.6,14.14-10.56Z"/><path class="cls-10" d="M80.33,423.27v-13c-2.66-2-2.92-7-2.92-7l5.51-9.86,1-1.79c2.35,9.17,5.47,13.83,8.36,16.13l.68.5h0a14.41,14.41,0,0,1,7.54.91,17.8,17.8,0,0,1,4.1,2.23,21.36,21.36,0,0,1,7.93,11.79Z"/><path class="cls-6" d="M92.28,407.83c-2.89-2.3-6-7-8.36-16.13l.41-.74Z"/><path class="cls-16" d="M165,274.68l-32,31.24-20.68,7.31-7.77,3.9-14,.54-2.7-6.89s-11.45-5.6-18.19-8.83l-2.52-1.2c-5.82-2.76-3-13.57-1.43-20.51s3-17,7.91-20.56,32.44-11,32.44-11,.51-6.83.67-8.67,2.65-2,2.65-2c6.55.21,8.28,4,9.73,5.08s1.71,3.6,1.71,3.6h0c.2-.07,1.59-.59,3.57-1.18,4.74-1.42,12.85-3.29,15.7-.47,10.34,10.8,24.88,29.66,24.88,29.66"/><path class="cls-36" d="M179.56,383.72s-4.56,11.46-22,11.55h0a44.49,44.49,0,0,1-5.13-.28c-4-12.82-13.86-44.48-14.47-46.44l0-.1-37.45,60.8a14.41,14.41,0,0,0-7.54-.91,7.63,7.63,0,0,1-.69-.51c-2.89-2.3-6-7-8.36-16.13-.15-.57-.29-1.16-.43-1.77,5-9.06,28.14-49.11,28.14-49.11s-1.1.47-16.42.47l-4.69-23.62,12.63-.49,1.35-.05s21.74-12.19,30.23-13.59c8-1.31,15.74-1.33,19.5,3.95a7.28,7.28,0,0,1,.64,1c3.48,6.27,24.69,75.24,24.69,75.24"/><path class="cls-37" d="M124.88,297.32a1.71,1.71,0,0,1,.11,2.37,1.88,1.88,0,0,1-.57.47,1.37,1.37,0,0,1-.12,1.79H106.07V289.16s14.23-2.65,15.46-2a2.55,2.55,0,0,1,1.09,2.19,3.25,3.25,0,0,1-.16,1.31,16.87,16.87,0,0,1,3,3.38,2.72,2.72,0,0,1,.39,1.68,2.08,2.08,0,0,1-.92,1.59"/><path class="cls-15" d="M74.93,282.12A30.9,30.9,0,0,0,87,285.8c7.36.75,16.79,3.77,19,3.37a56.67,56.67,0,0,1-12.67-5.61c-2.11-1.36-7.94-3.68-11-2s-7.5.57-7.5.57"/><path class="cls-15" d="M117,250.19l-.17,6.05a1.21,1.21,0,0,0,1.13.33c.69,2.71,10,42.59,10,42.59l2.85,2.2.72-3.5L120,256.15a2,2,0,0,0,.75-1.1c1.34.92,3.07,2.07,3.07,2.07Z"/><polygon class="cls-15" points="106.03 248.71 106.03 249.52 117.28 263.06 117.28 256.35 116.81 256.24 116.67 260.93 106.03 248.71"/><polygon class="cls-15" points="95.37 286.82 91.63 301.36 92.49 301.36 96.22 286.99 95.37 286.82"/><path class="cls-15" d="M103.46,299a1,1,0,0,1-2.07,0,1,1,0,1,1,2.07,0"/><polygon class="cls-15" points="106.07 301.95 104.67 301.95 104.8 288.94 106.07 289.17 106.07 301.95"/><path class="cls-15" d="M143.69,274.36l-2.5,14.84-2-6.14-.82-18s-4.2-7.06-6.15-7.41a12.39,12.39,0,0,1-5.45-1.77c-2.25-1.36-4.27-6.72-4.27-6.72l-.46.15,1.77,7.81-3-10.44h0c.2-.07,1.59-.59,3.57-1.18l.08.15,5.75,3.64,1.41,4.11s5.83,7.32,7.91,10.61,4.16,10.36,4.16,10.36"/><polygon class="cls-38" points="135.09 270.83 137.47 280.41 132.81 287.06 125.63 283.48 123.17 274.15 135.09 270.83"/><path class="cls-11" d="M154.23,307.49c-6-4.17-10.58-.25-12.89.67-2.61,1-6,.7-7.28-.28s-2.72-.76-6.47.77-9.35,3.86-16.15,6.68c-6.59,2.74-15.06,5.89-15.58,6.08l7.29-4.23,1.35-.05s21.74-12.19,30.23-13.59c8-1.31,15.74-1.33,19.5,3.95"/><path class="cls-11" d="M157.59,395.27a44.49,44.49,0,0,1-5.13-.28c-4-12.82-13.86-44.48-14.47-46.44l0-.1s3.71-7.45,4.63-10.77-1.25-9.46-6.9-10.87-9.84-.82-14.46,1.9-8.9,10.84-9.17,11.36a39,39,0,0,1,8.24-14c10.66-10.34,20-7.4,23.27-1.26s.17,13.54-.27,17.68,1.47,5.49,3.64,10.33-.54,16-.43,18.76c.08,1.95,3.49,12.14,5.51,18a9.31,9.31,0,0,0,5.57,5.7"/><path class="cls-11" d="M93,408.34l-3.74.91A11.9,11.9,0,0,1,83,399.05l-.12-5.56,1-1.79c2.35,9.17,5.47,13.83,8.36,16.13l.68.5Z"/><path class="cls-39" d="M125,299.69a1.88,1.88,0,0,1-.57.47,33.68,33.68,0,0,0-4-2.46Z"/><path class="cls-39" d="M125.8,295.73a2.08,2.08,0,0,1-.92,1.59l-3.51-4.47c.21.17,3.67,3,4.43,2.88"/><path class="cls-39" d="M122.46,290.67a15.61,15.61,0,0,0-2.62-2c1.45.4,2.3.6,2.78.7a3.25,3.25,0,0,1-.16,1.31"/><path class="cls-17" d="M90.94,407.72s-3.21-7.32.1-8.32S90.94,407.72,90.94,407.72Z"/><path class="cls-17" d="M91.33,408.25s8.16-1.73,8.89-4.65S93.1,403,91.33,408.25Z"/><path class="cls-17" d="M182.31,392.32s-2.4-5-.32-6.57S183.21,390.49,182.31,392.32Z"/><path class="cls-17" d="M179.36,397.29s.82-3.38,2.5-4.74"/><path class="cls-17" d="M181.73,396.47s0-2.46,1-3.45"/><path class="cls-17" d="M182.78,392.85s1.77-2.94,4.36-3.34S189.49,393.47,182.78,392.85Z"/><polygon class="cls-15" points="87.82 310.78 111.24 313.5 109.97 314.17 93.05 312.67 93.11 316.63 95.32 317.49 90.52 317.67 91.63 317.01 91.53 312.64 87.82 310.78"/><path class="cls-15" d="M105,301.21l-.27.74H69.63l-2.52-1.2Z"/><path class="cls-9" d="M132.24,304.28H98.68a1,1,0,0,1-1-1V302h34.52Z"/><path class="cls-9" d="M145.18,272.4h46.58a1.75,1.75,0,0,1,1.64,2.39l-11.53,29.49H131.52l12-30.77a1.75,1.75,0,0,1,1.63-1.11"/><path class="cls-13" d="M168.06,288.94c-.65,1.57-2.2,2.41-3.45,1.89s-1.72-2.22-1.06-3.79,2.2-2.41,3.45-1.89,1.72,2.22,1.06,3.79"/><path class="cls-39" d="M489.56,206.4s-2,4.63-2.12,6.56c-.12,1.78-.54-3.83,1.52-7.47Z"/><path class="cls-11" d="M346.16,113.17H223.49a6.12,6.12,0,0,1-6.11-6.11V61.61a6.11,6.11,0,0,1,6.11-6.11H346.16a6.11,6.11,0,0,1,6.11,6.11v45.45a6.12,6.12,0,0,1-6.11,6.11"/><rect class="cls-9" x="21.79" y="423.27" width="399.55" height="21.07"/><rect class="cls-13" x="231.63" y="423.27" width="189.71" height="21.07"/><rect class="cls-13" x="464.01" y="395.4" width="137.27" height="48.94"/><path class="cls-11" d="M364.06,444.34H266a.9.9,0,0,1-.91-.9V439a.9.9,0,0,1,.91-.9h98a.9.9,0,0,1,.91.9v4.47a.9.9,0,0,1-.91.9"/><g class="cls-40"><g class="cls-41"><path class="cls-13" d="M481.66,230.8h0a42.94,42.94,0,0,0-60.1-39.45,42.91,42.91,0,0,0-25.76,39.25h0a42.94,42.94,0,0,0,85.88.19M438.52,267a36.26,36.26,0,0,1-30.27-56.16,36.69,36.69,0,0,1,10.43-10.45,36.18,36.18,0,0,1,40.09.18A36.43,36.43,0,0,1,469,211a35.88,35.88,0,0,1,5.86,19.81h0A36.33,36.33,0,0,1,438.52,267"/></g></g><rect class="cls-16" x="430.32" y="284.24" width="16.65" height="15.86" transform="translate(145.45 730.13) rotate(-89.87)"/><g class="cls-42"><g class="cls-43"><path class="cls-13" d="M438.69,272.86A42.23,42.23,0,1,1,481,230.71h0a42.29,42.29,0,0,1-42.34,42.14"/></g></g><rect class="cls-10" x="431.25" y="292.2" width="14.72" height="31.31" transform="translate(129.74 745.75) rotate(-89.87)"/><path class="cls-11" d="M451.74,395.48l-26.5-.06a5.67,5.67,0,0,1-5.64-5.67l.17-73.07a1.51,1.51,0,0,1,1.51-1.51l34.79.08a1.52,1.52,0,0,1,1.51,1.51l-.17,73.08a5.66,5.66,0,0,1-5.67,5.64"/><path class="cls-15" d="M446.57,292.28l0,6.28L431,292.28a59.88,59.88,0,0,0,7.63.49,60.92,60.92,0,0,0,7.92-.49"/><path class="cls-13" d="M453.53,319.28s-.12,54-.14,59.58.58,12.45-5.36,12.43l-12.49,0c9.47,0,3.63-15.49,8.91-29.57a86.31,86.31,0,0,1,3.9-8.88c-1.91-3.32-4.67-13.14-.69-19.61s5.85-4.95,5.87-13.93"/><path class="cls-13" d="M432.44,389.06a2.21,2.21,0,1,1-2.2-2.21,2.2,2.2,0,0,1,2.2,2.21"/><path class="cls-16" d="M495.46,256.14a62,62,0,0,0-5.31-60.48,63.88,63.88,0,0,0-9.07-10.55c-1.13-1.05-2.31-2.06-3.52-3s-2.66-2-4.05-3a62,62,0,0,0-68.41-.69c-1.61,1-3.15,2.14-4.66,3.32h0c-1.2.94-2.36,1.92-3.49,3h0a62.7,62.7,0,0,0-15.83,22.73,62.15,62.15,0,0,0,49.61,84.79,2.87,2.87,0,0,0,.31,0,58.09,58.09,0,0,0,7.63.5,62.19,62.19,0,0,0,56.81-36.63m-56.77,16.72A42.23,42.23,0,1,1,481,230.71h0a42.29,42.29,0,0,1-42.34,42.14"/><g class="cls-42"><g class="cls-44"><path class="cls-13" d="M403.46,207.48a42.07,42.07,0,0,0-6.92,23H389l-12.32,0a61.92,61.92,0,0,1,4.48-23Z"/></g></g><g class="cls-42"><g class="cls-45"><path class="cls-13" d="M501,230.75H481a41.78,41.78,0,0,0-6.81-23.06l22.35,0A62.19,62.19,0,0,1,501,230.75"/></g></g><g class="cls-42"><g class="cls-46"><path class="cls-13" d="M490.15,195.66l-15.58-.07-12.29-.06a42.1,42.1,0,0,0-46.67-.2l-12-.07-15.87-.06a63,63,0,0,1,9.2-10.5h0l22,.12,40.41.2,21.72.1a63.88,63.88,0,0,1,9.07,10.55"/></g></g><g class="cls-42"><g class="cls-47"><path class="cls-13" d="M477.56,182.07,450.34,182h0l-22.3-.1-27.58-.13c1.51-1.18,3.05-2.28,4.66-3.32l68.41.69q2.08,1.41,4.05,3"/></g></g><path class="cls-13" d="M436.24,262.17a1.83,1.83,0,0,1-3.23-1.72,1.83,1.83,0,1,1,3.23,1.72"/><path class="cls-13" d="M442.18,260.28a27.58,27.58,0,0,0,13.91-5.37,25.23,25.23,0,0,0,5.37-5.4,26.37,26.37,0,0,0,2.09-3.21c.65-1.11,1.11-2.32,1.68-3.48l0,0a.31.31,0,0,1,.56.26c-.52,1.2-.95,2.46-1.56,3.62a27.73,27.73,0,0,1-2,3.41,26.37,26.37,0,0,1-5.34,5.87,29.13,29.13,0,0,1-14.6,6.33,1,1,0,1,1-.24-2h.12Z"/><path class="cls-9" d="M357.33,438.07h-83s7.35-6.69,7.51-21.27c.21-19.39,0-29.81,0-29.81H349s-.06,15.11,0,30.19,8.31,20.89,8.31,20.89"/><polygon class="cls-11" points="349 417.18 281.8 393.73 281.8 386.99 349 386.99 349 417.18"/><polygon class="cls-15" points="136.91 260.27 147.78 253.57 149.06 255.07 137.74 261.4 136.91 260.27"/><path class="cls-15" d="M144.74,253a1.05,1.05,0,1,1-1.05-1.05,1.05,1.05,0,0,1,1.05,1.05"/><polygon class="cls-11" points="121.2 238.53 126.53 243.06 132.44 236.73 123.26 227.18 121.2 238.53"/><path class="cls-11" d="M110.6,224.68s-.13-5.11.62-5.6a36,36,0,0,1,13.13-4.81c7.51-1.25,7.29,4.65,5.93,7.73a27.26,27.26,0,0,1-2.54,4.71,12.26,12.26,0,0,1-2.11-.9l-13.43,1.84Z"/><path class="cls-37" d="M125.63,225.81c-.64,2.68-2.71,9.83-5.09,13.95h0v0a.51.51,0,0,1-.08.13l0,.07c-1.32,2.22-2.73,3.46-4,2.46v5.67c-3-2-5.93-4-7.14-6.25V229.46a3.37,3.37,0,0,1-2-4c.68-2.93,3.61-2.58,4.23-1a17.3,17.3,0,0,1,.85,2.51s4.73-.19,6.62-7.89c2.91,3.57,4.71,5.78,6.78,6.73"/><path class="cls-37" d="M131.62,253.4l8.18-8.62a5,5,0,0,1-1-1.92c-.14-.9.34-2.68-.73-4.41s-3.93-5.62-5.14-6.21a2.63,2.63,0,0,0-1.84-.37,2.27,2.27,0,0,0-.62-2.11,2.11,2.11,0,0,0-2-.82,2,2,0,0,0-1-2.15c-1.32-.88-4,2.06-3.36,3.53a1.47,1.47,0,0,0,2,.88,2.14,2.14,0,0,0,.4,2.06,1.62,1.62,0,0,0,1.75.2s-1,2.74.36,3.07,2.24-1.52,2.24-1.52l1.58,1.72-5.91,6.33s-3.53-3.87-5-3.59-2.57,1.22-.91,2.46,3.51,2.77,3.87,4.94a5.89,5.89,0,0,0,4.66,4.46,3,3,0,0,1,2.52,2.07"/><path class="cls-39" d="M120.39,240c-1.32,2.22-2.73,3.46-4,2.46v2.33L111,237.44c.27.23,4.7,4.07,6.9,3.7a3.83,3.83,0,0,0,2.46-1.14"/><path class="cls-39" d="M108.8,224.41s1.79.5,1.79,3.51c-.77-1.29-3.49-1.81-1.79-3.51"/><path class="cls-39" d="M115.07,233.25a3.48,3.48,0,0,0,2.51,2.32c1.52.33,1.85-.12,1.85-.12a2.23,2.23,0,0,1-3.24,1.23c-1.63-1.12-1.12-3.43-1.12-3.43"/><path class="cls-48" d="M248.75,76.52h4.73a2.36,2.36,0,0,1,2.36,2.36v13.3a2.37,2.37,0,0,1-2.37,2.37h-4.73a2.36,2.36,0,0,1-2.36-2.36V78.88A2.36,2.36,0,0,1,248.75,76.52Z"/><path class="cls-48" d="M260.67,76.52h4.73a2.36,2.36,0,0,1,2.36,2.36v13.3a2.37,2.37,0,0,1-2.37,2.37h-4.73a2.36,2.36,0,0,1-2.36-2.36V78.88A2.36,2.36,0,0,1,260.67,76.52Z"/><path class="cls-48" d="M283.67,76.52h4.73a2.36,2.36,0,0,1,2.36,2.36v13.3a2.37,2.37,0,0,1-2.37,2.37h-4.73a2.36,2.36,0,0,1-2.36-2.36V78.88A2.36,2.36,0,0,1,283.67,76.52Z"/><path class="cls-48" d="M295.59,76.52h4.73a2.36,2.36,0,0,1,2.36,2.36v13.3a2.37,2.37,0,0,1-2.37,2.37h-4.73a2.36,2.36,0,0,1-2.36-2.36V78.88A2.36,2.36,0,0,1,295.59,76.52Z"/><path class="cls-48" d="M311.62,76.52h4.73a2.36,2.36,0,0,1,2.36,2.36v13.3a2.37,2.37,0,0,1-2.37,2.37h-4.73a2.36,2.36,0,0,1-2.36-2.36V78.88A2.36,2.36,0,0,1,311.62,76.52Z"/><line class="cls-48" x1="323.27" y1="76.52" x2="323.27" y2="94.54"/><path class="cls-13" d="M275.25,82.15a.72.72,0,1,1-.72-.71.72.72,0,0,1,.72.71"/><path class="cls-13" d="M275.25,89.1a.72.72,0,1,1-.72-.72.72.72,0,0,1,.72.72"/><line class="cls-48" x1="305.84" y1="94.54" x2="305.84" y2="96.52"/><path class="cls-11" d="M361.48,60.7a1.62,1.62,0,1,1-1.62-1.63,1.63,1.63,0,0,1,1.62,1.63"/><path class="cls-11" d="M361.48,72.51a1.62,1.62,0,1,1-1.62-1.62,1.63,1.63,0,0,1,1.62,1.62"/><path class="cls-11" d="M361.48,84.33a1.62,1.62,0,1,1-1.62-1.62,1.62,1.62,0,0,1,1.62,1.62"/><path class="cls-11" d="M361.48,96.15a1.62,1.62,0,1,1-1.62-1.62,1.62,1.62,0,0,1,1.62,1.62"/><path class="cls-11" d="M361.48,108a1.62,1.62,0,1,1-1.62-1.62,1.63,1.63,0,0,1,1.62,1.62"/><path class="cls-6" d="M338.94,53.29l-5.24-4a11.63,11.63,0,0,0,.18-1.16L340,45.8a20.65,20.65,0,0,0-.43-3.52l-6.53-.83c-.13-.37-.27-.73-.43-1.09l4.15-5.11a21.69,21.69,0,0,0-2.13-2.84L328.59,35c-.3-.25-.61-.5-.93-.73l1-6.49c-.53-.27-1.06-.53-1.61-.77s-1.1-.44-1.66-.63l-4,5.24c-.39-.07-.77-.13-1.16-.17l-2.35-6.15a22,22,0,0,0-3.53.44l-.82,6.52c-.37.13-.73.28-1.09.44l-5.11-4.15a21.69,21.69,0,0,0-2.84,2.13l2.55,6.06c-.26.3-.49.61-.73.93l-6.49-1c-.27.52-.54,1-.77,1.6s-.44,1.11-.63,1.67l5.24,4c-.07.39-.13.78-.17,1.17l-6.14,2.35a21.7,21.7,0,0,0,.42,3.52l6.53.82c.13.38.28.74.44,1.1l-4.15,5.1a21.14,21.14,0,0,0,2.13,2.85l6.06-2.55q.45.38.93.72l-1,6.5c.52.27,1,.53,1.6.77s1.11.44,1.67.62l4-5.24a11.78,11.78,0,0,0,1.17.17l2.35,6.15a20.65,20.65,0,0,0,3.52-.43l.83-6.52c.36-.14.73-.28,1.09-.44l5.1,4.15a21.79,21.79,0,0,0,2.85-2.13l-2.55-6.06q.38-.45.72-.93l6.5,1c.27-.51.53-1,.77-1.6s.44-1.1.62-1.66M326.3,49.82A8.25,8.25,0,1,1,322,39a8.26,8.26,0,0,1,4.35,10.83"/><path class="cls-37" d="M561.63,390.38l.45-17.64-14-47.06c-.7-4.22,10.24-3.17,15.74-2.39h0c1.83.27,3,.5,3,.5a44.51,44.51,0,0,0,2.39,4,24.75,24.75,0,0,0,3.53,4.27c3.15,2.85,2.4,7.8,1.5,13.51s-.3,9.83-.37,15.16a13.91,13.91,0,0,0,2.47,8.48l-11.18,21-3.6,2.93Z"/><path class="cls-11" d="M560.41,395.4s.09-4.95,2.69-5.09,4.82-3.64,4.82-3.64,3.7-3.95,3.3-5.48c0,0,.17-8.28,5.62-13.08a33,33,0,0,0,3.46,5.15,4.87,4.87,0,0,1,.51,5.69c-1.41,2.86-6.55,5.12-6.55,9.94v4.82a1.69,1.69,0,0,1-1.69,1.69Z"/><path class="cls-10" d="M527.57,241.65s-2.85,13.58-2.68,17.36,23.2,66.67,23.2,66.67,13.6-.55,18.79-1.89c-1.88-5.64-3.58-19.26-2.41-25.88s6.35-21.23,4.56-31.08-18.53-17.57-16.52-25.13-24.94,0-24.94,0"/><polygon class="cls-11" points="483.01 194.66 502.45 232.87 566.88 225.86 554.56 194.66 483.01 194.66"/><path class="cls-37" d="M544.43,176.07s-5.85,12-7,15.16-.18,5.2,2.87,5.67c0,2.51-.06,5.56-.06,5.56l8.78.3s5.43-29.92-4.6-26.69"/><path class="cls-37" d="M523.77,235.59C521.14,239.3,513,250,507,251.66s-10.8-2.69-13.85-11.29-8.84-34.51-9.13-37.61,1.13-3,1.13-3l3.82,5.78.6.91.05-.1c1.6-2.93,3.41-1.66,3.37.19,0,1,.2,4.67.2,4.67s2.9,2.32,4.11,3.47.18,5.43.18,5.43l3.4,4.16,3,3.67,3-5.73c.32-.3,11.74,8.79,16.86,13.43"/><path class="cls-37" d="M563.54,228.84s15.08.65,21.27-3c2.28,7.56,4.49,19.17,2.79,20.78s-4.4,4.49-11.35,1.77-21.69-11.77-21.69-11.77l6.69-8.9Z"/><path class="cls-13" d="M584.81,225.86s-2,2.54-13,3c-2.33.1-5.06.11-8.26,0l-2.27-1.09h0l-6.69,8.9s-2.21,3.3-2,5.06c0,0-4.75,5.23-13.82,5.07-8.07,0-11.12-5.12-11.12-5.12V238s-2.58-1.09-2.8-3.35l-1,1-16.86-13.43s5.77-11.1,10.39-14.86,26.56-6.61,26.56-6.61,34,4.54,37.09,12.95a93.46,93.46,0,0,1,3.86,12.22"/><path class="cls-39" d="M503.87,227.89s-3.77,6.6-4.48,4.6c-.53-1.5.78-6.07,1.48-8.27Z"/><path class="cls-39" d="M566.07,218.85a41.11,41.11,0,0,1-4.82,8.89c3.85,3.14,11,9.44,11,9.44l-.58-10.67-3.93-3.71v-3.86s-1-.92-1.67-.09"/><path class="cls-9" d="M571.8,228.86c-2.33.1-5.06.11-8.26,0l-2.27-1.09h0a41.11,41.11,0,0,0,4.82-8.89c.72-.83,1.67.09,1.67.09v3.86l3.93,3.71Z"/><path class="cls-9" d="M523.77,235.59l1-1,7.63-3.8,1.09-7.73a.43.43,0,0,0-.75-.34l-10,12Z"/><path class="cls-39" d="M573.23,370.53a14.39,14.39,0,0,1-2.12-4.49c-.77-2.74-.24-24-1.38-28.53s-7.12-13-7.12-13a16.36,16.36,0,0,1,1.22-1.25h0c1.83.27,3,.5,3,.5a44.51,44.51,0,0,0,2.39,4c-.92.69-.79,2.24,1,8.47.69,2.61,1.48,18.52,1.2,24.45a21.21,21.21,0,0,0,1.74,9.82"/><path class="cls-36" d="M564.05,272.46s-6.4,32.21-5.5,40.27,4.06,11.82,4.06,11.82l4.27-.76-.37-1.22-3.21-.46s-2.71-5.76-3.35-9.59c-1.49-9.7,3.24-28.57,5-36.19,1.91-6.06-.92-3.87-.92-3.87"/><rect class="cls-10" x="535.71" y="180.94" width="7.31" height="1.17" transform="translate(129.85 576.7) rotate(-62.58)"/><rect class="cls-10" x="542.72" y="179.21" width="0.58" height="7.64" transform="translate(118.22 567.62) rotate(-60.78)"/><path class="cls-11" d="M540.69,164.65s-2.17,5.23,0,8.41,5.74,5.57,5,11.36-3.44,13.17-1.1,19.13,8.16,14.07,21.47,15.3,21.51-9.95,19-20.41-10-13.39-17.68-12.25c-6.08,1.09-3.53-6.62-6.21-10.06s-12-13.25-16.24-13.69c-3.56-.39-4.29,2.21-4.29,2.21"/><path class="cls-10" d="M555.43,395.4s.09-4.95,2.69-5.09,5.69,0,5.69,0,4.34-6.21,3.93-7.74c0,0-1.33-9.66,4.12-14.46a33.82,33.82,0,0,0,3.45,5.15,4.85,4.85,0,0,1,.52,5.69c-1.41,2.86-6.55,5.12-6.55,9.94V392a3.37,3.37,0,0,1-3.37,3.37Z"/><path class="cls-7" d="M246.38,120.62c3.9,0,3.9,4,7.8,4s3.9-4,7.81-4,3.9,4,7.8,4,3.9-4,7.8-4,3.9,4,7.8,4,3.9-4,7.8-4,3.9,4,7.8,4,3.9-4,7.8-4,3.91,4,7.81,4,3.9-4,7.8-4,3.91,4,7.81,4,3.9-4,7.81-4"/><path class="cls-7" d="M246.38,126.26c3.9,0,3.9,4,7.8,4s3.9-4,7.81-4,3.9,4,7.8,4,3.9-4,7.8-4,3.9,4,7.8,4,3.9-4,7.8-4,3.9,4,7.8,4,3.9-4,7.8-4,3.91,4,7.81,4,3.9-4,7.8-4,3.91,4,7.81,4,3.9-4,7.81-4"/><path class="cls-7" d="M246.38,131.47c3.9,0,3.9,4,7.8,4s3.9-4,7.81-4,3.9,4,7.8,4,3.9-4,7.8-4,3.9,4,7.8,4,3.9-4,7.8-4,3.9,4,7.8,4,3.9-4,7.8-4,3.91,4,7.81,4,3.9-4,7.8-4,3.91,4,7.81,4,3.9-4,7.81-4"/><path class="cls-7" d="M246.38,136.68c3.9,0,3.9,4,7.8,4s3.9-4,7.81-4,3.9,4,7.8,4,3.9-4,7.8-4,3.9,4,7.8,4,3.9-4,7.8-4,3.9,4,7.8,4,3.9-4,7.8-4,3.91,4,7.81,4,3.9-4,7.8-4,3.91,4,7.81,4,3.9-4,7.81-4"/><path class="cls-11" d="M347,120.44a.75.75,0,1,1-.75-.75.74.74,0,0,1,.75.75"/><path class="cls-11" d="M347,126.4a.75.75,0,1,1-.75-.75.75.75,0,0,1,.75.75"/><path class="cls-11" d="M347,131.68a.75.75,0,1,1-.75-.75.75.75,0,0,1,.75.75"/><path class="cls-11" d="M347,137.08a.75.75,0,1,1-.75-.76.75.75,0,0,1,.75.76"/><rect class="cls-16" x="398.76" y="41.88" width="54.78" height="85.28"/><path class="cls-15" d="M398.76,127.16H385.81a4.81,4.81,0,0,1-4.81-4.81V72.51h17.76Z"/><rect class="cls-6" x="453.54" y="82.71" width="8.9" height="44.45"/><path class="cls-11" d="M469.32,104.93h-6.88v22.23h3.86a3,3,0,0,0,3-3Z"/></g><text class="cls-35" transform="translate(422.1 80.48)">N</text><text class="cls-35" transform="translate(422.48 89.48)">P</text><text class="cls-35" transform="translate(422.95 98.48)">S</text><g class="cls-5"><path class="cls-16" d="M177.55,187.77H35.74a3.59,3.59,0,0,1-3.59-3.59V136a3.59,3.59,0,0,1,3.59-3.59H177.55a3.59,3.59,0,0,1,3.59,3.59v48.16a3.59,3.59,0,0,1-3.59,3.59"/><rect class="cls-17" x="14.06" y="200.45" width="74.53" height="38.48" rx="3.59"/><path class="cls-15" d="M42.68,354.32h55l-8.89-46.8a7.36,7.36,0,0,0-7.26-6.17H53.37s-18.83,1.08-22.25-23.51c0,0-1.16-5.44,3.08-5.44H31.46a6.11,6.11,0,0,0-5.95,7.48Z"/><polygon class="cls-33" points="97.72 354.32 103.84 354.32 111.63 340.82 95.12 340.82 97.72 354.32"/><path class="cls-13" d="M51.37,154.91c0-.08-.91-8,5.81-9.85a6.5,6.5,0,0,1,7.49,3.58l-.74.33a5.6,5.6,0,0,0-6.54-3.14c-6,1.68-5.26,8.78-5.22,9.08Z"/><path class="cls-13" d="M65.41,160.58H50.47A3.41,3.41,0,0,1,46.86,157c0-2.65,1.83-4.1,5.13-4.1v.81c-3.61,0-4.32,1.74-4.32,3.29a2.6,2.6,0,0,0,2.8,2.8H65.41c2.12,0,4.46-.66,4.46-4.36a5.38,5.38,0,0,0-1.16-3.34,4.19,4.19,0,0,0-3.19-1.17,4.74,4.74,0,0,0-4.19,2.69l-.74-.32a5.56,5.56,0,0,1,4.93-3.17,4.91,4.91,0,0,1,3.78,1.43,6,6,0,0,1,1.37,3.91c0,3.33-1.79,5.14-5.26,5.14"/><polygon class="cls-13" points="62.2 153.74 59.99 152.44 60.34 154.37 62.2 153.74"/><polygon class="cls-13" points="65.01 147.55 62.78 148.79 64.62 149.47 65.01 147.55"/><polygon class="cls-15" points="148.75 154.91 146.17 146.16 137.43 148.74 146.39 132.31 157.71 138.48 148.75 154.91"/><polygon class="cls-15" points="160.07 154.91 162.65 146.16 171.39 148.74 162.43 132.31 151.11 138.48 160.07 154.91"/><path class="cls-11" d="M169.4,130.7a14.14,14.14,0,1,1-14.14-14.13A14.14,14.14,0,0,1,169.4,130.7"/><path class="cls-16" d="M156.22,125.55l1,2.07a1.08,1.08,0,0,0,.81.59l2.29.33a1.07,1.07,0,0,1,.59,1.82L159.27,132a1.09,1.09,0,0,0-.31.94l.4,2.28a1.08,1.08,0,0,1-1.56,1.13l-2-1.08a1.1,1.1,0,0,0-1,0l-2,1.08a1.07,1.07,0,0,1-1.55-1.13l.39-2.28a1.06,1.06,0,0,0-.31-.94l-1.66-1.62a1.07,1.07,0,0,1,.6-1.82l2.28-.33a1.08,1.08,0,0,0,.81-.59l1-2.07a1.07,1.07,0,0,1,1.92,0"/><path class="cls-13" d="M254.77,52.11a11,11,0,1,1-11-11,11,11,0,0,1,11,11"/><polyline class="cls-49" points="243.73 44.66 243.73 52.11 247.34 48.5"/><line class="cls-8" x1="46.86" y1="172.65" x2="166.28" y2="172.65"/><line class="cls-17" x1="22.81" y1="211.13" x2="80.35" y2="211.13"/><line class="cls-17" x1="22.81" y1="216.77" x2="80.35" y2="216.77"/><line class="cls-17" x1="22.81" y1="222.41" x2="80.35" y2="222.41"/><line class="cls-17" x1="22.81" y1="228.05" x2="54.35" y2="228.05"/><line class="cls-8" x1="46.86" y1="177.68" x2="166.28" y2="177.68"/></g></g></g></g></svg>