<svg width="142" height="46" viewBox="0 0 142 46" fill="none" xmlns="http://www.w3.org/2000/svg">
<path d="M13 29.1C13 28.86 10.4 6 29.82 0.629995C45.09 -3.09 51.38 10.85 51.44 11L49.31 11.93C49.09 11.43 43.71 -0.350005 30.41 2.93C13 7.71 15.22 28.22 15.33 29.1H13Z" fill="#00162D"/>
<path d="M53.57 45.47H10.43C4.17 45.47 0 41.31 0 35.05C0 27.4 5.28 23.21 14.82 23.21V25.54C4.38 25.54 2.33 30.54 2.33 35.05C2.33 40.05 5.45 43.14 10.43 43.14H53.57C59.72 43.14 66.46 41.22 66.46 30.54C66.46 30.4 66.51 24.54 63.1 20.89C61.02 18.65 57.92 17.52 53.89 17.52C45.38 17.52 41.89 24.97 41.79 25.29L39.66 24.34C39.83 23.97 43.84 15.19 53.89 15.19C58.6 15.19 62.28 16.58 64.82 19.33C68.91 23.75 68.82 30.33 68.82 30.63C68.82 40.23 63.65 45.47 53.61 45.47" fill="#00162D"/>
<path d="M44.3 25.7L37.93 21.96L38.94 27.54L44.3 25.7Z" fill="#00162D"/>
<path d="M52.42 7.81999L45.97 11.42L51.3 13.38L52.42 7.81999Z" fill="#00162D"/>
<path d="M75.05 15.32V6.99999H73.75V4.41999H75.05V3.71999C75.0109 3.24027 75.0686 2.75757 75.2198 2.3006C75.371 1.84364 75.6125 1.42174 75.93 1.05999C76.2698 0.752684 76.6681 0.517207 77.1012 0.367703C77.5342 0.2182 77.993 0.157754 78.45 0.189995C79.2014 0.180621 79.9499 0.28514 80.67 0.499995V3.08999C80.2197 2.91736 79.7423 2.82595 79.26 2.81999C78.5 2.81999 78.13 3.21999 78.13 4.00999V4.43999H80.65V6.99999H78.17V15.33L75.05 15.32Z" fill="#00162D"/>
<path d="M87.36 15.57C86.6031 15.5978 85.8483 15.4732 85.1405 15.2035C84.4328 14.9337 83.7864 14.5245 83.24 14C82.6987 13.4592 82.2753 12.8122 81.9965 12.0996C81.7177 11.3871 81.5895 10.6245 81.62 9.85999C81.5819 8.35721 82.1348 6.89946 83.16 5.79999C83.6509 5.25646 84.2537 4.82574 84.9269 4.53745C85.6002 4.24916 86.3279 4.11015 87.06 4.12999C87.816 4.08149 88.5728 4.213 89.2681 4.51374C89.9635 4.81447 90.5776 5.27585 91.06 5.85999C91.9989 7.07326 92.4835 8.57682 92.43 10.11C92.43 10.27 92.43 10.55 92.43 10.93H84.72C84.825 11.5563 85.1515 12.1241 85.64 12.53C86.1476 12.9154 86.773 13.1133 87.41 13.09C88.4104 13.0762 89.3655 12.6705 90.07 11.96L91.86 13.54C91.3231 14.2105 90.636 14.7453 89.8544 15.1014C89.0727 15.4575 88.2183 15.6249 87.36 15.59V15.57ZM84.68 8.99999H89.38C89.3162 8.36823 89.0536 7.77301 88.63 7.29999C88.4283 7.08854 88.1841 6.92219 87.9135 6.81188C87.6429 6.70157 87.352 6.64981 87.06 6.65999C86.7699 6.65149 86.4812 6.70207 86.2113 6.80866C85.9414 6.91524 85.696 7.0756 85.49 7.27999C85.0436 7.75238 84.7599 8.355 84.68 8.99999" fill="#00162D"/>
<path d="M100 15.57C99.2332 15.6054 98.4672 15.4845 97.7486 15.2146C97.0301 14.9447 96.3739 14.5315 95.82 14C95.2762 13.4569 94.8513 12.8066 94.5724 12.0904C94.2935 11.3742 94.1667 10.6078 94.2 9.83999C94.1619 8.33721 94.7148 6.87946 95.74 5.77999C96.2321 5.23804 96.8352 4.80838 97.5081 4.52021C98.1811 4.23205 98.9082 4.09214 99.64 4.10999C100.396 4.06067 101.153 4.19181 101.849 4.49261C102.544 4.7934 103.158 5.25523 103.64 5.83999C104.575 7.05501 105.056 8.55816 105 10.09C105 10.25 105 10.53 105 10.91H97.3C97.4092 11.5348 97.7349 12.1013 98.22 12.51C98.7284 12.894 99.3533 13.0917 99.99 13.07C100.993 13.0546 101.951 12.6493 102.66 11.94L104.45 13.52C103.913 14.1905 103.226 14.7253 102.444 15.0814C101.663 15.4375 100.808 15.6049 99.95 15.57H100ZM97.26 8.99999H102C101.94 8.36715 101.677 7.77068 101.25 7.29999C101.049 7.08751 100.805 6.92047 100.534 6.81008C100.263 6.69969 99.9722 6.64852 99.68 6.65999C99.3901 6.65265 99.1017 6.70376 98.8319 6.81028C98.5622 6.9168 98.3167 7.07654 98.11 7.27999C97.649 7.74696 97.3509 8.35015 97.26 8.99999" fill="#00162D"/>
<path d="M111.84 15.53C111.177 15.5384 110.52 15.4064 109.911 15.1427C109.303 14.879 108.757 14.4896 108.31 14C107.799 13.4338 107.405 12.772 107.151 12.0529C106.897 11.3338 106.788 10.5715 106.83 9.81C106.75 8.28521 107.275 6.79043 108.29 5.65C108.741 5.15986 109.29 4.77028 109.902 4.50666C110.514 4.24303 111.174 4.11128 111.84 4.12C112.499 4.11181 113.151 4.25656 113.744 4.54286C114.337 4.82917 114.856 5.24922 115.26 5.77V0.339996H118.38V15.34H115.26V13.74C114.884 14.2994 114.374 14.7561 113.777 15.0687C113.18 15.3812 112.514 15.5398 111.84 15.53V15.53ZM110.73 12C110.97 12.2674 111.264 12.4813 111.592 12.6278C111.92 12.7742 112.276 12.8499 112.635 12.8499C112.994 12.8499 113.35 12.7742 113.678 12.6278C114.006 12.4813 114.3 12.2674 114.54 12C115.07 11.3808 115.345 10.584 115.31 9.77C115.342 8.97154 115.066 8.19124 114.54 7.59C114.302 7.31972 114.009 7.10326 113.68 6.955C113.352 6.80673 112.995 6.73005 112.635 6.73005C112.275 6.73005 111.918 6.80673 111.59 6.955C111.262 7.10326 110.968 7.31972 110.73 7.59C110.204 8.21668 109.942 9.02364 110 9.84C109.968 10.6432 110.248 11.4277 110.78 12.03" fill="#00162D"/>
<path d="M84.72 30.51C84.0604 30.5201 83.4075 30.3773 82.8124 30.0928C82.2173 29.8083 81.6962 29.3897 81.29 28.87V30.31H78.17V15.31H81.29V20.88C81.6683 20.3205 82.1799 19.8639 82.7787 19.5514C83.3775 19.2389 84.0446 19.0803 84.72 19.09C85.3836 19.0841 86.041 19.2182 86.6492 19.4836C87.2575 19.7489 87.8029 20.1396 88.25 20.63C89.2781 21.7759 89.8103 23.2826 89.73 24.82C89.7731 25.5793 89.6653 26.3396 89.413 27.057C89.1607 27.7744 88.7688 28.4348 88.26 29C87.81 29.4881 87.2621 29.8757 86.6521 30.1376C86.0421 30.3995 85.3838 30.5298 84.72 30.52V30.51ZM82 27C82.2339 27.2743 82.5255 27.4936 82.8539 27.6423C83.1823 27.7909 83.5395 27.8653 83.9 27.86C84.265 27.8662 84.6269 27.7925 84.9603 27.6439C85.2937 27.4953 85.5906 27.2756 85.83 27C86.367 26.3885 86.6465 25.593 86.61 24.78C86.6418 23.9768 86.3624 23.1923 85.83 22.59C85.5923 22.3183 85.2983 22.1016 84.9685 21.9548C84.6387 21.8081 84.2809 21.7348 83.92 21.74C83.5602 21.7328 83.2033 21.8053 82.8748 21.9522C82.5463 22.0992 82.2544 22.317 82.02 22.59C81.486 23.2066 81.2102 24.0053 81.25 24.82C81.2084 25.6164 81.4772 26.3978 82 27" fill="#00162D"/>
<path d="M95.15 30.51C94.1701 30.5512 93.2092 30.2309 92.45 29.61C92.091 29.3035 91.8069 28.9188 91.6197 28.4854C91.4325 28.052 91.3471 27.5815 91.37 27.11C91.3369 26.6066 91.4292 26.1028 91.6386 25.6438C91.848 25.1848 92.1681 24.7849 92.57 24.48C93.5242 23.8474 94.6568 23.5388 95.8 23.6C96.7155 23.599 97.6247 23.7511 98.49 24.05V23.86C98.49 22.52 97.7 21.86 96.13 21.86C95.1027 21.8835 94.0873 22.0866 93.13 22.46L92.35 20.07C93.6976 19.4859 95.1513 19.1863 96.62 19.19C97.2907 19.1374 97.9651 19.2191 98.6039 19.4303C99.2426 19.6415 99.8328 19.978 100.34 20.42C100.762 20.8967 101.084 21.4526 101.288 22.0552C101.493 22.6579 101.575 23.2952 101.53 23.93V30.32H98.53V29.12C98.1129 29.5816 97.5991 29.9455 97.0252 30.1857C96.4513 30.426 95.8316 30.5367 95.21 30.51H95.15ZM96.15 28.36C96.7863 28.3904 97.413 28.1957 97.92 27.81C98.1326 27.6491 98.3042 27.4402 98.4206 27.2004C98.537 26.9606 98.5951 26.6966 98.59 26.43V25.87C97.9612 25.5891 97.2786 25.4491 96.59 25.46C96.0319 25.4311 95.478 25.5704 95 25.86C94.8098 25.9825 94.6539 26.1514 94.5471 26.3509C94.4404 26.5504 94.3863 26.7738 94.39 27C94.379 27.1926 94.4162 27.3849 94.4983 27.5596C94.5803 27.7342 94.7047 27.8856 94.86 28C95.2194 28.2517 95.6516 28.3782 96.09 28.36" fill="#00162D"/>
<path d="M108.73 30.56C107.968 30.5809 107.21 30.4432 106.505 30.1557C105.799 29.8683 105.16 29.4372 104.63 28.89C103.581 27.7985 102.996 26.3436 102.996 24.83C102.996 23.3164 103.581 21.8615 104.63 20.77C105.2 20.2187 105.874 19.7872 106.614 19.5011C107.353 19.215 108.142 19.0801 108.935 19.1043C109.727 19.1285 110.507 19.3115 111.228 19.6422C111.948 19.973 112.595 20.4449 113.13 21.03L111.3 22.88C110.967 22.538 110.569 22.2656 110.129 22.0785C109.69 21.8914 109.218 21.7933 108.74 21.79C108.376 21.7813 108.014 21.8561 107.683 22.0086C107.352 22.1612 107.06 22.3874 106.83 22.67C106.317 23.2707 106.046 24.0406 106.07 24.83C106.042 25.6218 106.318 26.3944 106.84 26.99C107.087 27.2763 107.395 27.5038 107.741 27.6561C108.087 27.8083 108.462 27.8814 108.84 27.87C109.803 27.8237 110.711 27.404 111.37 26.7L113.19 28.54C112.647 29.1572 111.992 29.6661 111.26 30.04C110.458 30.4085 109.582 30.5865 108.7 30.56" fill="#00162D"/>
<path d="M115.25 30.31V15.32H118.37V23.31L122.03 19.3H125.77L121.58 23.64L125.91 30.31H122.34L119.46 25.81L118.37 26.96V30.31H115.25Z" fill="#00162D"/>
<path d="M91.69 45.19C90.5601 45.1831 89.4572 44.8441 88.5186 44.2151C87.5799 43.586 86.847 42.6949 86.4111 41.6524C85.9751 40.61 85.8554 39.4624 86.0668 38.3524C86.2782 37.2425 86.8114 36.2192 87.6 35.41C88.1345 34.8592 88.7776 34.4254 89.4885 34.1362C90.1995 33.847 90.9628 33.7087 91.73 33.73C92.5554 33.7116 93.3747 33.875 94.1299 34.2085C94.885 34.542 95.5576 35.0376 96.1 35.66L94.28 37.51C93.6016 36.8205 92.6773 36.4284 91.71 36.42C91.3462 36.415 90.9858 36.4914 90.6553 36.6437C90.3248 36.7959 90.0326 37.0202 89.8 37.3C89.3057 37.9133 89.0361 38.6773 89.0361 39.465C89.0361 40.2527 89.3057 41.0167 89.8 41.63C90.0492 41.9128 90.3575 42.1373 90.7031 42.2877C91.0488 42.438 91.4232 42.5105 91.8 42.5C92.7639 42.4558 93.6721 42.0358 94.33 41.33L96.15 43.18C95.6042 43.7915 94.9498 44.2967 94.22 44.67C93.4197 45.0431 92.5424 45.2213 91.66 45.19" fill="#00162D"/>
<path d="M101.48 29.96H98.47V44.95H101.48V29.96Z" fill="#00162D"/>
<path d="M113.43 43.53C112.865 44.0748 112.198 44.5021 111.466 44.7871C110.735 45.072 109.955 45.209 109.17 45.19C108.389 45.2132 107.611 45.0791 106.882 44.7957C106.154 44.5122 105.49 44.0852 104.93 43.54C104.389 43.0093 103.959 42.376 103.665 41.6772C103.372 40.9784 103.221 40.228 103.221 39.47C103.221 38.712 103.372 37.9617 103.665 37.2628C103.959 36.564 104.389 35.9307 104.93 35.4C105.492 34.8506 106.159 34.4197 106.891 34.1328C107.622 33.846 108.404 33.709 109.19 33.73C109.972 33.7064 110.751 33.8412 111.48 34.1265C112.208 34.4118 112.872 34.8416 113.43 35.39C113.969 35.9221 114.397 36.5558 114.689 37.2545C114.981 37.9531 115.131 38.7028 115.131 39.46C115.131 40.2172 114.981 40.9669 114.689 41.6656C114.397 42.3642 113.969 42.9979 113.43 43.53ZM109.21 42.53C109.598 42.5461 109.984 42.4764 110.342 42.326C110.7 42.1757 111.02 41.9483 111.28 41.66C111.804 41.0607 112.083 40.2858 112.06 39.49C112.074 38.6962 111.785 37.927 111.25 37.34C110.989 37.0495 110.667 36.8194 110.308 36.6657C109.949 36.512 109.561 36.4384 109.17 36.45C108.782 36.4333 108.395 36.5026 108.037 36.653C107.68 36.8034 107.359 37.0312 107.1 37.32C106.569 37.9157 106.286 38.6923 106.31 39.49C106.294 40.2859 106.588 41.0568 107.13 41.64C107.391 41.9305 107.713 42.1606 108.072 42.3143C108.431 42.468 108.819 42.5416 109.21 42.53" fill="#00162D"/>
<path d="M121.06 45.15C120.549 45.1775 120.037 45.0944 119.561 44.9063C119.085 44.7182 118.655 44.4295 118.3 44.06C117.602 43.2209 117.245 42.15 117.3 41.06V33.94H120.42V40.08C120.378 40.6743 120.552 41.2639 120.91 41.74C121.086 41.933 121.304 42.0844 121.546 42.183C121.788 42.2816 122.049 42.325 122.31 42.31C122.574 42.3238 122.838 42.2799 123.083 42.1815C123.328 42.083 123.549 41.9324 123.73 41.74C124.11 41.2736 124.3 40.6804 124.26 40.08V33.94H127.38V44.94H124.26V43.38C123.904 43.9109 123.426 44.3487 122.865 44.6566C122.305 44.9646 121.679 45.1338 121.04 45.15" fill="#00162D"/>
<path d="M134.71 45.15C134.047 45.1546 133.39 45.02 132.782 44.7547C132.173 44.4894 131.628 44.0994 131.18 43.61C130.67 43.0432 130.277 42.3813 130.023 41.6624C129.769 40.9434 129.659 40.1814 129.7 39.42C129.66 38.664 129.769 37.9075 130.021 37.1937C130.273 36.4799 130.664 35.8228 131.17 35.26C131.619 34.7701 132.167 34.3806 132.777 34.117C133.387 33.8533 134.045 33.7214 134.71 33.73C135.369 33.7229 136.021 33.867 136.616 34.1514C137.21 34.4357 137.732 34.8526 138.14 35.37V30H141.26V45H138.14V43.36C137.761 43.9189 137.249 44.375 136.651 44.6874C136.052 44.9998 135.385 45.1588 134.71 45.15V45.15ZM133.6 41.65C133.84 41.9174 134.134 42.1313 134.462 42.2778C134.79 42.4242 135.146 42.4999 135.505 42.4999C135.864 42.4999 136.22 42.4242 136.548 42.2778C136.876 42.1313 137.17 41.9174 137.41 41.65C137.94 41.0308 138.215 40.234 138.18 39.42C138.21 38.6187 137.935 37.8359 137.41 37.23C137.17 36.9626 136.876 36.7487 136.548 36.6022C136.22 36.4558 135.864 36.3801 135.505 36.3801C135.146 36.3801 134.79 36.4558 134.462 36.6022C134.134 36.7487 133.84 36.9626 133.6 37.23C133.062 37.8451 132.783 38.6439 132.82 39.46C132.788 40.2632 133.068 41.0477 133.6 41.65" fill="#00162D"/>
</svg>
