<svg xmlns="http://www.w3.org/2000/svg" xmlns:xlink="http://www.w3.org/1999/xlink" viewBox="0 0 818.34 475.65"><defs><style>.cls-1{fill:url(#Безымянный_градиент_12);}.cls-2{fill:url(#Безымянный_градиент_12-2);}.cls-3{fill:url(#Безымянный_градиент_12-3);}.cls-4{fill:url(#Безымянный_градиент_12-4);}.cls-5{fill:url(#Безымянный_градиент_12-5);}.cls-6{fill:url(#Безымянный_градиент_12-6);}.cls-10,.cls-15,.cls-19,.cls-33,.cls-35,.cls-41,.cls-7{fill:none;}.cls-8{clip-path:url(#clip-path);}.cls-9{fill:#33b5fe;}.cls-10{stroke:#00162d;}.cls-10,.cls-15,.cls-19,.cls-35,.cls-41{stroke-linecap:round;}.cls-10,.cls-35,.cls-41{stroke-linejoin:round;}.cls-10,.cls-19,.cls-33{stroke-width:0.99px;}.cls-11{fill:#e6e7e8;}.cls-12{fill:#88bf0f;}.cls-13{fill:#fff;}.cls-14{fill:#3f8c08;}.cls-15{stroke:#fff;}.cls-15,.cls-19,.cls-33{stroke-miterlimit:10;}.cls-16{fill:#00162d;}.cls-17{fill:#febfa7;}.cls-18{fill:#f9987a;}.cls-19,.cls-33,.cls-35{stroke:#f9987a;}.cls-20{opacity:0.7;}.cls-21{clip-path:url(#clip-path-3);}.cls-22{clip-path:url(#clip-path-4);}.cls-23{mask:url(#mask);}.cls-24{fill:url(#Безымянный_градиент_11);}.cls-25{clip-path:url(#clip-path-5);}.cls-26{clip-path:url(#clip-path-6);}.cls-27{mask:url(#mask-2);}.cls-28{fill:url(#Безымянный_градиент_11-2);}.cls-29{clip-path:url(#clip-path-7);}.cls-30{clip-path:url(#clip-path-8);}.cls-31{mask:url(#mask-3);}.cls-32{fill:url(#Безымянный_градиент_11-3);}.cls-34{fill:#023373;}.cls-36{fill:#0476d9;}.cls-37{clip-path:url(#clip-path-9);}.cls-38{clip-path:url(#clip-path-10);}.cls-39{mask:url(#mask-4);}.cls-40{fill:url(#Безымянный_градиент_11-4);}.cls-41{stroke:#30a3e6;stroke-width:1.5px;}.cls-42{clip-path:url(#clip-path-11);}.cls-43{clip-path:url(#clip-path-12);}.cls-44{mask:url(#mask-5);}.cls-45{fill:url(#Безымянный_градиент_11-5);}.cls-46{clip-path:url(#clip-path-13);}.cls-47{clip-path:url(#clip-path-14);}.cls-48{mask:url(#mask-6);}.cls-49{fill:url(#Безымянный_градиент_11-6);}</style><linearGradient id="Безымянный_градиент_12" x1="51.62" y1="379.22" x2="52.62" y2="379.22" gradientTransform="matrix(82.28, 0, 0, -82.28, -3629.67, 31418.99)" gradientUnits="userSpaceOnUse"><stop offset="0"/><stop offset="0.08" stop-color="#252525"/><stop offset="0.22" stop-color="#5e5e5e"/><stop offset="0.36" stop-color="#8f8f8f"/><stop offset="0.5" stop-color="#b8b8b8"/><stop offset="0.63" stop-color="#d7d7d7"/><stop offset="0.76" stop-color="#ededed"/><stop offset="0.89" stop-color="#fafafa"/><stop offset="1" stop-color="#fff"/></linearGradient><linearGradient id="Безымянный_градиент_12-2" x1="51.62" y1="379.22" x2="52.62" y2="379.22" gradientTransform="matrix(81.61, 0, 0, -81.61, -3594.97, 31196.66)" xlink:href="#Безымянный_градиент_12"/><linearGradient id="Безымянный_градиент_12-3" x1="51.62" y1="379.22" x2="52.62" y2="379.22" gradientTransform="matrix(52.57, 0, 0, -52.57, -2095.09, 20116.65)" xlink:href="#Безымянный_градиент_12"/><linearGradient id="Безымянный_градиент_12-4" x1="51.62" y1="379.22" x2="52.62" y2="379.22" gradientTransform="matrix(298.59, 0, 0, -298.59, -15288.45, 113468.67)" xlink:href="#Безымянный_градиент_12"/><linearGradient id="Безымянный_градиент_12-5" x1="51.62" y1="379.22" x2="52.62" y2="379.22" gradientTransform="matrix(298.59, 0, 0, -298.59, -15303.73, 113466.07)" xlink:href="#Безымянный_градиент_12"/><linearGradient id="Безымянный_градиент_12-6" x1="51.62" y1="379.2" x2="52.62" y2="379.2" gradientTransform="matrix(298.59, 0, 0, -298.59, -15319.18, 113452.79)" xlink:href="#Безымянный_градиент_12"/><clipPath id="clip-path"><rect class="cls-7" x="51.62" y="64.72" width="766.72" height="314.49"/></clipPath><clipPath id="clip-path-3"><rect class="cls-7" x="618.75" y="155.13" width="80.56" height="125.32"/></clipPath><clipPath id="clip-path-4"><polygon class="cls-7" points="699.31 155.13 699.29 159.28 699.29 160 699.22 175.71 699.2 179.37 699.2 180.79 699.16 188.7 699.12 197.83 618.75 280.44 618.87 252.28 618.94 237.73 699.31 155.13"/></clipPath><mask id="mask" x="617.02" y="154.01" width="84.02" height="127.54" maskUnits="userSpaceOnUse"><rect class="cls-1" x="617.89" y="154.58" width="82.28" height="126.42" transform="translate(-2.94 9.11) rotate(-0.79)"/></mask><linearGradient id="Безымянный_градиент_11" x1="51.62" y1="379.22" x2="52.62" y2="379.22" gradientTransform="matrix(82.28, 0, 0, -82.28, -3629.67, 31418.99)" gradientUnits="userSpaceOnUse"><stop offset="0" stop-color="#fff"/><stop offset="1" stop-color="#fff"/></linearGradient><clipPath id="clip-path-5"><rect class="cls-7" x="618.7" y="204.7" width="80.4" height="88.37"/></clipPath><clipPath id="clip-path-6"><polygon class="cls-7" points="699.1 204.7 699.07 210.45 618.7 293.07 618.72 287.32 699.1 204.7"/></clipPath><mask id="mask-2" x="617.48" y="203.59" width="82.84" height="90.59" maskUnits="userSpaceOnUse"><rect class="cls-2" x="618.09" y="204.15" width="81.61" height="89.47" transform="translate(-3.37 9.11) rotate(-0.79)"/></mask><linearGradient id="Безымянный_градиент_11-2" x1="51.62" y1="379.22" x2="52.62" y2="379.22" gradientTransform="matrix(81.61, 0, 0, -81.61, -3594.97, 31196.66)" xlink:href="#Безымянный_градиент_11"/><clipPath id="clip-path-7"><rect class="cls-7" x="619.06" y="155.39" width="51.84" height="53.31"/></clipPath><clipPath id="clip-path-8"><polygon class="cls-7" points="670.9 155.42 619.07 208.7 619.1 202.95 665.36 155.39 670.9 155.42"/></clipPath><mask id="mask-3" x="618.33" y="154.68" width="53.31" height="54.74" maskUnits="userSpaceOnUse"><rect class="cls-3" x="618.7" y="155.04" width="52.57" height="54.02" transform="translate(-2.45 8.92) rotate(-0.79)"/></mask><linearGradient id="Безымянный_градиент_11-3" x1="51.62" y1="379.22" x2="52.62" y2="379.22" gradientTransform="matrix(52.57, 0, 0, -52.57, -2095.09, 20116.65)" xlink:href="#Безымянный_градиент_11"/><clipPath id="clip-path-9"><rect class="cls-7" x="205.57" y="133.4" width="216.11" height="209.16"/></clipPath><clipPath id="clip-path-10"><path class="cls-7" d="M421.68,141.05,220.17,342.56h-14.6L414.73,133.4a9.5,9.5,0,0,1,6.95,7.65"/></clipPath><mask id="mask-4" x="104.82" y="29.3" width="417.62" height="417.37" maskUnits="userSpaceOnUse"><rect class="cls-4" x="164.32" y="89.34" width="298.61" height="297.28" transform="translate(-80.07 238.24) rotate(-37.23)"/></mask><linearGradient id="Безымянный_градиент_11-4" x1="51.62" y1="379.22" x2="52.62" y2="379.22" gradientTransform="matrix(298.59, 0, 0, -298.59, -15288.45, 113468.65)" xlink:href="#Безымянный_градиент_11"/><clipPath id="clip-path-11"><rect class="cls-7" x="100.9" y="133.09" width="276.29" height="209.47"/></clipPath><clipPath id="clip-path-12"><path class="cls-7" d="M377.19,133.09,167.72,342.56h-64a9.33,9.33,0,0,1-2.81-.43l209-209Z"/></clipPath><mask id="mask-5" x="0" y="0" width="478.1" height="475.66" maskUnits="userSpaceOnUse"><rect class="cls-5" x="65.69" y="70.86" width="346.72" height="333.94" transform="translate(-95.17 193.08) rotate(-37.23)"/></mask><linearGradient id="Безымянный_градиент_11-5" x1="51.62" y1="379.22" x2="52.62" y2="379.22" gradientTransform="matrix(298.59, 0, 0, -298.59, -15303.73, 113466.06)" xlink:href="#Безымянный_градиент_11"/><clipPath id="clip-path-13"><rect class="cls-7" x="94.23" y="133.09" width="191.48" height="191.48"/></clipPath><clipPath id="clip-path-14"><polygon class="cls-7" points="285.71 133.09 94.23 324.57 94.23 309.98 271.11 133.09 285.71 133.09"/></clipPath><mask id="mask-6" x="2" y="40.85" width="375.96" height="375.96" maskUnits="userSpaceOnUse"><rect class="cls-6" x="55.82" y="94.68" width="268.31" height="268.31" transform="translate(-99.73 161.56) rotate(-37.23)"/></mask><linearGradient id="Безымянный_градиент_11-6" x1="51.62" y1="379.2" x2="52.62" y2="379.2" gradientTransform="matrix(298.59, 0, 0, -298.59, -15319.18, 113452.77)" xlink:href="#Безымянный_градиент_11"/></defs><title>Ресурс 1</title><g id="Слой_2" data-name="Слой 2"><g id="Слой_1-2" data-name="Слой 1"><g class="cls-8"><g class="cls-8"><path class="cls-9" d="M749.71,260.18c8.29.42,8.57-1.89,10.3-4.42l41.09-.15a3.87,3.87,0,0,0,3.85-3.89l-.07-45.39a3.88,3.88,0,0,0-3.88-3.85l-45.18.17a3.86,3.86,0,0,0-3.84,3.88v1.87l.07,43.52c0,2.14-.07,6.88-2.34,8.26"/><path class="cls-9" d="M778.65,223.85h-.5a.58.58,0,0,1-.58-.58v-.5a.58.58,0,0,1,.58-.58h.5a.58.58,0,0,1,.58.59v.5a.58.58,0,0,1-.58.58"/><path class="cls-9" d="M777.56,217.19h1.08a.58.58,0,0,0,.58-.58v-.5a.59.59,0,0,1,.58-.59H782a.58.58,0,0,0,.58-.58v-.5a.58.58,0,0,0-.58-.59H779.8a.58.58,0,0,1-.58-.58v-.5a.58.58,0,0,0-.59-.58H774.8a.58.58,0,0,0-.58.59v7.15a.6.6,0,0,0,.59.59h.5a.6.6,0,0,0,.58-.59v-2.16a.59.59,0,0,1,.58-.59Zm0-2.75v.5a.58.58,0,0,1-.59.59h-.5a.58.58,0,0,1-.58-.58v-.5a.59.59,0,0,1,.58-.59h.5a.58.58,0,0,1,.58.58"/><path class="cls-9" d="M777,222.19h-.49a.58.58,0,0,1-.59-.58v-.5a.59.59,0,0,1,.58-.59h.5a.6.6,0,0,1,.59.58v.5a.58.58,0,0,1-.59.59"/><path class="cls-9" d="M779.23,218.85v-1.08a.57.57,0,0,1,.58-.58H782a.6.6,0,0,1,.59.59v.49a.58.58,0,0,1-.59.59h-.49a.58.58,0,0,0-.59.58v.5a.59.59,0,0,1-.58.59h-.5a.58.58,0,0,1-.58-.58Z"/><path class="cls-9" d="M774.24,223.27v-.5a.58.58,0,0,1,.58-.58h.5a.58.58,0,0,1,.58.58v.5a.58.58,0,0,1-.58.58h-.5a.58.58,0,0,1-.58-.59"/><path class="cls-9" d="M781.48,220.51h.5a.58.58,0,0,1,.58.59v2.16a.57.57,0,0,1-.58.58h-.5a.58.58,0,0,1-.58-.58V221.1a.6.6,0,0,1,.58-.59"/><path class="cls-9" d="M780.93,240.49v-1.08a.58.58,0,0,1,.58-.58h.5a.58.58,0,0,1,.58.58v7.16a.58.58,0,0,1-.58.58h-.5a.58.58,0,0,1-.58-.58v-2.16a.58.58,0,0,0-.59-.58h-.5a.58.58,0,0,1-.58-.59v-.49a.58.58,0,0,1,.58-.59h.5a.58.58,0,0,0,.58-.58Z"/><path class="cls-9" d="M790.92,238.81H792a.58.58,0,0,1,.58.58v3.83a.6.6,0,0,1-.58.59h-3.83a.58.58,0,0,1-.59-.58V239.4a.58.58,0,0,1,.58-.58h2.75Z"/><path class="cls-9" d="M789.22,220.5h-1.08a.59.59,0,0,1-.59-.58v-3.83a.58.58,0,0,1,.58-.58H792a.58.58,0,0,1,.58.58v3.83a.58.58,0,0,1-.58.59h-2.75Z"/><path class="cls-9" d="M785.91,235.49h-1.08a.59.59,0,0,0-.58.59v10.49a.58.58,0,0,0,.58.58h10.49a.58.58,0,0,0,.58-.58V236.06a.57.57,0,0,0-.58-.58h-9.41Zm0,2.25a.58.58,0,0,1,.58-.58h7.16a.58.58,0,0,1,.58.58v7.16a.58.58,0,0,1-.59.59h-7.16a.58.58,0,0,1-.58-.58v-7.16Z"/><path class="cls-9" d="M794.22,223.82h1.08a.58.58,0,0,0,.58-.58V212.75a.6.6,0,0,0-.59-.58H784.79a.6.6,0,0,0-.58.59v10.49a.58.58,0,0,0,.58.58h9.41Zm0-2.24a.58.58,0,0,1-.59.58h-7.15a.58.58,0,0,1-.59-.58v-7.16a.58.58,0,0,1,.58-.58h7.16a.58.58,0,0,1,.58.59v7.16Z"/><path class="cls-9" d="M762.63,246.6v-.5a.58.58,0,0,1,.59-.58h.5a.58.58,0,0,1,.58.58v.5a.58.58,0,0,1-.58.58h-.5a.58.58,0,0,1-.58-.58"/><path class="cls-9" d="M778.69,247.16h-.5a.58.58,0,0,1-.58-.58v-.5a.59.59,0,0,1,.58-.59h.5a.58.58,0,0,1,.58.59v.49a.58.58,0,0,1-.58.59"/><path class="cls-9" d="M769.28,246.59v-.5a.58.58,0,0,1,.59-.58h.49a.58.58,0,0,1,.59.58v.5a.58.58,0,0,1-.58.58h-.5a.6.6,0,0,1-.59-.58"/><path class="cls-9" d="M763.18,228.87h.5a.58.58,0,0,0,.58-.58v-.5a.59.59,0,0,1,.58-.59h.5a.58.58,0,0,1,.58.58v.5a.58.58,0,0,0,.59.58h.5a.58.58,0,0,1,.58.59v2.16a.57.57,0,0,1-.58.58h-.5a.6.6,0,0,0-.58.59v.5a.58.58,0,0,1-.58.58h-.5a.58.58,0,0,1-.58-.58v-.5a.59.59,0,0,0-.59-.58h-2.16a.58.58,0,0,1-.58-.58v-.5a.58.58,0,0,1,.59-.58h.5a.58.58,0,0,0,.58-.59v-.5a.58.58,0,0,1,.58-.58"/><path class="cls-9" d="M765.94,236.11v.5a.58.58,0,0,0,.58.58h.5a.58.58,0,0,0,.58-.59v-.49a.58.58,0,0,1,.58-.59h.5a.58.58,0,0,1,.59.58v.5a.58.58,0,0,0,.58.58h.5a.6.6,0,0,1,.59.58v.5a.58.58,0,0,1-.59.59h-.5a.58.58,0,0,0-.58.58v.5a.6.6,0,0,1-.58.59h-.5a.58.58,0,0,1-.58-.59v-.5a.58.58,0,0,0-.59-.58h-.49a.59.59,0,0,0-.59.59v.5a.59.59,0,0,0,.59.58h.5a.58.58,0,0,1,.58.58v2.16a.58.58,0,0,1-.58.59h-.5a.58.58,0,0,0-.58.58v.5a.6.6,0,0,1-.58.59h-.5a.58.58,0,0,1-.58-.59v-3.82a.58.58,0,0,0-.58-.59h-.5a.59.59,0,0,1-.59-.58v-5.49a.57.57,0,0,1,.58-.58h.5a.58.58,0,0,1,.58.59v.5a.58.58,0,0,0,.58.58h.5a.58.58,0,0,1,.59.58"/><path class="cls-9" d="M772,240.51h-2.16a.58.58,0,0,0-.58.59v2.16a.58.58,0,0,0,.58.58h.5a.59.59,0,0,1,.59.58v.5a.58.58,0,0,0,.58.59h2.16a.58.58,0,0,1,.59.58v.5a.57.57,0,0,0,.58.58h.5a.58.58,0,0,0,.58-.58v-.5a.58.58,0,0,1,.58-.58h.5a.59.59,0,0,0,.59-.59v-.5a.6.6,0,0,0-.59-.58h-.5a.58.58,0,0,1-.58-.58v-.5a.58.58,0,0,1,.58-.58h2.16a.59.59,0,0,0,.59-.58v-3.83a.58.58,0,0,0-.59-.58h-.49a.58.58,0,0,0-.59.58v.5a.58.58,0,0,1-.58.59h-.5a.58.58,0,0,0-.58.58v.5a.58.58,0,0,1-.58.58h-.5a.58.58,0,0,1-.58-.59v-.5a.59.59,0,0,0-.59-.58h-.5a.59.59,0,0,0-.58.59v.5a.58.58,0,0,1-.58.58m1.67,3.33h-.5a.58.58,0,0,1-.58-.58v-.5a.59.59,0,0,1,.58-.59h.5a.58.58,0,0,1,.58.58v.5a.59.59,0,0,1-.58.59"/><path class="cls-9" d="M767.59,226.12v.5a.58.58,0,0,1-.59.58h-.5a.58.58,0,0,1-.58-.58v-.5a.58.58,0,0,1,.58-.58h.5a.6.6,0,0,1,.59.59"/><path class="cls-9" d="M780.92,234.92v-.5a.59.59,0,0,1,.58-.59h.5a.58.58,0,0,1,.58.59v2.16a.58.58,0,0,1-.58.58h-2.17a.58.58,0,0,1-.58-.58v-.5a.58.58,0,0,1,.58-.59h.5a.58.58,0,0,0,.58-.58"/><path class="cls-9" d="M763.17,225.54h.5a.6.6,0,0,1,.59.58v.5a.6.6,0,0,1-.59.59h-.49a.58.58,0,0,1-.59-.59v-.5a.58.58,0,0,1,.58-.58"/><path class="cls-9" d="M761.48,212.22a.59.59,0,0,0-.58.59V223.3a.58.58,0,0,0,.58.58H772a.57.57,0,0,0,.58-.58V212.79a.58.58,0,0,0-.59-.58H761.48Zm1.09,2.25a.58.58,0,0,1,.58-.58h7.16a.58.58,0,0,1,.58.59v7.16a.58.58,0,0,1-.58.58h-7.16a.58.58,0,0,1-.59-.58v-7.16Z"/><path class="cls-9" d="M782,230.5h-.5a.6.6,0,0,0-.58.59v2.16a.59.59,0,0,1-.59.59h-.49a.58.58,0,0,1-.59-.58v-3.83a.58.58,0,0,1,.59-.59H782a.58.58,0,0,0,.58-.58v-.5a.58.58,0,0,0-.58-.59h-.5a.6.6,0,0,1-.59-.59v-.5a.58.58,0,0,1,.59-.58h3.82a.58.58,0,0,1,.59.59v.49a.58.58,0,0,1-.58.59h-.5a.58.58,0,0,0-.58.58v.5a.58.58,0,0,0,.58.58h.5a.58.58,0,0,0,.58-.58v-.5a.58.58,0,0,1,.58-.58h.5a.59.59,0,0,0,.58-.59v-.5a.58.58,0,0,1,.59-.58h7.15a.58.58,0,0,1,.59.58v3.83a.57.57,0,0,1-.58.58h-.5a.58.58,0,0,1-.58-.58v-2.16a.59.59,0,0,0-.59-.59h-.5a.6.6,0,0,0-.58.59v3.83a.58.58,0,0,0,.58.58h2.17a.58.58,0,0,1,.58.58v.5a.58.58,0,0,1-.58.58h-7.16a.58.58,0,0,1-.58-.58v-2.16a.57.57,0,0,0-.58-.58h-2.17a.58.58,0,0,0-.58.58v.5a.59.59,0,0,0,.59.58h.5a.58.58,0,0,1,.58.58v.5a.58.58,0,0,1-.58.59h-2.17a.58.58,0,0,1-.58-.58v-2.16a.58.58,0,0,0-.59-.59"/><path class="cls-9" d="M767.57,215.54h1.08a.58.58,0,0,1,.58.58V220a.59.59,0,0,1-.58.59h-3.83a.6.6,0,0,1-.59-.58v-3.83a.58.58,0,0,1,.58-.58h2.75Z"/><path class="cls-9" d="M772.6,236.6v-.5a.58.58,0,0,1,.58-.59h.5a.58.58,0,0,1,.58.58v.5a.59.59,0,0,1-.58.59h-.5a.58.58,0,0,1-.58-.58"/><path class="cls-9" d="M770.35,235.52h-.5a.58.58,0,0,1-.58-.58v-2.17a.58.58,0,0,1,.58-.58h.5a.59.59,0,0,1,.59.58v2.16a.58.58,0,0,1-.58.59"/><path class="cls-9" d="M766.52,233.86h.5a.58.58,0,0,1,.58.58v.5a.58.58,0,0,1-.58.58h-.5a.58.58,0,0,1-.58-.58v-.5a.58.58,0,0,1,.59-.58"/><path class="cls-9" d="M777.59,234.92v-.5a.58.58,0,0,1,.58-.58h.5a.58.58,0,0,1,.58.58v.5a.58.58,0,0,1-.58.58h-.5a.58.58,0,0,1-.58-.58"/><path class="cls-9" d="M769.83,225.53h.5a.58.58,0,0,1,.58.58v.5a.58.58,0,0,1-.59.58h-.5a.58.58,0,0,1-.58-.58v-.5a.58.58,0,0,1,.58-.58"/><path class="cls-9" d="M775.93,236.59v-.5a.58.58,0,0,1,.58-.58h.5a.58.58,0,0,1,.58.58v.5a.58.58,0,0,1-.58.58h-.5a.58.58,0,0,1-.58-.58"/><path class="cls-9" d="M779.82,223.85h.5a.58.58,0,0,1,.58.58v.5a.58.58,0,0,1-.58.58h-.5a.58.58,0,0,1-.58-.58v-.5a.58.58,0,0,1,.58-.58"/><path class="cls-9" d="M774.26,234.93a.58.58,0,0,0,.58.58h.5a.57.57,0,0,0,.58-.58v-2.17a.58.58,0,0,1,.58-.58h.5a.59.59,0,0,0,.58-.59v-.5a.58.58,0,0,0-.58-.58h-.5a.58.58,0,0,1-.58-.58v-.5a.57.57,0,0,1,.58-.58h.5a.59.59,0,0,0,.58-.59V226.1a.58.58,0,0,0-.58-.58h-.5a.58.58,0,0,0-.58.58v.5a.58.58,0,0,1-.58.58h-.5a.58.58,0,0,1-.58-.59v-.5a.58.58,0,0,0-.58-.58h-.5a.59.59,0,0,0-.58.59v.5a.58.58,0,0,1-.58.58h-.5a.58.58,0,0,0-.58.59v.49a.58.58,0,0,1-.58.59h-.5a.58.58,0,0,0-.58.58v.5a.58.58,0,0,0,.58.58h.5a.58.58,0,0,1,.58.58v.5a.59.59,0,0,0,.59.59h2.16a.59.59,0,0,1,.59.58v2.17Zm0-5.5v.5a.58.58,0,0,1-.58.59h-.5a.58.58,0,0,1-.58-.58v-.5a.58.58,0,0,1,.58-.59h.5a.58.58,0,0,1,.58.58"/><path class="cls-9" d="M168.29,127.12,354,370.46a22.24,22.24,0,0,0,19.11,8.71L631.37,362.7a22.26,22.26,0,0,0,19-13.4l99-229.72A22.25,22.25,0,0,0,724.25,89L472.16,143.81a22.26,22.26,0,0,1-14.81-1.91L317.52,70.79a55.83,55.83,0,0,0-39.45-4.25L180.35,92.09a22.25,22.25,0,0,0-12.06,35"/><path class="cls-10" d="M529.2,173.62S555,66.71,629.52,107.49c17.93,9.81,24.59,27.41,24.59,27.41"/><polyline class="cls-10" points="652.24 134.53 654.47 135.41 655.16 133.18"/><path class="cls-11" d="M558.92,303.36s4.55-.31,5.54,3.79c.86,3.53,1,5.72,4.94,5.75,4.43,0,1.15,8.89.58,9.33s-16.08,0-16.08,0l1.88-18.05Z"/><path class="cls-11" d="M544.7,350.54H460a14.22,14.22,0,0,1-14.22-14.22V192.54a4.89,4.89,0,0,1,4.9-4.89H554a4.89,4.89,0,0,1,4.9,4.89V336.32a14.22,14.22,0,0,1-14.22,14.22"/><path class="cls-12" d="M478.22,226.09h59.21a5.92,5.92,0,0,1,5.93,5.93v71.2a5.92,5.92,0,0,1-5.93,5.93h-71.2a5.92,5.92,0,0,1-5.93-5.93V243.77"/><path class="cls-9" d="M460.3,243.77l17.92-17.68v14.43a3.25,3.25,0,0,1-3.26,3.25Z"/><path class="cls-13" d="M502.12,260.55h-.6a.71.71,0,0,1-.71-.71v-.6a.7.7,0,0,1,.7-.71h.61a.7.7,0,0,1,.71.7v.61a.71.71,0,0,1-.71.71"/><path class="cls-13" d="M500.79,252.47h1.32a.7.7,0,0,0,.7-.71v-.61a.71.71,0,0,1,.71-.71h2.62a.71.71,0,0,0,.71-.71v-.61a.7.7,0,0,0-.71-.7h-2.62a.7.7,0,0,1-.71-.7v-.61a.7.7,0,0,0-.71-.7h-4.65a.71.71,0,0,0-.71.71v8.69a.71.71,0,0,0,.71.71h.6a.7.7,0,0,0,.71-.7v-2.63a.71.71,0,0,1,.71-.71Zm0-3.34v.61a.71.71,0,0,1-.71.71h-.6a.71.71,0,0,1-.71-.71v-.6a.7.7,0,0,1,.7-.71h.61a.7.7,0,0,1,.71.7"/><path class="cls-13" d="M500.1,258.53h-.61a.7.7,0,0,1-.71-.7v-.61a.71.71,0,0,1,.71-.71h.6a.71.71,0,0,1,.71.71v.6a.7.7,0,0,1-.7.71"/><path class="cls-13" d="M502.82,254.49v-1.32a.69.69,0,0,1,.7-.7h2.63a.71.71,0,0,1,.71.71v.6a.71.71,0,0,1-.71.71h-.6a.71.71,0,0,0-.71.71v.61a.71.71,0,0,1-.71.71h-.6a.71.71,0,0,1-.71-.71Z"/><path class="cls-13" d="M496.77,259.85v-.6a.69.69,0,0,1,.7-.71h.61a.7.7,0,0,1,.71.7v.61a.72.72,0,0,1-.71.71h-.61a.7.7,0,0,1-.7-.71"/><path class="cls-13" d="M505.55,256.5h.61a.7.7,0,0,1,.7.71v2.62a.71.71,0,0,1-.71.71h-.6a.7.7,0,0,1-.71-.7v-2.63a.71.71,0,0,1,.71-.71"/><path class="cls-13" d="M504.88,280.75v-1.31a.71.71,0,0,1,.71-.71h.6a.7.7,0,0,1,.71.7v8.69a.71.71,0,0,1-.71.71h-.61a.7.7,0,0,1-.7-.71V285.5a.71.71,0,0,0-.71-.71h-.6a.7.7,0,0,1-.71-.7v-.61a.7.7,0,0,1,.7-.71h.61a.71.71,0,0,0,.71-.71Z"/><path class="cls-13" d="M517,278.71h1.32a.7.7,0,0,1,.7.7v4.65a.7.7,0,0,1-.7.71h-4.65a.7.7,0,0,1-.71-.7v-4.65a.71.71,0,0,1,.71-.71H517Z"/><path class="cls-13" d="M514.94,256.49h-1.31a.71.71,0,0,1-.71-.71v-4.64a.71.71,0,0,1,.71-.71h4.65a.71.71,0,0,1,.71.71v4.64a.7.7,0,0,1-.7.71h-3.34Z"/><path class="cls-13" d="M510.93,274.68h-1.31a.7.7,0,0,0-.7.71v12.73a.7.7,0,0,0,.7.7h12.73a.71.71,0,0,0,.71-.71V275.36a.7.7,0,0,0-.71-.7H510.93Zm0,2.73a.7.7,0,0,1,.7-.71h8.69a.71.71,0,0,1,.71.71v8.69a.7.7,0,0,1-.71.7h-8.69a.71.71,0,0,1-.71-.71v-8.68Z"/><path class="cls-13" d="M521,260.52h1.32a.71.71,0,0,0,.7-.71V247.08a.71.71,0,0,0-.71-.71H509.57a.7.7,0,0,0-.7.71v12.73a.71.71,0,0,0,.71.71H521Zm0-2.73a.71.71,0,0,1-.71.71h-8.69a.7.7,0,0,1-.7-.7v-8.69a.71.71,0,0,1,.71-.71h8.68a.71.71,0,0,1,.71.71v8.69Z"/><path class="cls-13" d="M482.67,288.16v-.6a.71.71,0,0,1,.71-.71h.6a.7.7,0,0,1,.71.7v.61a.71.71,0,0,1-.71.71h-.6a.71.71,0,0,1-.71-.71"/><path class="cls-13" d="M502.17,288.84h-.61a.7.7,0,0,1-.7-.71v-.61a.7.7,0,0,1,.71-.7h.61a.7.7,0,0,1,.7.71v.61a.71.71,0,0,1-.71.71"/><path class="cls-13" d="M490.75,288.15v-.61a.71.71,0,0,1,.71-.71h.6a.71.71,0,0,1,.71.71v.6a.7.7,0,0,1-.7.71h-.61a.7.7,0,0,1-.71-.7"/><path class="cls-13" d="M483.34,266.64H484a.7.7,0,0,0,.7-.71v-.6a.71.71,0,0,1,.71-.71h.6a.7.7,0,0,1,.71.7v.61a.7.7,0,0,0,.71.7H488a.71.71,0,0,1,.71.71V270a.7.7,0,0,1-.7.7h-.61a.7.7,0,0,0-.71.7V272a.7.7,0,0,1-.7.71h-.61a.71.71,0,0,1-.71-.71v-.6a.71.71,0,0,0-.71-.71h-2.62a.71.71,0,0,1-.71-.71v-.61a.7.7,0,0,1,.7-.7h.61a.7.7,0,0,0,.71-.7v-.61a.7.7,0,0,1,.7-.71"/><path class="cls-13" d="M486.69,275.43v.6a.71.71,0,0,0,.71.71h.6a.71.71,0,0,0,.71-.71v-.61a.71.71,0,0,1,.71-.71h.6a.71.71,0,0,1,.71.71v.6a.71.71,0,0,0,.71.71h.61a.7.7,0,0,1,.7.71v.6a.71.71,0,0,1-.71.71h-.61a.7.7,0,0,0-.7.71v.61a.7.7,0,0,1-.71.7h-.6a.71.71,0,0,1-.71-.71v-.61a.7.7,0,0,0-.71-.7h-.61a.7.7,0,0,0-.7.71v.6a.71.71,0,0,0,.71.71h.6a.7.7,0,0,1,.71.7v2.63a.7.7,0,0,1-.7.71h-.61a.7.7,0,0,0-.7.71v.6a.71.71,0,0,1-.71.71h-.6a.7.7,0,0,1-.71-.7v-4.65a.71.71,0,0,0-.71-.71h-.6a.69.69,0,0,1-.71-.7v-6.67a.7.7,0,0,1,.7-.71H484a.71.71,0,0,1,.71.71v.6a.71.71,0,0,0,.71.71h.6a.71.71,0,0,1,.71.71"/><path class="cls-13" d="M494.07,280.77h-2.62a.71.71,0,0,0-.71.71v2.63a.7.7,0,0,0,.71.7h.6a.71.71,0,0,1,.71.71v.6a.71.71,0,0,0,.71.71h2.63a.69.69,0,0,1,.7.7v.61a.71.71,0,0,0,.71.7h.61a.7.7,0,0,0,.7-.71v-.6a.71.71,0,0,1,.71-.71h.61a.7.7,0,0,0,.7-.71v-.61a.7.7,0,0,0-.71-.7h-.6a.71.71,0,0,1-.71-.71v-.6a.7.7,0,0,1,.7-.71h2.63a.7.7,0,0,0,.71-.7v-4.65a.71.71,0,0,0-.71-.71h-.61a.7.7,0,0,0-.7.71V278a.71.71,0,0,1-.71.71h-.6a.71.71,0,0,0-.71.71v.6a.7.7,0,0,1-.7.71h-.61a.7.7,0,0,1-.71-.7v-.61a.71.71,0,0,0-.71-.71h-.6a.71.71,0,0,0-.71.71v.61a.71.71,0,0,1-.71.71m2,4h-.6a.71.71,0,0,1-.71-.71v-.61a.71.71,0,0,1,.7-.71h.61a.71.71,0,0,1,.71.71v.61a.7.7,0,0,1-.71.7"/><path class="cls-13" d="M488.69,263.3v.6a.7.7,0,0,1-.71.71h-.6a.7.7,0,0,1-.71-.7v-.61a.71.71,0,0,1,.71-.71h.6a.71.71,0,0,1,.71.71"/><path class="cls-13" d="M504.87,274v-.61a.7.7,0,0,1,.71-.7h.6a.7.7,0,0,1,.71.7V276a.71.71,0,0,1-.71.71h-2.63a.72.72,0,0,1-.71-.71v-.6a.71.71,0,0,1,.71-.71h.61a.7.7,0,0,0,.7-.71"/><path class="cls-13" d="M483.33,262.6h.61a.71.71,0,0,1,.71.71v.6a.71.71,0,0,1-.71.71h-.6a.7.7,0,0,1-.71-.7v-.61a.7.7,0,0,1,.7-.71"/><path class="cls-13" d="M481.29,246.44a.71.71,0,0,0-.71.71v12.73a.7.7,0,0,0,.71.7H494a.71.71,0,0,0,.71-.71V247.13a.7.7,0,0,0-.7-.71H481.29Zm1.31,2.73a.71.71,0,0,1,.71-.71H492a.71.71,0,0,1,.71.71v8.69a.7.7,0,0,1-.7.71h-8.69a.71.71,0,0,1-.71-.71v-8.68Z"/><path class="cls-13" d="M506.18,268.62h-.61a.7.7,0,0,0-.71.7V272a.71.71,0,0,1-.71.71h-.6a.71.71,0,0,1-.71-.71v-4.64a.71.71,0,0,1,.71-.71h2.62a.7.7,0,0,0,.71-.7v-.61a.71.71,0,0,0-.71-.71h-.61a.69.69,0,0,1-.7-.7v-.61a.71.71,0,0,1,.71-.71h4.65a.71.71,0,0,1,.71.7v.61a.71.71,0,0,1-.71.71h-.61a.7.7,0,0,0-.7.71v.6a.71.71,0,0,0,.71.71h.6a.71.71,0,0,0,.71-.71v-.61a.7.7,0,0,1,.7-.71h.61a.71.71,0,0,0,.71-.71v-.6a.7.7,0,0,1,.7-.71h8.69a.7.7,0,0,1,.71.7v4.65a.71.71,0,0,1-.71.71h-.61a.7.7,0,0,1-.7-.71v-2.62a.71.71,0,0,0-.71-.71h-.6a.71.71,0,0,0-.71.71v4.65a.7.7,0,0,0,.71.7h2.62a.7.7,0,0,1,.71.7v.61a.7.7,0,0,1-.7.71h-8.69a.7.7,0,0,1-.71-.7v-2.63a.71.71,0,0,0-.71-.71h-2.63a.7.7,0,0,0-.7.71v.6a.7.7,0,0,0,.7.71h.61a.7.7,0,0,1,.71.7V272a.71.71,0,0,1-.71.71H507.6a.7.7,0,0,1-.71-.7v-2.63a.7.7,0,0,0-.7-.71"/><path class="cls-13" d="M488.67,250.47H490a.7.7,0,0,1,.71.7v4.65a.71.71,0,0,1-.71.71h-4.65a.7.7,0,0,1-.7-.71v-4.65a.71.71,0,0,1,.7-.71h3.34Z"/><path class="cls-13" d="M494.77,276v-.61a.71.71,0,0,1,.71-.71h.6a.71.71,0,0,1,.71.71v.6a.7.7,0,0,1-.7.71h-.61a.7.7,0,0,1-.71-.7"/><path class="cls-13" d="M492,274.71h-.6a.71.71,0,0,1-.71-.71v-2.62a.71.71,0,0,1,.71-.71H492a.7.7,0,0,1,.7.7V274a.71.71,0,0,1-.71.71"/><path class="cls-13" d="M487.39,272.7H488a.7.7,0,0,1,.71.7V274a.71.71,0,0,1-.71.71h-.6a.71.71,0,0,1-.71-.71v-.6a.7.7,0,0,1,.7-.71"/><path class="cls-13" d="M500.83,274v-.61a.71.71,0,0,1,.71-.71h.6a.71.71,0,0,1,.71.71v.6a.71.71,0,0,1-.71.71h-.6a.7.7,0,0,1-.71-.7"/><path class="cls-13" d="M491.42,262.59h.6a.7.7,0,0,1,.71.7v.61a.7.7,0,0,1-.7.71h-.61a.71.71,0,0,1-.71-.71v-.6a.71.71,0,0,1,.71-.71"/><path class="cls-13" d="M498.81,276v-.6a.71.71,0,0,1,.71-.71h.6a.7.7,0,0,1,.71.7V276a.7.7,0,0,1-.7.71h-.61a.71.71,0,0,1-.71-.71"/><path class="cls-13" d="M503.54,260.55h.6a.71.71,0,0,1,.71.71v.61a.71.71,0,0,1-.71.71h-.6a.71.71,0,0,1-.71-.71v-.61a.7.7,0,0,1,.71-.7"/><path class="cls-13" d="M496.79,274a.71.71,0,0,0,.71.71h.6a.71.71,0,0,0,.71-.71v-2.63a.69.69,0,0,1,.7-.7h.61a.7.7,0,0,0,.7-.7v-.61a.71.71,0,0,0-.71-.71h-.6a.71.71,0,0,1-.71-.71v-.61a.71.71,0,0,1,.71-.71h.6a.7.7,0,0,0,.71-.7v-2.63a.71.71,0,0,0-.71-.71h-.6a.71.71,0,0,0-.71.71v.61a.7.7,0,0,1-.7.71h-.61a.71.71,0,0,1-.71-.71v-.6a.71.71,0,0,0-.71-.71h-.6a.71.71,0,0,0-.71.71v.61a.7.7,0,0,1-.7.7h-.61a.72.72,0,0,0-.71.71v.61a.7.7,0,0,1-.7.71h-.61a.7.7,0,0,0-.7.71v.6a.71.71,0,0,0,.71.71h.6a.7.7,0,0,1,.71.7V270a.71.71,0,0,0,.71.71h2.63a.72.72,0,0,1,.71.71V274Zm0-6.66v.6a.71.71,0,0,1-.71.71h-.6a.7.7,0,0,1-.71-.7v-.61a.7.7,0,0,1,.7-.71h.61a.71.71,0,0,1,.71.71"/><path class="cls-14" d="M460.3,243.77l17.92-17.68v14.43a3.25,3.25,0,0,1-3.26,3.25Z"/><line class="cls-15" x1="481.62" y1="294.37" x2="522.04" y2="294.37"/><line class="cls-15" x1="481.62" y1="296.86" x2="522.04" y2="296.86"/><line class="cls-15" x1="494.25" y1="299.34" x2="509.42" y2="299.34"/><path class="cls-11" d="M592.8,227.64v82.54a15.88,15.88,0,0,1-15.88,15.88H550.69V312.9h22.9a6.21,6.21,0,0,0,6.21-6.22V231.46a6.22,6.22,0,0,0-6.21-6.22h-22.9V211.76h26.23a15.89,15.89,0,0,1,15.88,15.88"/><path class="cls-11" d="M565.4,225.24A2.52,2.52,0,0,0,563,227.5c-.52,2.73-.31,6.87-4.11,6.87L556.46,228l.87-5.71,6.49-.49Z"/><path class="cls-16" d="M558.15,191.32H446.53a2.45,2.45,0,1,1,0-4.9H558.15a2.45,2.45,0,0,1,0,4.9"/><line class="cls-10" x1="558.92" y1="201.57" x2="558.92" y2="238.83"/><line class="cls-10" x1="558.92" y1="241.7" x2="558.92" y2="242.88"/><path class="cls-10" d="M558.92,264.83V337a13.56,13.56,0,0,1-13.56,13.56H515.49"/><line class="cls-10" x1="593.04" y1="239.48" x2="593.04" y2="286.69"/><line class="cls-10" x1="592.8" y1="231.32" x2="592.8" y2="234.37"/><path class="cls-17" d="M597.09,180.76c2.07,3.41,7.23,8.72,12.19,13.44,3.81,3.63,7.49,6.9,9.54,8.69,1,.91,1.65,1.43,1.65,1.43s-.16-3-.44-7c-.54-7.87-.94-21.45-2.18-22.52a51.61,51.61,0,0,0-8.92-6.52A15.71,15.71,0,0,0,606,167c-5.1-1.56-13.36,6.39-8.91,13.76"/><path class="cls-18" d="M609.28,194.2c3.81,3.62,7.49,6.9,9.54,8.69a6.72,6.72,0,0,0,1,.05l.21-5.61c-.54-7.87-.94-21.45-2.18-22.52a52,52,0,0,0-8.92-6.53c2.93,1.79,4.27,6.92,2.5,10.13-2.08,3.78-3.92,10.31-2.15,15.79"/><path class="cls-16" d="M616.46,296.34c.06,4.64,1.82,9.15,9.12,9.2l38.45.16,12.57.06,14.78.06a9.15,9.15,0,0,0,9.2-9.12l.17-41.26.23-51.59,0-9,.05-12.14.12-28.4c0-5.06-2.22-9.19-9.12-9.2L662.28,145l-12.58-.05-9.35,0-14.08-.06c-7.18-.08-9.18,4.06-9.19,9.12L617,178.25l-.3,69.2,0,12.14Z"/><path class="cls-13" d="M624.52,302.74l68.29.29a5.86,5.86,0,0,0,5.89-5.83l.62-144.35a5.87,5.87,0,0,0-5.83-5.89l-13.61-.06a2.7,2.7,0,0,0-2.7,2.68,5.86,5.86,0,0,1-5.88,5.84l-24.9-.11a5.86,5.86,0,0,1-5.84-5.88,2.69,2.69,0,0,0-2.68-2.71l-12.69-.05a5.85,5.85,0,0,0-5.88,5.83l-.63,144.35a5.88,5.88,0,0,0,5.84,5.89"/><path class="cls-13" d="M619.14,299.13a5.87,5.87,0,0,0,5.38,3.61l21.07.09h1.91l9.7,0h2.27l33.34.14a5.86,5.86,0,0,0,5.89-5.83v-2.44l0-8.11,0-4.46,0-6.1v-3.37l.31-71,0-13,0-7.92v-1.4l0-3.67.07-15.71v-.72l0-6.43a5.87,5.87,0,0,0-5.83-5.89l-13.56-.06h0a2.84,2.84,0,0,0-.66.08l-.23.07a3.17,3.17,0,0,0-.42.19,2.68,2.68,0,0,0-1.39,2.34,5.43,5.43,0,0,1-.86,3,5.65,5.65,0,0,1-.48.69,5.77,5.77,0,0,1-2.1,1.6,5.91,5.91,0,0,1-2.44.53l-24.9-.11a5.86,5.86,0,0,1-5.84-5.88,2.61,2.61,0,0,0-.23-1.12,2.7,2.7,0,0,0-2.45-1.58l-12.69-.06a4.29,4.29,0,0,0-.62,0,5.83,5.83,0,0,0-5.11,4.53,5.32,5.32,0,0,0-.15,1.27l0,9.14,0,6.6,0,8.62v8l0,6.63v2.86l0,4.72v3.24L619,216.9h0l0,10.31h0l-.12,25.07-.14,32.41v.66h0V287l0,8.83v1a5.77,5.77,0,0,0,.46,2.28"/><polygon class="cls-13" points="670.9 155.42 619.07 208.7 619.1 202.95 665.36 155.39 670.9 155.42"/><path class="cls-13" d="M679.06,147l-1.77,1.81a2.68,2.68,0,0,1,1.28-1.61,2.21,2.21,0,0,1,.42-.18Z"/><polygon class="cls-13" points="699.1 204.7 699.07 210.45 618.7 293.07 618.72 287.32 699.1 204.7"/><polygon class="cls-13" points="699.31 155.13 699.29 159.28 699.29 160 699.22 175.71 699.2 179.38 699.2 180.79 699.16 188.7 699.12 197.83 618.75 280.44 618.87 252.28 618.94 237.73 699.31 155.13"/><path class="cls-9" d="M644.61,293.8h28.82a.63.63,0,0,0,0-1.25H644.61a.63.63,0,0,0,0,1.25"/><path class="cls-9" d="M631.65,161l-4.26,0a.68.68,0,0,0-.67.66v1a.67.67,0,0,0,.66.67h4.26a.66.66,0,0,0,.67-.66v-1a.66.66,0,0,0-.66-.67"/><path class="cls-10" d="M596.66,172.66C600.53,165,606,167,606,167s4.09.81,11.85,7.81"/><path class="cls-9" d="M634.44,162.34a.94.94,0,1,0,.92-.94.94.94,0,0,0-.92.94"/><path class="cls-9" d="M637.3,162.36a.94.94,0,1,0,.92-1,.94.94,0,0,0-.92,1"/><path class="cls-9" d="M628.39,170.69l59,.25a1.92,1.92,0,0,1,1.9,1.92l0,5.06a1.92,1.92,0,0,1-1.92,1.9l-59-.25a1.91,1.91,0,0,1-1.9-1.92l0-5.06a1.9,1.9,0,0,1,1.92-1.9"/><path class="cls-12" d="M631.09,192.29l54.73.24a4.26,4.26,0,0,1,4.14,4.35l0,81.69a4.26,4.26,0,0,1-4.14,4.35l-55.1.28a4.25,4.25,0,0,1-4.18-4.37l.35-82.2a4.27,4.27,0,0,1,4.18-4.34"/><path class="cls-13" d="M658.88,227.16h-.73a.85.85,0,0,1-.85-.85v-.72a.85.85,0,0,1,.84-.86h.73a.85.85,0,0,1,.85.85v.73a.85.85,0,0,1-.85.85"/><path class="cls-13" d="M657.28,217.45h1.58a.85.85,0,0,0,.85-.85v-.73a.85.85,0,0,1,.85-.85h3.15a.85.85,0,0,0,.85-.85v-.73a.85.85,0,0,0-.85-.85h-3.16a.85.85,0,0,1-.85-.85V211a.85.85,0,0,0-.85-.85h-5.59a.85.85,0,0,0-.85.85v10.44a.85.85,0,0,0,.85.85H654a.85.85,0,0,0,.85-.85V218.3a.85.85,0,0,1,.85-.85Zm0-4v.73a.85.85,0,0,1-.85.85h-.73a.83.83,0,0,1-.85-.84v-.73a.85.85,0,0,1,.85-.85h.72a.85.85,0,0,1,.85.85"/><path class="cls-13" d="M656.44,224.74h-.72a.86.86,0,0,1-.86-.85v-.73a.85.85,0,0,1,.85-.85h.73a.85.85,0,0,1,.85.85v.72a.86.86,0,0,1-.85.86"/><path class="cls-13" d="M659.71,219.87V218.3a.86.86,0,0,1,.85-.86h3.16a.85.85,0,0,1,.85.85V219a.85.85,0,0,1-.85.85H663a.85.85,0,0,0-.85.85v.73a.85.85,0,0,1-.85.85h-.73a.85.85,0,0,1-.85-.85Z"/><path class="cls-13" d="M652.44,226.32v-.73a.85.85,0,0,1,.85-.85H654a.85.85,0,0,1,.85.85v.73a.85.85,0,0,1-.85.85h-.73a.85.85,0,0,1-.85-.85"/><path class="cls-13" d="M663,222.3h.72a.85.85,0,0,1,.86.84v3.16a.85.85,0,0,1-.85.85H663a.85.85,0,0,1-.85-.85v-3.15a.85.85,0,0,1,.85-.85"/><path class="cls-13" d="M662.2,251.44v-1.58A.85.85,0,0,1,663,249h.73a.85.85,0,0,1,.85.85v10.44a.86.86,0,0,1-.85.86h-.73a.85.85,0,0,1-.85-.85v-3.16a.86.86,0,0,0-.86-.85h-.72a.86.86,0,0,1-.86-.84v-.73a.85.85,0,0,1,.85-.85h.73a.86.86,0,0,0,.85-.86Z"/><path class="cls-13" d="M676.76,249h1.58a.85.85,0,0,1,.85.85v5.58a.85.85,0,0,1-.85.85h-5.58a.85.85,0,0,1-.85-.84v-5.59a.84.84,0,0,1,.84-.85h4Z"/><path class="cls-13" d="M674.29,222.28h-1.58a.85.85,0,0,1-.85-.85v-5.58a.85.85,0,0,1,.85-.85h5.58a.85.85,0,0,1,.85.85v5.58a.85.85,0,0,1-.85.85h-4Z"/><path class="cls-13" d="M669.47,244.14h-1.58a.85.85,0,0,0-.85.85v15.3a.85.85,0,0,0,.85.85h15.3a.83.83,0,0,0,.84-.85V245a.83.83,0,0,0-.85-.84H669.47Zm0,3.28a.85.85,0,0,1,.85-.85h10.44a.85.85,0,0,1,.85.85v10.44a.85.85,0,0,1-.85.85H670.34a.85.85,0,0,1-.85-.85V247.42Z"/><path class="cls-13" d="M681.58,227.12h1.58a.85.85,0,0,0,.85-.85V211a.85.85,0,0,0-.85-.85h-15.3a.85.85,0,0,0-.85.85v15.3a.83.83,0,0,0,.85.84h13.72Zm0-3.28a.85.85,0,0,1-.85.85H670.28a.85.85,0,0,1-.85-.85V213.42a.83.83,0,0,1,.84-.85H680.7a.86.86,0,0,1,.86.85v10.44Z"/><path class="cls-13" d="M635.5,260.34v-.73a.86.86,0,0,1,.85-.85h.73a.85.85,0,0,1,.85.85v.73a.85.85,0,0,1-.85.85h-.73a.85.85,0,0,1-.85-.85"/><path class="cls-13" d="M658.93,261.15h-.72a.85.85,0,0,1-.85-.85v-.73a.85.85,0,0,1,.85-.85h.73a.83.83,0,0,1,.85.84v.73a.85.85,0,0,1-.85.85"/><path class="cls-13" d="M645.21,260.33v-.73a.85.85,0,0,1,.85-.85h.73a.85.85,0,0,1,.85.85v.72a.85.85,0,0,1-.85.85h-.72a.86.86,0,0,1-.86-.85"/><path class="cls-13" d="M636.31,234.48H637a.83.83,0,0,0,.84-.85v-.73a.85.85,0,0,1,.85-.85h.73a.85.85,0,0,1,.85.85v.73a.85.85,0,0,0,.85.84h.73a.85.85,0,0,1,.85.85v3.16a.85.85,0,0,1-.85.85h-.73a.85.85,0,0,0-.85.85v.73a.85.85,0,0,1-.85.85h-.73a.85.85,0,0,1-.85-.85v-.72a.86.86,0,0,0-.86-.85h-3.15a.85.85,0,0,1-.85-.84v-.73a.84.84,0,0,1,.84-.85h.73a.85.85,0,0,0,.85-.85v-.73a.85.85,0,0,1,.85-.85"/><path class="cls-13" d="M640.33,245v.73a.86.86,0,0,0,.86.85h.72a.85.85,0,0,0,.85-.85V245a.85.85,0,0,1,.85-.85h.73a.85.85,0,0,1,.85.85v.73a.85.85,0,0,0,.85.85h.73a.83.83,0,0,1,.85.84v.73a.85.85,0,0,1-.85.85H646a.85.85,0,0,0-.84.85v.72a.86.86,0,0,1-.85.86h-.73a.85.85,0,0,1-.85-.85v-.73a.85.85,0,0,0-.85-.85h-.73a.86.86,0,0,0-.85.85v.73a.85.85,0,0,0,.85.85h.73a.85.85,0,0,1,.85.85v3.16a.86.86,0,0,1-.85.85h-.73a.85.85,0,0,0-.85.85v.73a.84.84,0,0,1-.84.85h-.73a.85.85,0,0,1-.85-.85v-5.58a.86.86,0,0,0-.86-.85h-.72a.86.86,0,0,1-.86-.85v-8a.85.85,0,0,1,.85-.85h.73a.84.84,0,0,1,.85.84v.73a.85.85,0,0,0,.85.85h.73a.85.85,0,0,1,.85.85"/><path class="cls-13" d="M649.21,251.46h-3.16a.85.85,0,0,0-.85.85v3.16a.85.85,0,0,0,.85.85h.73a.85.85,0,0,1,.85.85v.72a.85.85,0,0,0,.85.85h3.16a.85.85,0,0,1,.85.85v.72a.85.85,0,0,0,.85.85h.73a.85.85,0,0,0,.85-.85v-.73a.83.83,0,0,1,.84-.85h.73a.85.85,0,0,0,.85-.85v-.73a.85.85,0,0,0-.85-.85h-.73a.85.85,0,0,1-.85-.85v-.72a.86.86,0,0,1,.85-.86h3.15a.85.85,0,0,0,.85-.85v-5.59a.85.85,0,0,0-.85-.85h-.73a.85.85,0,0,0-.85.85v.73a.85.85,0,0,1-.84.85h-.73a.85.85,0,0,0-.85.85v.73a.85.85,0,0,1-.85.85h-.73a.85.85,0,0,1-.85-.85v-.73a.83.83,0,0,0-.85-.84h-.73a.85.85,0,0,0-.85.85v.73a.83.83,0,0,1-.84.85m2.43,4.85h-.73a.85.85,0,0,1-.85-.85v-.73a.85.85,0,0,1,.85-.85h.73a.85.85,0,0,1,.85.85v.73a.85.85,0,0,1-.85.85"/><path class="cls-13" d="M642.73,230.47v.72a.85.85,0,0,1-.85.85h-.73a.85.85,0,0,1-.85-.85v-.73a.85.85,0,0,1,.85-.85h.72a.85.85,0,0,1,.85.85"/><path class="cls-13" d="M662.18,243.3v-.73a.85.85,0,0,1,.85-.85h.73a.85.85,0,0,1,.85.85v3.16a.86.86,0,0,1-.85.85h-3.16a.85.85,0,0,1-.85-.85V245a.86.86,0,0,1,.85-.85h.72a.85.85,0,0,0,.85-.85"/><path class="cls-13" d="M636.3,229.63H637a.85.85,0,0,1,.85.84v.73a.85.85,0,0,1-.85.85h-.73a.85.85,0,0,1-.85-.85v-.73a.85.85,0,0,1,.85-.85"/><path class="cls-13" d="M633.84,210.21a.85.85,0,0,0-.85.85v15.29a.85.85,0,0,0,.85.85h15.29a.86.86,0,0,0,.85-.85V211a.85.85,0,0,0-.85-.85h-15.3Zm1.58,3.27a.85.85,0,0,1,.85-.85h10.44a.85.85,0,0,1,.85.85V223.9a.85.85,0,0,1-.85.85H636.29a.85.85,0,0,1-.85-.85V213.48Z"/><path class="cls-13" d="M663.75,236.86H663a.85.85,0,0,0-.85.85v3.15a.85.85,0,0,1-.85.85h-.73a.85.85,0,0,1-.85-.85v-5.59a.85.85,0,0,1,.85-.85h3.16a.85.85,0,0,0,.84-.85v-.73a.85.85,0,0,0-.85-.85H663a.85.85,0,0,1-.85-.85v-.73a.85.85,0,0,1,.85-.85h5.58a.85.85,0,0,1,.85.85v.73a.85.85,0,0,1-.85.85h-.73a.85.85,0,0,0-.85.85v.73a.85.85,0,0,0,.85.85h.73a.85.85,0,0,0,.85-.85v-.73a.85.85,0,0,1,.85-.85H671a.86.86,0,0,0,.84-.86v-.72a.86.86,0,0,1,.85-.86h10.44a.85.85,0,0,1,.85.85V236a.85.85,0,0,1-.85.85h-.72a.86.86,0,0,1-.86-.85v-3.15a.85.85,0,0,0-.85-.85H680a.85.85,0,0,0-.85.85v5.59a.83.83,0,0,0,.85.84h3.16a.85.85,0,0,1,.85.85v.73a.85.85,0,0,1-.85.85H672.74a.85.85,0,0,1-.85-.85V237.7a.86.86,0,0,0-.86-.85h-3.15a.85.85,0,0,0-.85.85v.73a.85.85,0,0,0,.85.85h.73a.85.85,0,0,1,.85.85v.73a.85.85,0,0,1-.85.85h-3.15a.85.85,0,0,1-.85-.85v-3.16a.85.85,0,0,0-.85-.85"/><path class="cls-13" d="M642.71,215.05h1.58a.85.85,0,0,1,.85.85v5.59a.85.85,0,0,1-.85.85h-5.58a.86.86,0,0,1-.86-.85V215.9a.86.86,0,0,1,.85-.85h4Z"/><path class="cls-13" d="M650.05,245.75V245a.85.85,0,0,1,.85-.85h.73a.85.85,0,0,1,.85.85v.73a.85.85,0,0,1-.84.85h-.73a.85.85,0,0,1-.85-.85"/><path class="cls-13" d="M646.77,244.18H646a.85.85,0,0,1-.85-.85v-3.16a.85.85,0,0,1,.85-.85h.73a.85.85,0,0,1,.85.85v3.16a.85.85,0,0,1-.84.85"/><path class="cls-13" d="M641.18,241.76h.73a.86.86,0,0,1,.85.85v.72a.86.86,0,0,1-.85.86h-.73a.85.85,0,0,1-.85-.85v-.73a.85.85,0,0,1,.85-.85"/><path class="cls-13" d="M657.33,243.31v-.73a.85.85,0,0,1,.85-.85h.73a.85.85,0,0,1,.85.85v.73a.85.85,0,0,1-.84.85h-.73a.85.85,0,0,1-.85-.85"/><path class="cls-13" d="M646,229.61h.73a.85.85,0,0,1,.85.85v.73a.85.85,0,0,1-.85.85H646a.86.86,0,0,1-.86-.85v-.73a.85.85,0,0,1,.85-.85"/><path class="cls-13" d="M654.9,245.74V245a.85.85,0,0,1,.85-.85h.73a.85.85,0,0,1,.85.85v.73a.85.85,0,0,1-.85.85h-.73a.85.85,0,0,1-.85-.85"/><path class="cls-13" d="M660.58,227.16h.73a.85.85,0,0,1,.85.84v.73a.85.85,0,0,1-.85.85h-.73a.85.85,0,0,1-.85-.85V228a.85.85,0,0,1,.85-.85"/><path class="cls-13" d="M652.47,243.32a.85.85,0,0,0,.85.85h.73a.85.85,0,0,0,.85-.85v-3.15a.85.85,0,0,1,.85-.85h.73a.85.85,0,0,0,.85-.85v-.73a.85.85,0,0,0-.85-.84h-.73a.85.85,0,0,1-.85-.85v-.73a.85.85,0,0,1,.85-.85h.73a.85.85,0,0,0,.85-.85v-3.16a.85.85,0,0,0-.85-.85h-.73a.86.86,0,0,0-.84.86v.72a.85.85,0,0,1-.85.85h-.73a.85.85,0,0,1-.85-.85v-.73a.85.85,0,0,0-.85-.85h-.73a.85.85,0,0,0-.85.85v.73a.85.85,0,0,1-.85.85h-.73a.86.86,0,0,0-.84.86v.72a.85.85,0,0,1-.85.85H646a.85.85,0,0,0-.85.85v.73a.84.84,0,0,0,.85.84h.73a.85.85,0,0,1,.85.85v.73a.86.86,0,0,0,.86.85h3.15a.85.85,0,0,1,.85.85v3.16Zm0-8V236a.85.85,0,0,1-.85.85h-.73A.85.85,0,0,1,650,236v-.73a.85.85,0,0,1,.85-.85h.72a.86.86,0,0,1,.86.84"/><path class="cls-9" d="M679.26,162.4a.93.93,0,1,0,.92-.94.93.93,0,0,0-.92.94"/><path class="cls-9" d="M675.83,162.45a.93.93,0,0,0,.95.92.94.94,0,0,0,.92-.94.94.94,0,0,0-1.87,0"/><path class="cls-17" d="M650.64,345.26c3,6.76,18.09,5.87,39.06,3.41s30-4.64,41.08-12.87,9-36.93,8.7-47.63-6.77-21-12.79-32.79a140,140,0,0,1-9.54-25.73c-.93-3.37-1.66-6.42-2.19-8.89l-.09-.44c-1.71-8.17-9-7.61-9-7.61s-3.88-.22-7.86,3.56c-10.57,12.54,2.67,46.61-8.42,60.57-11.56,16-10.77,28.86-10.77,28.86s-41.33,0-50.55-.15c4.2,10.63,13.82,17.23,18.07,20.2s1.34,12.76,4.32,19.51"/><path class="cls-18" d="M628.25,305.55c22.33,21.56,49.64,12.56,49.64,12.56s.35.5,3.56,6c-1.28-5.39-2.65-18.43-2.65-18.43s-50.36-.13-50.55-.12"/><path class="cls-19" d="M715.29,220.61a4,4,0,0,0-6-.66c-1,1-1.69,6.7.45,9.35,1.25,1.35,5.7,1.13,7.07-1"/><path class="cls-18" d="M735.76,293.25c-.77,7.06-.8,16.11-3.27,23.36a22.49,22.49,0,0,1-5.67,9.49,28.92,28.92,0,0,1-5.22,4.14c-1.44,1,.14,3.93,1.75,3.18a19,19,0,0,0,8-7.57c4.66-7.11,4.5-20.91,4.42-32.6"/><path class="cls-9" d="M688.45,161.39l-4.25,0a.67.67,0,0,0-.67.66v1a.68.68,0,0,0,.67.67h4.25a.66.66,0,0,0,.67-.66v-1a.66.66,0,0,0-.66-.67"/><path class="cls-18" d="M715.39,334.28a1.18,1.18,0,1,0,1.16-1.2,1.18,1.18,0,0,0-1.16,1.2"/><path class="cls-10" d="M692.48,269.67a36.22,36.22,0,0,1-5.36,10.8c-7.46,10.13-11.54,24.52-4.54,48.83"/><path class="cls-10" d="M702,213.58c-7.31,2.95-8.65,11.89-8.71,17.7,0,.59,0,1.15,0,1.67"/><line class="cls-10" x1="739.69" y1="294.05" x2="739.7" y2="294.69"/><path class="cls-10" d="M738.62,319.21s-.93,11.06-7.84,16.59c-7.11,5.69-20.07,13.42-63.85,14.69-14.14.4-16.18-4.15-17-7.23-.54-2.05-1.1-11.08-1.1-11.08"/><line class="cls-10" x1="596.13" y1="178.54" x2="596.64" y2="179.93"/><g class="cls-20"><g class="cls-21"><g class="cls-22"><g class="cls-23"><rect class="cls-24" x="617.89" y="154.58" width="82.28" height="126.42" transform="translate(-2.94 9.11) rotate(-0.79)"/></g></g></g></g><g class="cls-20"><g class="cls-25"><g class="cls-26"><g class="cls-27"><rect class="cls-28" x="618.09" y="204.15" width="81.61" height="89.47" transform="translate(-3.37 9.11) rotate(-0.79)"/></g></g></g></g><g class="cls-20"><g class="cls-29"><g class="cls-30"><g class="cls-31"><rect class="cls-32" x="618.7" y="155.04" width="52.57" height="54.02" transform="translate(-2.45 8.92) rotate(-0.79)"/></g></g></g></g><path class="cls-17" d="M602.77,248.63c5.19,5.67,13.6,10.23,18.61,4.13a9.23,9.23,0,0,0,1.8-8.15,15.84,15.84,0,0,0-2.44-5.47c-6.27-10-11.65-13.34-16.21-12.51a10.2,10.2,0,0,0-5.27,3c-5.52,5.41-1.67,13.34,3.51,19"/><path class="cls-17" d="M610.62,255c3.49.07,7.89,2.15,13.69,7.41,4.67,4.36,5.42,9.13,3.67,11.93s-6.25,6.37-16.42,1.48-10.83-12.72-9-15.63,4.58-5.26,8.07-5.19"/><path class="cls-18" d="M607.51,237.22c5.91,8.35,11.46,3.95,15.67,7.39a15.84,15.84,0,0,0-2.44-5.47c-6.27-10-11.65-13.34-16.21-12.51.37,3,1.27,8.44,3,10.59"/><path class="cls-17" d="M610.09,212.51s8.21-6.16,15.58.6,16.82,20.11,8.68,26.76c-9.86,8-21.13-7-25.42-12.86a12.92,12.92,0,0,1-1.57-3.08c-1.27-3.59-1.09-8.1,2.73-11.42"/><path class="cls-33" d="M623.51,270.27s1.3,3.32-2.67,4.82c-2.64-.14-7.39-2.43-5.65-6.46C618.24,264.72,623.51,270.27,623.51,270.27Z"/><path class="cls-33" d="M630.08,227.22s-6.56-.32-7.27,5.62c0,0,3.7,7.11,8.61,4.69S630.08,227.22,630.08,227.22Z"/><path class="cls-33" d="M614.6,241s-6.74-.37-6.13,5.39c3.51,5.08,6.24,6.1,8.7,4.37C620.23,248.43,617.2,243.13,614.6,241Z"/><path class="cls-10" d="M606.84,222s-1.8-8.36,6.77-11.26c4.52-1.53,10.63.42,14.19,4.48,7.64,8.72,10.27,15.07,9.46,20.05a7.48,7.48,0,0,1-5.21,6.08"/><path class="cls-10" d="M605.68,226.62s-3.22-.55-7,3.58c-4.1,4.52-2,11.2,3.56,17.86"/><path class="cls-10" d="M607.36,223.93S610,231.36,620,238.78"/><line class="cls-10" x1="622.63" y1="240.66" x2="623.37" y2="240.91"/><path class="cls-34" d="M649.15,150.11a.85.85,0,1,1-.85-.85.85.85,0,0,1,.85.85"/><path class="cls-34" d="M666.19,151H654.34a.85.85,0,0,1,0-1.7h11.85a.85.85,0,0,1,0,1.7"/><path class="cls-13" d="M678.65,201.53c8.29.41,8.57-1.9,10.3-4.43h2.23l11.29,0h26.37l13.09,0,26.89-.05a3.86,3.86,0,0,0,3.85-3.88l-.07-85.2a3.85,3.85,0,0,0-3.88-3.84l-47.44,0-36.52.13a3.86,3.86,0,0,0-3.85,3.87v1.87l.05,53.39,0,22.35v7.59c0,2.14-.07,6.87-2.33,8.26"/><line class="cls-10" x1="762.86" y1="119.23" x2="691.55" y2="119.43"/><path class="cls-17" d="M752.82,177.39s.92-2.44,1.87-2.91,3-.38,4.64-2.8c1.43-2.17,6.2-9.72,7.08-11.81a1.74,1.74,0,0,0,.13-.65c-.06-.71-.82-1-1.78-.05s-3.56,4-3.56,4l-.24-.22s3.11-4,3.77-6.29a1.5,1.5,0,0,0-.08-1.32,1,1,0,0,0-1.61,0,2.55,2.55,0,0,0-.49.73s1-1.49-.25-2.1a1,1,0,0,0-1,.19c-1.89,1.31-5.09,6.22-5.09,6.22l-.23-.22s3.39-4.43,3.74-6.54a.73.73,0,0,0-1.17-.78c-2,1.26-5.69,6.79-5.69,6.79s2.31-5.79-.21-6.76c-.89-.29-.84,1.94-1.4,3s-4.15,4.92-4,5.78,1.16,3.94.67,4.71-3.74,5.78-3.74,5.78,7.42,7.57,8.63,5.28"/><path class="cls-9" d="M678.65,201.53c8.29.41,8.57-1.89,10.3-4.43h2.23l11.29,0h21.44c.09-1.32.13-2.2.13-2.2s2,1.09,4.56,2.19l.24.1V197l13.09,0c.32-.43.66-.93,1-1.49,1-1.54,3.38-5.73,5.56-9.71.12-.2.23-.41.34-.61,2.29-4.18,4.31-8,4.31-8-3.83-7.7-8.64-6.08-8.64-6.08l-4.59,5.26-.41.47-3.11,3.57c-2.42-4.22-13.23-17.95-17.57-21.41a9.72,9.72,0,0,0-9.07-1.37l-.51.18a5.63,5.63,0,0,0-.36-1.11v0a16.54,16.54,0,0,0-1.42-2.72,6,6,0,0,0-1.26-1.4,11.72,11.72,0,0,0-4.73-2.15c-.58-.14-1.13-.23-1.62-.3l-.28,0a1.7,1.7,0,0,0-2,1.79s-.36,5.63-.33,6.42c0,.06,0,.09,0,.09l-.5.14c-2.13.6-9.71,2.62-15.84,4.77l0,22.35v7.59c0,2.14-.07,6.87-2.33,8.26m5.17-11.76-.48-.49-.16-.18-.15-.16h0c-.23-.26-.49-.53-.76-.81l-.24-.24a3,3,0,0,0-.25-.25l-.24-.23-.22-.21-.21-.17c.74-1.05,1.83-2.5,1.83-2.5l1.91,3.2-.75,1.59v0l-.19.52Z"/><path class="cls-12" d="M683.81,189.79l.33.36v0l.05.05c.24.23.52.52.82.82h0l.47.46.08.09.42.42a.93.93,0,0,0,.14.14l1.94,2,.18.18.14.14.11.12.1.11,0,.06a1.36,1.36,0,0,1,.12.12c.38.42,1.19,1.34,2,2.23h.46l11.29,0h.76l.75-1.3,3.78-6.54.85-1.48,1-1.8a.58.58,0,0,0-.21-.8l-17.84-10.59a.58.58,0,0,0-.8.21l-3.88,8.33-2.13,4.57-.75,1.59v0l-.22.48Z"/><path class="cls-16" d="M713.07,138.27a12.44,12.44,0,0,1-2.33-.6c-2.72-1.24-8.9,4.31-8.9,4.31l-1.67.45-1.71-3.52V136a1.88,1.88,0,0,1,.85-1.57c2-1.31,5.84-3.75,7.89-5a4.84,4.84,0,0,1,3.27-.73c2.77.41,3.41,2.57,3.33,4.43-.09,3.87-.73,5.21-.73,5.21"/><path class="cls-14" d="M684.14,190.15v0l.05.05c.24.23.52.52.82.82h0l.47.46.08.09.42.42,0,0a.94.94,0,0,0,.1.1l1.94,2,.18.19.14.14.11.12.1.11,0,.06.12.11c.38.43,1.19,1.35,2,2.24h.46l11.29,0,1.51-1.31,3.78-6.54.85-1.48L692,176.65a.46.46,0,0,0-.65.16l-7,12.84Z"/><path class="cls-12" d="M685,191h0l.47.46.08.09.42.42,0,0a.94.94,0,0,0,.1.1l1.94,2,.18.19.14.14.11.12.1.11,0,.06.12.11c.38.43,1.19,1.35,2,2.24h.46l11.29,0h7.86l2.5-3.81a.59.59,0,0,0-.17-.81l-4.9-3.21-14.58-9.56a.59.59,0,0,0-.82.16l-7.07,10.79Z"/><polygon class="cls-14" points="683.81 189.79 684.14 190.15 684.15 190.17 684.2 190.22 690.45 197.1 690.46 197.1 690.73 197.1 691.18 197.1 684.79 187.67 684.04 189.29 683.82 189.77 683.81 189.79"/><path class="cls-17" d="M696.93,142c.79,2.46,2.66,1.85,2.66,1.85v8.44c0,1.49,6.63,5.92,6.63,5.92V152h0a3.51,3.51,0,0,0,3.32-1.7c1.25-2,1.17-12.58,1.17-12.58a27.82,27.82,0,0,1-5.65-2.81c0,2.3-4.25,6.71-4.25,6.71a19.73,19.73,0,0,0-2-2.83c-.75-.72-2.68.78-1.88,3.25"/><path class="cls-18" d="M700.77,148.24a8.35,8.35,0,0,0,5.45,6.45V152s-2.82-.07-5.45-3.71"/><line class="cls-35" x1="698.05" y1="140.28" x2="699.81" y2="142.32"/><path class="cls-18" d="M708.29,146.53s-2,1.91-3.86-1a2.29,2.29,0,0,0,2.21,2.55,1.71,1.71,0,0,0,1.65-1.51"/><path class="cls-36" d="M723.86,176.87l.18,18s2,1.09,4.56,2.19l.24.1V197c0-1.7,0-4.17,0-6.48a7.77,7.77,0,0,0-3.57-6.76c-.7-.32-1.44-6.92-1.44-6.92"/><path class="cls-36" d="M736.41,180.44s-1.4,1.51-1.4,5.2a3.32,3.32,0,0,1-.83.73s-.85-4,2.23-5.93"/><path class="cls-36" d="M705.73,163a2.11,2.11,0,0,0,.32,1.12,3.15,3.15,0,0,0,1.07,1.05l7.12,31.88h3.29s-1-3.48-2.26-8.16l-.18-.63c-.81-2.91-1.73-6.24-2.61-9.46-.05-.17-.1-.35-.14-.52-1.73-6.26-3.29-12-3.62-13.42a3.24,3.24,0,0,0,.83-1.61,2.69,2.69,0,0,0,.09-.51l-3.51-3.15s-.4,2.86-.4,3.43"/><path class="cls-36" d="M681,185.68v2c1.15.7.15-.7.08-.75.74-1,1.83-2.5,1.83-2.5l1.91,3.2,2.13-4.57s-2.55-2.16-2.27-2.76a10.27,10.27,0,0,1,.73-1.28s-.13-.84-.66-.15c-.4.54-2.76,4.92-3.75,6.77"/><path class="cls-36" d="M696.8,158.56c1.27,3,8.11,10,8.42,10.28a.32.32,0,0,0,.2.08h.09a.3.3,0,0,0,.18-.24l.67-8.5,5.31,5.11a.27.27,0,0,0,.34,0,.28.28,0,0,0,.11-.32l-2.34-7.34-.51.18,2,6.3-5-4.76a.26.26,0,0,0-.28-.06.28.28,0,0,0-.18.23L705.2,168c-2.32-2.38-7-7.49-7.91-9.7,0,0,0,.09,0,.09l-.5.14"/><path class="cls-36" d="M739.52,176.88c5.33.81,8.42,7.53,9,8.92l.33-.61c-.89-2-3.85-7.81-8.92-8.79Z"/><path class="cls-36" d="M711.23,178.86l2.74,9.49a.29.29,0,0,0,.18.19l1.12.34,3.88,1.18h.08a.28.28,0,0,0,.2-.09l3.63-4a.26.26,0,0,0,.06-.24l-2.22-9.5a.27.27,0,0,0-.33-.2l-8.23,2.25-.91.25a.23.23,0,0,0-.17.13.3.3,0,0,0,0,.21m.6.11.65-.18,8-2.17,2.12,9.08-3.42,3.79-4-1.24-.64-.19Z"/><path class="cls-36" d="M748.37,179.84a.71.71,0,1,0,.71-.71.71.71,0,0,0-.71.71"/><path class="cls-36" d="M702.08,170.26a.77.77,0,1,0,.76-.76.76.76,0,0,0-.76.76"/><path class="cls-36" d="M702.84,174.63a.77.77,0,1,0,.77-.77.77.77,0,0,0-.77.77"/><line class="cls-10" x1="762.88" y1="139.48" x2="729.18" y2="139.68"/><line class="cls-10" x1="762.88" y1="125.98" x2="729.18" y2="126.18"/><line class="cls-10" x1="762.88" y1="132.73" x2="729.18" y2="132.93"/><line class="cls-10" x1="743.89" y1="146.29" x2="728.94" y2="146.37"/><path class="cls-10" d="M678.65,201.53c8.29.41,8.57-1.9,10.3-4.43l79.87-.15a3.86,3.86,0,0,0,3.85-3.88l-.07-85.2a3.86,3.86,0,0,0-3.88-3.84l-47.45,0-36.51.14a3.86,3.86,0,0,0-3.85,3.87V110l.07,83.32C681,195.4,680.91,200.14,678.65,201.53Z"/><path class="cls-18" d="M755,165l-1-.79s.28-2.8-1.58-4c.33-.53.43-.71.43-.71A4.9,4.9,0,0,1,755,165"/><polygon class="cls-18" points="762.67 155.8 759.12 162.04 758.39 161.54 762.67 155.8"/><path class="cls-10" d="M710.74,157.19a8.35,8.35,0,0,1,7.51,1.43c3.7,2.8,9.68,10.3,9.68,10.3"/><line class="cls-10" x1="730.7" y1="172.41" x2="730.37" y2="171.99"/><path class="cls-10" d="M697.93,150.81a2.58,2.58,0,0,0-.33,1.41c-.07,1.13-.3,6.2-.3,6.2s-14,3.85-16.08,4.82"/><path class="cls-10" d="M762.61,246.26c8.29.42,8.57-1.89,10.3-4.42l41.09-.15a3.87,3.87,0,0,0,3.85-3.88l-.08-45.4a3.85,3.85,0,0,0-3.88-3.84l-45.17.17a3.86,3.86,0,0,0-3.85,3.87v1.87L765,238C765,240.14,764.87,244.88,762.61,246.26Z"/><path class="cls-16" d="M791.55,209.93h-.5a.6.6,0,0,1-.59-.58v-.5a.58.58,0,0,1,.59-.58h.49a.58.58,0,0,1,.59.58v.5a.58.58,0,0,1-.58.58"/><path class="cls-16" d="M790.45,203.27h1.09a.58.58,0,0,0,.58-.58v-.5a.59.59,0,0,1,.58-.59h2.16a.57.57,0,0,0,.58-.58v-.5a.57.57,0,0,0-.58-.58H792.7a.58.58,0,0,1-.59-.58v-.5a.58.58,0,0,0-.58-.58H787.7a.58.58,0,0,0-.58.59V206a.58.58,0,0,0,.58.58h.5a.59.59,0,0,0,.58-.59v-2.16a.6.6,0,0,1,.58-.59Zm0-2.74v.5a.58.58,0,0,1-.58.58h-.5a.58.58,0,0,1-.58-.58v-.5a.59.59,0,0,1,.59-.59h.5a.58.58,0,0,1,.58.59"/><path class="cls-16" d="M789.88,208.27h-.5a.58.58,0,0,1-.58-.58v-.5a.59.59,0,0,1,.58-.59h.5a.58.58,0,0,1,.58.59v.5a.58.58,0,0,1-.58.58"/><path class="cls-16" d="M792.12,204.94v-1.09a.58.58,0,0,1,.58-.58h2.17a.58.58,0,0,1,.58.58v.5a.58.58,0,0,1-.58.58h-.5a.58.58,0,0,0-.58.59V206a.58.58,0,0,1-.58.59h-.5a.59.59,0,0,1-.59-.58Z"/><path class="cls-16" d="M787.13,209.36v-.5a.58.58,0,0,1,.59-.59h.5a.58.58,0,0,1,.58.58v.5a.59.59,0,0,1-.58.59h-.5a.6.6,0,0,1-.59-.58"/><path class="cls-16" d="M794.37,206.6h.5a.6.6,0,0,1,.59.58v2.16a.6.6,0,0,1-.58.59h-.5a.59.59,0,0,1-.59-.59v-2.16a.58.58,0,0,1,.58-.58"/><path class="cls-16" d="M793.82,226.58v-1.09a.58.58,0,0,1,.58-.58h.5a.59.59,0,0,1,.59.58v7.16a.58.58,0,0,1-.58.58h-.5a.58.58,0,0,1-.59-.58v-2.16a.58.58,0,0,0-.58-.58h-.5a.59.59,0,0,1-.59-.58v-.5a.59.59,0,0,1,.58-.59h.5a.58.58,0,0,0,.59-.58Z"/><path class="cls-16" d="M803.81,224.89h1.08a.59.59,0,0,1,.59.58v3.83a.59.59,0,0,1-.58.59h-3.83a.58.58,0,0,1-.58-.58v-3.83a.58.58,0,0,1,.58-.58h2.75Z"/><path class="cls-16" d="M802.11,206.58H801a.58.58,0,0,1-.58-.59v-3.83a.58.58,0,0,1,.58-.58h3.83a.59.59,0,0,1,.59.59V206a.58.58,0,0,1-.58.58h-2.75Z"/><path class="cls-16" d="M798.81,221.57h-1.08a.6.6,0,0,0-.58.59v10.49a.58.58,0,0,0,.59.58h10.49a.58.58,0,0,0,.58-.58V222.14a.58.58,0,0,0-.58-.58h-9.41Zm0,2.25a.58.58,0,0,1,.59-.58h7.15a.58.58,0,0,1,.59.59V231a.58.58,0,0,1-.58.58h-7.16a.58.58,0,0,1-.58-.58v-7.16Z"/><path class="cls-16" d="M807.11,209.9h1.09a.58.58,0,0,0,.58-.58V198.83a.58.58,0,0,0-.58-.58H797.69a.58.58,0,0,0-.58.58v10.49a.59.59,0,0,0,.59.58h9.4Zm0-2.24a.58.58,0,0,1-.58.58h-7.16a.58.58,0,0,1-.58-.58v-7.16a.58.58,0,0,1,.59-.58h7.15a.58.58,0,0,1,.59.58v7.16Z"/><path class="cls-16" d="M775.52,232.68v-.5a.58.58,0,0,1,.58-.58h.5a.58.58,0,0,1,.58.58v.5a.58.58,0,0,1-.59.58h-.5a.58.58,0,0,1-.58-.59"/><path class="cls-16" d="M791.59,233.24h-.5a.59.59,0,0,1-.59-.58v-.5a.58.58,0,0,1,.59-.58h.49a.58.58,0,0,1,.59.59v.5a.58.58,0,0,1-.58.58"/><path class="cls-16" d="M782.18,232.67v-.5a.58.58,0,0,1,.58-.58h.5a.58.58,0,0,1,.58.58v.5a.57.57,0,0,1-.58.58h-.5a.58.58,0,0,1-.58-.58"/><path class="cls-16" d="M776.07,215h.5a.58.58,0,0,0,.58-.58v-.5a.59.59,0,0,1,.58-.59h.5a.58.58,0,0,1,.59.59v.49a.58.58,0,0,0,.58.59h.5a.59.59,0,0,1,.59.58v2.16a.6.6,0,0,1-.58.59h-.5a.58.58,0,0,0-.58.58v.5a.58.58,0,0,1-.58.58h-.5a.58.58,0,0,1-.59-.58v-.5a.58.58,0,0,0-.58-.58h-2.17a.57.57,0,0,1-.58-.58v-.5a.58.58,0,0,1,.58-.58h.5a.58.58,0,0,0,.58-.58v-.5a.58.58,0,0,1,.58-.59"/><path class="cls-16" d="M778.83,222.19v.5a.59.59,0,0,0,.59.58h.5a.58.58,0,0,0,.58-.58v-.5a.58.58,0,0,1,.58-.59h.5a.58.58,0,0,1,.58.58v.5a.58.58,0,0,0,.59.58h.5a.58.58,0,0,1,.58.59v.49a.58.58,0,0,1-.58.59h-.5a.58.58,0,0,0-.58.58v.5a.58.58,0,0,1-.58.59h-.5a.59.59,0,0,1-.59-.58v-.5a.58.58,0,0,0-.58-.59h-.5a.58.58,0,0,0-.58.58v.5a.58.58,0,0,0,.58.58h.5a.6.6,0,0,1,.59.58v2.17a.58.58,0,0,1-.58.58h-.5a.58.58,0,0,0-.58.58v.5a.58.58,0,0,1-.58.59h-.5a.58.58,0,0,1-.59-.58v-3.83a.58.58,0,0,0-.59-.58h-.5a.58.58,0,0,1-.58-.59v-5.49a.58.58,0,0,1,.58-.58h.5a.58.58,0,0,1,.58.58v.5a.58.58,0,0,0,.58.58h.5a.58.58,0,0,1,.58.58"/><path class="cls-16" d="M784.92,226.59h-2.17a.58.58,0,0,0-.58.58v2.16a.6.6,0,0,0,.59.59h.5a.58.58,0,0,1,.58.59v.5a.58.58,0,0,0,.59.58h2.16a.58.58,0,0,1,.58.59v.49a.6.6,0,0,0,.59.59h.5a.6.6,0,0,0,.58-.59v-.5a.58.58,0,0,1,.58-.58h.5a.58.58,0,0,0,.58-.59v-.5a.58.58,0,0,0-.58-.58h-.5a.59.59,0,0,1-.59-.58v-.5a.58.58,0,0,1,.58-.58h2.17a.58.58,0,0,0,.58-.58v-3.83a.58.58,0,0,0-.58-.58h-.5a.58.58,0,0,0-.58.58v.5a.58.58,0,0,1-.58.59h-.5a.58.58,0,0,0-.58.58v.5a.59.59,0,0,1-.58.59h-.5a.59.59,0,0,1-.59-.59v-.49a.58.58,0,0,0-.58-.59h-.5a.6.6,0,0,0-.58.59v.5a.58.58,0,0,1-.58.58m1.67,3.33h-.5a.59.59,0,0,1-.59-.58v-.5a.6.6,0,0,1,.58-.59h.5a.58.58,0,0,1,.59.59v.49a.58.58,0,0,1-.58.59"/><path class="cls-16" d="M780.48,212.2v.5a.58.58,0,0,1-.58.58h-.5a.58.58,0,0,1-.58-.58v-.5a.57.57,0,0,1,.58-.58h.5a.57.57,0,0,1,.58.58"/><path class="cls-16" d="M793.81,221v-.5a.58.58,0,0,1,.59-.58h.49a.58.58,0,0,1,.59.59v2.16a.58.58,0,0,1-.58.58h-2.16a.58.58,0,0,1-.59-.58v-.5a.59.59,0,0,1,.58-.59h.5a.57.57,0,0,0,.58-.58"/><path class="cls-16" d="M776.07,211.62h.5a.58.58,0,0,1,.58.58v.5a.59.59,0,0,1-.58.59h-.5a.58.58,0,0,1-.58-.58v-.5a.58.58,0,0,1,.59-.59"/><path class="cls-16" d="M774.38,198.31a.58.58,0,0,0-.58.58v10.49a.58.58,0,0,0,.58.58h10.49a.58.58,0,0,0,.58-.58V198.87a.58.58,0,0,0-.58-.58H774.38Zm1.09,2.24a.57.57,0,0,1,.58-.58h7.16a.57.57,0,0,1,.58.58v7.16a.58.58,0,0,1-.58.58h-7.16a.58.58,0,0,1-.58-.58v-7.16Z"/><path class="cls-16" d="M794.89,216.59h-.5a.58.58,0,0,0-.58.58v2.16a.58.58,0,0,1-.58.59h-.5a.58.58,0,0,1-.58-.58v-3.83a.59.59,0,0,1,.58-.59h2.17a.58.58,0,0,0,.58-.58v-.5a.58.58,0,0,0-.59-.58h-.5a.58.58,0,0,1-.58-.59v-.5a.58.58,0,0,1,.58-.58h3.83a.57.57,0,0,1,.58.58v.5a.57.57,0,0,1-.58.58h-.5a.58.58,0,0,0-.58.58v.5a.58.58,0,0,0,.59.59h.5a.58.58,0,0,0,.58-.58v-.5a.58.58,0,0,1,.58-.58h.5a.59.59,0,0,0,.58-.59v-.5a.58.58,0,0,1,.58-.58h7.16a.58.58,0,0,1,.58.58V216a.58.58,0,0,1-.58.58h-.5a.6.6,0,0,1-.59-.58v-2.16a.57.57,0,0,0-.58-.58H806a.58.58,0,0,0-.58.58v3.83a.58.58,0,0,0,.59.58h2.16a.58.58,0,0,1,.58.58v.5a.58.58,0,0,1-.59.58h-7.16a.58.58,0,0,1-.58-.58v-2.16a.58.58,0,0,0-.59-.58h-2.16a.58.58,0,0,0-.58.58v.5a.59.59,0,0,0,.58.59h.5a.6.6,0,0,1,.59.59v.5a.58.58,0,0,1-.59.58h-2.16a.58.58,0,0,1-.58-.58v-2.16a.57.57,0,0,0-.58-.58"/><path class="cls-16" d="M780.46,201.63h1.08a.58.58,0,0,1,.59.59V206a.58.58,0,0,1-.58.59h-3.83a.58.58,0,0,1-.58-.59v-3.83a.58.58,0,0,1,.59-.58h2.74Z"/><path class="cls-16" d="M785.49,222.68v-.5a.59.59,0,0,1,.58-.59h.5a.59.59,0,0,1,.59.58v.5a.58.58,0,0,1-.58.59h-.5a.58.58,0,0,1-.59-.58"/><path class="cls-16" d="M783.24,221.6h-.5a.58.58,0,0,1-.58-.58v-2.17a.58.58,0,0,1,.58-.58h.5a.58.58,0,0,1,.58.58V221a.57.57,0,0,1-.58.58"/><path class="cls-16" d="M779.41,219.94h.5a.58.58,0,0,1,.58.58v.5a.57.57,0,0,1-.58.58h-.5a.58.58,0,0,1-.58-.59v-.5a.58.58,0,0,1,.58-.58"/><path class="cls-16" d="M790.48,221v-.49a.58.58,0,0,1,.58-.59h.5a.58.58,0,0,1,.59.58v.5a.6.6,0,0,1-.58.59h-.5a.59.59,0,0,1-.59-.59"/><path class="cls-16" d="M782.73,211.61h.5a.58.58,0,0,1,.58.58v.5a.58.58,0,0,1-.58.58h-.5a.58.58,0,0,1-.58-.59v-.5a.57.57,0,0,1,.58-.58"/><path class="cls-16" d="M788.82,222.67v-.5a.58.58,0,0,1,.58-.58h.5a.59.59,0,0,1,.59.58v.5a.58.58,0,0,1-.58.58h-.5a.58.58,0,0,1-.59-.58"/><path class="cls-16" d="M792.71,209.93h.5a.59.59,0,0,1,.59.58v.5a.58.58,0,0,1-.58.58h-.5a.58.58,0,0,1-.59-.58v-.5a.58.58,0,0,1,.58-.58"/><path class="cls-16" d="M787.16,221a.58.58,0,0,0,.58.58h.5a.58.58,0,0,0,.58-.58v-2.17a.58.58,0,0,1,.58-.58h.5a.58.58,0,0,0,.58-.59v-.5a.58.58,0,0,0-.59-.58h-.49a.58.58,0,0,1-.59-.58v-.5a.58.58,0,0,1,.58-.58h.5a.58.58,0,0,0,.58-.59v-2.16a.58.58,0,0,0-.58-.58h-.5a.58.58,0,0,0-.59.58v.5a.59.59,0,0,1-.59.59h-.5a.58.58,0,0,1-.58-.59v-.49a.58.58,0,0,0-.58-.59h-.5a.6.6,0,0,0-.59.59v.5a.58.58,0,0,1-.59.58h-.5a.58.58,0,0,0-.58.59v.5a.58.58,0,0,1-.58.58h-.5a.58.58,0,0,0-.58.58v.5a.58.58,0,0,0,.59.59h.5a.58.58,0,0,1,.58.59v.5a.58.58,0,0,0,.58.58h2.17a.58.58,0,0,1,.58.59V221Zm0-5.49V216a.58.58,0,0,1-.59.59h-.49a.58.58,0,0,1-.59-.58v-.5a.6.6,0,0,1,.58-.59h.5a.59.59,0,0,1,.59.59"/><path class="cls-11" d="M103.71,346.39a13.32,13.32,0,0,1-13.3-13.31V142.57a13.32,13.32,0,0,1,13.3-13.3H412.32a13.28,13.28,0,0,1,13.14,11.17,13.6,13.6,0,0,1,.17,2.13V333.08a13.32,13.32,0,0,1-13.31,13.31Z"/><path class="cls-11" d="M103.71,343.55a10.48,10.48,0,0,1-10.47-10.47V142.57a10.49,10.49,0,0,1,10.47-10.47H412.32a10.84,10.84,0,0,1,2.66.34,10.47,10.47,0,0,1,7.68,8.45,10.29,10.29,0,0,1,.14,1.68V333.08a10.48,10.48,0,0,1-10.48,10.47Z"/><path class="cls-16" d="M421.8,142.57V333.08a9.47,9.47,0,0,1-9.48,9.48H103.71a9.47,9.47,0,0,1-9.48-9.48V142.57a9.48,9.48,0,0,1,9.48-9.48H412.32a9.48,9.48,0,0,1,9.36,8,9.45,9.45,0,0,1,.12,1.52"/><path class="cls-34" d="M415.14,150.72v64.09c0,13.63-8.65,17.47-4.79,38.14,7.06,37.94-3.86,53.06-3.86,53.06V161.08a9.48,9.48,0,0,0-9.48-9.47H119a9.48,9.48,0,0,0-9.48,9.47v100a68.75,68.75,0,0,1-8.64,32.66V153c0-16.28,12.68-17.21,18.09-8.36,4.73,7.76,16.88,1.65,35.45-2.8,23.49-5.62,25.51,1.44,39.9,1.44,11.93,0,201.19-.47,210.69-.47s10.11,7.9,10.11,7.9"/><path class="cls-9" d="M406.49,161.08V310.62a9.48,9.48,0,0,1-9.48,9.47H119a9.48,9.48,0,0,1-9.48-9.47V161.08a9.48,9.48,0,0,1,9.48-9.47H397a9.48,9.48,0,0,1,9.48,9.47"/><path class="cls-36" d="M323.69,290.86H190.26a5.54,5.54,0,0,1-5.53-5.53V192.7a5.53,5.53,0,0,1,5.53-5.53H323.69a5.52,5.52,0,0,1,5.52,5.53v92.63a5.53,5.53,0,0,1-5.52,5.53"/><path class="cls-13" d="M310.09,233.92H203.85a3.53,3.53,0,0,1-3.53-3.54v-4.6a3.53,3.53,0,0,1,3.53-3.54H310.09a3.53,3.53,0,0,1,3.54,3.54v4.6a3.53,3.53,0,0,1-3.54,3.54"/><path class="cls-13" d="M310.09,251.61H203.85a3.53,3.53,0,0,1-3.53-3.54v-4.61a3.53,3.53,0,0,1,3.53-3.53H310.09a3.53,3.53,0,0,1,3.54,3.53v4.61a3.53,3.53,0,0,1-3.54,3.54"/><path class="cls-13" d="M288.09,277.12H225.86a3.53,3.53,0,0,1-3.54-3.54v-7.86a3.54,3.54,0,0,1,3.54-3.54h62.23a3.55,3.55,0,0,1,3.54,3.54v7.86a3.54,3.54,0,0,1-3.54,3.54"/><path class="cls-13" d="M310.5,277.15h-8.8a3.1,3.1,0,0,1-3.1-3.1v-8.8a3.1,3.1,0,0,1,3.1-3.1h8.8a3.1,3.1,0,0,1,3.1,3.1v8.8a3.1,3.1,0,0,1-3.1,3.1m-8.8-13.22a1.33,1.33,0,0,0-1.33,1.32v8.8a1.34,1.34,0,0,0,1.33,1.33h8.8a1.34,1.34,0,0,0,1.33-1.33v-8.8a1.33,1.33,0,0,0-1.33-1.32Z"/><path class="cls-34" d="M103.16,342.54a13.38,13.38,0,0,1,4.71-15c10.93-8.87,34.2,3,45.93,6.44s16.38,5.68,29.14-1c4.69-2.45,8.4,4.15,17.38,4.88,12.53,1,28.81-2.07,50.43-5.5s58.54-7.89,83.14-8.64c7.89-.24,10,3.91,9.7,6.61-.84,7.51,3.14,10.17,19,5.3,19.2-5.9,47.76,6.84,47.76,6.84Z"/><g class="cls-20"><g class="cls-37"><g class="cls-38"><g class="cls-39"><rect class="cls-40" x="164.32" y="89.34" width="298.61" height="297.28" transform="translate(-80.07 238.24) rotate(-37.23)"/></g></g></g></g><line class="cls-41" x1="205.57" y1="228.44" x2="219.07" y2="228.44"/><line class="cls-41" x1="205.57" y1="245.77" x2="219.07" y2="245.77"/><path class="cls-36" d="M233.32,228.44a1.17,1.17,0,1,1-1.17-1.17,1.16,1.16,0,0,1,1.17,1.17"/><path class="cls-36" d="M244.43,228.44a1.17,1.17,0,1,1-1.17-1.17,1.16,1.16,0,0,1,1.17,1.17"/><path class="cls-36" d="M233.32,245.77a1.17,1.17,0,1,1-1.17-1.17,1.16,1.16,0,0,1,1.17,1.17"/><path class="cls-36" d="M244.43,245.77a1.17,1.17,0,1,1-1.17-1.17,1.16,1.16,0,0,1,1.17,1.17"/><path class="cls-36" d="M238.88,228.44a1.17,1.17,0,1,1-1.17-1.17,1.17,1.17,0,0,1,1.17,1.17"/><path class="cls-36" d="M238.88,245.77a1.17,1.17,0,1,1-1.17-1.17,1.17,1.17,0,0,1,1.17,1.17"/><path class="cls-12" d="M305.65,272.09a1,1,0,0,1-.7-.3l-3.42-3.42a1,1,0,0,1,1.41-1.41l2.71,2.71,9.56-9.55a1,1,0,0,1,1.41,1.41l-10.26,10.26a1,1,0,0,1-.71.3"/><path class="cls-13" d="M126.09,220.82a1,1,0,1,1-1-1,1,1,0,0,1,1,1"/><path class="cls-13" d="M126.09,229.92a1,1,0,1,1-1-1,1,1,0,0,1,1,1"/><path class="cls-13" d="M126.09,239a1,1,0,1,1-1-1,1,1,0,0,1,1,1"/><path class="cls-13" d="M126.09,248.11a1,1,0,1,1-1-1,1,1,0,0,1,1,1"/><path class="cls-13" d="M126.09,257.21a1,1,0,1,1-1-1,1,1,0,0,1,1,1"/><path class="cls-13" d="M130.2,173.22c0-.07-.83-7.36,5.37-9.08a6,6,0,0,1,6.9,3.3l-.68.3a5.18,5.18,0,0,0-6-2.88c-5.56,1.54-4.84,8.09-4.81,8.36Z"/><path class="cls-13" d="M143.15,178.45H129.38a3.14,3.14,0,0,1-3.33-3.33c0-2.44,1.68-3.77,4.73-3.77v.74c-3.33,0-4,1.61-4,3a2.41,2.41,0,0,0,2.59,2.59h13.77c2,0,4.11-.62,4.11-4a5,5,0,0,0-1.07-3.07,3.84,3.84,0,0,0-2.94-1.08,4.39,4.39,0,0,0-3.87,2.48l-.67-.3a5.1,5.1,0,0,1,4.54-2.92,4.53,4.53,0,0,1,3.49,1.32,5.6,5.6,0,0,1,1.26,3.6c0,3.07-1.65,4.74-4.85,4.74"/><polygon class="cls-13" points="140.19 172.14 138.16 170.94 138.47 172.73 140.19 172.14"/><polygon class="cls-13" points="142.78 166.43 140.72 167.58 142.42 168.21 142.78 166.43"/><path class="cls-13" d="M279.63,208.94H234.31a1.39,1.39,0,0,1-1.38-1.39v-1a1.39,1.39,0,0,1,1.38-1.39h45.32a1.39,1.39,0,0,1,1.39,1.39v1a1.39,1.39,0,0,1-1.39,1.39"/><g class="cls-20"><g class="cls-42"><g class="cls-43"><g class="cls-44"><rect class="cls-45" x="65.69" y="70.86" width="346.72" height="333.94" transform="translate(-95.17 193.08) rotate(-37.23)"/></g></g></g></g><g class="cls-20"><g class="cls-46"><g class="cls-47"><g class="cls-48"><rect class="cls-49" x="55.82" y="94.68" width="268.31" height="268.31" transform="translate(-99.73 161.56) rotate(-37.23)"/></g></g></g></g><line class="cls-15" x1="274.23" y1="166.39" x2="284.49" y2="166.39"/><line class="cls-15" x1="258.02" y1="166.39" x2="268.28" y2="166.39"/><line class="cls-15" x1="290.44" y1="166.39" x2="300.7" y2="166.39"/><line class="cls-15" x1="306.65" y1="166.39" x2="316.91" y2="166.39"/><line class="cls-15" x1="344.28" y1="166.39" x2="354.54" y2="166.39"/><path class="cls-15" d="M372.88,167.8H362.65a1.42,1.42,0,1,1,0-2.83h10.23a1.42,1.42,0,1,1,0,2.83Z"/><path class="cls-11" d="M464.41,338.92v8.16a3.36,3.36,0,0,1-3.36,3.36H55a3.36,3.36,0,0,1-3.36-3.36v-8.16A3.35,3.35,0,0,1,55,335.56H461.05a3.35,3.35,0,0,1,3.36,3.36"/><path class="cls-10" d="M433.83,335.56h27.22a3.35,3.35,0,0,1,3.36,3.36v8.16a3.36,3.36,0,0,1-3.36,3.36H310.58"/><path class="cls-16" d="M292.19,335.56h-1a.81.81,0,0,1,0,.31v3.86a1.27,1.27,0,0,1-1.27,1.27H224a1.27,1.27,0,0,1-1.27-1.27v-3.86a.81.81,0,0,1,.05-.31h-1a3,3,0,0,0,0,.31v3.86A2.27,2.27,0,0,0,224,342h65.94a2.27,2.27,0,0,0,2.27-2.27v-3.86a3,3,0,0,0,0-.31"/><line class="cls-10" x1="303.81" y1="350.44" x2="302.52" y2="350.44"/><path class="cls-10" d="M258,269.67s32.39-48.74,88.64-30.89c51.39,16.32,72.49,64.08,92.4,79.68,28.31,22.19,56.67,4.57,60.37-27.3"/><polyline class="cls-10" points="497.95 291.87 499.61 289.92 500.64 292.17"/></g></g></g></g></svg>