<svg xmlns="http://www.w3.org/2000/svg" xmlns:xlink="http://www.w3.org/1999/xlink" viewBox="0 0 525.54 601.94"><defs><style>.cls-1{fill:url(#Безымянный_градиент_12);}.cls-2{fill:url(#Безымянный_градиент_4);}.cls-3{fill:url(#Безымянный_градиент_12-2);}.cls-4{fill:url(#Безымянный_градиент_12-3);}.cls-5{fill:url(#Безымянный_градиент_12-4);}.cls-6{fill:url(#Безымянный_градиент_12-5);}.cls-11,.cls-12,.cls-31,.cls-33,.cls-46,.cls-48,.cls-7{fill:none;}.cls-8{clip-path:url(#clip-path);}.cls-9{fill:#33b5fe;}.cls-10{fill:#fff;}.cls-11{stroke:#33b5fe;}.cls-11,.cls-12{stroke-miterlimit:10;}.cls-12{stroke:#fff;}.cls-12,.cls-31,.cls-33,.cls-46,.cls-48{stroke-linecap:round;}.cls-13{opacity:0.7;}.cls-14{clip-path:url(#clip-path-3);}.cls-15{clip-path:url(#clip-path-4);}.cls-16{mask:url(#mask);}.cls-17{fill:url(#Безымянный_градиент_11);}.cls-18{clip-path:url(#clip-path-5);}.cls-19{clip-path:url(#clip-path-6);}.cls-20{mask:url(#mask-2);}.cls-21{fill:url(#Безымянный_градиент_3);}.cls-22{clip-path:url(#clip-path-7);}.cls-23{clip-path:url(#clip-path-8);}.cls-24{mask:url(#mask-3);}.cls-25{fill:url(#Безымянный_градиент_11-2);}.cls-26{fill:#f9987a;}.cls-27{fill:#febfa7;}.cls-28{fill:#00162d;}.cls-29{fill:#88bf0f;}.cls-30{fill:#023373;}.cls-31{stroke:#f9987a;}.cls-31,.cls-33,.cls-46,.cls-48{stroke-linejoin:round;}.cls-32{fill:#3f8c08;}.cls-33{stroke:#3f8c08;}.cls-34{clip-path:url(#clip-path-9);}.cls-35{clip-path:url(#clip-path-10);}.cls-36{mask:url(#mask-4);}.cls-37{fill:url(#Безымянный_градиент_11-3);}.cls-38{clip-path:url(#clip-path-11);}.cls-39{clip-path:url(#clip-path-12);}.cls-40{mask:url(#mask-5);}.cls-41{fill:url(#Безымянный_градиент_11-4);}.cls-42{clip-path:url(#clip-path-13);}.cls-43{clip-path:url(#clip-path-14);}.cls-44{mask:url(#mask-6);}.cls-45{fill:url(#Безымянный_градиент_11-5);}.cls-46{stroke:#00162d;}.cls-47{fill:#0476d9;}.cls-48{stroke:#023373;}.cls-49{fill:#e6e7e8;}.cls-50{fill:#fd8c01;}</style><linearGradient id="Безымянный_градиент_12" x1="31.12" y1="558.92" x2="32.12" y2="558.92" gradientTransform="matrix(406.81, 0, 0, -406.81, -12454.62, 227809.89)" gradientUnits="userSpaceOnUse"><stop offset="0"/><stop offset="0.08" stop-color="#252525"/><stop offset="0.22" stop-color="#5e5e5e"/><stop offset="0.36" stop-color="#8f8f8f"/><stop offset="0.5" stop-color="#b8b8b8"/><stop offset="0.63" stop-color="#d7d7d7"/><stop offset="0.76" stop-color="#ededed"/><stop offset="0.89" stop-color="#fafafa"/><stop offset="1" stop-color="#fff"/></linearGradient><linearGradient id="Безымянный_градиент_4" x1="31.12" y1="558.91" x2="32.12" y2="558.91" gradientTransform="matrix(394.9, 0, 0, -394.9, -12198.48, 220976.46)" gradientUnits="userSpaceOnUse"><stop offset="0"/><stop offset="0.31"/><stop offset="0.35" stop-color="#252525"/><stop offset="0.42" stop-color="#5e5e5e"/><stop offset="0.49" stop-color="#8f8f8f"/><stop offset="0.56" stop-color="#b8b8b8"/><stop offset="0.63" stop-color="#d7d7d7"/><stop offset="0.69" stop-color="#ededed"/><stop offset="0.76" stop-color="#fafafa"/><stop offset="0.81" stop-color="#fff"/><stop offset="1" stop-color="#fff"/></linearGradient><linearGradient id="Безымянный_градиент_12-2" x1="31.12" y1="558.91" x2="32.12" y2="558.91" gradientTransform="matrix(406.81, 0, 0, -406.81, -12521.53, 227707.85)" xlink:href="#Безымянный_градиент_12"/><linearGradient id="Безымянный_градиент_12-3" x1="31.12" y1="558.91" x2="32.12" y2="558.91" gradientTransform="matrix(18.51, 0, 0, -18.51, -341.02, 10591.92)" xlink:href="#Безымянный_градиент_12"/><linearGradient id="Безымянный_градиент_12-4" x1="31.12" y1="558.91" x2="32.12" y2="558.91" gradientTransform="matrix(29.16, 0, 0, -29.16, -671.53, 16523.05)" xlink:href="#Безымянный_градиент_12"/><linearGradient id="Безымянный_градиент_12-5" x1="31.12" y1="558.91" x2="32.12" y2="558.91" gradientTransform="matrix(15.85, 0, 0, -15.85, -249.84, 9079.24)" xlink:href="#Безымянный_градиент_12"/><clipPath id="clip-path"><rect class="cls-7" x="31.12" y="1.51" width="454.29" height="557.4"/></clipPath><clipPath id="clip-path-3"><rect class="cls-7" x="208.08" y="352.79" width="167.51" height="167.47"/></clipPath><clipPath id="clip-path-4"><polygon class="cls-7" points="375.59 368.41 375.59 368.42 223.79 520.21 208.08 520.26 375.55 352.79 375.59 368.41"/></clipPath><mask id="mask" x="126.43" y="271.12" width="330.82" height="330.82" maskUnits="userSpaceOnUse"><rect class="cls-1" x="174.14" y="318.84" width="235.39" height="235.39" transform="translate(-208.58 277.44) rotate(-38.6)"/></mask><linearGradient id="Безымянный_градиент_11" x1="31.12" y1="558.92" x2="32.12" y2="558.92" gradientTransform="matrix(406.81, 0, 0, -406.81, -12454.62, 227809.89)" gradientUnits="userSpaceOnUse"><stop offset="0" stop-color="#fff"/><stop offset="1" stop-color="#fff"/></linearGradient><clipPath id="clip-path-5"><rect class="cls-7" x="150.47" y="109.51" width="224.6" height="308.62"/></clipPath><clipPath id="clip-path-6"><polygon class="cls-7" points="375.07 193.83 150.78 418.12 150.67 378.63 150.47 328.08 374.8 109.51 374.86 115.56 374.85 117.57 374.99 161.74 375.01 172.05 375.03 176 375.07 193.83"/></clipPath><mask id="mask-2" x="0" y="0" width="525.54" height="527.63" maskUnits="userSpaceOnUse"><rect class="cls-2" x="78.74" y="73.16" width="368.07" height="381.31" transform="translate(-107.18 221.57) rotate(-38.6)"/></mask><linearGradient id="Безымянный_градиент_3" x1="31.12" y1="558.91" x2="32.12" y2="558.91" gradientTransform="matrix(394.9, 0, 0, -394.9, -12198.48, 220976.46)" gradientUnits="userSpaceOnUse"><stop offset="0" stop-color="#fff"/><stop offset="0.31" stop-color="#fff"/><stop offset="0.81" stop-color="#fff"/><stop offset="1" stop-color="#fff"/></linearGradient><clipPath id="clip-path-7"><rect class="cls-7" x="150.86" y="219.4" width="224.34" height="239.91"/></clipPath><clipPath id="clip-path-8"><polygon class="cls-7" points="375.2 235.01 150.9 459.31 150.86 443.69 375.15 219.4 375.2 234.83 375.2 235.01"/></clipPath><mask id="mask-3" x="33.89" y="110.02" width="458.29" height="458.67" maskUnits="userSpaceOnUse"><rect class="cls-3" x="100.53" y="175.63" width="325" height="327.46" transform="translate(-154.25 238.24) rotate(-38.6)"/></mask><linearGradient id="Безымянный_градиент_11-2" x1="31.12" y1="558.91" x2="32.12" y2="558.91" gradientTransform="matrix(406.81, 0, 0, -406.81, -12521.53, 227707.85)" xlink:href="#Безымянный_градиент_11"/><clipPath id="clip-path-9"><rect class="cls-7" x="235.13" y="241.92" width="18.51" height="5.7"/></clipPath><clipPath id="clip-path-10"><polygon class="cls-7" points="252.22 244.28 237.58 247.62 235.13 246.15 253.65 241.92 252.22 244.28"/></clipPath><mask id="mask-4" x="235.13" y="241.92" width="18.51" height="5.7" maskUnits="userSpaceOnUse"><rect class="cls-4" x="235.13" y="241.92" width="18.51" height="5.7"/></mask><linearGradient id="Безымянный_градиент_11-3" x1="31.12" y1="558.91" x2="32.12" y2="558.91" gradientTransform="matrix(18.51, 0, 0, -18.51, -341.02, 10591.92)" xlink:href="#Безымянный_градиент_11"/><clipPath id="clip-path-11"><rect class="cls-7" x="235.89" y="219.23" width="29.16" height="15.14"/></clipPath><clipPath id="clip-path-12"><path class="cls-7" d="M261.77,228.46l-25.88,5.91.51-.84,6-10,18.73-4.27,2.74,1.65c1.44.91,1.3,1.87.7,2.86Z"/></clipPath><mask id="mask-5" x="235.89" y="219.23" width="29.47" height="15.14" maskUnits="userSpaceOnUse"><rect class="cls-5" x="235.89" y="219.23" width="29.47" height="15.14"/></mask><linearGradient id="Безымянный_градиент_11-4" x1="31.12" y1="558.91" x2="32.12" y2="558.91" gradientTransform="matrix(29.16, 0, 0, -29.16, -671.53, 16523.05)" xlink:href="#Безымянный_градиент_11"/><clipPath id="clip-path-13"><rect class="cls-7" x="243.51" y="216.65" width="15.85" height="5.09"/></clipPath><clipPath id="clip-path-14"><polygon class="cls-7" points="259.36 218.13 243.51 221.75 244.93 219.39 256.92 216.65 259.36 218.13"/></clipPath><mask id="mask-6" x="243.51" y="216.65" width="15.85" height="5.09" maskUnits="userSpaceOnUse"><rect class="cls-6" x="243.51" y="216.65" width="15.85" height="5.09"/></mask><linearGradient id="Безымянный_градиент_11-5" x1="31.12" y1="558.91" x2="32.12" y2="558.91" gradientTransform="matrix(15.85, 0, 0, -15.85, -249.84, 9079.24)" xlink:href="#Безымянный_градиент_11"/></defs><title>Ресурс 1</title><g id="Слой_2" data-name="Слой 2"><g id="Слой_1-2" data-name="Слой 1"><g class="cls-8"><g class="cls-8"><path class="cls-9" d="M447.15,159.19l29.33,44.22a53.57,53.57,0,0,1-14.6,74L204,452a53.57,53.57,0,0,1-67.18-5.76L47.54,360.26a53.56,53.56,0,0,1-.76-76.43l8.51-8.52A53.59,53.59,0,0,0,70.58,231.2l-2.23-18.91A53.56,53.56,0,0,1,137.77,155l123.55,39.28a53.57,53.57,0,0,0,45.88-6.43l65.68-43.64a53.55,53.55,0,0,1,74.27,15"/><path class="cls-10" d="M381.69,503.53a22.34,22.34,0,0,1-22.33,22.36l-44.84.08-35.35.09-72.19.2-39.35.07a22.33,22.33,0,0,1-22.41-22.26l-.08-40.54L145,397.74l-.09-34-.18-59.23-.16-57.31-.09-34.51-.14-43-.16-144.8A22.34,22.34,0,0,1,166.47,2.59l42.88-.07,26.28-.1L271,2.33l11,0,34.82-.11,41.38-.08a22.34,22.34,0,0,1,22.41,22.26l.18,156.13.09,34L381,228.4l.05,11.41.22,78.07v0l.09,34.51.1,32Z"/><path class="cls-11" d="M381.69,503.41a22.33,22.33,0,0,1-22.33,22.36l-44.84.08-35.35.09-72.19.2-39.35.08A22.34,22.34,0,0,1,145.22,504l-.08-40.53L145,397.63l-.09-34-.18-59.23-.16-57.3-.09-34.52-.14-43-.16-144.79A22.35,22.35,0,0,1,166.47,2.47l42.88-.07,26.28-.09L271,2.22l11,0,34.82-.11L358.22,2a22.33,22.33,0,0,1,22.41,22.25l.18,156.14.09,34,.05,13.89L381,239.7l.22,78.07v0l.09,34.52.1,32Z"/><path class="cls-9" d="M152.37,510.35a16.47,16.47,0,0,0,15.19,10l59.25-.17h5.35l27.28-.09,5.87,0h.52l93.72-.27A16.47,16.47,0,0,0,376,503.3v-6.85l-.07-22.81,0-12.54L375.81,444l0-9.47-.59-199.65-.12-36.57L375,176l0-3.95,0-10.32-.14-44.16v-2l-.06-91.29A16.47,16.47,0,0,0,358.28,7.84L320.17,8H320a7.58,7.58,0,0,0-1.86.24l-.64.2a7.44,7.44,0,0,0-1.18.55,7.54,7.54,0,0,0-3.85,6.6,16.58,16.58,0,0,1-1.32,6.52,17.82,17.82,0,0,1-1,2A15.46,15.46,0,0,1,308.79,26a16.46,16.46,0,0,1-12.72,6.06l-70,.22a16.49,16.49,0,0,1-16.52-16.43A7.54,7.54,0,0,0,202,8.31l-35.68.1a17.09,17.09,0,0,0-1.75.09,16.4,16.4,0,0,0-14.27,12.84,15.26,15.26,0,0,0-.4,3.59l.07,98.88.06,18.57.07,24.23,0,10,0,7a.12.12,0,0,1,0,.08v5.44l.06,18.65,0,8,0,13.28,0,6.09v3l.12,40.88v0l.08,29v0l.19,70.46.26,91.12v6.59l.07,24.83V504a16.28,16.28,0,0,0,1.33,6.4"/><path class="cls-10" d="M222,496.07H303.8a1.39,1.39,0,1,0,0-2.77H222a1.39,1.39,0,1,0,0,2.77"/><path class="cls-10" d="M170.29,17.38h9.1a3.3,3.3,0,1,1,0,6.59h-9.1a3.3,3.3,0,1,1,0-6.59"/><path class="cls-10" d="M343.46,17.38h9.11a3.3,3.3,0,0,1,0,6.59h-9.11a3.3,3.3,0,1,1,0-6.59"/><path class="cls-11" d="M246.13,13.85h33.58a3.3,3.3,0,1,1,0,6.6H246.13a3.3,3.3,0,1,1,0-6.6Z"/><path class="cls-10" d="M196.7,20.68a3.52,3.52,0,1,1-3.52-3.53,3.52,3.52,0,0,1,3.52,3.53"/><path class="cls-10" d="M335,20.68a3.53,3.53,0,1,1-3.52-3.53A3.53,3.53,0,0,1,335,20.68"/><path class="cls-11" d="M232.55,17.15A3.53,3.53,0,1,1,229,13.63,3.53,3.53,0,0,1,232.55,17.15Z"/><line class="cls-12" x1="222.27" y1="303.95" x2="303.56" y2="303.95"/><line class="cls-12" x1="222.27" y1="323.97" x2="303.56" y2="323.97"/><line class="cls-12" x1="222.27" y1="344" x2="303.56" y2="344"/><line class="cls-12" x1="222.27" y1="364.03" x2="303.56" y2="364.03"/><rect class="cls-12" x="221.03" y="396.3" width="81.29" height="23.06" rx="5.86"/><g class="cls-13"><g class="cls-14"><g class="cls-15"><g class="cls-16"><rect class="cls-17" x="174.14" y="318.84" width="235.39" height="235.39" transform="translate(-208.58 277.44) rotate(-38.6)"/></g></g></g></g><g class="cls-13"><g class="cls-18"><g class="cls-19"><g class="cls-20"><rect class="cls-21" x="78.74" y="73.16" width="368.07" height="381.31" transform="translate(-107.18 221.57) rotate(-38.6)"/></g></g></g></g><g class="cls-13"><g class="cls-22"><g class="cls-23"><g class="cls-24"><rect class="cls-25" x="100.53" y="175.63" width="325" height="327.46" transform="translate(-154.25 238.24) rotate(-38.6)"/></g></g></g></g><path class="cls-26" d="M249.75,245.9s5.1-1,5.82-2.37-3.92-2.4-3.92-2.4-4.68,4.8-1.9,4.77"/><path class="cls-27" d="M265.7,230.47a68.86,68.86,0,0,1-6.58,3.52c-.45.21-.9.39-1.32.55a10.11,10.11,0,0,1-1.7.51c-2.82.5-.23-6.8,1.89-7.31l1.13-.28c1.62-.43,2.88-.84,2.88-.84a12.59,12.59,0,0,1,1.54-.58c1.15-.36,2.63-.61,3.27.15a3.36,3.36,0,0,1-1.11,4.28"/><path class="cls-26" d="M263.54,226l-4.42,8c-.45.21-.9.39-1.32.55l-1.41-1.48,2.73-5.6c1.62-.43,2.88-.84,2.88-.84a12.59,12.59,0,0,1,1.54-.58"/><path class="cls-28" d="M152.85,551.75s-1.42-.17-1.62.78a6.67,6.67,0,0,0,0,2.12s5.27,2,15.88,2.19c7.74.12,11.33-.31,12.73-.64.46-.11,1.1-.32,1.1-.32l10.34-19.94-.36,7.94,1.35,0s2.7-14.72.65-18.91-39.44,25.08-40.07,26.74"/><path class="cls-29" d="M147.15,493.79s-22.27.79-28.27,0c-5.22-4.78-6.63-27.37-6.63-27.37l-.55,29.45h-2S108,460.69,108,454.09a7.3,7.3,0,0,1,.86-3.41c2.26-4.3,8.18-6.4,8.18-6.4,3.16-.29,8.81,3.09,8.81,3.09L134.88,471a22.29,22.29,0,0,0,.19,7.1c.73,3.76,6.73,7.5,9.73,9.45s2.35,6.23,2.35,6.23"/><path class="cls-30" d="M83.61,227.47s-1.77-11.09,3.74-19.69,13.28-14.11,26.32-14.37c10.07,0,31.7,3.38,34.93-3.86s-2.1-12.08-3.65-20.85c-2-11.48,7.43-14.87,21.27-18.1s35.49-9,38.56-3-7,11.88-7.4,15.73,1.26,5.74,6.21,7.48,25.73,10.38,21.48,22.26-19,20.53-19,20.53L151.43,313.2s-20.1,7.42-37-10.12-31-58.11-31-58.11Z"/><path class="cls-27" d="M244.19,251.53a5.2,5.2,0,0,0-1.65.16,15.88,15.88,0,0,0-2,.56c-1,.35-6.45,4.39-12.91,9.26h0c-9.85,7.44-22,16.82-24.18,18a5.55,5.55,0,0,1-6.36-.63l0,0s-.08,1.1-.19,2.92q0,.57-.06,1.23c-.34,6.41-.72,18.7.74,25.44,2.05,9.4,6.22,64.49,5,75.85s-12.42,22.31-12.42,22.31,0,10.45.67,26.68,3.86,64.11,3.86,64.11l-.18.16L192,499.86s.27,5.09.51,10.84c.1,2.18.19,4.45.25,6.57.09,2.65.15,5.07.15,6.79,0,6.78-8.67,21.67-13,28.6-9.31,3-23.5.28-27.07-.91,0-5.53,2.59-9,5.81-10.7s9.3-6.92,11.68-12.45c1.12-2.61,1.41-8,1.4-13,0-3.35-.15-6.48-.27-8.45-.07-1.29-.13-2.07-.13-2.07a9.46,9.46,0,0,1-1.08-.27,8.39,8.39,0,0,1-2.26-1S153.83,446.69,152.21,430s.84-63.49,2.18-70.87,16.42-56.37,16.28-62.65c-.1-4.38-4.88-14.49-.7-19.87,1-1.29-7.19-5.33-9.09-6.62a13.45,13.45,0,0,0-1.3-.6l-.06-.12-.46-25.15-26.76,9.63s9.34,17.14,9.2,17.38c-1.71,2.93-13.55,23-19.88,27.07-6.83,4.42-13.2-3.9-21-11.13s-35.35-39.49-37.36-42.19-2.87-2.41-5.51-5c-1.87-1.83-.71-4,.12-5a1,1,0,0,1,1.34-.18l5.73,4.2c-.37-.47-6.36-8.1-6.15-10.55S62.18,226,62.18,226s-.17-.21-1.49-2.14,1.49-5.27,3.54-3.43c1,.9,9.6,9.25,9.6,9.25s-2.61-7.64-3.14-9.75-.17-3.52,2-4c2.38-.5,4.11,4.32,5.79,7.56-.22-1.25,1.25-2.92,2.89-.75s6.25,6.22,7.74,7.61,2.22,11.24,2.47,12.21,2.07,2.89,7.92,6.64S115,261.43,115,261.43s.67-1.88,1.76-4.9l1.21-3.31c4.52-12.36,33.28-10.25,36.54-14.09,4.56-5.37,35.41-13.4,37.61-14.18S175,201.87,175.55,200.48c.39-1-4.17-6.16-3.94-6.12l.11,0h0l.81-14.91s-1.19,2.35-5.16-1.16-1.93-8.67,1.08-8.75,4-.69,9.4-4.08,12.29-10.94,12.29-10.94,2.39,2.39,2.85,4.27c.86,3.74.87,18.44-1.46,25.31-2.3,6.23-4.6,5.42-5.19,5.22l-.13-.05-.19,6-2.79,11.13,5.6.74s9.79-2.2,11.87-.36c3.74,3.55,1.77,2.73,2.07,5s11,34.07,11,34.07h0c.16-.11,1.52-1.09,6.68-4.35,5.51-3.48,7-5.54,8.72-8.68s1.18-4.27,5-5.86c2.3-.7,2.11-5.83,2.95-6.52s1.41,0,3.23,2.74a7.84,7.84,0,0,1,.79,4.09c0,.43-.07.83-.12,1.22a26.9,26.9,0,0,1-1.21,5.3v0a36.53,36.53,0,0,1-4.53,9.57c-.1.14-.17.25-.22.31a.18.18,0,0,0-.05.07l0,0-.37,1.81Z"/><path class="cls-26" d="M186.23,189.31l-.18,6L184,199.18s1.09-8.67,1-8.67-5,1.4-7.78-4.7a14.74,14.74,0,0,1-1.18-4.25c3.25,3.55,7.07,6.58,10.19,7.75"/><path class="cls-31" d="M215.42,257c-1.46-6.84-1.65-8.15-2.23-11.44"/><path class="cls-26" d="M192,499.86s.27,5.09.51,10.84c-8.32.87-17.9-2.37-21.05-3.55-.07-1.29-.13-2.07-.13-2.07a9.46,9.46,0,0,1-1.08-.27c.78-8.59,21.74-9,21.74-9s1.08.69,2.49,1.77Z"/><path class="cls-29" d="M213.77,245.9c-1.53,1.62-13.4,8.46-13.62,8.46l-3.05,24.53,0,0s-.08,1.1-.19,2.92q0,.57-.06,1.23L182,288.27l-22.43-18.85L151.8,254a.11.11,0,0,0,0,0l-2.11,3.51-8,13.24-.21.36c-15.33-.7-21.58-12.79-23.55-17.94,4.52-12.36,13-34.73,16.24-38.57,2.43-2.86,11.14-6,19.08-8.34l.49-.15,1.16-.34c6.3-1.85,11.79-3.19,12.74-3.53,2.2-.77,2.31-5.5,2.85-6.89,0-.1.07-.18.11-.26s.07-.14.11-.2c.28-.48.58-.59.77-.59h.11l.11,0h0l.07,0c1.8.49,14.23.93,14.23.93l-.09,3,0,.52v.5H186s14.42-2.8,16.79-2.51c3.33.41,3.14,1.55,4.5,10.08.35,2.22,6.48,39,6.48,39"/><path class="cls-26" d="M181.85,178.28a6.39,6.39,0,0,0,5.47,3.52c.93,0,2.92-2,2.92-3.17a1.37,1.37,0,0,0-1.76-1.49,2.3,2.3,0,0,0-1.14,1.09,1,1,0,0,0-1.11-1.16c-1.21,0-1.76,1.69-2.56,1.69a5.28,5.28,0,0,1-1.82-.48"/><path class="cls-28" d="M190.14,406.62s.07,12.16.67,26.68c.67,16.23,3.86,64.11,3.86,64.11L192,499.86s-6,6.56-20.67,5.22a9.09,9.09,0,0,1-3.34-1.31S153.83,446.69,152.21,430s.84-63.49,2.18-70.87-8.73-60.28-8.87-66.56,14.06-23.18,14.06-23.18c.36.19,13.27,12.37,37.31,12.37-.34,5.93-.88,19.47.68,26.67,2.05,9.4,6.22,64.49,5,75.85-1,9.46-9,18.64-11.58,21.44-.53.56-.84.87-.84.87"/><path class="cls-30" d="M190.59,316.73c-.09,7.36-.33,41.52-.12,47.77,0,12,.61,34,.51,41.25-.53.56-.84.87-.84.87s-.55-27.66-.55-41.26c-.21-6.26-.09-41.28,0-48.65a3.47,3.47,0,0,1,.62-1.94l4.08-6a.5.5,0,0,1,.7-.13.51.51,0,0,1,.13.69l-4.09,6a2.52,2.52,0,0,0-.44,1.4"/><path class="cls-30" d="M194.93,289a.49.49,0,0,1-.46.3.65.65,0,0,1-.19,0C170.43,278.89,159,270.11,159,270.11l.57-.69S171,278,194.67,288.37a.49.49,0,0,1,.26.66"/><path class="cls-28" d="M155.9,450.25l-.2.15-.68.47c-7.29,5.17-18.58,15.47-20.14,20.14-15.2-9.54-17.88-26.73-17.88-26.73s2-.8,7-4.76c7.72-5.89,10.2-12.2,16.07-20a129.06,129.06,0,0,1,10.46-11.95c.34-.35.66-.66,1-1,2.34-2.28,3.72-3.38,3.72-3.38s7.57,41.41.67,47.05"/><path class="cls-30" d="M155.9,450.25l-.2.15-.68.47a184.07,184.07,0,0,1-4.25-31.61,2.9,2.9,0,0,1,.9-2.27h0a193.27,193.27,0,0,0,4.23,33.27"/><path class="cls-32" d="M151.8,254a.11.11,0,0,0,0,0l-2.11,3.51-1.38-12.29Z"/><path class="cls-32" d="M173.49,253.34s1.5,1.71,10.15-7c.71,4.65-2.93,9.39-6.46,9.87-4.38.27-3.69-2.87-3.69-2.87"/><path class="cls-32" d="M200.15,254.36l.56-8.46s6.1-5.73,6.29-9.52c.07.94,1.05.08.92,1.22-.7,4.22-4,10.53-4,14.66,0,5.11-3.89,4-3.77,2.1"/><path class="cls-26" d="M227.64,261.52c-9.85,7.44-22,16.82-24.18,18a5.55,5.55,0,0,1-6.36-.63l0,0s2.07-17.82,3.07-24.51a147.37,147.37,0,0,0,13.62-8.46c-2.26,3.37-4.83,5.57-8,13,3.42,11.52,0,17.05,0,17.05Z"/><path class="cls-33" d="M196.35,219.7c3.74,3.79,11.94,10.34,11.08,17.78"/><path class="cls-26" d="M119.35,272.14A15.63,15.63,0,0,0,115,261.43l2.52-7c.72,2.44,2.5,13.6,1.85,17.67"/><path class="cls-26" d="M78.51,223.5s-.17,3.39,1.56,5.12a3.52,3.52,0,0,1,.45,4.76c-.8,1-2.11,4.12-1,9.1.23-5.37.41-5.7,2.15-9.19.75-1.52.5-2.78-.67-4.31s-2.54-2.39-2.44-5.48"/><path class="cls-32" d="M171.62,194.37l-.12,0c-.25,0-.57.13-.88.79,0,.08-.07.16-.11.26l15.42,4,2.92-.3Z"/><path class="cls-32" d="M166.5,226.9s-6.53-.63-11-10.09c-3.19-7.62.49-11.31.49-11.31l-1.54.45s-3.37,3.49-.54,12.28,8.88,13,13.17,13,11.35-22.53,12.37-26c2.34,3.82,7.82,12.46,12.67,12.46s4.43-14.36-3.31-18.55l-2.93.3a9.84,9.84,0,0,1,6.24,5.36c2.23,4.53,2.09,9.1-.87,9.1s-12.08-12.54-12.08-12.54-6.87,26.59-12.71,25.62"/><path class="cls-32" d="M186,195.35l-.09,3,0,.52-14.49-4,.37-.42c1.8.49,14.23.93,14.23.93"/><path class="cls-26" d="M168.93,170.83a22.56,22.56,0,0,0,1.91,3c1,1.22,1,1.26,1,1.91,0,.3-.43.76-2.52-1.32s-1.18-4.7-.37-3.56"/><path class="cls-26" d="M62.18,226s7.25,10.33,7.94,9.29a2,2,0,0,0,.45-1.67S63.82,227,62.18,226"/><path class="cls-28" d="M118.88,493.79l1.74,2.08H148.9c.57,0,.46-2.05,0-2.08H119c-.1,0-.15-.07-.08,0"/><path class="cls-28" d="M112.25,466.42l-.55,29.45h-2S108,460.69,108,454.09a7.3,7.3,0,0,1,.86-3.41c.77,3.39,3.41,15,3.43,15.74"/><path class="cls-29" d="M192.92,524.06a18.29,18.29,0,0,1-.58,4.79c-2.2,7.63-8.86,18.54-12.42,24.23-7.62,2.46-18.55.91-24.21-.43a11.11,11.11,0,0,1-2.86-.9c0-5.53,2.59-9,5.81-10.7s8.32-8.6,10.7-14.13a28,28,0,0,0,2.35-9.94,4.14,4.14,0,0,1,1.28-2.8c3.76-3.58,10.55-4.82,15.36,3.33,1.27,2.08,3,3,4.42-.24.09,2.65.15,5.07.15,6.79"/><path class="cls-33" d="M199.29,217.61a10.67,10.67,0,0,1-1.28,3.71"/><path class="cls-26" d="M244.19,251.53a5.2,5.2,0,0,0-1.65.16l-8-4.48-1.72,1.6,1.36-9.47c2.7-1.55,6.06-7.17,6.89-10.81a26.9,26.9,0,0,1-1.21,5.3v0a36.53,36.53,0,0,1-4.53,9.57c-.1.14-.17.25-.22.31a.23.23,0,0,0-.05.07l0,0-.37,1.81Z"/><path class="cls-28" d="M247.91,251.43a1.85,1.85,0,0,1-2.85.7l-7.48-4.51-2.45-1.47-2.87-1.74a2.08,2.08,0,0,1-.71-2.85l4.85-8,6-10,1.06-1.75,1.42-2.36,3.33-5.52a1.86,1.86,0,0,1,2.86-.71l5.79,3.49,2.45,1.48,1.82,1.1,2.74,1.65a1.83,1.83,0,0,1,.7,2.86l-2.85,4.72-8.12,13.46-1.43,2.36Z"/><path class="cls-9" d="M247,251.26a1.32,1.32,0,0,1-1.45.07L241.6,249l-.21-.12-.15-.09h0l-1.85-1.12-.4-.24,0,0-6.21-3.69a1.31,1.31,0,0,1-.44-1.8l0,0,.26-.42.93-1.55L234,239l.7-1.16.39-.65,8.21-13.59,1.5-2.49.91-1.52.17-.27.42-.7,1.82-3,.08-.14.74-1.23a1.31,1.31,0,0,1,1.8-.44l2.42,1.41h0l.12.09,0,0a.24.24,0,0,1,.06.09.6.6,0,0,1,0,.61,1.21,1.21,0,0,0-.18.5,1,1,0,0,0,0,.17,1.15,1.15,0,0,0,0,.19,1.21,1.21,0,0,0,.22.55,1.24,1.24,0,0,0,.4.39l4.77,2.87a1.28,1.28,0,0,0,1.32,0,1.32,1.32,0,0,0,.48-.46.52.52,0,0,1,.17-.19.61.61,0,0,1,.65,0l2.33,1.38.12.08a1.31,1.31,0,0,1,.45,1.46,1.51,1.51,0,0,1-.12.26L263,225l-.76,1.26-1,1.65-.41.68-.29.48h0l-.22.37-.77,1.27-.33.54-.55.91-.25.41-.12.21-1.68,2.78h0l-1.19,2h0l-2.9,4.8-3.74,6.2-.08.13h0l-.19.32-1,1.69-.12.19a1.16,1.16,0,0,1-.35.38"/><g class="cls-13"><g class="cls-34"><g class="cls-35"><g class="cls-36"><rect class="cls-37" x="235.13" y="241.92" width="18.51" height="5.7"/></g></g></g></g><g class="cls-13"><g class="cls-38"><g class="cls-39"><g class="cls-40"><rect class="cls-41" x="235.89" y="219.23" width="29.47" height="15.14"/></g></g></g></g><path class="cls-10" d="M254.91,216.88a.21.21,0,0,1-.3.06.22.22,0,0,1-.06-.29.21.21,0,0,1,.29-.07.22.22,0,0,1,.07.3"/><g class="cls-13"><g class="cls-42"><g class="cls-43"><g class="cls-44"><rect class="cls-45" x="243.51" y="216.65" width="15.85" height="5.09"/></g></g></g></g><path class="cls-27" d="M247.57,238.41a1.92,1.92,0,0,0,.33,2.14c.66.72,3.79,3.46,5.9,3.59a1.79,1.79,0,0,0,1.51-3.12c-.82-.69-2.89-2.93-5.89-3.39a1.72,1.72,0,0,0-1.85.78"/><path class="cls-27" d="M247.73,232.26a2.32,2.32,0,0,0,.17,2.5c.52.83,4.41,4.62,6.47,5.11s3-1,2.32-2.43a14.27,14.27,0,0,0-6.55-5.55c-1.23-.36-2-.26-2.41.37"/><path class="cls-27" d="M253,228.12a1.83,1.83,0,0,0-.73,2.08c.22,1,2.07,5.07,3.85,6.21a1.9,1.9,0,0,0,2.85-1.77c-.19-1.55-1.41-3.93-3.46-6.27a2,2,0,0,0-2.51-.25"/><path class="cls-30" d="M190.57,323.66l.13-7.62s-.09,3-.13,7.62"/><path class="cls-30" d="M194.52,367.85c-3.79-11.47-4-31.45-4-44.19L190,337V360.9l1,44.85c7.89-12.65,7.88-24.79,3.54-37.9"/><path class="cls-46" d="M195.33,149.45s-11.77,13-20.08,17.69"/><path class="cls-46" d="M201.92,156.83s4.68-4.81,2.85-9.21-11.89-2.94-21-1-24.67,5.79-24.67,5.79"/><line class="cls-46" x1="155.95" y1="153.47" x2="155.44" y2="153.65"/><path class="cls-46" d="M115,299s4.85,3,10.58-4.37"/><path class="cls-46" d="M75.6,259.43s20.15,23.93,32.08,34.43"/><line class="cls-46" x1="109.13" y1="295.16" x2="109.79" y2="295.72"/><path class="cls-30" d="M341,480.1c-2.84,0-5.32-2.47-6.75-4.9-1.06-1.8-1.8-4.07-1.07-5.08a1.24,1.24,0,0,1,1.38-.44c3.42.74,7.6,8.33,7.78,8.66l-.88.48c-1.14-2.09-4.64-7.63-7.11-8.16-.28-.07-.34,0-.36,0-.28.39-.05,2,1.12,4,1.37,2.32,3.74,4.68,6.34,4.38l.12,1a3.64,3.64,0,0,1-.57,0"/><path class="cls-47" d="M386.05,496s-2.68.1-7,0c-.88,0-61.72,0-61.72,0a26.41,26.41,0,0,1,1.76-7.22c1.72-4.9,8.38-5.55,15.33-5.55s10.21-12.88,10.21-12.88l2.42,3.76s21.71-.3,32.1.18c1.42.07,2.64.15,3.55.24a6.54,6.54,0,0,1,1.74.34c2.44,1.24,3,5,3,7.91s-1.41,13.06-1.47,13.22"/><path class="cls-47" d="M405.88,558.91H365c-8.12,0-31-23.49-31-23.49,0-4.37-1-16.08,1.83-19.58l.42-.52a28.61,28.61,0,0,0,3.72-6.09S373.4,529,375.24,533.79a4.44,4.44,0,0,0,.24.49,6,6,0,0,0,2.49,2.53h0a4.87,4.87,0,0,0,1.34.54,6,6,0,0,1,.61-.18l.07,0a24.92,24.92,0,0,1,12.9.33c6.92,2.13,12.33,16.15,13.79,20.28a.86.86,0,0,1-.81,1.15"/><path class="cls-30" d="M382.74,474.56,379.09,496c-.88,0-1.83,0-2.85,0l-2.4-13.14,5.35-8.57c1.42.07,2.64.15,3.55.24"/><path class="cls-30" d="M375.48,534.28c-2.1.63-8.38,2.44-15.09,4.08-8.24,2-13.24,1.17-19.53-6.29a21.27,21.27,0,0,1-4.65-12.31,11.51,11.51,0,0,1,1.83-7,25.3,25.3,0,0,0,1.93-3.55S373.4,529,375.24,533.79a4.44,4.44,0,0,0,.24.49"/><path class="cls-28" d="M374.14,285s-20.22,2.38-26.55,4.33-8.52,3-11.6,12.1-14.05,45.45-13.32,57.71S344.07,467,344.07,467l-5.13,46.68a13.66,13.66,0,0,0,3.36,10.62c5,5.54,15.15,12.75,32.94,9.5-2-6.81-1.54-8.19,1.06-29.54s19.3-159,21.12-184.42.1-30-6.76-35.95c-6.21-1.09-16.52,1.13-16.52,1.13"/><path class="cls-30" d="M346.88,304l4.77,5.67L344.07,467V435.7s-11.34-29.53-8.63-66.3a24.56,24.56,0,0,0-3.38,6.55c-.4-4.76,1.72-12.82,4.66-19.63,5.87-13.59,12.61-16.51,13.23-45.92.16-1.7-3.07-6.45-3.07-6.45"/><line class="cls-48" x1="369.45" y1="291.54" x2="391.73" y2="306.34"/><path class="cls-30" d="M368.2,543.82a.54.54,0,0,1-.21-.05.51.51,0,0,1-.25-.66c.12-.25,2.4-5.15,5.57-7.85a62.46,62.46,0,0,1-6.83,1.14c-.55.72-2.67,3.53-3.07,5a.5.5,0,0,1-1-.26c.51-1.86,3.26-5.36,3.38-5.51a.5.5,0,0,1,.36-.19,67.26,67.26,0,0,0,9-1.58c1.92-3,5.49-7.41,7.32-7,.29.07.81.32.92,1.26.15,3.91-2.35,4.8-5.25,5.83-.78.28-1.58.56-2.42.93-3.83,1.66-7.06,8.59-7.09,8.65a.49.49,0,0,1-.45.3m14-16c-.84,0-3.29,2.34-5.54,5.61l1.19-.43c2.93-1,4.7-1.67,4.58-4.82,0-.18-.08-.34-.15-.35h-.08"/><path class="cls-30" d="M379.93,537.17a18.59,18.59,0,0,0-6.35,3.39.55.55,0,0,1-.34.13.54.54,0,0,1-.37-.16.51.51,0,0,1,0-.71,18.43,18.43,0,0,1,5.07-3h0a4.87,4.87,0,0,0,1.34.54,6,6,0,0,1,.61-.18"/><polygon class="cls-28" points="379.56 475.3 385.54 475.71 381.07 463.63 379.56 475.3"/><path class="cls-27" d="M292,205.3l-1.37,1.18-12,10.31s-4.21-9.38-7.8-11.94c-3-2.15-16.19-2-20.29-1.92a1.24,1.24,0,0,1-1.1-1.55c.81-4.58,5.29-3.67,8.22-3.67l9.24-.14c0-2.87,2.06-3.15,4.76-3.15a14.88,14.88,0,0,0,1.57-.1c.72-.07,1.5-.18,2.31-.29a46.2,46.2,0,0,1,5.36-.63c.32,0,.62,0,.88,0a.2.2,0,0,1,.11,0,9.16,9.16,0,0,1,2.3.39h0l.58.21c2.43,1,3.13,3.13,4,5.4.08.24.17.48.26.72a16.72,16.72,0,0,0,3,5.18"/><path class="cls-26" d="M292,205.3l-1.37,1.18c-1.26-2.47-5.36-8.91-13.93-8.91h-9.82c3.13,0,5.19-1.16,6.33-3.25.72-.07,1.5-.18,2.31-.29a46.2,46.2,0,0,1,5.36-.63c.08,0,.46,0,1,0a9.16,9.16,0,0,1,2.3.39h0l.58.21c2.43,1,3.13,3.13,4,5.4.08.24.17.48.26.72a16.72,16.72,0,0,0,3,5.18"/><path class="cls-10" d="M438.67,224c-2-7.6-6.68-22.36-17.19-28.2-9.48-5.28-35.4-12.19-41-13.74l-.91-.27s0-.06,0-.16c0-1.44-.6-11.74-.6-11.74s.18-3.8-4.12-3.24-11,2.49-13.91,7.05a29.17,29.17,0,0,0-2.61,5s0,0,0,0a10.33,10.33,0,0,0-.66,2s-.33-.14-.93-.34c-2.59-.85-10.15-2.64-16.61,2.51-7.93,6.34-27.71,31.45-32.12,39.17l-5.69-6.52-.76-.87-8.39-9.62s-8.81-3-15.82,11.12c0,0,3.7,6.93,7.89,14.58l.61,1.11c4,7.29,8.29,15,10.18,17.78,4,6,5.59,8,14.59,6.47a55.18,55.18,0,0,0,11.25-3.52,95,95,0,0,0,8.77-4.19s1.09,19.34,1.71,23,2,4.7,4.76,6.26a36.56,36.56,0,0,1,5.46,3.52,5.07,5.07,0,0,1,1.52,1.85c.08.2.16.43.25.69.7,2.14,1.59,6.09,1.59,6.09l28.18-4.34,4.22-5.9,10.7-2.87,1.7-.45s2.37-1.3,6-3.39c4-2.25,9.44-5.41,15.07-8.82l.86-.52c9.28-5.63,18.78-11.82,22.44-15.61,7.63-7.49,5.48-16.34,3.52-24m-32.84,13.46-.42.47-1.21,1.28-.4-1-1.34-2.87,3.49-5.85s2,2.66,3.34,4.57a42.79,42.79,0,0,0-3.46,3.44"/><path class="cls-29" d="M395,274l-9.48,5.48a1.08,1.08,0,0,1-1.47-.4l-16.72-29-8.47-14.67-1.9-3.29a1.08,1.08,0,0,1,.39-1.47L390,211.33a1.07,1.07,0,0,1,1.47.39l12.81,27.48c-.18.18-.08-.31-.69.31,0,.05,0,.46-.07.52s-.22.21-.34.34l-.8.8-1.17,1.18c-2.41,2.42-5.17,5.22-6,6.13-1.57,1.72-6.91,7.89-6.91,7.89l8.49,16.54.5-.3.17-.1.51-.3.41-.24,1.94-1.15.7-.41.07,0,.7-.42,7.13-4.23.48-.28C411.77,264,395,274,395,274"/><path class="cls-28" d="M350.74,145a35.23,35.23,0,0,0,9.3-2.35c5-2.27,11.25,9.14,11.25,9.14l3,.82,3.13-6.44v-5.38a3.45,3.45,0,0,0-1.55-2.88c-3.63-2.39-10.69-6.85-14.43-9.21a8.82,8.82,0,0,0-6-1.33c-5.06.74-6.23,4.7-6.09,8.09,0,8.74,1.34,9.54,1.34,9.54"/><path class="cls-32" d="M397.48,276.15,395,274l-27.67-23.89-8.47-14.67,30.34-20.29a.82.82,0,0,1,1.18.29l13.28,24.4c-2.48,2.49-7.32,7.36-8.47,8.62-1.57,1.72-6.91,7.89-6.91,7.89l8.49,16.54Z"/><path class="cls-29" d="M418,267.79l-35.63,23.37a1.07,1.07,0,0,1-1.49-.31l-29.72-45.32a1.08,1.08,0,0,1,.31-1.49l35.64-23.36a1.08,1.08,0,0,1,1.49.3l13.45,20.52c-2.57,2.57-5.92,6-6.85,7-1.57,1.72-6.91,7.89-6.91,7.89l8.49,16.54s13-7.68,18.62-11.05l2.91,4.44a1.07,1.07,0,0,1-.31,1.49"/><path class="cls-49" d="M396.78,272.91c-3.66,2.09-6,3.39-6,3.39l-1.7.45-2.53-18.36,2.1-2.92a21.37,21.37,0,0,1,8.16,17.44"/><path class="cls-49" d="M369.28,279.72l-24.92,4c-.09-.26-.17-.49-.25-.69a5.07,5.07,0,0,0-1.52-1.85c4-.5,25.66-3.11,25.66-3.11Z"/><path class="cls-32" d="M403.82,238.22l.45,1-16.88,18.57a.49.49,0,0,1-.37.16.5.5,0,0,1-.37-.84Z"/><path class="cls-27" d="M380.27,151.75c-1.46,4.51-4.88,3.38-4.88,3.38v15.45c0,2.72-12.13,10.82-12.13,10.82V170h0a6.49,6.49,0,0,1-6.08-3.11c-2.29-3.66-2.14-23-2.14-23a50.37,50.37,0,0,0,10.34-5.15c0,4.21,7.77,12.29,7.77,12.29a37,37,0,0,1,3.72-5.19c1.37-1.31,4.9,1.44,3.44,5.95"/><path class="cls-27" d="M392.31,273.74c-.25,3.26-12.51,11-15.25,12.54-2.24,1.24-3.58.33-4.57-1.09-.12-.18-.25-.36-.36-.55s-.18-.3-.26-.45a3.29,3.29,0,0,1-2.21-1.57l-.18-.22-.23-.3-.15-.2-.33-.44h0c-.94-.32-1.79-.8-2.68-2.69h0c-.15-.31-.3-.65-.45-1s-.2-.52-.3-.81a13.76,13.76,0,0,1-1.86-1,5.15,5.15,0,0,1-.56-.43c-1.3-1.15-1.69-2.93-1.09-5.16-4.18,1.13-6.36-3.49-4.11-5.62s8.18-10.27,12.9-13,8.53,1,10.86,2.93a16.87,16.87,0,0,0,5.56,2.87c2.39.91,5.54,13,5.29,16.31"/><path class="cls-26" d="M373.23,163.18s-1.17,8.84-10,11.81v-5s5.16-.12,10-6.79"/><path class="cls-26" d="M361.81,270.27s.16-1.12,3.09-3.54c3.19-2.64,7.26-6.31,7.58-7.52a5,5,0,0,1,1.19-2.56,64.16,64.16,0,0,0-8.58,6.47c-2.57,2.34-3.74,4.75-3.28,7.15"/><path class="cls-26" d="M377.23,281.52c-.14.2-.93,2.89-5.1,3.12-.09-.15-.18-.3-.26-.45a13.7,13.7,0,0,0,5.36-2.67"/><path class="cls-26" d="M372.06,273.14c-.7,1.15-4.14,3.69-6.74,3.76a13.76,13.76,0,0,1-1.86-1,7.36,7.36,0,0,0,4.8-.55,14.82,14.82,0,0,0,3.8-2.17"/><path class="cls-26" d="M375.39,278.51a11.69,11.69,0,0,1-6.14,3.59l-.15-.2-.33-.44a15.52,15.52,0,0,0,6.62-2.95"/><line class="cls-31" x1="378.22" y1="148.63" x2="375" y2="152.36"/><path class="cls-26" d="M359.49,160.05s3.61,3.5,7.06-1.89c0,2.77-1.69,4.67-4,4.67a3.13,3.13,0,0,1-3-2.78"/><path class="cls-49" d="M331,215.56l-.34,32.87a95,95,0,0,1-8.77,4.19c0-3.11.07-7.72-.06-12a14.15,14.15,0,0,1,6.53-12.35c1.29-.59,2.64-12.67,2.64-12.67"/><path class="cls-49" d="M308,222.1s2.57,2.75,2.57,9.5a6.1,6.1,0,0,0,1.52,1.34s1.56-7.26-4.09-10.84"/><path class="cls-49" d="M409.29,234c-1.34-1.91-3.34-4.57-3.34-4.57l-3.49,5.85L398.57,227s4.64-4,4.14-5.06a18.61,18.61,0,0,0-1.34-2.33s.25-1.55,1.21-.28,7.67,13.91,7.67,13.91,4.41-2,7.45-2c-4.88,2-11.38,5.82-13.35,7.92a62,62,0,0,1,4.94-5.09"/><path class="cls-49" d="M302.34,215.57c-9.75,1.49-15.4,13.78-16.47,16.32l-.61-1.11c1.62-3.65,7.05-14.28,16.32-16.08Z"/><path class="cls-49" d="M339.48,239.71a.51.51,0,0,1-.37-.16l-6.64-7.35a.5.5,0,0,1-.12-.45l4-17.37a.51.51,0,0,1,.23-.32A.49.49,0,0,1,337,214l16.73,4.57a.47.47,0,0,1,.3.23.53.53,0,0,1,.05.39l-5,17.37a.52.52,0,0,1-.34.34l-9.14,2.78a.34.34,0,0,1-.14,0m-6.1-8,6.26,6.92,8.57-2.61L353,219.41l-15.73-4.3Z"/><path class="cls-49" d="M412.65,263.5l-.86.52c-1.25-2.09-7.57-12-17.37-14.37a.5.5,0,0,1,.24-1c10.29,2.5,16.67,12.57,18,14.83"/><path class="cls-49" d="M286.15,221a1.3,1.3,0,1,1-1.29-1.29,1.29,1.29,0,0,1,1.29,1.29"/><path class="cls-49" d="M403.38,264.76a1.3,1.3,0,1,1-1.3-1.3,1.31,1.31,0,0,1,1.3,1.3"/><path class="cls-49" d="M370.85,203.47a1.41,1.41,0,1,1-1.4-1.4,1.4,1.4,0,0,1,1.4,1.4"/><path class="cls-49" d="M369.45,211.46a1.41,1.41,0,1,1-1.4-1.4,1.4,1.4,0,0,1,1.4,1.4"/><path class="cls-49" d="M354.4,269.36A1.41,1.41,0,1,1,353,268a1.41,1.41,0,0,1,1.41,1.4"/><path class="cls-50" d="M417.56,260.57h0l0,0,0,0"/><path class="cls-29" d="M363.43,183.92,357,189.69a6.62,6.62,0,0,0,1.7,3.88c-1.47,6.21-16.12,58.89-16.12,58.89l.17,7,5.5-5.37,13.37-59.88a4.93,4.93,0,0,0,2.54-4c0-1-.73-6.29-.73-6.29"/><path class="cls-49" d="M380.5,182.07c-2.32,5.55-14.84,18.23-15.41,18.8a.5.5,0,0,1-.53.12.53.53,0,0,1-.33-.43L363,185l-9.72,9.35a.5.5,0,0,1-.61.07.51.51,0,0,1-.21-.58l4.29-13.44c.6.2.93.34.93.34L354,192.27l9.06-8.71a.49.49,0,0,1,.84.32l1.22,15.5c4.24-4.34,12.85-13.69,14.46-17.74,0,.1,0,.16,0,.16l.91.27"/><path class="cls-46" d="M398.57,187.25l17.31,5.95s9.75,2.51,16.49,14.36a73.88,73.88,0,0,1,8,25.62"/><line class="cls-46" x1="440.41" y1="237.35" x2="440.29" y2="238.22"/><path class="cls-46" d="M353,179.57s-7.49-1.77-12.84,3.35-17.51,19.24-17.51,19.24"/><line class="cls-46" x1="313.07" y1="214.56" x2="313.92" y2="213.43"/><path class="cls-10" d="M234.89,117.85c0-.3-3.44-30.27,22-37.33,20-4.88,28.27,13.4,28.35,13.59l-2.79,1.22c-.29-.66-7.34-16.11-24.79-11.86-22.86,6.34-19.92,33.24-19.77,34.38Z"/><path class="cls-10" d="M288.07,139.32H231.49c-8.21,0-13.68-5.44-13.68-13.66,0-10,6.93-15.52,19.43-15.52v3c-13.69,0-16.38,6.61-16.38,12.47,0,6.54,4.1,10.61,10.63,10.61h56.58c8.06,0,16.91-2.51,16.91-16.52,0-.19.06-7.84-4.41-12.65-2.73-2.94-6.8-4.43-12.09-4.43-11.16,0-15.68,9.77-15.87,10.19l-2.78-1.24c.21-.49,5.48-12,18.65-12,6.19,0,11,1.82,14.34,5.42,5.37,5.81,5.23,14.48,5.2,14.82,0,12.6-6.78,19.46-19.95,19.46"/><polygon class="cls-10" points="275.91 113.4 267.56 108.49 268.88 115.82 275.91 113.4"/><polygon class="cls-10" points="286.57 89.95 278.11 94.67 285.09 97.25 286.57 89.95"/></g></g></g></g></svg>