<svg xmlns="http://www.w3.org/2000/svg" xmlns:xlink="http://www.w3.org/1999/xlink" viewBox="0 0 258.21 185.28"><defs><style>.cls-1{fill:url(#Безымянный_градиент_12);}.cls-2{fill:url(#Безымянный_градиент_12-2);}.cls-3{fill:url(#Безымянный_градиент_12-3);}.cls-23,.cls-25,.cls-26,.cls-27,.cls-31,.cls-4{fill:none;}.cls-5{clip-path:url(#clip-path);}.cls-6{fill:#febfa7;}.cls-7{fill:#f9987a;}.cls-8{fill:#00162d;}.cls-9{fill:#fff;}.cls-10{fill:#33b5fe;}.cls-11{fill:#0476d9;}.cls-12{opacity:0.7;}.cls-13{clip-path:url(#clip-path-3);}.cls-14{clip-path:url(#clip-path-4);}.cls-15{mask:url(#mask);}.cls-16{fill:url(#Безымянный_градиент_11);}.cls-17{clip-path:url(#clip-path-5);}.cls-18{mask:url(#mask-2);}.cls-19{fill:url(#Безымянный_градиент_11-2);}.cls-20{clip-path:url(#clip-path-6);}.cls-21{mask:url(#mask-3);}.cls-22{fill:url(#Безымянный_градиент_11-3);}.cls-23,.cls-31{stroke:#f9987a;}.cls-23{stroke-miterlimit:10;}.cls-24{fill:#023373;}.cls-25,.cls-27{stroke:#00162d;}.cls-25,.cls-26,.cls-27,.cls-31{stroke-linecap:round;stroke-linejoin:round;}.cls-25{stroke-width:0.99px;}.cls-26{stroke:#023373;}.cls-28{fill:#3f8c08;}.cls-29{fill:#1c590b;}.cls-30{fill:#88bf0f;}</style><linearGradient id="Безымянный_градиент_12" y1="185.28" x2="1" y2="185.28" gradientTransform="matrix(23.26, 0, 0, -23.26, 126.16, 4351.85)" gradientUnits="userSpaceOnUse"><stop offset="0"/><stop offset="0.08" stop-color="#252525"/><stop offset="0.22" stop-color="#5e5e5e"/><stop offset="0.36" stop-color="#8f8f8f"/><stop offset="0.5" stop-color="#b8b8b8"/><stop offset="0.63" stop-color="#d7d7d7"/><stop offset="0.76" stop-color="#ededed"/><stop offset="0.89" stop-color="#fafafa"/><stop offset="1" stop-color="#fff"/></linearGradient><linearGradient id="Безымянный_градиент_12-2" x1="0" y1="185.28" x2="1" y2="185.28" gradientTransform="matrix(64.08, 0, 0, -64.08, 124.58, 11984.66)" xlink:href="#Безымянный_градиент_12"/><linearGradient id="Безымянный_градиент_12-3" x1="0" y1="185.28" x2="1" y2="185.28" gradientTransform="matrix(64.84, 0, 0, -64.84, 124.7, 12095.05)" xlink:href="#Безымянный_градиент_12"/><clipPath id="clip-path" transform="translate(0 0)"><rect class="cls-4" width="258.21" height="185.28"/></clipPath><clipPath id="clip-path-3" transform="translate(0 0)"><rect class="cls-4" x="124.58" y="27.95" width="64.96" height="118.11"/></clipPath><clipPath id="clip-path-4" transform="translate(0 0)"><path class="cls-4" d="M149.42,31.22,126.16,54.47v-.32l0-1.52v0l0-2,0-1.57L145.14,30.2a4.59,4.59,0,0,0,2.76,1Z"/></clipPath><mask id="mask" x="126.16" y="30.2" width="23.26" height="24.27" maskUnits="userSpaceOnUse"><g transform="translate(0 0)"><rect class="cls-1" x="126.16" y="30.2" width="23.26" height="24.27"/></g></mask><linearGradient id="Безымянный_градиент_11" y1="185.28" x2="1" y2="185.28" gradientTransform="matrix(23.26, 0, 0, -23.26, 126.16, 4351.85)" gradientUnits="userSpaceOnUse"><stop offset="0" stop-color="#fff"/><stop offset="1" stop-color="#fff"/></linearGradient><clipPath id="clip-path-5" transform="translate(0 0)"><path class="cls-4" d="M188.66,78.28l-.11,5.83-62,62a4.62,4.62,0,0,1-1.69-2.09,4.33,4.33,0,0,1-.33-1.61Z"/></clipPath><mask id="mask-2" x="124.58" y="78.28" width="64.08" height="67.78" maskUnits="userSpaceOnUse"><g transform="translate(0 0)"><rect class="cls-2" x="124.58" y="78.28" width="64.08" height="67.78"/></g></mask><linearGradient id="Безымянный_градиент_11-2" x1="0" y1="185.28" x2="1" y2="185.28" gradientTransform="matrix(64.08, 0, 0, -64.08, 124.58, 11984.66)" xlink:href="#Безымянный_градиент_11"/><clipPath id="clip-path-6" transform="translate(0 0)"><path class="cls-4" d="M189.54,29.82l-.09,5.06,0,.57-.22,12.35-.05,2.88,0,1.11L189,58l-.18,10.23-.05,3L124.7,135.36l0-.91,0-1.32v-.52l.46-25.49.28-15.49L189.17,28a4.46,4.46,0,0,1,.37,1.87"/></clipPath><mask id="mask-3" x="124.7" y="27.95" width="64.85" height="107.41" maskUnits="userSpaceOnUse"><g transform="translate(0 0)"><rect class="cls-3" x="124.7" y="27.95" width="64.85" height="107.41"/></g></mask><linearGradient id="Безымянный_градиент_11-3" x1="0" y1="185.28" x2="1" y2="185.28" gradientTransform="matrix(64.84, 0, 0, -64.84, 124.7, 12095.05)" xlink:href="#Безымянный_градиент_11"/></defs><title>Ресурс 1</title><g id="Слой_2" data-name="Слой 2"><g id="Слой_1-2" data-name="Слой 1"><g class="cls-5"><g class="cls-5"><path class="cls-6" d="M109.36,53c1.59,2.71,5.59,6.94,9.44,10.7,3,2.89,5.81,5.51,7.4,6.94l1.28,1.14s-.09-2.34-.26-5.5c-.35-6.2-1-15.51-2-16.37a40.73,40.73,0,0,0-6.94-5.23,12.75,12.75,0,0,0-2.29-1c-4-1.28-10.07,3.52-6.65,9.36" transform="translate(0 0)"/><path class="cls-7" d="M118.8,63.66c3,2.89,5.81,5.51,7.4,6.94a5.65,5.65,0,0,0,.79.05l.23-4.41c-.35-6.2-1-15.51-2-16.37a40.73,40.73,0,0,0-6.94-5.23c1.4,1.53,3.73,4.64,2.3,7.15-1.67,3-3.14,7.54-1.8,11.87" transform="translate(0 0)"/><path class="cls-8" d="M122.83,141.74a7.2,7.2,0,0,0,7.07,7.33l30.23.55,9.88.18,11.62.21a7.19,7.19,0,0,0,7.33-7.07l.59-32.44.74-40.56.12-7.09.18-9.54L191,31c.07-4-1.06-7.33-7.07-7.33l-23.42-.42-9.89-.18-7.35-.14-11.07-.2c-5.39,0-7.33,2-7.33,7.07l-.35,19.12-1,54.41-.18,9.54Z" transform="translate(0 0)"/><path class="cls-9" d="M129.09,146.86l53.69,1a4.61,4.61,0,0,0,4.7-4.52l2.05-113.49A4.6,4.6,0,0,0,185,25.13l-10.7-.19A2.1,2.1,0,0,0,172.16,27a4.61,4.61,0,0,1-4.69,4.53l-19.57-.36a4.61,4.61,0,0,1-4.53-4.69,2.11,2.11,0,0,0-2.07-2.15l-10-.18a4.6,4.6,0,0,0-4.69,4.52l-2.06,113.49a4.62,4.62,0,0,0,4.52,4.69" transform="translate(0 0)"/><path class="cls-10" d="M124.91,144a4.61,4.61,0,0,0,4.18,2.89l16.58.3.84,0h.65l7.63.13,1.64,0h.15l26.2.48a4.61,4.61,0,0,0,4.7-4.52v-.19l0-1.73.12-6.38.06-3.5.09-4.8.05-2.65,1-55.83L189,58l.12-6.23v-1.1l.06-2.89.22-12.35v-.56l.09-5.06A4.6,4.6,0,0,0,185,25.13l-10.66-.19h0a2.24,2.24,0,0,0-.52.06l-.18.05a2.41,2.41,0,0,0-.33.15A2.1,2.1,0,0,0,172.16,27a4.41,4.41,0,0,1-.41,1.82,5.77,5.77,0,0,1-.29.55,4.09,4.09,0,0,1-.4.53,4.5,4.5,0,0,1-1.66,1.24,4.6,4.6,0,0,1-1.93.39l-19.57-.36a4.59,4.59,0,0,1-4-2.4,4.65,4.65,0,0,1-.56-2.29,2,2,0,0,0-.17-.88,2.1,2.1,0,0,0-1.9-1.27l-10-.18a4,4,0,0,0-.49,0,4.59,4.59,0,0,0-4.07,3.51,4.15,4.15,0,0,0-.13,1l-.13,7.18-.09,5.19-.13,6.78,0,2.81,0,2v0l0,1.52-.1,5.22,0,2.24L126,65.32l0,1.71v.84l-.21,11.44h0l-.15,8.1h0l-.36,19.7-.47,25.48v.52h0l0,1.32-.12,6.94,0,.78a4.54,4.54,0,0,0,.34,1.8" transform="translate(0 0)"/><path class="cls-11" d="M137.4,132.78l37.47.85a2.07,2.07,0,0,0,2.11-2l.94-41.79a2,2,0,0,0-2-2.1l-37.48-.85a2,2,0,0,0-2.1,2l-1,41.8a2.07,2.07,0,0,0,2,2.1" transform="translate(0 0)"/><g class="cls-12"><g class="cls-13"><g class="cls-14"><g class="cls-15"><rect class="cls-16" x="126.16" y="30.2" width="23.26" height="24.27"/></g></g><g class="cls-17"><g class="cls-18"><rect class="cls-19" x="124.58" y="78.28" width="64.08" height="67.78"/></g></g><g class="cls-20"><g class="cls-21"><rect class="cls-22" x="124.7" y="27.95" width="64.85" height="107.41"/></g></g><g class="cls-20"><g class="cls-21"><rect class="cls-22" x="124.7" y="27.95" width="64.85" height="107.41"/></g></g><g class="cls-17"><g class="cls-18"><rect class="cls-19" x="124.58" y="78.28" width="64.08" height="67.78"/></g></g><g class="cls-14"><g class="cls-15"><rect class="cls-16" x="126.16" y="30.2" width="23.26" height="24.27"/></g></g></g></g><path class="cls-11" d="M143.27,141l22.16.5a.74.74,0,0,0,.76-.72.75.75,0,0,0-.73-.76l-22.16-.5a.74.74,0,0,0,0,1.48" transform="translate(0 0)"/><path class="cls-6" d="M149.17,180.57c2.27,5.35,14.16,4.82,30.67,3.11s23.63-3.32,32.44-9.67,7.5-28.94,7.36-37.36-5.09-16.59-9.7-25.92a110.25,110.25,0,0,1-7.22-20.33c-.7-2.66-1.24-5.07-1.63-7L201,83c-1.26-6.44-7-6.07-7-6.07a9,9,0,0,0-6.22,2.71c-8.45,9.75,1.6,36.67-7.28,47.53-9.26,12.44-8.78,22.57-8.78,22.57s-32.5-.45-39.74-.63c3.19,8.4,10.68,13.67,14,16.05s.91,10.05,3.18,15.38" transform="translate(0 0)"/><path class="cls-6" d="M112.58,104.08c4,4.51,10.59,8.19,14.59,3.45a7.23,7.23,0,0,0,1.5-6.39,12.37,12.37,0,0,0-1.85-4.32c-4.83-8-9-10.62-12.62-10A8.08,8.08,0,0,0,110,89.1c-4.4,4.19-1.46,10.47,2.55,15" transform="translate(0 0)"/><path class="cls-6" d="M118.69,109.2c2.74.09,6.18,1.77,10.68,6,3.63,3.48,4.16,7.24,2.76,9.42s-5,4.94-12.93,1-8.38-10.12-6.92-12.39,3.66-4.08,6.41-4" transform="translate(0 0)"/><path class="cls-7" d="M116.43,95.16c1.95,2.19,9,3.23,12.24,6a12.26,12.26,0,0,0-1.85-4.32c-4.83-8-9-10.62-12.62-10,.26,2.36.92,6.65,2.23,8.36" transform="translate(0 0)"/><path class="cls-6" d="M118.73,75.76S125.25,71,131,76.4s13.57,17.12,7.43,22.66S121,91.84,117.66,87.15c-2-2.94-2.93-8,1.07-11.39" transform="translate(0 0)"/><path class="cls-7" d="M132,149.14c17.33,17.19,38.89,10.39,38.89,10.39s.28.39,2.73,4.74c-.94-4.25-1.88-14.5-1.88-14.5s-32.5-.45-39.74-.63" transform="translate(0 0)"/><path class="cls-23" d="M197.4,91.41c1,1.07,3.95.76,5.06-.86-.69-2.66-1.24-5.07-1.62-7a2.9,2.9,0,0,0-4.21-.84C194.67,84.53,195.74,89.3,197.4,91.41Z" transform="translate(0 0)"/><path class="cls-23" d="M128.66,121.32s1,2.62-2.15,3.76c-2.08-.14-5.79-2-4.38-5.14C124.57,116.9,128.66,121.32,128.66,121.32Z" transform="translate(0 0)"/><path class="cls-23" d="M134.29,87.54s-5.15-.32-5.78,4.34c0,0,2.83,5.63,6.72,3.78S134.29,87.54,134.29,87.54Z" transform="translate(0 0)"/><path class="cls-23" d="M122,98.19s-5.29-.36-4.87,4.17c2.7,4,4.84,4.87,6.79,3.54C126.31,104.11,124,99.91,122,98.19Z" transform="translate(0 0)"/><path class="cls-7" d="M215.1,140.6c.45,4.76-1,21.84-6.54,26.11s-7.34,4.09-5.64,5.68c1.51,1.13,6.78-1,9.91-6.2,3.74-5.54,4.27-19.14,2.27-25.59" transform="translate(0 0)"/><path class="cls-9" d="M182.93,29.66h-3.06a.67.67,0,0,0-.67.66v.52a.67.67,0,0,0,.67.66h3.06a.67.67,0,0,0,.67-.66v-.52a.67.67,0,0,0-.67-.66" transform="translate(0 0)"/><path class="cls-24" d="M148.59,27a.61.61,0,1,0,.61-.6.61.61,0,0,0-.61.6" transform="translate(0 0)"/><path class="cls-9" d="M145.21,126.09l22.16.5a.72.72,0,0,0,.75-.72l.15-6.28a.74.74,0,0,0-.73-.75l-22.15-.5a.74.74,0,0,0-.76.72l-.14,6.28a.74.74,0,0,0,.72.75" transform="translate(0 0)"/><path class="cls-9" d="M148.13,69.51c0-.08-.86-7.53,5.47-9.28a6.12,6.12,0,0,1,7.05,3.38l-.7.3A5.29,5.29,0,0,0,153.79,61c-5.68,1.58-4.95,8.26-4.91,8.55Z" transform="translate(0 0)"/><path class="cls-9" d="M161.34,74.84H147.28a3.2,3.2,0,0,1-3.4-3.39c0-2.49,1.73-3.86,4.83-3.86v.76c-3.4,0-4.07,1.64-4.07,3.1a2.46,2.46,0,0,0,2.64,2.64h14.06c2,0,4.21-.63,4.21-4.11a5.11,5.11,0,0,0-1.1-3.15,3.92,3.92,0,0,0-3-1.1,4.46,4.46,0,0,0-3.95,2.54l-.69-.31a5.22,5.22,0,0,1,4.64-3A4.65,4.65,0,0,1,165,66.32,5.68,5.68,0,0,1,166.3,70c0,3.13-1.68,4.83-5,4.83" transform="translate(0 0)"/><polygon class="cls-9" points="158.32 68.4 156.25 67.18 156.57 69 158.32 68.4"/><polygon class="cls-9" points="160.97 62.57 158.87 63.75 160.6 64.39 160.97 62.57"/><path class="cls-25" d="M108.75,47.66c2.94-5.82,7.09-4.29,7.09-4.29s3,.55,8.92,5.87" transform="translate(0 0)"/><path class="cls-25" d="M183.18,122c-.83,2.66-2.85,5.62-4.89,8.38-5.8,7.87-9,19-3.53,37.93" transform="translate(0 0)"/><path class="cls-25" d="M190.8,77.84c-5.68,2.3-6.72,9.24-6.77,13.75,0,.46,0,.9,0,1.3" transform="translate(0 0)"/><line class="cls-25" x1="219.78" y1="142.21" x2="219.79" y2="142.7"/><path class="cls-25" d="M218.8,160.09s-.83,9.37-6.2,13.67-16,10-50,11c-11,.32-13.24-3.12-13.87-5.51-.42-1.59-.86-8.61-.86-8.61" transform="translate(0 0)"/><line class="cls-25" x1="108.94" y1="52.12" x2="109.34" y2="53.17"/><path class="cls-25" d="M116.07,83.75s-1.44-6.92,5.45-9.32c3.63-1.27,8.55.35,11.41,3.71,6.14,7.22,8.37,12.75,7.72,16.87a6.12,6.12,0,0,1-3.9,5.08" transform="translate(0 0)"/><path class="cls-25" d="M114.78,86.88s-2.51-.43-5.42,2.79c-3.18,3.51-1.57,8.69,2.77,13.87" transform="translate(0 0)"/><path class="cls-25" d="M116.49,85.36s2.72,5.63,10.73,11.77" transform="translate(0 0)"/><line class="cls-25" x1="129.07" y1="98.51" x2="129.66" y2="98.71"/><line class="cls-26" x1="153.3" y1="27" x2="166.73" y2="27.27"/><path class="cls-9" d="M177.27,30.58a1,1,0,1,1-1-.95,1,1,0,0,1,1,.95" transform="translate(0 0)"/><path class="cls-8" d="M168.6,65.6l15.43-14s-5.14,10.55-8.76,10.91a13.47,13.47,0,0,0-6.67,3.14" transform="translate(0 0)"/><path class="cls-8" d="M162.58,58.58,178,44.52s-5.14,10.55-8.76,10.91a13.39,13.39,0,0,0-6.67,3.15" transform="translate(0 0)"/><path class="cls-8" d="M174.5,72l15.43-14.06s-5.14,10.55-8.76,10.92A13.47,13.47,0,0,0,174.5,72" transform="translate(0 0)"/><path class="cls-9" d="M201,65.45c4.43-3.85,3.44-5.16,3.09-7.3l30.76-29.84a2.72,2.72,0,0,0,.06-3.86L212.64,1.33a2.73,2.73,0,0,0-3.86-.06L194.5,15.18,175.94,33.11a2.74,2.74,0,0,0-.07,3.86l.92,1,21.33,22.16c1,1.08,3.32,3.54,2.85,5.36" transform="translate(0 0)"/><line class="cls-27" x1="210.79" y1="10.12" x2="184.42" y2="35.79"/><line class="cls-27" x1="213.96" y1="13.28" x2="187.59" y2="38.95"/><line class="cls-27" x1="217.15" y1="16.47" x2="190.78" y2="42.14"/><line class="cls-27" x1="205.92" y1="41.67" x2="198.33" y2="49.03"/><path class="cls-27" d="M201,65.45c4.41-2.09,3.44-5.16,3.09-7.3l30.76-29.84a2.72,2.72,0,0,0,.06-3.86L212.64,1.33a2.73,2.73,0,0,0-3.86-.06L194.5,15.18,175.94,33.11a2.74,2.74,0,0,0-.07,3.86l.92,1,21.33,22.16C199.17,61.17,201.44,63.63,201,65.45Z" transform="translate(0 0)"/><path class="cls-27" d="M222.22,100.1c6.25-5.46,4.84-7.32,4.33-10.34l30-29.23a3.86,3.86,0,0,0,.07-5.46L232.83,30.6a3.86,3.86,0,0,0-5.46-.07l-6.79,6.62L194.45,62.62a3.86,3.86,0,0,0-.07,5.45l1.31,1.35,22.48,23.12C219.66,94.07,222.89,97.53,222.22,100.1Z" transform="translate(0 0)"/><line class="cls-27" x1="230.86" y1="42.44" x2="220.58" y2="52.59"/><line class="cls-27" x1="223.7" y1="62.84" x2="213.56" y2="72.84"/><line class="cls-27" x1="227.23" y1="66.22" x2="216.84" y2="76.48"/><line class="cls-27" x1="228.74" y1="71.39" x2="220.2" y2="79.75"/><rect class="cls-27" x="226.26" y="49.37" width="15.12" height="15.12" rx="3.16" transform="translate(26.76 179.57) rotate(-44.32)"/><polyline class="cls-27" points="229.5 63.33 229.4 55.99 243.09 55.61"/><polyline class="cls-27" points="235.97 55.81 236.02 51.52 239.13 51.56"/><path class="cls-27" d="M233.47,50.81a1.27,1.27,0,1,1-1.79,0A1.26,1.26,0,0,1,233.47,50.81Z" transform="translate(0 0)"/><line class="cls-27" x1="102.18" y1="140.88" x2="102.04" y2="140.63"/><rect class="cls-28" x="58.78" y="83.86" width="5.94" height="8.5"/><polygon class="cls-29" points="64.73 83.86 58.78 83.86 58.78 89.56 60.24 88.73 60.51 88.58 64.73 86.17 64.73 83.86"/><path class="cls-6" d="M13.89,177.52c14.45,8.43,43.41,7.41,50.17,7s8.88-4.4,9.07-7.09.38-6.91.76-11.35c4.4-2.17,8.83-6.86,8.83-6.86,3,1.21,12.29-3.29,17.91-7.23s8.27-9.42,7.94-13.66c-.37-4.8-4.89-8-4.89-8,1.52-5.41,3.32-9.88.5-17.3A15.33,15.33,0,0,0,97,105.18s4-7,.85-11.86-11-9.55-16.71-9.76c-5.4-.2-9.1,7.6-9.44,8.36l0,.06L54.48,89.32a2.26,2.26,0,0,1,0-.24,8.53,8.53,0,0,1-.07-1.14,14.1,14.1,0,0,1,1.76-6.27c2.39-4.56,7.09-1.41,10.88-2.25a6.4,6.4,0,0,0,5.35-5.27,8.41,8.41,0,0,0,.12-2c-.21-3.72-4.49-5.68-11.22-9.68a15.51,15.51,0,0,0-17.83,1.12c-3.79,3.3-13,21.48-13,21.48s-8.11,5.34-10.11,7.27C16.53,96,5.55,118,3.37,124.85,2.18,128.62.84,135.14.63,147.56s-1.2,21.54,13.26,30" transform="translate(0 0)"/><path class="cls-7" d="M36.23,108s-1.86,10.51,1.18,15.54c.14.23.28.47.44.72,1,1.76,2.41,4.09,3.79,6.68,2.79,5.22,5.64,11.47,6.15,16.16.81,7.33-.8,16.78-.8,16.78s1-.62,3.29-4.91a100.74,100.74,0,0,1,13,.25l-6.9,1.62s15.64,9.21,26.35-1.66c-4.62-2.33-4.16-8.6-1.55-11.34-3-1.55-4.29-2.37-5.34-4.6a9.82,9.82,0,0,1-.38-6.46,0,0,0,0,1,0,0C76,135,86,121.15,86,121.15a5.8,5.8,0,0,0,.67,0,6.68,6.68,0,0,0,6-3c2.23-3.56,3.64-11,3.72-11.42-.14.45-2.4,7.63-3.84,9a6.08,6.08,0,0,1-7.15,1.76,16.46,16.46,0,0,1-3.81-2,6,6,0,0,1-2.53-4.72,16.94,16.94,0,0,1,.56-4.35s0,0,0,0c.57-2.46,1.44-5.23,2-7.48a14.53,14.53,0,0,0,.6-3.45c0-2.58-5.29-2.24-8.27-2.94a5.86,5.86,0,0,1-1-.35,7.18,7.18,0,0,0-1.17-.39c-2.76-.75-8.56-1.56-12.91-2.18-1.83-.26-3.41-.49-4.39-.66L54.07,89c-.36-.07-.45-.23-.34-.45a2.21,2.21,0,0,1,.64-.62,11.29,11.29,0,0,1,.26-2.2,15.87,15.87,0,0,1,1.5-4.07c2.39-4.56,7.09-1.41,10.88-2.25a6.4,6.4,0,0,0,5.35-5.27,6.89,6.89,0,0,1-5.24,3.3c-2.61-3-5.22-7.09-9.57-9.14S45.37,71,42.63,68a69.47,69.47,0,0,0,7.4,7.5s-10.88-2.17-17.9,8.64c3.17-1.43,6.22-4.54,9.51-5s6.65-.07,8.27,3.23a3.93,3.93,0,0,1,.32,1A10.19,10.19,0,0,1,49.88,88a20.69,20.69,0,0,1-3,6.36,0,0,0,0,0,0,0,9.49,9.49,0,0,1-.76.93c-1.75,1.89-5.77,7.21-8.11,10.36h0L36.23,108" transform="translate(0 0)"/><path class="cls-30" d="M36.16,115.17A25.59,25.59,0,0,0,41.64,131a24.62,24.62,0,0,0,4.69,4.6,25.58,25.58,0,0,0,40.3-14.37,21.57,21.57,0,0,0,.56-3.13,6.61,6.61,0,0,1-1.79-.47c-3.36-1.36-6.09-2.86-6.34-6.71a24.46,24.46,0,0,1,1.18-6.79c.23-.86.48-1.72.71-2.56s.48-1.71.68-2.49a25.49,25.49,0,0,0-19.87-9.48,25.76,25.76,0,0,0-2.93.17l-.36.05a25.4,25.4,0,0,0-11.58,4.54,0,0,0,0,0,0,0,9.49,9.49,0,0,1-.76.93c-1.75,1.89-5.77,7.21-8.11,10.36h0a25.39,25.39,0,0,0-1.84,9.53" transform="translate(0 0)"/><rect class="cls-30" x="51.71" y="86.53" width="2.65" height="6.07" transform="translate(-22.58 18.03) rotate(-15.96)"/><path class="cls-8" d="M49.88,88l.25.86a.73.73,0,0,0,.9.51l2.7-.78.88-.25a.72.72,0,0,0,.5-.9l-.48-1.67L53.85,83a.74.74,0,0,0-.91-.5l-2.71.77A10.19,10.19,0,0,1,49.88,88" transform="translate(0 0)"/><path class="cls-28" d="M36.16,115.17A25.59,25.59,0,0,0,41.64,131a24.62,24.62,0,0,0,4.69,4.6c-3.26-2.82-8.53-10.72-5.77-13.11,1.36,2.16,1.66,4.37,8.36,9.34A16,16,0,0,0,60,134.93c-6.86-1.53-20.44-22-12.71-34.67,2.78-4.58,8.42-9.48,11.18-10.47a25.4,25.4,0,0,0-11.58,4.54,0,0,0,0,0,0,0,9.49,9.49,0,0,1-.76.93c-1.75,1.89-5.77,7.21-8.11,10.36h0a25.39,25.39,0,0,0-1.84,9.53" transform="translate(0 0)"/><path class="cls-28" d="M72.76,94.72a50.28,50.28,0,0,1,7.48,9.38c.23-.86.86-3.08,1.09-3.92-1.07-1.48-4.51-3.92-8.57-5.46" transform="translate(0 0)"/><path class="cls-9" d="M41.92,115.17a19.84,19.84,0,0,0,39.67.44,6,6,0,0,1-2.53-4.72,16.94,16.94,0,0,1,.56-4.35s0,0,0,0a19.84,19.84,0,0,0-37.7,8.64" transform="translate(0 0)"/><rect class="cls-30" x="56.74" y="79" width="9.86" height="4.86"/><rect class="cls-28" x="64.73" y="79" width="0.95" height="4.86"/><rect class="cls-28" x="61.28" y="79" width="0.95" height="4.86"/><rect class="cls-28" x="57.84" y="79" width="0.95" height="4.86"/><path class="cls-31" d="M89.46,114.51s-2.49-2.73-5.22-3.39c.49-2.51,1.8-5.33,5.44-3.83C94.65,110.08,89.46,114.51,89.46,114.51Z" transform="translate(0 0)"/><path class="cls-31" d="M83,144.59a8.28,8.28,0,0,1-3.58-4c2.71-2.84,4.36-4.15,6.48-2.42C88.23,140.39,84,144.4,83,144.59Z" transform="translate(0 0)"/><path class="cls-31" d="M85.2,156.42c-.88,0-3.13-3.1-1.83-4.85,1.5-1.61,5-2.45,6.35.15S86.08,156.42,85.2,156.42Z" transform="translate(0 0)"/><path class="cls-31" d="M69.91,68.5s-1.12-1-4.71-.3c0,0-4.9-2.36-3.44-3.8S69.91,68.5,69.91,68.5Z" transform="translate(0 0)"/><path class="cls-31" d="M33.62,83.86s-1.2,3.72,3.24,3.82,6.08-4.34,6-5.94-1.68-2.51-4.3-1.22A26.54,26.54,0,0,0,33.62,83.86Z" transform="translate(0 0)"/><path class="cls-7" d="M16.68,169.92c-2.24-1.35-4.94-2.81-6.85-5.41s-3.3-4.72-3.66-10.61a53.16,53.16,0,0,1,.41-11.44c-1.1,5.29-3,14.12.35,21.8,2.9,6.66,9.46,8.84,10.46,8.58,1.21-.28,1.82-1.42-.71-2.92" transform="translate(0 0)"/><path class="cls-7" d="M20.53,172.84a1.12,1.12,0,1,0,1.12-1.11,1.12,1.12,0,0,0-1.12,1.11" transform="translate(0 0)"/><path class="cls-7" d="M95.44,138.44c-7.25,7.37-11.47,9-13.26,9.36a16.16,16.16,0,0,0,6.39-2.66,35.61,35.61,0,0,0,15.11-14.84,28.63,28.63,0,0,0,1.94-8.59c-.85,3.31-5.13,11.59-10.18,16.73" transform="translate(0 0)"/><path class="cls-27" d="M46.76,115.16a15,15,0,1,0,15-15A15,15,0,0,0,46.76,115.16Z" transform="translate(0 0)"/><path class="cls-27" d="M56.6,109.78a5.16,5.16,0,1,0,5.15-5.15A5.16,5.16,0,0,0,56.6,109.78Z" transform="translate(0 0)"/><path class="cls-27" d="M58.72,122.47a3,3,0,1,0,3-3A3,3,0,0,0,58.72,122.47Z" transform="translate(0 0)"/><line class="cls-27" x1="61.67" y1="117.06" x2="61.67" y2="105.08"/><line class="cls-27" x1="78.56" y1="115.16" x2="75.02" y2="115.16"/><line class="cls-27" x1="61.67" y1="131.79" x2="61.67" y2="128.25"/><line class="cls-27" x1="61.67" y1="101.94" x2="61.67" y2="98.39"/><line class="cls-27" x1="48.53" y1="115.16" x2="44.99" y2="115.16"/><line class="cls-27" x1="74.18" y1="104.1" x2="71.68" y2="106.6"/><line class="cls-27" x1="52.91" y1="124.85" x2="50.41" y2="127.35"/><line class="cls-27" x1="73.79" y1="127.35" x2="71.28" y2="124.85"/><line class="cls-27" x1="51.78" y1="106.6" x2="49.28" y2="104.1"/><path class="cls-27" d="M48.93,80.85S53.86,84.38,45,96.57" transform="translate(0 0)"/><line class="cls-27" x1="46.96" y1="79.46" x2="46.46" y2="79.28"/><path class="cls-27" d="M108.57,138.32s.33,8.43-9.19,14.5-13.85,6.64-16.41,6.4c-3.41-.31-3.66-4.86-3.66-4.86" transform="translate(0 0)"/><path class="cls-27" d="M21.65,91.21a23.24,23.24,0,0,0-3.58,4.06c-1.25,2-14,24-15.39,32.08A165.35,165.35,0,0,0,.53,155.78c.23,8.95,2.65,14.56,10.54,19.95" transform="translate(0 0)"/><line class="cls-27" x1="17.58" y1="179.34" x2="16.76" y2="178.99"/></g></g></g></g></svg>