<svg xmlns="http://www.w3.org/2000/svg" xmlns:xlink="http://www.w3.org/1999/xlink" viewBox="0 0 193.72 215.47"><defs><style>.cls-1,.cls-5{fill:none;}.cls-2{clip-path:url(#clip-path);}.cls-3{fill:#fff;}.cls-4{fill:#00162d;}.cls-5{stroke:#00162d;stroke-linecap:round;stroke-linejoin:round;}.cls-6{fill:#88bf0f;}.cls-7{fill:#3f8c08;}</style><clipPath id="clip-path" transform="translate(0 0)"><rect class="cls-1" width="193.72" height="215.48"/></clipPath></defs><title>Ресурс 1</title><g id="Слой_2" data-name="Слой 2"><g id="Слой_1-2" data-name="Слой 1"><g class="cls-2"><path class="cls-3" d="M147.73,63l27.65,51.31,11.81,21.93a7.07,7.07,0,0,1-2.85,9.6L86.72,198.9c-.6,5.58,1,9.56-12.8,16.07,2.46-4.2-1.52-11.92-3.39-15.36L32.7,129.4l-1.63-3a7.07,7.07,0,0,1,2.86-9.59l11.29-6.1L92.78,84.92l45.35-24.8a7.07,7.07,0,0,1,9.6,2.84" transform="translate(0 0)"/><path class="cls-4" d="M122.91,122.81l-20.65.43a1.61,1.61,0,0,0-1.57,1.53l-.56,13.9,27.43,8.58,4.6-2.6.91-2.85Z" transform="translate(0 0)"/><path class="cls-5" d="M147.73,63l27.65,51.31,11.81,21.93a7.07,7.07,0,0,1-2.85,9.6L86.72,198.9c-.6,5.58-1.41,13.57-12.8,16.07,2.46-4.2-1.52-11.92-3.39-15.36L32.7,129.4l-1.63-3a7.07,7.07,0,0,1,2.86-9.59l11.29-6.1L92.78,84.92l45.35-24.8A7.07,7.07,0,0,1,147.73,63Z" transform="translate(0 0)"/><path class="cls-5" d="M131.54,145.09,79,173.63a3.06,3.06,0,0,1-4.14-1.23L53,132.16A3,3,0,0,1,54.23,128l52.54-28.53a3,3,0,0,1,4.14,1.23L132.77,141A3,3,0,0,1,131.54,145.09Z" transform="translate(0 0)"/><path class="cls-5" d="M108.12,111.46a4.94,4.94,0,1,1-6.71-2A4.92,4.92,0,0,1,108.12,111.46Z" transform="translate(0 0)"/><path class="cls-4" d="M127.56,147.25l-51.15-16A4.13,4.13,0,0,0,71.23,134L65.09,154.4l9.77,18,3.4,2Z" transform="translate(0 0)"/><rect class="cls-5" x="114.17" y="87.21" width="31.74" height="5.19" transform="translate(-27.1 72.94) rotate(-28.5)"/><path class="cls-3" d="M79.08,156.22c13.75-6.52,12.2-10.49,12.8-16.08l97.63-53.09a7.09,7.09,0,0,0,2.85-9.61L152.9,4.21a7.07,7.07,0,0,0-9.6-2.85L97.94,26.16,39.1,58a7.07,7.07,0,0,0-2.86,9.59l1.63,3L75.7,140.85c1.87,3.45,5.84,11.16,3.38,15.37" transform="translate(0 0)"/><path class="cls-5" d="M79.08,156.22c11.59-3.9,12.2-10.49,12.8-16.08l97.63-53.09a7.09,7.09,0,0,0,2.85-9.61L152.9,4.21a7.07,7.07,0,0,0-9.6-2.85L97.94,26.16,39.1,58a7.07,7.07,0,0,0-2.86,9.59l1.63,3L75.7,140.85C77.57,144.3,81.54,152,79.08,156.22Z" transform="translate(0 0)"/><path class="cls-5" d="M106.39,56.07a5,5,0,1,1-6.71-2A5,5,0,0,1,106.39,56.07Z" transform="translate(0 0)"/><path class="cls-6" d="M70.25,95.65l6.31-21A3.57,3.57,0,0,1,81,72.32L132.73,88.5,84.16,114.87l-2,.31L80,113.65Z" transform="translate(0 0)"/><path class="cls-7" d="M130.39,68.31l-15.74-4.75a3.56,3.56,0,0,0-4.34,2.09l-5.62,14.07,28,8.78L138,85l0-2.81Z" transform="translate(0 0)"/><path class="cls-4" d="M5.72,91.81l28-15.23s-11.49,13.78-17,13-11,2.23-11,2.23" transform="translate(0 0)"/><path class="cls-4" d="M14.75,108.45,42.8,93.22s-11.49,13.78-17,13-11,2.22-11,2.22" transform="translate(0 0)"/><path class="cls-4" d="M12.39,186.22l28-15.23s-11.49,13.79-17,13-11,2.22-11,2.22" transform="translate(0 0)"/><path class="cls-4" d="M0,161.28l28.05-15.23s-11.49,13.79-17,13-11,2.22-11,2.22" transform="translate(0 0)"/><path class="cls-4" d="M26.41,209.92l28.05-15.23s-11.49,13.78-17,13-11,2.23-11,2.23" transform="translate(0 0)"/><path class="cls-5" d="M136.71,86.34,84.16,114.87A3,3,0,0,1,80,113.65L58.17,73.41a3.06,3.06,0,0,1,1.23-4.14l52.54-28.54A3.06,3.06,0,0,1,116.08,42L137.93,82.2A3,3,0,0,1,136.71,86.34Z" transform="translate(0 0)"/><line class="cls-5" x1="122.21" y1="35.16" x2="145.69" y2="22.41"/><line class="cls-5" x1="124.25" y1="40.02" x2="147.73" y2="27.27"/><line class="cls-5" x1="126.92" y1="44.51" x2="150.4" y2="31.76"/><line class="cls-5" x1="138.01" y1="66.88" x2="161.49" y2="54.13"/><line class="cls-5" x1="140.58" y1="71.45" x2="164.06" y2="58.7"/><line class="cls-5" x1="143.11" y1="75.95" x2="166.59" y2="63.2"/><line class="cls-5" x1="145.84" y1="81.23" x2="161.46" y2="72.75"/><line class="cls-5" x1="85.95" y1="124.07" x2="175.27" y2="75.57"/><line class="cls-5" x1="88.42" y1="128.6" x2="177.73" y2="80.1"/><line class="cls-5" x1="133.08" y1="125.7" x2="156.56" y2="112.95"/><line class="cls-5" x1="135.66" y1="130.27" x2="159.13" y2="117.52"/><line class="cls-5" x1="138.19" y1="134.78" x2="161.67" y2="122.03"/><line class="cls-5" x1="140.92" y1="140.05" x2="156.54" y2="131.57"/><line class="cls-5" x1="81.03" y1="182.89" x2="170.34" y2="134.39"/><line class="cls-5" x1="83.49" y1="187.42" x2="172.81" y2="138.92"/></g></g></g></svg>