<svg xmlns="http://www.w3.org/2000/svg" xmlns:xlink="http://www.w3.org/1999/xlink" viewBox="0 0 211.89 178.41"><defs><style>.cls-1,.cls-11,.cls-12,.cls-8{fill:none;}.cls-2{clip-path:url(#clip-path);}.cls-3{fill:#33b5fe;}.cls-10,.cls-4{fill:#00162d;}.cls-5{fill:#88bf0f;}.cls-6{fill:#fff;}.cls-7{fill:#1c590b;}.cls-12,.cls-8{stroke:#00162d;stroke-linecap:round;}.cls-11,.cls-8{stroke-miterlimit:10;}.cls-9{fill:#3f8c08;}.cls-10{font-size:13.04px;font-family:GothamPro-Bold, Gotham Pro;font-weight:700;}.cls-11{stroke:#fff;}.cls-12{stroke-linejoin:round;stroke-width:0.99px;}</style><clipPath id="clip-path" transform="translate(0 0)"><rect class="cls-1" width="211.9" height="178.41"/></clipPath></defs><title>Ресурс 1</title><g id="Слой_2" data-name="Слой 2"><g id="Слой_1-2" data-name="Слой 1"><g class="cls-2"><path class="cls-3" d="M146.19,3.8V175.11a3.3,3.3,0,0,1-3.3,3.3H3.3a3.3,3.3,0,0,1-3.3-3.3V3.8A3.3,3.3,0,0,1,3.3.5H142.89a3.3,3.3,0,0,1,3.3,3.3" transform="translate(0 0)"/><path class="cls-4" d="M126.4,57H55.55a2.62,2.62,0,0,1-2.62-2.63V43.2a2.62,2.62,0,0,1,2.62-2.62H129V54.35A2.63,2.63,0,0,1,126.4,57" transform="translate(0 0)"/><path class="cls-5" d="M211.07,87.24,184.21,52.63a3.94,3.94,0,0,0-5.54-.7L116.86,99.88a3.94,3.94,0,0,0-.7,5.54L143,140a4,4,0,0,0,5.54.7l61.82-47.95a4,4,0,0,0,.7-5.55m-75.94,32.58a2.5,2.5,0,1,1,2.5-2.5,2.5,2.5,0,0,1-2.5,2.5" transform="translate(0 0)"/><path class="cls-6" d="M117.57,82.77H32a3.5,3.5,0,0,1-3.5-3.5V69.17h89a3.5,3.5,0,0,1,3.5,3.49v6.61a3.5,3.5,0,0,1-3.5,3.5" transform="translate(0 0)"/><path class="cls-6" d="M88.82,153.22H31.89a3.35,3.35,0,0,1-3.36-3.35V95a3.36,3.36,0,0,1,3.36-3.36H88.82A3.36,3.36,0,0,1,92.17,95v54.84a3.35,3.35,0,0,1-3.35,3.35" transform="translate(0 0)"/><path class="cls-5" d="M78.32,143.35h-37a1.65,1.65,0,0,1-1.65-1.65V108.15a1.65,1.65,0,0,1,1.65-1.65h37A1.65,1.65,0,0,1,80,108.15V141.7a1.65,1.65,0,0,1-1.65,1.65" transform="translate(0 0)"/><rect class="cls-7" x="56.45" y="109.33" width="7.8" height="34.02"/><path class="cls-8" d="M68.34,106.5s14.28-11.18,28.17,4.65,23.31,21,37.5,7.74" transform="translate(0 0)"/><path class="cls-9" d="M68.45,107.78c3.72-2.36,3.34-4.94,3-6.12s-3.12-7-5.4-6.34-5.74,6.42-5.74,6.42-3.46-5.81-5.74-6.42-5.09,5.16-5.4,6.34-.68,3.76,3,6.12l-5.09,7.6,5.09-2s2.28,5.66,2.4,5.7,5.7-8.59,5.7-8.59,5.57,8.59,5.7,8.59,2.4-5.7,2.4-5.7l5.09,2Zm-11.52-1.86c-.72.8-2.55-1-3.88-2.13s-.34-2.2-.34-2.2c.71-.77,1.25,0,2.7,1.21,1.79,1.62,2.17,2.36,1.52,3.12m10.72-2.13c-1.33,1.18-3.16,2.93-3.88,2.13s-.27-1.5,1.52-3.12c1.45-1.25,2-2,2.7-1.21,0,0,1,1-.34,2.2" transform="translate(0 0)"/><path class="cls-6" d="M108.92,169H10.86a1.41,1.41,0,0,1-1.41-1.4v-3.64a1.41,1.41,0,0,1,1.41-1.4h98.06a1.41,1.41,0,0,1,1.41,1.4v3.64a1.41,1.41,0,0,1-1.41,1.4" transform="translate(0 0)"/><path class="cls-6" d="M125.83,168.9H122.2a1.41,1.41,0,0,1-1.41-1.41v-3.63a1.41,1.41,0,0,1,1.41-1.41h3.63a1.41,1.41,0,0,1,1.41,1.41v3.63a1.41,1.41,0,0,1-1.41,1.41" transform="translate(0 0)"/><path class="cls-6" d="M135.33,168.9H131.7a1.41,1.41,0,0,1-1.41-1.41v-3.63a1.41,1.41,0,0,1,1.41-1.41h3.63a1.41,1.41,0,0,1,1.41,1.41v3.63a1.41,1.41,0,0,1-1.41,1.41" transform="translate(0 0)"/><path class="cls-6" d="M24.41,76a6.81,6.81,0,1,1-6.81-6.8A6.74,6.74,0,0,1,24.41,76" transform="translate(0 0)"/><path class="cls-4" d="M20,75.57a2.36,2.36,0,1,1-2.36-2.35A2.36,2.36,0,0,1,20,75.57" transform="translate(0 0)"/><path class="cls-4" d="M22.34,80.85a6.76,6.76,0,0,1-4.74,1.93,6.69,6.69,0,0,1-4.74-1.94,4.88,4.88,0,0,1,9.48,0" transform="translate(0 0)"/><path class="cls-4" d="M55.22,15.83a4.16,4.16,0,1,1-4.15-4.15,4.15,4.15,0,0,1,4.15,4.15" transform="translate(0 0)"/><path class="cls-4" d="M115.77,18.92H100a1.17,1.17,0,0,1-1.17-1.17V13.92A1.17,1.17,0,0,1,100,12.75h15.76a1.17,1.17,0,0,1,1.17,1.17v3.83a1.17,1.17,0,0,1-1.17,1.17" transform="translate(0 0)"/><path class="cls-4" d="M135.57,18.92H119.8a1.18,1.18,0,0,1-1.17-1.17V13.92a1.18,1.18,0,0,1,1.17-1.17h15.77a1.18,1.18,0,0,1,1.17,1.17v3.83a1.18,1.18,0,0,1-1.17,1.17" transform="translate(0 0)"/></g><text class="cls-10" transform="matrix(0.79, -0.61, 0.61, 0.79, 148.55, 112.92)">BONUS</text><g class="cls-2"><line class="cls-8" x1="11.12" y1="59.92" x2="25.58" y2="59.92"/><line class="cls-8" x1="113.84" y1="59.92" x2="128.29" y2="59.92"/><line class="cls-8" x1="11.12" y1="63.27" x2="17.61" y2="63.27"/><line class="cls-8" x1="29.13" y1="87.36" x2="35.61" y2="87.36"/><line class="cls-8" x1="29.13" y1="157.33" x2="35.61" y2="157.33"/><line class="cls-8" x1="11.12" y1="15.43" x2="25.58" y2="15.43"/><line class="cls-8" x1="11.12" y1="11.68" x2="25.58" y2="11.68"/><line class="cls-8" x1="11.12" y1="19.18" x2="17.61" y2="19.18"/><line class="cls-8" x1="35.29" y1="19.18" x2="41.77" y2="19.18"/><line class="cls-11" y1="28.96" x2="146.19" y2="28.96"/><path class="cls-12" d="M161.12,65.54,116.65,99.76a3.57,3.57,0,0,0-.66,5L138.34,134" transform="translate(0 0)"/><path class="cls-12" d="M140.85,137.25l2.76,3.26a3.15,3.15,0,0,0,4.29.49l7.34-5.45" transform="translate(0 0)"/><line class="cls-12" x1="157.86" y1="133.52" x2="158.28" y2="133.19"/><path class="cls-12" d="M83,.5h59.34a3.81,3.81,0,0,1,3.82,3.81V58.15" transform="translate(0 0)"/><line class="cls-12" x1="75.99" y1="0.5" x2="73.09" y2="0.5"/></g></g></g></svg>