<svg xmlns="http://www.w3.org/2000/svg" xmlns:xlink="http://www.w3.org/1999/xlink" viewBox="0 0 230.62 178.85"><defs><style>.cls-1,.cls-20,.cls-5,.cls-9{fill:none;}.cls-2{clip-path:url(#clip-path);}.cls-3{fill:#33b5fe;}.cls-4{fill:#fff;}.cls-20,.cls-5,.cls-9{stroke:#00162d;}.cls-5{stroke-miterlimit:10;}.cls-6{fill:#0476d9;}.cls-7{fill:#1c590b;}.cls-8{fill:#88bf0f;}.cls-20,.cls-9{stroke-linecap:round;stroke-linejoin:round;}.cls-10{fill:#3f8c08;}.cls-11{fill:#00162d;}.cls-12{opacity:0.2;}.cls-13{clip-path:url(#clip-path-3);}.cls-14{opacity:0.45;}.cls-15{clip-path:url(#clip-path-4);}.cls-16{clip-path:url(#clip-path-5);}.cls-17{clip-path:url(#clip-path-6);}.cls-18{clip-path:url(#clip-path-7);}.cls-19{clip-path:url(#clip-path-8);}.cls-20{stroke-width:0.99px;}</style><clipPath id="clip-path" transform="translate(0 0)"><rect class="cls-1" width="230.62" height="178.85"/></clipPath><clipPath id="clip-path-3" transform="translate(0 0)"><rect class="cls-1" x="120.07" y="53.74" width="56.07" height="56.06"/></clipPath><clipPath id="clip-path-4" transform="translate(0 0)"><rect class="cls-1" x="120.54" y="54.14" width="55.12" height="55.12"/></clipPath><clipPath id="clip-path-5" transform="translate(0 0)"><rect class="cls-1" x="110.8" y="87.39" width="17.79" height="23"/></clipPath><clipPath id="clip-path-6" transform="translate(0 0)"><rect class="cls-1" x="153.78" y="44.41" width="23.01" height="17.79"/></clipPath><clipPath id="clip-path-7" transform="translate(0 0)"><rect class="cls-1" x="107.54" y="41.14" width="48.05" height="47.87"/></clipPath><clipPath id="clip-path-8" transform="translate(0 0)"><rect class="cls-1" x="107.81" y="41.4" width="35.68" height="35.52"/></clipPath></defs><title>Ресурс 1</title><g id="Слой_2" data-name="Слой 2"><g id="Слой_1-2" data-name="Слой 1"><g class="cls-2"><g class="cls-2"><path class="cls-3" d="M161.69,167.92V10.84A10.34,10.34,0,0,0,151.35.5H72.54c-5.79,0-11,4.7-11,10.49h21c0-.15,0-.29,0-.44h0V167.3a11.12,11.12,0,0,0,10.93,11.1h76.07A10.49,10.49,0,0,0,180,167.92Z" transform="translate(0 0)"/><path class="cls-4" d="M173.32,158.54h-132a3.89,3.89,0,0,1-3.88-3.89V57.53a3.88,3.88,0,0,1,3.88-3.88h132a3.88,3.88,0,0,1,3.88,3.88v97.12a3.89,3.89,0,0,1-3.88,3.89" transform="translate(0 0)"/><rect class="cls-5" x="37.46" y="53.65" width="139.74" height="104.89" rx="3.88"/><path class="cls-6" d="M82.49,11h-21a10.48,10.48,0,0,1,21-.44c0,.15,0,.29,0,.44" transform="translate(0 0)"/><path class="cls-3" d="M163,133.23H51.67a3.92,3.92,0,0,1-3.91-3.92V67.85a3.91,3.91,0,0,1,3.91-3.91H163a3.91,3.91,0,0,1,3.91,3.91v61.46a3.92,3.92,0,0,1-3.91,3.92" transform="translate(0 0)"/><path class="cls-6" d="M51.64,63.94H63.05V76.07H47.75V67.82a3.89,3.89,0,0,1,3.89-3.88" transform="translate(0 0)"/><rect class="cls-6" x="63.81" y="63.94" width="20.89" height="12.13"/><rect class="cls-6" x="85.44" y="63.94" width="20.9" height="12.13"/><rect class="cls-6" x="107.1" y="63.94" width="20.9" height="12.13"/><rect class="cls-6" x="128.74" y="63.94" width="20.9" height="12.13"/><path class="cls-6" d="M166.82,67.82v8.25H150.39V63.94h12.55a3.88,3.88,0,0,1,3.88,3.88" transform="translate(0 0)"/><rect class="cls-6" x="47.76" y="76.82" width="15.3" height="20.9"/><rect class="cls-6" x="63.81" y="76.82" width="20.89" height="20.9"/><rect class="cls-6" x="85.44" y="76.82" width="20.9" height="20.9"/><rect class="cls-6" x="107.1" y="76.82" width="20.9" height="20.9"/><rect class="cls-6" x="128.74" y="76.82" width="20.9" height="20.9"/><rect class="cls-6" x="150.39" y="76.82" width="16.43" height="20.9"/><rect class="cls-6" x="47.76" y="98.47" width="15.3" height="20.9"/><rect class="cls-6" x="63.81" y="98.47" width="20.89" height="20.9"/><rect class="cls-6" x="85.44" y="98.47" width="20.9" height="20.9"/><rect class="cls-6" x="107.1" y="98.47" width="20.9" height="20.9"/><rect class="cls-6" x="128.74" y="98.47" width="20.9" height="20.9"/><rect class="cls-6" x="150.39" y="98.47" width="16.43" height="20.9"/><path class="cls-6" d="M47.76,120.12h15.3v13.11H51.65a3.88,3.88,0,0,1-3.89-3.88Z" transform="translate(0 0)"/><rect class="cls-6" x="63.81" y="120.12" width="20.89" height="13.11"/><rect class="cls-6" x="85.44" y="120.12" width="20.9" height="13.11"/><rect class="cls-6" x="107.1" y="120.12" width="20.9" height="13.11"/><rect class="cls-6" x="128.74" y="120.12" width="20.9" height="13.11"/><path class="cls-6" d="M166.82,120.12v9.23a3.88,3.88,0,0,1-3.88,3.88H150.39V120.12Z" transform="translate(0 0)"/><path class="cls-3" d="M62.44,32.49a33.4,33.4,0,0,0-48.9,44.64A33.34,33.34,0,0,0,27.61,88.74,33.41,33.41,0,0,0,62.44,32.49M50.91,74.82A19.34,19.34,0,0,1,41,77.54a19.14,19.14,0,0,1-8.08-1.77,19.46,19.46,0,0,1-6.85-5.23,19,19,0,0,1-1.92-2.75,19.43,19.43,0,1,1,26.75,7" transform="translate(0 0)"/><path class="cls-7" d="M74.42,58.12A33.44,33.44,0,0,1,56.27,87.84l-5.36-13a19.4,19.4,0,0,0,2.77-31.39l8.75-10.94a33.39,33.39,0,0,1,12,25.63" transform="translate(0 0)"/><path class="cls-8" d="M32.92,75.77l-5.31,13a33.51,33.51,0,0,1-11-7.75l9.43-10.45a19.34,19.34,0,0,0,6.84,5.23" transform="translate(0 0)"/><polyline class="cls-9" points="139.29 82.1 139.29 78.27 140.89 79.72"/><polyline class="cls-9" points="139.29 82.1 139.29 78.27 137.69 79.72"/><line class="cls-9" x1="139.29" y1="83.94" x2="139.29" y2="85.65"/><polyline class="cls-9" points="162.63 69.62 162.63 65.79 164.22 67.24"/><polyline class="cls-9" points="162.63 69.62 162.63 65.79 161.03 67.24"/><path class="cls-10" d="M26.08,70.54,16.65,81a33.88,33.88,0,0,1-3.11-3.86l10.62-9.34a19,19,0,0,0,1.92,2.75" transform="translate(0 0)"/><path class="cls-9" d="M53.05,118.32s7.78,15.49,19-3.38c11.89-21.79,18.56-11,21.95-6.37C112.52,137,141.32,85.78,147.1,79.74c0,0,5.86-8.06,15.2-7.5,8.29.27,10.43-1.69,16.9-8.48s26.34-30.48,26.34-30.48" transform="translate(0 0)"/><path class="cls-11" d="M140.84,90.25a1.55,1.55,0,1,1-1.55-1.56,1.54,1.54,0,0,1,1.55,1.56" transform="translate(0 0)"/><path class="cls-11" d="M162.81,73.5a1.55,1.55,0,1,1,1.36-1.72,1.55,1.55,0,0,1-1.36,1.72" transform="translate(0 0)"/><path class="cls-11" d="M106.9,118.49a1.56,1.56,0,1,1,1.36-1.72,1.55,1.55,0,0,1-1.36,1.72" transform="translate(0 0)"/><path class="cls-11" d="M85.19,103.37a1.55,1.55,0,1,1,1.36-1.72,1.55,1.55,0,0,1-1.36,1.72" transform="translate(0 0)"/><path class="cls-11" d="M60.47,125.67A1.56,1.56,0,1,1,61.83,124a1.56,1.56,0,0,1-1.36,1.72" transform="translate(0 0)"/><polyline class="cls-9" points="203.83 33.29 205.63 33.1 205.79 34.7"/><polyline class="cls-9" points="60.29 127.17 60.29 131 58.69 129.55"/><polyline class="cls-9" points="60.29 127.17 60.29 131 61.88 129.55"/><polyline class="cls-9" points="106.72 120.93 106.72 124.76 105.12 123.31"/><polyline class="cls-9" points="106.72 120.93 106.72 124.76 108.32 123.31"/><polyline class="cls-9" points="85.01 94.83 85.01 91 86.61 92.45"/><polyline class="cls-9" points="85.01 94.83 85.01 91 83.42 92.45"/><line class="cls-9" x1="85.01" y1="96.67" x2="85.01" y2="98.39"/><line class="cls-9" x1="12.77" y1="80.86" x2="6.88" y2="85.78"/><line class="cls-9" x1="40.35" y1="11.59" x2="40.38" y2="19.26"/><path class="cls-9" d="M5.08,89.8a2.29,2.29,0,1,1-2.44-2.14A2.28,2.28,0,0,1,5.08,89.8Z" transform="translate(0 0)"/><path class="cls-9" d="M42.64,6.38a2.3,2.3,0,1,1-2.29-2.3A2.3,2.3,0,0,1,42.64,6.38Z" transform="translate(0 0)"/><line class="cls-9" x1="84.4" y1="64.18" x2="76.73" y2="64.22"/><path class="cls-9" d="M89.62,66.48a2.3,2.3,0,1,1,2.29-2.3A2.3,2.3,0,0,1,89.62,66.48Z" transform="translate(0 0)"/><line class="cls-9" x1="20.59" y1="87.66" x2="15.79" y2="93.64"/><path class="cls-9" d="M14.75,97.18a2.29,2.29,0,1,1-2.49-2.07A2.28,2.28,0,0,1,14.75,97.18Z" transform="translate(0 0)"/><path class="cls-6" d="M180,167.92a10.49,10.49,0,0,1-10.48,10.49H93.85a10.49,10.49,0,0,0,10-10.48Z" transform="translate(0 0)"/><g class="cls-12"><g class="cls-13"><path class="cls-4" d="M167.93,62h0A28,28,0,0,0,122,71.59a28.18,28.18,0,0,0-1.92,10.24,28.1,28.1,0,0,0,8.22,19.76h0A28,28,0,1,0,167.93,62m-3.12,36.63a23.69,23.69,0,1,1-11.88-39.92,23.38,23.38,0,0,1,11.87,6.42h0a23.73,23.73,0,0,1,0,33.5" transform="translate(0 0)"/></g></g><rect class="cls-8" x="171.34" y="104.69" width="10.36" height="10.87" transform="translate(-26.16 157.08) rotate(-45)"/><g class="cls-14"><g class="cls-15"><path class="cls-4" d="M167.6,101.2a27.56,27.56,0,0,1-46.48-13.81,27.89,27.89,0,0,1,0-11.22,27.49,27.49,0,0,1,21.59-21.5,27.66,27.66,0,0,1,11.1.06,27.25,27.25,0,0,1,13.81,7.47h0a27.62,27.62,0,0,1,0,39" transform="translate(0 0)"/></g></g><rect class="cls-6" x="173.53" y="112.55" width="20.44" height="9.61" transform="translate(-29.17 164.31) rotate(-45)"/><path class="cls-11" d="M229,153l-9.46,9.46a5.66,5.66,0,0,1-8,0l-32-32a1.5,1.5,0,0,1,0-2.13l15.33-15.33a1.52,1.52,0,0,1,2.13,0l32,32a5.66,5.66,0,0,1,0,8" transform="translate(0 0)"/><path class="cls-10" d="M180.22,106.5l2.89,2.9-10.06,4.3a38.68,38.68,0,0,0,3.74-3.31,38,38,0,0,0,3.43-3.89" transform="translate(0 0)"/><path class="cls-4" d="M195.92,115.72s24.93,24.92,27.5,27.5,6,5.47,3.28,8.21l-5.76,5.76c4.37-4.36-5.49-8.81-9.58-17.74a56.85,56.85,0,0,1-2.31-5.89c-2.42-.65-8.23-3.89-9.39-8.71s.4-5-3.74-9.13" transform="translate(0 0)"/><path class="cls-4" d="M218.49,157.61a1.44,1.44,0,1,1-2,0,1.45,1.45,0,0,1,2,0" transform="translate(0 0)"/><path class="cls-8" d="M186,67.23a40.47,40.47,0,0,0-30.43-25.4,41.73,41.73,0,0,0-9.06-.66c-1,0-2,.12-3,.23s-2.17.29-3.24.5a40.48,40.48,0,0,0-31.83,31.34c-.26,1.22-.46,2.44-.61,3.68h0c-.12,1-.2,2-.24,3h0a41.35,41.35,0,0,0,.62,9.09,40.56,40.56,0,0,0,64.69,24.8,1.77,1.77,0,0,0,.17-.12,37.27,37.27,0,0,0,3.74-3.3,40.17,40.17,0,0,0,3.42-3.89A40.65,40.65,0,0,0,186,67.23m-18.41,34a27.56,27.56,0,0,1-46.48-13.81,27.89,27.89,0,0,1,0-11.22,27.49,27.49,0,0,1,21.59-21.5,27.66,27.66,0,0,1,11.1.06,27.25,27.25,0,0,1,13.81,7.47h0a27.62,27.62,0,0,1,0,39" transform="translate(0 0)"/><g class="cls-14"><g class="cls-16"><path class="cls-4" d="M121.12,87.39a27.48,27.48,0,0,0,7.47,13.81l-3.5,3.5h0l-5.69,5.68a40.48,40.48,0,0,1-8.6-12.68Z" transform="translate(0 0)"/></g></g><g class="cls-14"><g class="cls-17"><path class="cls-4" d="M176.79,53l-5.55,5.56h0L167.6,62.2h0a27.25,27.25,0,0,0-13.81-7.47L164.1,44.41A40.49,40.49,0,0,1,176.79,53" transform="translate(0 0)"/></g></g><g class="cls-14"><g class="cls-18"><path class="cls-4" d="M155.58,41.83,148.37,49l-5.69,5.66a27.49,27.49,0,0,0-21.59,21.5l-5.56,5.53L108.19,89a41.35,41.35,0,0,1-.62-9.09h0l10.19-10.13,18.71-18.61,10.05-10a41.73,41.73,0,0,1,9.06.66" transform="translate(0 0)"/></g></g><g class="cls-14"><g class="cls-19"><path class="cls-4" d="M143.49,41.4,130.9,53.94h0L120.57,64.22l-12.76,12.7c.15-1.24.35-2.46.61-3.68L140.25,41.9c1.07-.21,2.15-.38,3.24-.5" transform="translate(0 0)"/></g></g><path class="cls-4" d="M130.9,71.07a1.19,1.19,0,1,1,1.64.42,1.19,1.19,0,0,1-1.64-.42" transform="translate(0 0)"/><path class="cls-4" d="M130.24,75.19a17.43,17.43,0,0,0-1.83,9.38,16.2,16.2,0,0,0,1.1,4.79,17.77,17.77,0,0,0,1.05,2.26c.38.73.88,1.41,1.32,2.12l0,0a.31.31,0,0,1-.1.42.3.3,0,0,1-.41-.08c-.5-.7-1.07-1.36-1.52-2.1a18,18,0,0,1-1.25-2.28,17.47,17.47,0,0,1-1.52-5,18.31,18.31,0,0,1-.06-5.28,18.5,18.5,0,0,1,1.42-5.19,1,1,0,0,1,1.33-.51,1,1,0,0,1,.5,1.32s0,0,0,.06Z" transform="translate(0 0)"/><line class="cls-9" x1="95.89" y1="15.85" x2="150.39" y2="15.85"/><line class="cls-9" x1="95.89" y1="20.28" x2="150.39" y2="20.28"/><line class="cls-9" x1="95.89" y1="24.71" x2="150.39" y2="24.71"/><line class="cls-9" x1="95.89" y1="29.13" x2="150.39" y2="29.13"/><line class="cls-9" x1="95.89" y1="33.56" x2="150.39" y2="33.56"/><line class="cls-9" x1="95.89" y1="37.99" x2="123.14" y2="37.99"/><line class="cls-9" x1="95.89" y1="42.41" x2="123.14" y2="42.41"/><line class="cls-9" x1="47.76" y1="141.9" x2="166.82" y2="141.9"/><line class="cls-9" x1="47.76" y1="145.73" x2="166.82" y2="145.73"/><line class="cls-9" x1="47.76" y1="149.57" x2="106.74" y2="149.57"/><path class="cls-20" d="M61.52,11S61.35.46,72,.5c11.62,0,31.84,0,31.84,0" transform="translate(0 0)"/><line class="cls-20" x1="108.47" y1="0.5" x2="109.52" y2="0.5"/><path class="cls-20" d="M161,43.25s27.54,9.63,27.63,38.58" transform="translate(0 0)"/><line class="cls-20" x1="187.92" y1="89.45" x2="187.76" y2="90.25"/><path class="cls-20" d="M82.89,170.24s1.8,8.89,12.36,8c2.54-.2,7.68-2.23,8.57-10.37h67.91" transform="translate(0 0)"/></g></g></g></g></svg>