<svg id="Layer_1" data-name="Layer 1" xmlns="http://www.w3.org/2000/svg" viewBox="0 0 49.74 49.75"><defs><style>.cls-1{fill:#33b5fe;}.cls-2{fill:#30a3e6;}.cls-3{fill:#fff;}</style></defs><title>arrow</title><path class="cls-1" d="M119.16,69.23a25,25,0,1,1,0-.86C119.16,68.65,119.16,68.94,119.16,69.23Z" transform="translate(-69.42 -44.35)"/><path class="cls-2" d="M119.16,69.23A24.87,24.87,0,0,1,70,74.65c5.15,2.63,11.43,1.08,18.5-4.58,15.49-11.87,27.93-10.28,30.62-1.7C119.16,68.65,119.16,68.94,119.16,69.23Z" transform="translate(-69.42 -44.35)"/><path class="cls-3" d="M94.59,83.57a1,1,0,0,1-1-1V55.18a1,1,0,0,1,2,0V82.57A1,1,0,0,1,94.59,83.57Z" transform="translate(-69.42 -44.35)"/><path class="cls-3" d="M94.59,83.9a1,1,0,0,1-.71-.3L86,75.67a1,1,0,0,1,1.41-1.41l7.23,7.22,7-7a1,1,0,0,1,1.41,1.41L95.29,83.6A1,1,0,0,1,94.59,83.9Z" transform="translate(-69.42 -44.35)"/></svg>