<svg xmlns="http://www.w3.org/2000/svg" xmlns:xlink="http://www.w3.org/1999/xlink" viewBox="0 0 230.62 177.91"><defs><style>.cls-1,.cls-10,.cls-5{fill:none;}.cls-2{clip-path:url(#clip-path);}.cls-3{fill:#33b5fe;}.cls-4{fill:#fff;}.cls-10,.cls-5{stroke:#0e2d40;}.cls-5{stroke-miterlimit:10;}.cls-6{fill:#195a81;}.cls-7{fill:#30a3e6;}.cls-8{fill:#fd8c01;}.cls-9{fill:#fdb801;}.cls-10{stroke-linecap:round;stroke-linejoin:round;}.cls-11{fill:#f46d02;}.cls-12{fill:#0e2d40;}.cls-13{opacity:0.2;}.cls-14{clip-path:url(#clip-path-3);}.cls-15{opacity:0.45;}.cls-16{clip-path:url(#clip-path-4);}.cls-17{clip-path:url(#clip-path-5);}.cls-18{clip-path:url(#clip-path-6);}.cls-19{clip-path:url(#clip-path-7);}.cls-20{clip-path:url(#clip-path-8);}</style><clipPath id="clip-path" transform="translate(0 0)"><rect class="cls-1" width="230.62" height="177.91"/></clipPath><clipPath id="clip-path-3" transform="translate(0 0)"><rect class="cls-1" x="120.07" y="53.25" width="56.07" height="56.06"/></clipPath><clipPath id="clip-path-4" transform="translate(0 0)"><rect class="cls-1" x="120.54" y="53.64" width="55.12" height="55.12"/></clipPath><clipPath id="clip-path-5" transform="translate(0 0)"><rect class="cls-1" x="110.8" y="86.9" width="17.79" height="23"/></clipPath><clipPath id="clip-path-6" transform="translate(0 0)"><rect class="cls-1" x="153.78" y="43.92" width="23.01" height="17.79"/></clipPath><clipPath id="clip-path-7" transform="translate(0 0)"><rect class="cls-1" x="107.54" y="40.65" width="48.05" height="47.87"/></clipPath><clipPath id="clip-path-8" transform="translate(0 0)"><rect class="cls-1" x="107.81" y="40.91" width="35.68" height="35.52"/></clipPath></defs><title>Ресурс 1</title><g id="Слой_2" data-name="Слой 2"><g id="Слой_1-2" data-name="Слой 1"><g class="cls-2"><g class="cls-2"><path class="cls-3" d="M161.69,167.42V10.34A10.34,10.34,0,0,0,151.35,0H72A10.49,10.49,0,0,0,61.52,10.49h21c0-.15,0-.29,0-.44h0V166.8a11.11,11.11,0,0,0,10.93,11.1h76.07A10.49,10.49,0,0,0,180,167.42Z" transform="translate(0 0)"/><path class="cls-4" d="M173.32,158h-132a3.88,3.88,0,0,1-3.88-3.88V57a3.88,3.88,0,0,1,3.88-3.88h132A3.88,3.88,0,0,1,177.2,57v97.13a3.88,3.88,0,0,1-3.88,3.88" transform="translate(0 0)"/><rect class="cls-5" x="37.46" y="53.15" width="139.74" height="104.89" rx="3.88"/><path class="cls-6" d="M82,10.49H61a10.48,10.48,0,0,1,21-.44c0,.15,0,.29,0,.44" transform="translate(0 0)"/><path class="cls-3" d="M163,132.73H51.67a3.91,3.91,0,0,1-3.91-3.91V67.35a3.91,3.91,0,0,1,3.91-3.91H163a3.91,3.91,0,0,1,3.91,3.91v61.47a3.91,3.91,0,0,1-3.91,3.91" transform="translate(0 0)"/><path class="cls-7" d="M51.64,63.44H63.05V75.57H47.75V67.32a3.89,3.89,0,0,1,3.89-3.88" transform="translate(0 0)"/><rect class="cls-7" x="63.81" y="63.44" width="20.89" height="12.13"/><rect class="cls-7" x="85.44" y="63.44" width="20.9" height="12.13"/><rect class="cls-7" x="107.1" y="63.44" width="20.9" height="12.13"/><rect class="cls-7" x="128.74" y="63.44" width="20.9" height="12.13"/><path class="cls-7" d="M166.82,67.32v8.25H150.39V63.44h12.55a3.88,3.88,0,0,1,3.88,3.88" transform="translate(0 0)"/><rect class="cls-7" x="47.76" y="76.32" width="15.3" height="20.9"/><rect class="cls-7" x="63.81" y="76.32" width="20.89" height="20.9"/><rect class="cls-7" x="85.44" y="76.32" width="20.9" height="20.9"/><rect class="cls-7" x="107.1" y="76.32" width="20.9" height="20.9"/><rect class="cls-7" x="128.74" y="76.32" width="20.9" height="20.9"/><rect class="cls-7" x="150.39" y="76.32" width="16.43" height="20.9"/><rect class="cls-7" x="47.76" y="97.97" width="15.3" height="20.9"/><rect class="cls-7" x="63.81" y="97.97" width="20.89" height="20.9"/><rect class="cls-7" x="85.44" y="97.97" width="20.9" height="20.9"/><rect class="cls-7" x="107.1" y="97.97" width="20.9" height="20.9"/><rect class="cls-7" x="128.74" y="97.97" width="20.9" height="20.9"/><rect class="cls-7" x="150.39" y="97.97" width="16.43" height="20.9"/><path class="cls-7" d="M47.76,119.62h15.3v13.11H51.65a3.88,3.88,0,0,1-3.89-3.88Z" transform="translate(0 0)"/><rect class="cls-7" x="63.81" y="119.62" width="20.89" height="13.11"/><rect class="cls-7" x="85.44" y="119.62" width="20.9" height="13.11"/><rect class="cls-7" x="107.1" y="119.62" width="20.9" height="13.11"/><rect class="cls-7" x="128.74" y="119.62" width="20.9" height="13.11"/><path class="cls-7" d="M166.82,119.62v9.23a3.88,3.88,0,0,1-3.88,3.88H150.39V119.62Z" transform="translate(0 0)"/><path class="cls-7" d="M165.57,140H49.09a1.29,1.29,0,0,1,0-2.58H165.57a1.29,1.29,0,1,1,0,2.58" transform="translate(0 0)"/><path class="cls-7" d="M165.57,144.42H49.09a1.29,1.29,0,0,1,0-2.58H165.57a1.29,1.29,0,1,1,0,2.58" transform="translate(0 0)"/><path class="cls-7" d="M118.23,148.83H49.09a1.3,1.3,0,0,1,0-2.59h69.14a1.3,1.3,0,1,1,0,2.59" transform="translate(0 0)"/><path class="cls-3" d="M62.44,32a33.4,33.4,0,0,0-48.9,44.64A33.34,33.34,0,0,0,27.61,88.24,33.41,33.41,0,0,0,62.44,32M50.91,74.32A19.34,19.34,0,0,1,41,77a19.14,19.14,0,0,1-8.08-1.77A19.46,19.46,0,0,1,26.08,70a19,19,0,0,1-1.92-2.75,19.43,19.43,0,1,1,26.75,7" transform="translate(0 0)"/><path class="cls-8" d="M74.42,57.62A33.44,33.44,0,0,1,56.27,87.34l-5.36-13a19.4,19.4,0,0,0,2.77-31.39L62.43,32a33.39,33.39,0,0,1,12,25.63" transform="translate(0 0)"/><path class="cls-9" d="M32.92,75.27l-5.31,13a33.51,33.51,0,0,1-11-7.75L26.08,70a19.34,19.34,0,0,0,6.84,5.23" transform="translate(0 0)"/><polyline class="cls-10" points="139.29 81.6 139.29 77.77 140.89 79.22"/><polyline class="cls-10" points="139.29 81.6 139.29 77.77 137.69 79.22"/><line class="cls-10" x1="139.29" y1="83.44" x2="139.29" y2="85.16"/><polyline class="cls-10" points="162.63 69.12 162.63 65.29 164.22 66.74"/><polyline class="cls-10" points="162.63 69.12 162.63 65.29 161.03 66.74"/><path class="cls-11" d="M26.08,70,16.65,80.49a33.88,33.88,0,0,1-3.11-3.86l10.62-9.34A19,19,0,0,0,26.08,70" transform="translate(0 0)"/><path class="cls-10" d="M53.05,117.82s7.78,15.5,19-3.38c11.89-21.79,18.56-11,21.95-6.36,18.56,28.37,47.36-22.8,53.14-28.84,0,0,5.86-8.06,15.2-7.49,8.29.26,10.43-1.7,16.9-8.48s26.34-30.49,26.34-30.49" transform="translate(0 0)"/><path class="cls-12" d="M140.84,89.75a1.55,1.55,0,1,1-1.55-1.55,1.55,1.55,0,0,1,1.55,1.55" transform="translate(0 0)"/><path class="cls-12" d="M162.81,73a1.56,1.56,0,1,1,1.36-1.72A1.56,1.56,0,0,1,162.81,73" transform="translate(0 0)"/><path class="cls-12" d="M106.12,118a1.55,1.55,0,1,1,1.36-1.72,1.55,1.55,0,0,1-1.36,1.72" transform="translate(0 0)"/><path class="cls-12" d="M85.19,102.88a1.56,1.56,0,0,1-.36-3.09,1.56,1.56,0,0,1,.36,3.09" transform="translate(0 0)"/><path class="cls-12" d="M60.47,125.17a1.55,1.55,0,1,1,1.36-1.72,1.55,1.55,0,0,1-1.36,1.72" transform="translate(0 0)"/><polyline class="cls-10" points="203.83 32.79 205.63 32.61 205.79 34.2"/><polyline class="cls-10" points="60.29 126.67 60.29 130.51 58.69 129.06"/><polyline class="cls-10" points="60.29 126.67 60.29 130.51 61.88 129.06"/><polyline class="cls-10" points="105.94 120.43 105.94 124.27 104.34 122.81"/><polyline class="cls-10" points="105.94 120.43 105.94 124.27 107.54 122.81"/><polyline class="cls-10" points="85.01 94.33 85.01 90.5 86.61 91.95"/><polyline class="cls-10" points="85.01 94.33 85.01 90.5 83.42 91.95"/><line class="cls-10" x1="85.01" y1="96.18" x2="85.01" y2="97.89"/><line class="cls-10" x1="12.77" y1="80.36" x2="6.88" y2="85.28"/><line class="cls-10" x1="40.35" y1="11.1" x2="40.38" y2="18.77"/><path class="cls-10" d="M5.08,89.31a2.29,2.29,0,1,1-2.44-2.14A2.29,2.29,0,0,1,5.08,89.31Z" transform="translate(0 0)"/><path class="cls-10" d="M42.64,5.88a2.3,2.3,0,1,1-2.29-2.29A2.29,2.29,0,0,1,42.64,5.88Z" transform="translate(0 0)"/><line class="cls-10" x1="84.4" y1="63.69" x2="76.73" y2="63.72"/><path class="cls-10" d="M89.62,66a2.3,2.3,0,1,1,2.29-2.29A2.3,2.3,0,0,1,89.62,66Z" transform="translate(0 0)"/><line class="cls-10" x1="20.59" y1="87.16" x2="15.79" y2="93.15"/><path class="cls-10" d="M14.75,96.68a2.29,2.29,0,1,1-2.49-2.07A2.3,2.3,0,0,1,14.75,96.68Z" transform="translate(0 0)"/><path class="cls-6" d="M180,167.42a10.49,10.49,0,0,1-10.48,10.49H93.85a10.49,10.49,0,0,0,10-10.48Z" transform="translate(0 0)"/><path class="cls-12" d="M147.58,16.29H98a.92.92,0,0,1,0-1.84h49.57a.92.92,0,0,1,0,1.84" transform="translate(0 0)"/><path class="cls-12" d="M147.58,19.22H98a.92.92,0,1,1,0-1.83h49.57a.92.92,0,1,1,0,1.83" transform="translate(0 0)"/><path class="cls-12" d="M147.58,30.26H98a.92.92,0,0,1,0-1.84h49.57a.92.92,0,0,1,0,1.84" transform="translate(0 0)"/><path class="cls-12" d="M147.58,33.2H98a.92.92,0,0,1,0-1.84h49.57a.92.92,0,1,1,0,1.84" transform="translate(0 0)"/><g class="cls-13"><g class="cls-14"><path class="cls-4" d="M167.93,61.46h0A28,28,0,0,0,122,71.09a28.26,28.26,0,0,0-1.92,10.24,28.06,28.06,0,0,0,8.22,19.76h0a28,28,0,1,0,39.64-39.64m-3.12,36.63a23.69,23.69,0,1,1,0-33.51h0a23.74,23.74,0,0,1,0,33.51" transform="translate(0 0)"/></g></g><rect class="cls-9" x="171.34" y="104.19" width="10.36" height="10.87" transform="translate(-25.81 156.94) rotate(-45)"/><g class="cls-15"><g class="cls-16"><path class="cls-4" d="M167.6,100.71A27.56,27.56,0,0,1,121.12,86.9a27.89,27.89,0,0,1,0-11.22,27.49,27.49,0,0,1,21.59-21.5,27.66,27.66,0,0,1,11.1.06,27.25,27.25,0,0,1,13.81,7.47h0a27.62,27.62,0,0,1,0,39" transform="translate(0 0)"/></g></g><rect class="cls-6" x="173.53" y="112.06" width="20.44" height="9.61" transform="translate(-28.81 164.16) rotate(-45)"/><path class="cls-12" d="M229,152.53,219.5,162a5.64,5.64,0,0,1-8,0l-32-32a1.5,1.5,0,0,1,0-2.13l15.33-15.32a1.5,1.5,0,0,1,2.13,0l32,32a5.64,5.64,0,0,1,0,8" transform="translate(0 0)"/><path class="cls-8" d="M180.22,106l2.89,2.9-10.06,4.29a38.56,38.56,0,0,0,3.74-3.3,40.29,40.29,0,0,0,3.43-3.89" transform="translate(0 0)"/><path class="cls-4" d="M195.92,115.22l27.5,27.5c2.58,2.58,6,5.47,3.28,8.22l-5.76,5.76c4.37-4.37-5.49-8.81-9.58-17.74a57.77,57.77,0,0,1-2.31-5.89c-2.42-.65-8.23-3.9-9.39-8.72s.4-5-3.74-9.13" transform="translate(0 0)"/><path class="cls-4" d="M218.49,157.12a1.44,1.44,0,1,1-2,0,1.44,1.44,0,0,1,2,0" transform="translate(0 0)"/><path class="cls-9" d="M186,66.74a40.47,40.47,0,0,0-30.43-25.4,41.73,41.73,0,0,0-9.06-.66c-1,0-2,.12-3,.23s-2.17.29-3.24.5a40.48,40.48,0,0,0-31.83,31.34c-.26,1.22-.46,2.44-.61,3.68h0c-.12,1-.2,2-.24,3h0a41.35,41.35,0,0,0,.62,9.09,40.56,40.56,0,0,0,64.69,24.8,1.77,1.77,0,0,0,.17-.12,37.27,37.27,0,0,0,3.74-3.3,40.17,40.17,0,0,0,3.42-3.89A40.65,40.65,0,0,0,186,66.74m-18.41,34A27.56,27.56,0,0,1,121.12,86.9a27.89,27.89,0,0,1,0-11.22,27.49,27.49,0,0,1,21.59-21.5,27.66,27.66,0,0,1,11.1.06,27.25,27.25,0,0,1,13.81,7.47h0a27.62,27.62,0,0,1,0,39" transform="translate(0 0)"/><g class="cls-15"><g class="cls-17"><path class="cls-4" d="M121.12,86.9a27.48,27.48,0,0,0,7.47,13.81l-3.5,3.5h0l-5.69,5.68a40.48,40.48,0,0,1-8.6-12.68Z" transform="translate(0 0)"/></g></g><g class="cls-15"><g class="cls-18"><path class="cls-4" d="M176.79,52.51l-5.55,5.56h0l-3.63,3.64h0a27.25,27.25,0,0,0-13.81-7.47L164.1,43.92a40.49,40.49,0,0,1,12.69,8.59" transform="translate(0 0)"/></g></g><g class="cls-15"><g class="cls-19"><path class="cls-4" d="M155.58,41.34l-7.21,7.18-5.69,5.66a27.49,27.49,0,0,0-21.59,21.5l-5.56,5.53-7.34,7.31a41.35,41.35,0,0,1-.62-9.09h0l10.19-10.13,18.71-18.61,10.05-10a41.73,41.73,0,0,1,9.06.66" transform="translate(0 0)"/></g></g><g class="cls-15"><g class="cls-20"><path class="cls-4" d="M143.49,40.91,130.9,53.45h0L120.57,63.73l-12.76,12.7c.15-1.24.35-2.46.61-3.68l31.83-31.34c1.07-.21,2.15-.38,3.24-.5" transform="translate(0 0)"/></g></g><path class="cls-4" d="M130.9,70.58a1.2,1.2,0,1,1,1.64.42,1.21,1.21,0,0,1-1.64-.42" transform="translate(0 0)"/><path class="cls-4" d="M130.24,74.69a17.49,17.49,0,0,0-1.83,9.39,16.21,16.21,0,0,0,1.1,4.78,17.15,17.15,0,0,0,1.05,2.26c.38.74.88,1.41,1.32,2.13l0,0a.32.32,0,0,1-.1.43.31.31,0,0,1-.41-.09c-.5-.7-1.07-1.36-1.52-2.09a18.13,18.13,0,0,1-1.25-2.29,17.5,17.5,0,0,1-1.52-5,18.38,18.38,0,0,1-.06-5.29,18.68,18.68,0,0,1,1.42-5.19,1,1,0,0,1,1.33-.51,1,1,0,0,1,.5,1.32s0,0,0,.06Z" transform="translate(0 0)"/></g></g></g></g></svg>