<svg xmlns="http://www.w3.org/2000/svg" viewBox="0 0 655.06 460.24"><defs><style>.cls-1,.cls-13,.cls-15,.cls-16,.cls-18,.cls-7{fill:none;}.cls-1,.cls-7{stroke:#33b5fe;}.cls-1,.cls-15,.cls-17,.cls-18{stroke-miterlimit:10;}.cls-2{fill:#0e2d40;}.cls-3{fill:#195a81;}.cls-4{fill:#33b5fe;}.cls-5{fill:#30a3e6;}.cls-14,.cls-6{fill:#fff;}.cls-13,.cls-16,.cls-7{stroke-linecap:round;stroke-linejoin:round;}.cls-16,.cls-18,.cls-7{stroke-width:2px;}.cls-8{fill:#febfa7;}.cls-17,.cls-9{fill:#fd8c01;}.cls-10{fill:#2687be;}.cls-11{fill:#f46d02;}.cls-12{fill:#e7978e;}.cls-13,.cls-15{stroke:#e7978e;}.cls-14{opacity:0.45;}.cls-16{stroke:#30a3e6;}.cls-17,.cls-18{stroke:#fd8c01;}</style></defs><title>Ресурс 1</title><g id="Слой_2" data-name="Слой 2"><g id="Layer_9" data-name="Layer 9"><path class="cls-1" d="M461.09,227.63s-35.19,10.34-75.43,57"/><path class="cls-1" d="M176.68,87.06S231,11,307.54,1.42s62.52,58.12,18.08,87.24S193.52,330.83,224.13,401.82c25.48,58.07,96.68,78.05,142,22.78,33.34-40.66,62.22-118.45,166.32-152.55,59.25-23.59,103-45.75,122.14-106.34"/><path class="cls-1" d="M143.42,459.81S207.31,421.76,272,314.45"/><path class="cls-1" d="M51.56,392.63s19.9,16.76,67-24.8S319.73,124.14,408.82,99.88s196.79,32.33,218.6-26.18"/><path class="cls-2" d="M412.79,286.22v8.16a3.36,3.36,0,0,1-3.36,3.36H3.36A3.36,3.36,0,0,1,0,294.38v-8.16a3.35,3.35,0,0,1,3.36-3.36H409.43A3.35,3.35,0,0,1,412.79,286.22Z"/><path class="cls-2" d="M370.18,82.87V273.38a9.47,9.47,0,0,1-9.48,9.48H52.09a9.47,9.47,0,0,1-9.48-9.48V82.87a9.48,9.48,0,0,1,9.48-9.48H360.7a9.48,9.48,0,0,1,9.36,8A9.45,9.45,0,0,1,370.18,82.87Z"/><path class="cls-3" d="M363.51,87.56v67.55l-3.05,4.08s-1.3-15.21-2.21-23.92a48.1,48.1,0,0,0-3.38-11.61V101.38a9.48,9.48,0,0,0-9.48-9.47H67.4a9.48,9.48,0,0,0-9.48,9.47v100C57.92,219.9,42.61,234,42.61,234V93.31C43,86,47.88,82,51.56,79.44c6.76-4.65,16.46-5,22.84-1.89,8.17,4,10.48,7.59,28.72,1.91s29.12.57,39.78.93c11.93.41,31.15.37,31.15.37s169.85-1.1,179.35-1.1S363.51,87.56,363.51,87.56Z"/><path class="cls-4" d="M354.87,101.38V250.92a9.48,9.48,0,0,1-9.48,9.47H67.4a9.48,9.48,0,0,1-9.48-9.47V101.38a9.48,9.48,0,0,1,9.48-9.47h278A9.48,9.48,0,0,1,354.87,101.38Z"/><rect class="cls-5" x="133.11" y="127.47" width="144.48" height="103.69" rx="5.53"/><rect class="cls-6" x="148.69" y="162.54" width="113.31" height="11.68" rx="3.54"/><rect class="cls-6" x="148.69" y="180.23" width="113.31" height="11.68" rx="3.54"/><rect class="cls-6" x="170.7" y="202.48" width="69.31" height="14.94" rx="3.54"/><path class="cls-6" d="M258.88,217.45h-8.8a3.1,3.1,0,0,1-3.1-3.1v-8.8a3.1,3.1,0,0,1,3.1-3.1h8.8a3.09,3.09,0,0,1,3.09,3.1v8.8A3.09,3.09,0,0,1,258.88,217.45Zm-8.8-13.23a1.33,1.33,0,0,0-1.33,1.33v8.8a1.33,1.33,0,0,0,1.33,1.33h8.8a1.33,1.33,0,0,0,1.32-1.33v-8.8a1.33,1.33,0,0,0-1.32-1.33Z"/><path class="cls-3" d="M51.54,282.84a13.38,13.38,0,0,1,4.71-14.95c10.93-8.87,34.2,3,45.92,6.43s16.38,5.69,29.15-1c4.69-2.45,8.39,4.15,17.37,4.88,12.53,1,28.81-2.07,50.44-5.49s58.57-10.24,83.14-8.64,11.86,18.75,11.86,18.75Z"/><path class="cls-6" d="M415,171.36c14.08.71,14.55-3.21,17.49-7.51l135.63-.26A6.55,6.55,0,0,0,574.6,157l-.12-77.08a6.56,6.56,0,0,0-6.59-6.53l-80.56.07-62,.22a6.56,6.56,0,0,0-6.53,6.58v3.18l.12,73.9C418.94,161,418.8,169,415,171.36Z"/><line class="cls-7" x1="557.94" y1="96.03" x2="436.86" y2="96.37"/><line class="cls-7" x1="493.72" y1="106.13" x2="436.49" y2="106.47"/><line class="cls-7" x1="462.26" y1="116.32" x2="436.86" y2="116.47"/><path class="cls-7" d="M415,171.36c14.08.71,14.55-3.21,17.49-7.51l135.63-.26A6.55,6.55,0,0,0,574.6,157l-.12-77.08a6.56,6.56,0,0,0-6.59-6.53l-80.56.07-62,.22a6.56,6.56,0,0,0-6.53,6.58v3.18l.12,73.9C418.94,161,418.8,169,415,171.36Z"/><path class="cls-6" d="M609.21,352.47c-14.08.71-14.55-3.21-17.49-7.51h-3.8l-19.17,0h-1.3l-12.05,0H543.19l-10.84,0-8,0H524l-22.23,0-45.66-.09a6.55,6.55,0,0,1-6.54-6.59l.12-144.66a6.56,6.56,0,0,1,6.59-6.53l80.56.07,62,.22a6.56,6.56,0,0,1,6.53,6.58V197l-.08,90.65,0,37.95v12.88C605.22,342.08,605.36,350.12,609.21,352.47Z"/><line class="cls-7" x1="466.22" y1="212.73" x2="587.3" y2="213.07"/><path class="cls-8" d="M483.27,311.49s-1.56-4.15-3.18-4.95-5.16-.63-7.87-4.75c-2.43-3.69-10.53-16.51-12-20.05a3.08,3.08,0,0,1-.22-1.1c.1-1.22,1.4-1.65,3-.08s6,6.73,6,6.73l.42-.37s-5.29-6.8-6.4-10.68a2.62,2.62,0,0,1,.12-2.24,1.64,1.64,0,0,1,2.75-.08,4.73,4.73,0,0,1,.83,1.25s-1.62-2.53.42-3.57a1.65,1.65,0,0,1,1.73.33c3.21,2.23,8.64,10.56,8.64,10.56l.4-.37s-5.77-7.53-6.36-11.11a1.25,1.25,0,0,1,.39-1.33,1.23,1.23,0,0,1,1.6,0c3.4,2.13,9.66,11.52,9.66,11.52s-3.92-9.83.36-11.47c1.51-.5,1.42,3.3,2.37,5.16s7.05,8.35,6.74,9.81-2,6.7-1.13,8,6.35,9.81,6.35,9.81S485.32,315.38,483.27,311.49Z"/><path class="cls-4" d="M605.24,338.45V325.57l0-37.95c-10.41-3.65-23.27-7.09-26.89-8.1l-.85-.25s0,0,0-.15c.05-1.33-.56-10.89-.56-10.89a2.89,2.89,0,0,0-3.35-3.05,3.89,3.89,0,0,0-.47,0c-.83.11-1.76.27-2.74.5a20.15,20.15,0,0,0-8,3.66,10,10,0,0,0-2.13,2.38,26.66,26.66,0,0,0-2.42,4.62v0a9.58,9.58,0,0,0-.61,1.9s-.31-.13-.87-.32c-2.4-.79-9.42-2.45-15.41,2.33-7.36,5.88-25.72,29.19-29.82,36.36l-5.28-6.06-.7-.8-7.79-8.93s-8.18-2.75-14.68,10.32c0,0,3.43,6.43,7.32,13.53l.57,1c3.71,6.77,7.69,13.88,9.45,16.5.63.95,1.2,1.79,1.75,2.53l22.23,0V345l.4-.17c4.41-1.86,7.74-3.72,7.74-3.72s.08,1.51.22,3.74l10.84,0H555.4l12.05,0h1.3l19.17,0h3.8c2.94,4.3,3.41,8.22,17.49,7.51C605.36,350.12,605.22,342.08,605.24,338.45Zm-4.86-5.88-.33-.88,0-.05-1.26-2.7,3.24-5.43s1.85,2.47,3.1,4.24l-.35.3-.38.35-.41.39-.42.42-.41.41c-.45.47-.89.94-1.28,1.37h0l0,0h0l0,0h0l-.25.28-.27.29-.81.84Z"/><path class="cls-9" d="M600.45,332.55l-.56.61,0,0-.08.08c-.41.4-.89.88-1.4,1.4h0c-.25.24-.52.51-.79.79l-.14.14-.71.72-.24.24c-1.21,1.22-2.42,2.44-3.3,3.35l-.3.31-.24.25-.19.2-.17.18-.09.1-.19.2c-.66.72-2,2.29-3.34,3.79h-.77l-19.17,0h-1.3l-1.28-2.22-6.41-11.1-1.45-2.51L556.55,326a1,1,0,0,1,.36-1.36l30.29-18a1,1,0,0,1,1.36.36l6.59,14.15,3.62,7.75,1.26,2.7,0,.05.38.82Z"/><path class="cls-10" d="M550.77,245.06a21.7,21.7,0,0,0,4-1c4.61-2.11,15.11,7.31,15.11,7.31l2.83.77,2.9-6v-5a3.18,3.18,0,0,0-1.43-2.67c-3.37-2.22-9.92-6.36-13.4-8.56a8.21,8.21,0,0,0-5.56-1.23c-4.69.69-5.78,4.36-5.65,7.51C549.68,242.78,550.77,245.06,550.77,245.06Z"/><path class="cls-11" d="M599.89,333.16l0,0-.08.08c-.41.4-.89.88-1.4,1.4h0c-.25.24-.52.51-.79.79l-.14.14-.71.72-.08.07-.16.17c-1.21,1.22-2.42,2.44-3.3,3.35l-.3.31-.24.25-.19.2-.17.18-.09.1-.19.2c-.66.72-2,2.29-3.34,3.79h-.77l-19.17,0-2.58-2.23-6.41-11.1-1.45-2.51,28.16-18.84a.77.77,0,0,1,1.1.27l11.85,21.8Z"/><path class="cls-9" d="M598.39,334.67h0c-.25.24-.52.51-.79.79l-.14.14-.71.72-.08.07-.16.17c-1.21,1.22-2.42,2.44-3.3,3.35l-.3.31-.24.25-.19.2-.17.18-.09.1-.19.2c-.66.72-2,2.29-3.34,3.79h-.77l-19.17,0h-1.3l-12.05,0-4.24-6.47a1,1,0,0,1,.28-1.38l8.32-5.45,24.76-16.23a1,1,0,0,1,1.39.28l12,18.32Z"/><polygon class="cls-3" points="600.45 332.55 599.89 333.16 599.87 333.19 599.79 333.27 589.17 344.96 589.16 344.96 588.69 344.95 587.92 344.95 598.77 328.94 600.05 331.69 600.43 332.51 600.45 332.55"/><path class="cls-8" d="M578.17,251.38c-1.35,4.19-4.53,3.14-4.53,3.14v14.34c0,2.52-11.25,10-11.25,10V268.29h0a6,6,0,0,1-5.64-2.89c-2.13-3.39-2-21.36-2-21.36a47,47,0,0,0,9.6-4.78c0,3.9,7.21,11.4,7.21,11.4a34.11,34.11,0,0,1,3.45-4.81C576.25,244.64,579.53,247.19,578.17,251.38Z"/><path class="cls-12" d="M571.64,262s-1.09,8.2-9.25,11v-4.66S567.18,268.18,571.64,262Z"/><line class="cls-13" x1="576.27" y1="248.48" x2="573.28" y2="251.95"/><path class="cls-12" d="M558.88,259.08s3.36,3.25,6.55-1.75c0,2.57-1.56,4.33-3.75,4.33A2.91,2.91,0,0,1,558.88,259.08Z"/><path class="cls-3" d="M532.44,310.61l-.31,30.5s-3.33,1.86-7.74,3.72l-.4.17v-.17c0-2.88.06-7.07-.06-11A13.17,13.17,0,0,1,530,322.36C531.19,321.82,532.44,310.61,532.44,310.61Z"/><path class="cls-3" d="M511.12,316.67s2.38,2.55,2.38,8.82a5.51,5.51,0,0,0,1.42,1.24S516.36,320,511.12,316.67Z"/><path class="cls-3" d="M563.22,287.07a3.63,3.63,0,0,1-.54,1.91,5.2,5.2,0,0,1-1.82,1.77l-12.09,54.13h-5.58v0S544.83,339,547,331l.3-1.07c1.37-4.95,2.93-10.6,4.43-16.06.08-.3.17-.6.24-.89,2.93-10.63,5.59-20.4,6.15-22.79a5.52,5.52,0,0,1-1.42-2.72,5.21,5.21,0,0,1-.15-.88l6-5.35S563.22,286.11,563.22,287.07Z"/><path class="cls-3" d="M605.25,325.57V329c-2,1.19-.25-1.18-.14-1.27-1.25-1.77-3.1-4.24-3.1-4.24l-3.24,5.43-3.62-7.75s4.32-3.68,3.85-4.7a16.88,16.88,0,0,0-1.24-2.16s.23-1.44,1.12-.26C599.57,315,603.56,322.42,605.25,325.57Z"/><path class="cls-3" d="M578.39,279.52c-2.16,5.15-13.78,16.92-14.31,17.45a.47.47,0,0,1-.33.14.45.45,0,0,1-.16,0,.47.47,0,0,1-.3-.4l-1.14-14.43-9,8.68a.45.45,0,0,1-.56.06.47.47,0,0,1-.2-.54l4-12.47c.56.19.87.32.87.32L553.81,289l8.41-8.09a.46.46,0,0,1,.78.3l1.13,14.39c3.94-4,11.93-12.71,13.42-16.47,0,.09,0,.15,0,.15Z"/><path class="cls-3" d="M505.84,310.61c-9,1.39-14.29,12.79-15.28,15.15l-.57-1c1.5-3.39,6.54-13.25,15.15-14.92Z"/><path class="cls-3" d="M553.84,313.62a.46.46,0,0,0-.29-.22L552,313l-14-3.82a.5.5,0,0,0-.36,0,.47.47,0,0,0-.21.29l-3.76,16.13a.44.44,0,0,0,.1.41l6.17,6.83a.45.45,0,0,0,.34.15l.13,0,6.59-2,1.9-.58a.49.49,0,0,0,.31-.32L553.88,314A.5.5,0,0,0,553.84,313.62Zm-5.42,16-1.09.33-6.87,2.1-5.81-6.43,3.6-15.42,13.51,3.69,1.1.3Z"/><circle class="cls-3" cx="489.62" cy="315.65" r="1.2"/><circle class="cls-3" cx="568.13" cy="299.38" r="1.3"/><circle class="cls-3" cx="566.83" cy="306.8" r="1.3"/><line class="cls-7" x1="466.18" y1="222.83" x2="523.41" y2="223.17"/><line class="cls-7" x1="466.65" y1="233.02" x2="492.05" y2="233.17"/><path class="cls-7" d="M609.21,352.47c-14.08.71-14.55-3.21-17.49-7.51L456.1,344.7a6.55,6.55,0,0,1-6.54-6.59l.12-144.66a6.56,6.56,0,0,1,6.59-6.53l80.56.07,62,.22a6.56,6.56,0,0,1,6.53,6.58V197l-.12,141.48C605.22,342.08,605.36,350.12,609.21,352.47Z"/><path class="cls-12" d="M479.59,290.4l1.66-1.35s-.47-4.75,2.68-6.72c-.56-.89-.73-1.2-.73-1.2S477.82,284.38,479.59,290.4Z"/><polygon class="cls-12" points="466.55 274.82 472.57 285.42 473.82 284.58 466.55 274.82"/><path class="cls-8" d="M422.23,195.93C419.85,200,413.82,206.36,408,212c-4.44,4.35-8.74,8.28-11.13,10.43L395,224.17s.13-3.53.39-8.28c.52-9.31,1.53-23.32,3-24.61a61.39,61.39,0,0,1,10.44-7.85,19.32,19.32,0,0,1,3.45-1.57C418.24,179.93,427.38,187.15,422.23,195.93Z"/><path class="cls-12" d="M408,212c-4.44,4.35-8.74,8.28-11.13,10.43a7.88,7.88,0,0,1-1.18.07l-.35-6.63c.52-9.31,1.53-23.32,3-24.61a61.39,61.39,0,0,1,10.44-7.85c-3.43,2.16-4.94,8.24-2.79,12A20.35,20.35,0,0,1,408,212Z"/><path class="cls-2" d="M402,329.83c0,5.49-2,10.84-10.63,11l-45.44.82-14.86.27-17.47.32a10.82,10.82,0,0,1-11-10.63l-.88-48.77-1.11-61-.19-10.66-.26-14.34-.61-33.57c-.11-6,2.47-10.9,10.63-11l35.21-.64,14.87-.27,11-.2,16.64-.3c8.49-.2,10.92,4.65,11,10.63l.52,28.74,1.48,81.79.26,14.34Z"/><path class="cls-6" d="M392.56,337.52,311.85,339a6.93,6.93,0,0,1-7.06-6.8L301.7,161.57a6.93,6.93,0,0,1,6.8-7l16.08-.29a3.19,3.19,0,0,1,3.24,3.12h0a6.92,6.92,0,0,0,7.05,6.8l29.42-.53a6.91,6.91,0,0,0,6.8-7.05h0a3.2,3.2,0,0,1,3.13-3.24l15-.27a6.93,6.93,0,0,1,7,6.8l3.09,170.61A6.94,6.94,0,0,1,392.56,337.52Z"/><path class="cls-6" d="M398.86,333.17a6.91,6.91,0,0,1-6.3,4.35l-24.91.45-1.26,0-.95,0h0l-11.47.2-2.47,0h-.21l-39.4.71a6.93,6.93,0,0,1-7.06-6.8v-.28l-.05-2.6-.17-9.58-.1-5.28-.13-7.2-.07-4-1.52-83.93L302.47,204l-.17-9.36,0-1.66-.08-4.34L301.86,170l0-.85-.14-7.61a6.93,6.93,0,0,1,6.8-7l16-.29h.06a2.87,2.87,0,0,1,.78.08l.28.08a3.23,3.23,0,0,1,2.18,3,6.79,6.79,0,0,0,1.06,3.56,6.42,6.42,0,0,0,.59.81,6.89,6.89,0,0,0,2.5,1.86,7,7,0,0,0,2.9.57l29.42-.53a6.91,6.91,0,0,0,6-3.62,6.83,6.83,0,0,0,.83-3.43,3.17,3.17,0,0,1,3.13-3.23l15-.28c.24,0,.49,0,.73,0a6.91,6.91,0,0,1,6.12,5.28,6.7,6.7,0,0,1,.2,1.5l.19,10.8.14,7.8.19,10.19.07,4.23.06,3s0,0,0,0l0,2.28.14,7.84.07,3.38.1,5.58,0,2.56,0,1.27.32,17.19h0l.23,12.18h0l.55,29.63.69,38.3v.78h0l0,2,.19,10.44,0,1.17A6.76,6.76,0,0,1,398.86,333.17Z"/><rect class="cls-5" x="331.32" y="326.05" width="35.54" height="2.33" rx="0.74"/><rect class="cls-5" x="310.9" y="182.15" width="77.99" height="10.5" rx="1.91" transform="translate(-3.34 6.37) rotate(-1.04)"/><path class="cls-5" d="M383.64,207.07l-67.7,1.23a5.15,5.15,0,0,0-5.06,5.22l1.29,96.54a5.14,5.14,0,0,0,5.19,5.08l68.18-.62a5.15,5.15,0,0,0,5.11-5.24l-1.76-97.15A5.15,5.15,0,0,0,383.64,207.07Z"/><rect class="cls-3" x="348.04" y="244.05" width="3.03" height="3.03" rx="1.06"/><path class="cls-3" d="M353,235a1.05,1.05,0,0,1,1,1.06V240a1.06,1.06,0,0,0,1.06,1.06h.91a1.05,1.05,0,0,0,1.06-1.06V227a1.05,1.05,0,0,0-1.06-1.06h-7A1.06,1.06,0,0,0,348,227v.91a1.06,1.06,0,0,1-1.06,1.06h-3.93A1.05,1.05,0,0,0,342,230v.9a1.05,1.05,0,0,0,1.06,1.06H347A1.06,1.06,0,0,1,348,233v.91A1.06,1.06,0,0,0,349.1,235H353Zm-.91-6.05H353a1.05,1.05,0,0,1,1,1.06v.9a1.05,1.05,0,0,1-1,1.06h-.91a1.05,1.05,0,0,1-1.06-1.06V230A1.05,1.05,0,0,1,352.13,228.92Z"/><rect class="cls-3" x="351.07" y="241.02" width="3.03" height="3.03" rx="1.06"/><path class="cls-3" d="M348,238v-2A1.05,1.05,0,0,0,347,235h-3.93A1.05,1.05,0,0,0,342,236v.91a1.06,1.06,0,0,0,1.06,1.06H344a1.06,1.06,0,0,1,1.06,1.05V240a1.05,1.05,0,0,0,1.06,1.06h.9A1.05,1.05,0,0,0,348,240Z"/><rect class="cls-3" x="354.09" y="244.05" width="3.03" height="3.03" rx="1.06"/><path class="cls-3" d="M344,241h-.91a1.06,1.06,0,0,0-1.06,1.06V246a1.05,1.05,0,0,0,1.06,1H344a1.06,1.06,0,0,0,1.06-1v-3.94A1.07,1.07,0,0,0,344,241Z"/><path class="cls-3" d="M345,277.34v-2a1.07,1.07,0,0,0-1.06-1.06h-.91a1.06,1.06,0,0,0-1.06,1.06v13a1.05,1.05,0,0,0,1.06,1.06H344a1.06,1.06,0,0,0,1.06-1.06v-3.93a1.06,1.06,0,0,1,1.06-1.06h.9a1.05,1.05,0,0,0,1.06-1.06v-.91a1.06,1.06,0,0,0-1.06-1.06h-.9a1.05,1.05,0,0,1-1.06-1.05Z"/><path class="cls-3" d="M326.86,274.31h-2a1.07,1.07,0,0,0-1.06,1.06v7a1.06,1.06,0,0,0,1.06,1.06h7a1.05,1.05,0,0,0,1.06-1.06v-7a1.06,1.06,0,0,0-1.06-1.06h-5Z"/><path class="cls-3" d="M329.88,241h2a1.05,1.05,0,0,0,1.06-1.06v-7a1.06,1.06,0,0,0-1.06-1.06h-7a1.07,1.07,0,0,0-1.06,1.06v7a1.06,1.06,0,0,0,1.06,1.06h5Z"/><path class="cls-3" d="M332.91,268.26H318.84a1.05,1.05,0,0,0-1.06,1.06v19.06a1.05,1.05,0,0,0,1.06,1.06H337.9a1.05,1.05,0,0,0,1.06-1.06V269.32a1.05,1.05,0,0,0-1.06-1.06h-5Zm3,6.05v11.05a1.07,1.07,0,0,1-1.06,1.06h-13a1.06,1.06,0,0,1-1.05-1.06v-13a1.05,1.05,0,0,1,1.05-1.06h13a1.06,1.06,0,0,1,1.06,1.06Z"/><path class="cls-3" d="M323.83,247.07H337.9a1.05,1.05,0,0,0,1.06-1V227a1.05,1.05,0,0,0-1.06-1.06H318.84a1.05,1.05,0,0,0-1.06,1.06V246a1.05,1.05,0,0,0,1.06,1h5Zm-3-6V230a1.05,1.05,0,0,1,1.05-1.06h13a1.06,1.06,0,0,1,1.06,1.06v13a1.07,1.07,0,0,1-1.06,1.06h-13a1.06,1.06,0,0,1-1.05-1.06Z"/><rect class="cls-3" x="375.28" y="286.42" width="3.03" height="3.03" rx="1.06"/><rect class="cls-3" x="348.04" y="286.42" width="3.03" height="3.03" rx="1.06"/><rect class="cls-3" x="363.17" y="286.42" width="3.03" height="3.03" rx="1.06"/><path class="cls-3" d="M377.25,256.15h-.91a1.05,1.05,0,0,1-1.06-1.06v-.9a1.05,1.05,0,0,0-1.06-1.06h-.91a1.06,1.06,0,0,0-1.06,1.06v.9a1.05,1.05,0,0,1-1.06,1.06h-.9a1.06,1.06,0,0,0-1.06,1.06v3.94a1.06,1.06,0,0,0,1.06,1.06h.9a1.05,1.05,0,0,1,1.06,1.06v.9a1.06,1.06,0,0,0,1.06,1.06h.91a1.05,1.05,0,0,0,1.06-1.06v-.9a1.05,1.05,0,0,1,1.06-1.06h3.93a1.06,1.06,0,0,0,1.06-1.06v-.91a1.05,1.05,0,0,0-1.06-1.06h-.9a1.05,1.05,0,0,1-1.06-1.06v-.91A1.07,1.07,0,0,0,377.25,256.15Z"/><path class="cls-3" d="M372.25,269.32v.91a1.06,1.06,0,0,1-1.06,1.06h-.9a1.06,1.06,0,0,1-1.06-1.06v-.91a1.06,1.06,0,0,0-1.06-1.06h-.91a1.05,1.05,0,0,0-1.06,1.06v.91a1.06,1.06,0,0,1-1.06,1.06h-.91a1.06,1.06,0,0,0-1.06,1.06v.9a1.06,1.06,0,0,0,1.06,1.06h.91a1.06,1.06,0,0,1,1.06,1.06v.91a1.06,1.06,0,0,0,1.06,1.06h.91a1.07,1.07,0,0,0,1.06-1.06v-.91a1.06,1.06,0,0,1,1.06-1.06h.9a1.06,1.06,0,0,1,1.06,1.06v.91a1.06,1.06,0,0,1-1.06,1.06h-.9a1.05,1.05,0,0,0-1.06,1.06v3.93a1.05,1.05,0,0,0,1.06,1.06h.9a1.06,1.06,0,0,1,1.06,1.06v.91a1.07,1.07,0,0,0,1.06,1.06h.91a1.06,1.06,0,0,0,1.06-1.06v-7a1.05,1.05,0,0,1,1.06-1.06h.91a1.07,1.07,0,0,0,1.06-1.06v-10a1.07,1.07,0,0,0-1.06-1.06h-.91a1.06,1.06,0,0,0-1.06,1.06v.91a1.05,1.05,0,0,1-1.06,1.06h-.91A1.06,1.06,0,0,0,372.25,269.32Z"/><path class="cls-3" d="M360.15,276.28v-.91a1.07,1.07,0,0,0-1.06-1.06h-.91a1.07,1.07,0,0,0-1.06,1.06v.91a1.06,1.06,0,0,1-1.06,1.06h-.91a1.07,1.07,0,0,1-1.06-1.06v-.91a1.06,1.06,0,0,0-1-1.06h-.91a1.05,1.05,0,0,1-1.06-1.06v-.9a1.06,1.06,0,0,0-1.06-1.06h-.91a1.06,1.06,0,0,0-1.06,1.06v7a1.06,1.06,0,0,0,1.06,1.05H353a1.06,1.06,0,0,1,1,1.06v.91a1.05,1.05,0,0,1-1,1.06h-.91a1.06,1.06,0,0,0-1.06,1.06v.91a1.06,1.06,0,0,0,1.06,1.06H353a1.05,1.05,0,0,1,1,1.06v.9a1.06,1.06,0,0,0,1.06,1.06h.91a1.05,1.05,0,0,0,1.06-1.06v-.9a1.06,1.06,0,0,1,1.06-1.06h3.93a1.06,1.06,0,0,0,1.06-1.06v-.91a1.07,1.07,0,0,1,1.06-1.06h.91a1.05,1.05,0,0,0,1.06-1.06V278.4a1.05,1.05,0,0,0-1.06-1.06h-3.93A1.06,1.06,0,0,1,360.15,276.28Zm-3,6.05v-.91a1.07,1.07,0,0,1,1.06-1.06h.91a1.07,1.07,0,0,1,1.06,1.06v.91a1.06,1.06,0,0,1-1.06,1.06h-.91A1.06,1.06,0,0,1,357.12,282.33Z"/><rect class="cls-3" x="369.23" y="250.1" width="3.03" height="3.03" rx="1.06"/><path class="cls-3" d="M345,267.2v-.91a1.07,1.07,0,0,0-1.06-1.06h-.91a1.06,1.06,0,0,0-1.06,1.06v3.94a1.06,1.06,0,0,0,1.06,1.06H347a1.06,1.06,0,0,0,1.06-1.06v-.91a1.05,1.05,0,0,0-1.06-1.06h-.9A1.05,1.05,0,0,1,345,267.2Z"/><rect class="cls-3" x="375.28" y="250.1" width="3.03" height="3.03" rx="1.06"/><path class="cls-3" d="M378.31,225.89h-17.1a1.05,1.05,0,0,0-1.06,1.06V246a1.05,1.05,0,0,0,1.06,1h19.06a1.05,1.05,0,0,0,1.06-1V227a1.05,1.05,0,0,0-1.06-1.06Zm0,6.05V243a1.07,1.07,0,0,1-1.06,1.06h-13a1.07,1.07,0,0,1-1.06-1.06V230a1.06,1.06,0,0,1,1.06-1.06h13a1.06,1.06,0,0,1,1.06,1.06Z"/><path class="cls-3" d="M343.05,259.18H344a1.06,1.06,0,0,1,1.06,1.06v3.93a1.05,1.05,0,0,0,1.06,1.06h.9a1.05,1.05,0,0,0,1.06-1.06v-7a1.06,1.06,0,0,0-1.06-1.06h-3.93a1.05,1.05,0,0,1-1.06-1.06v-.9a1.05,1.05,0,0,1,1.06-1.06H344a1.07,1.07,0,0,0,1.06-1.06v-.91A1.07,1.07,0,0,0,344,250.1h-7a1.06,1.06,0,0,0-1.06,1.06v.91a1.06,1.06,0,0,0,1.06,1.06h.9a1.05,1.05,0,0,1,1.06,1.06v.9a1.05,1.05,0,0,1-1.06,1.06H337a1.05,1.05,0,0,1-1.06-1.06v-.9a1.06,1.06,0,0,0-1.06-1.06H334a1.06,1.06,0,0,1-1.06-1.06v-.91a1.06,1.06,0,0,0-1.06-1.06h-13a1.06,1.06,0,0,0-1.06,1.06v7a1.05,1.05,0,0,0,1.06,1.06h.91a1.06,1.06,0,0,0,1.06-1.06v-3.93a1.05,1.05,0,0,1,1.05-1.06h.91a1.05,1.05,0,0,1,1.06,1.06v7a1.06,1.06,0,0,1-1.06,1.06h-3.93a1.05,1.05,0,0,0-1.06,1.06v.9a1.05,1.05,0,0,0,1.06,1.06h13a1.05,1.05,0,0,0,1.06-1.06v-3.93a1.05,1.05,0,0,1,1.06-1.06h3.93a1.05,1.05,0,0,1,1.06,1.06v.91a1.06,1.06,0,0,1-1.06,1.06H337a1.05,1.05,0,0,0-1.06,1.06v.9a1.05,1.05,0,0,0,1.06,1.06h3.93a1.05,1.05,0,0,0,1.06-1.06v-3.93A1.05,1.05,0,0,1,343.05,259.18Z"/><path class="cls-3" d="M369.23,231.94h-2A1.06,1.06,0,0,0,366.2,233v7a1.05,1.05,0,0,0,1.06,1.06h7a1.05,1.05,0,0,0,1.06-1.06v-7a1.06,1.06,0,0,0-1.06-1.06h-5Z"/><rect class="cls-3" x="357.12" y="268.26" width="3.03" height="3.03" rx="1.06"/><path class="cls-3" d="M364.23,268.26h.91a1.05,1.05,0,0,0,1.06-1.06v-3.93a1.05,1.05,0,0,0-1.06-1.06h-.91a1.06,1.06,0,0,0-1.06,1.06v3.93A1.06,1.06,0,0,0,364.23,268.26Z"/><rect class="cls-3" x="369.23" y="265.23" width="3.03" height="3.03" rx="1.06"/><rect class="cls-3" x="348.04" y="265.23" width="3.03" height="3.03" rx="1.06"/><rect class="cls-3" x="363.17" y="250.1" width="3.03" height="3.03" rx="1.06"/><rect class="cls-3" x="351.07" y="268.26" width="3.03" height="3.03" rx="1.06"/><rect class="cls-3" x="345.02" y="247.07" width="3.03" height="3.03" rx="1.06"/><path class="cls-3" d="M357.12,265.23v-2a1.06,1.06,0,0,1,1.06-1.06h3.93a1.06,1.06,0,0,0,1.06-1.06v-.91a1.06,1.06,0,0,1,1.06-1.06h.91a1.05,1.05,0,0,0,1.06-1.06v-.91a1.06,1.06,0,0,0-1.06-1.06h-.91a1.06,1.06,0,0,1-1.06-1.06v-.9a1.05,1.05,0,0,0-1.06-1.06h-.9a1.06,1.06,0,0,1-1.06-1.06v-.91a1.07,1.07,0,0,0-1.06-1.06h-.91a1.07,1.07,0,0,0-1.06,1.06v.91a1.06,1.06,0,0,1-1.06,1.06h-.91a1.07,1.07,0,0,1-1.06-1.06v-.91a1.06,1.06,0,0,0-1-1.06h-.91a1.06,1.06,0,0,0-1.06,1.06v3.93a1.05,1.05,0,0,0,1.06,1.06H353a1.06,1.06,0,0,1,1,1.06v.91a1.05,1.05,0,0,1-1,1.06h-.91a1.05,1.05,0,0,0-1.06,1.06v.91a1.06,1.06,0,0,0,1.06,1.06H353a1.05,1.05,0,0,1,1,1.06v3.93a1.06,1.06,0,0,0,1.06,1.06h.91a1.05,1.05,0,0,0,1.06-1.06Zm1.06-9.08h.91a1.07,1.07,0,0,1,1.06,1.06v.91a1.06,1.06,0,0,1-1.06,1.06h-.91a1.06,1.06,0,0,1-1.06-1.06v-.91A1.07,1.07,0,0,1,358.18,256.15Z"/><path class="cls-14" d="M399.45,190.26l-92.6,92.6h-5.17l-1.11-61,70.7-70.7,16.64-.3c8.89,0,10.92,4.65,11,10.63Z"/><path class="cls-8" d="M362.38,388.21c-3.41,8-21.29,7.23-46.11,4.67s-35.52-5-48.77-14.55-11.27-43.5-11.05-56.15,7.64-24.94,14.57-39c4.77-9.67,8.44-21.17,10.86-30.56,1-4,1.86-7.63,2.44-10.55,0-.18.07-.35.1-.53,1.89-9.68,10.54-9.13,10.54-9.13s4.58-.33,9.35,4.07c12.7,14.66-2.4,55.14,10.94,71.46,13.92,18.69,13.19,33.93,13.19,33.93s48.86-.67,59.75-.95c-4.79,12.63-16.05,20.55-21,24.13S365.79,380.18,362.38,388.21Z"/><polygon class="cls-14" points="401.19 286.39 345.91 341.67 331.05 341.94 400.93 272.05 401.19 286.39"/><path class="cls-8" d="M417.38,273.21c-6,6.79-15.91,12.31-21.93,5.19a10.9,10.9,0,0,1-2.25-9.61,18.74,18.74,0,0,1,2.79-6.5c7.25-12,13.55-16,19-15.05a12.15,12.15,0,0,1,6.28,3.45C427.83,257,423.41,266.43,417.38,273.21Z"/><path class="cls-8" d="M408.21,280.91c-4.13.14-9.29,2.66-16.06,9-5.45,5.23-6.26,10.88-4.15,14.17s7.49,7.43,19.44,1.48,12.59-15.21,10.4-18.63S412.33,280.77,408.21,280.91Z"/><path class="cls-12" d="M411.6,259.8c-6.86,10-13.49,4.86-18.4,9a18.74,18.74,0,0,1,2.79-6.5c7.25-12,13.55-16,19-15.05C414.55,250.79,413.57,257.23,411.6,259.8Z"/><path class="cls-8" d="M408.14,230.64s-9.8-7.15-18.41,1-19.55,24-9.82,31.76c11.79,9.36,24.87-8.56,29.84-15.61C412.75,243.34,414.16,235.72,408.14,230.64Z"/><path class="cls-12" d="M388.19,341c-26,25.85-58.47,15.61-58.47,15.61s-.41.59-4.1,7.14c1.42-6.4,2.82-21.8,2.82-21.8S377.3,341.23,388.19,341Z"/><path class="cls-15" d="M289.88,254.16c-1.45,1.61-5.95,1.15-7.61-1.29,1-4,1.85-7.62,2.44-10.55a4.35,4.35,0,0,1,6.32-1.27C294,243.82,292.37,251,289.88,254.16Z"/><path class="cls-15" d="M393.22,299.13s-1.48,3.94,3.23,5.65c3.12-.21,8.7-3,6.58-7.73C399.36,292.48,393.22,299.13,393.22,299.13Z"/><path class="cls-15" d="M384.76,248.35s7.74-.49,8.68,6.53c0,0-4.25,8.46-10.1,5.68S384.76,248.35,384.76,248.35Z"/><path class="cls-15" d="M403.28,264.36s8-.55,7.33,6.27c-4.06,6.06-7.28,7.32-10.21,5.31C396.75,273.26,400.23,267,403.28,264.36Z"/><path class="cls-12" d="M260.92,328.12c1,8.33,1.21,19,4.25,27.55A26.53,26.53,0,0,0,272,366.8a33.74,33.74,0,0,0,6.24,4.81c1.72,1.2-.11,4.65-2,3.79a22.55,22.55,0,0,1-9.57-8.82C261.05,358.25,261,341.94,260.92,328.12Z"/><rect class="cls-5" x="382.28" y="171.45" width="6.6" height="2.77" rx="0.67"/><rect class="cls-5" x="310.62" y="171.45" width="6.6" height="2.77" rx="0.67"/><path class="cls-4" d="M240.57,282.86h-1a.81.81,0,0,1,.05.31V287a1.27,1.27,0,0,1-1.27,1.27H172.38a1.27,1.27,0,0,1-1.27-1.27v-3.86a.81.81,0,0,1,0-.31h-1a3,3,0,0,0,0,.31V287a2.27,2.27,0,0,0,2.27,2.27h65.94a2.27,2.27,0,0,0,2.27-2.27v-3.86A3,3,0,0,0,240.57,282.86Z"/><path class="cls-14" d="M325.57,73.39,116.1,282.86h-64a9.33,9.33,0,0,1-2.81-.43l209-209Z"/><polygon class="cls-14" points="234.09 73.39 42.61 264.87 42.61 250.28 219.49 73.39 234.09 73.39"/><path class="cls-14" d="M370.06,81.35,168.55,282.86H154L363.11,73.7A9.5,9.5,0,0,1,370.06,81.35Z"/><polygon class="cls-14" points="360.22 151.39 300.38 211.23 300.12 196.89 345.35 151.66 360.22 151.39"/><line class="cls-16" x1="153.95" y1="168.73" x2="167.45" y2="168.73"/><line class="cls-16" x1="153.95" y1="186.07" x2="167.45" y2="186.07"/><circle class="cls-5" cx="180.53" cy="168.73" r="1.17"/><circle class="cls-5" cx="191.64" cy="168.73" r="1.17"/><circle class="cls-5" cx="180.53" cy="186.07" r="1.17"/><circle class="cls-5" cx="191.64" cy="186.07" r="1.17"/><path class="cls-17" d="M254,212.38a1,1,0,0,1-.71-.29l-3.42-3.42a1,1,0,0,1,0-1.41,1,1,0,0,1,1.42,0L254,210l9.55-9.55a1,1,0,0,1,1.42,0,1,1,0,0,1,0,1.41l-10.26,10.26A1,1,0,0,1,254,212.38Z"/><circle class="cls-6" cx="74.46" cy="160.58" r="1.96"/><circle class="cls-6" cx="74.46" cy="169.52" r="1.96"/><circle class="cls-6" cx="74.46" cy="178.47" r="1.96"/><circle class="cls-6" cx="74.46" cy="187.41" r="1.96"/><circle class="cls-6" cx="74.46" cy="196.35" r="1.96"/><path class="cls-6" d="M79.26,119.62c0-.12-1.36-12,8.7-14.75,7.91-1.92,11.16,5.3,11.2,5.37l-1.11.48c-.11-.26-2.9-6.36-9.79-4.68-9,2.5-7.87,13.13-7.81,13.58Z"/><path class="cls-6" d="M100.26,128.1H77.91a5.1,5.1,0,0,1-5.4-5.4c0-4,2.74-6.13,7.67-6.13v1.21c-5.4,0-6.47,2.61-6.47,4.92a3.91,3.91,0,0,0,4.2,4.2h22.35c3.18,0,6.68-1,6.68-6.53a8.1,8.1,0,0,0-1.74-5,6.25,6.25,0,0,0-4.78-1.75,7.11,7.11,0,0,0-6.27,4l-1.1-.49a8.31,8.31,0,0,1,7.37-4.74,7.38,7.38,0,0,1,5.67,2.14,9.1,9.1,0,0,1,2,5.85C108.14,125.39,105.46,128.1,100.26,128.1Z"/><polygon class="cls-6" points="95.46 117.86 92.16 115.92 92.68 118.81 95.46 117.86"/><polygon class="cls-6" points="99.67 108.6 96.33 110.46 99.08 111.48 99.67 108.6"/><rect class="cls-6" x="181.3" y="145.47" width="48.1" height="3.76" rx="1.39"/><path class="cls-18" d="M116.32,315.19S99.16,394.65,190.47,426.9c54.87,15,94.69-25.07,94.69-25.07"/><path class="cls-18" d="M417.38,230.75s19.42,2,19.42-22.12V178.28"/><circle class="cls-9" cx="116.32" cy="315.19" r="4.58"/><circle class="cls-9" cx="285.16" cy="401.82" r="4.58"/><circle class="cls-9" cx="415.96" cy="230.79" r="4.58"/><circle class="cls-9" cx="436.8" cy="177.8" r="4.58"/><circle class="cls-4" cx="174.05" cy="52.3" r="3.29"/><circle class="cls-4" cx="594.46" cy="61.46" r="3.29"/><circle class="cls-4" cx="423.37" cy="316.55" r="3.01"/><circle class="cls-4" cx="436.64" cy="353.36" r="3.01"/><circle class="cls-4" cx="344.25" cy="429.91" r="3.01"/><circle class="cls-4" cx="236.17" cy="44.39" r="2.33"/><circle class="cls-12" cx="284.27" cy="376.28" r="1.4"/></g></g></svg>