<svg xmlns="http://www.w3.org/2000/svg" viewBox="0 0 543.25 487.96"><defs><style>.cls-1{isolation:isolate;}.cls-11,.cls-12,.cls-15,.cls-16,.cls-18,.cls-19,.cls-2,.cls-22,.cls-29,.cls-30,.cls-31,.cls-32,.cls-33,.cls-5{fill:none;}.cls-2,.cls-22,.cls-5{stroke:#33b5fe;}.cls-18,.cls-2,.cls-22,.cls-32{stroke-linecap:round;stroke-linejoin:round;}.cls-21,.cls-3{fill:#8d8d8e;opacity:0.64;}.cls-20,.cls-28,.cls-4{fill:#fff;}.cls-11,.cls-12,.cls-15,.cls-16,.cls-19,.cls-29,.cls-30,.cls-31,.cls-33,.cls-5{stroke-miterlimit:10;}.cls-11,.cls-15,.cls-16,.cls-22,.cls-29,.cls-30,.cls-31,.cls-32,.cls-5{stroke-width:2px;}.cls-6{fill:#33b5fe;}.cls-7{fill:#2687be;}.cls-8{fill:#30a3e6;}.cls-9{fill:#fdb801;}.cls-10{fill:#fd8c01;}.cls-11{stroke:#fea401;}.cls-12,.cls-19,.cls-30{stroke:#fecc01;}.cls-12{stroke-width:3px;}.cls-13{fill:#f46d02;}.cls-14{fill:#195a81;}.cls-15{stroke:#195a81;}.cls-16,.cls-18{stroke:#0e2d40;}.cls-17{fill:#0e2d40;}.cls-20,.cls-27{opacity:0.51;}.cls-21{mix-blend-mode:multiply;}.cls-23{fill:#febfa7;}.cls-24{fill:#e7978e;}.cls-25{fill:#fea401;}.cls-26{fill:#fecc01;}.cls-28{opacity:0.45;}.cls-29,.cls-32{stroke:#fff;}.cls-31{stroke:#fd8c01;}.cls-33{stroke:#e7978e;}</style></defs><title>Ресурс 1</title><g class="cls-1"><g id="Слой_2" data-name="Слой 2"><g id="Layer_1" data-name="Layer 1"><path class="cls-2" d="M10.55,126.87s8.88-30.57,34.61-24.39,59.65,28.1,105.51,22c45.29-6,50.47-11.28,77.13-48.35"/><path class="cls-2" d="M155.23,487.46s43.88-93,95.83-85.33c24.61,3.62,35.52,25.69,75.44,28.7s87.26-22.73,125.36-56.56,72.27-15,76.11-6.48"/><path class="cls-2" d="M296.14,319.79s23.53,59.66,64.05,35.21c56.51-34.11,88.23-83.29,171.78-58.17"/><path class="cls-2" d="M542.75,66.34s-5-14.11-17.16-10.54-23.77,17.68-34,18.93"/><path class="cls-2" d="M533.92,208.74s-4.72-13.9-16.77-8.24a68.14,68.14,0,0,0-20.08,14.85"/><path class="cls-2" d="M8,392.62s3.25-15.19,26.64-9.44"/><path class="cls-3" d="M322.78,259.28,144.35,358.52s-61.84,88.21-52.93,103.3c0,0,4.93,14.46,20.35,11.76s87.2-29.41,102.11-43.72c8.39-7.95,3.94-23.69,0-34.35,14.82-1.75,39-6.46,67.2-20.48-4,9-.52,10.87,4.27,13.75,5.75,3.56,7.82,4,18.21-10.29,2.78-4,12.53-17.23,22.72-31l.6-.82c13.22-17.81,26.95-36.19,26.95-36.19a28.8,28.8,0,0,0,26.21,1.3c8.78-3.26,14.34-12.23,14.34-12.23h104.2a7.82,7.82,0,0,0,3.27-.72h0a7.87,7.87,0,0,0,3.2-2.71,8,8,0,0,0,.61-1.07,7.88,7.88,0,0,0,.74-3.33v-27Z"/><rect class="cls-4" x="222.96" y="41.32" width="282.44" height="236.75" rx="9.11"/><rect class="cls-5" x="222.96" y="41.32" width="282.44" height="236.75" rx="9.11"/><rect class="cls-6" x="240.18" y="85.54" width="55.96" height="20.67" rx="4.19"/><rect class="cls-6" x="308.22" y="85.54" width="176.05" height="6.08" rx="2.33"/><rect class="cls-6" x="308.22" y="100.13" width="176.05" height="6.08" rx="2.33"/><path class="cls-6" d="M480.51,249.56H312a3.81,3.81,0,0,1-3.77-3.83V115.53A3.81,3.81,0,0,1,312,111.7H480.51a3.8,3.8,0,0,1,3.76,3.83v130.2A3.8,3.8,0,0,1,480.51,249.56ZM312,114.7a.83.83,0,0,0-.82.83v130.2a.83.83,0,0,0,.82.83H480.51a.82.82,0,0,0,.81-.83V115.53a.82.82,0,0,0-.81-.83Z"/><rect class="cls-6" x="240.18" y="113.2" width="55.96" height="68.28" rx="4.19"/><ellipse class="cls-4" cx="369.34" cy="271.71" rx="28.39" ry="22.59" transform="translate(-73.74 389.69) rotate(-51.25)"/><path class="cls-4" d="M331.51,249.75A121.61,121.61,0,0,1,214.72,371.27c-1.6.07-3.21.1-4.83.1a121.64,121.64,0,0,1-49.8-232.61,121.75,121.75,0,0,1,49.8-10.64A121.63,121.63,0,0,1,331.51,249.75Z"/><polygon class="cls-4" points="263.71 185.31 260.9 184.22 250.28 187.91 226.97 243.1 245.34 279.12 278.64 281.9 290.31 275.48 293.12 260.75 294.22 243.82 290.31 225.59 283.63 209.6 273.12 193.59 263.71 185.31"/><path class="cls-7" d="M290.31,275.48q-1,2.28-1.9,4.32c-3.32,7.38-6,12.44-7.88,15.8l-.1.18c-.65,1.11-1.21,2-1.69,2.79a25.72,25.72,0,0,1-2.12,3l-3.05,2.8L258.8,317.93l-3.25,3-5,2.21-14.45,6.39-.16.07s-15.81,4.12-16.24,4.12-25.29-1.38-25.29-1.38L184,330.68,119.1,240.92l22.33-43.25,17.63-14.75,14-8.65,23-7.82,18.19-.55,14.83,2.1,12.56,4.29.29.16,16.1,9,.48.31,4.46,2.94-.21.07c-1.48.5-10.34,4-11.16,17.41-.88,14.6-4.6,18.14-9.47,24.34S235,248.41,244.57,252s17.13,6,21.66,15.1,6.94,11.2,23.4,8.46Z"/><path class="cls-6" d="M289.63,275.6l-1.22,4.2-1.56,5.37-6.32,10.43-.1.18-1.69,2.79-5.17,5.81L270.31,308l-10.83,9.46-.68.43-8.26,5.19-.2.13-13.94,6.18-.31.08-11,2.81a17.66,17.66,0,0,1,8-16.1c9.27-6.25,13-15.83,10.21-25.41S225.37,273.94,218,263.74s-8.49-32.57,4.17-44.57c9.58-9.58,12.7-17.18,14.26-31,1.16-10.22,4.11-14.27,5.58-15.69a3.92,3.92,0,0,1,.86-.68l12.26,7.59,3.46,2.44,4.25,3c-1.48.5-10.34,4-11.16,17.41-.88,14.6-2.73,18.63-7.6,24.83S241.91,248,253.5,249.8s12.12,5.82,13.1,13.68C267.85,273.47,273.17,278.34,289.63,275.6Z"/><path class="cls-8" d="M206.86,197.25c-4.68,31.46-33.55,46.81-48.36,51.18s-20.26-35.19-20.26-35.19.68-4.66,2.16-10.61a84.18,84.18,0,0,1,19-20,82,82,0,0,1,7.28-4.91,83.14,83.14,0,0,1,26.77-10.33C199.89,169.06,210.15,175.16,206.86,197.25Z"/><path class="cls-9" d="M231.13,168.5c-23.63-.15-34,7.84-43.3,15-4.2,3.23-8.18,6.29-13,8.21a18.65,18.65,0,0,1-6.59,1.4,8.13,8.13,0,0,1-7.54-4.14,11.68,11.68,0,0,1-1.28-6.3,82,82,0,0,1,7.28-4.91c-1.25,2.61-1.85,6.35-.78,8.26s4.68.88,6.73.1c4-1.59,7.46-4.27,11.5-7.38,5.82-4.49,12.47-9.59,22.61-12.85,1,0,2.06-.06,3.1-.06A84.06,84.06,0,0,1,231.13,168.5Z"/><path class="cls-10" d="M241.68,327.47l-1.16.47a47,47,0,0,0,0-8.22,23.94,23.94,0,0,0-1-4.82,19.09,19.09,0,0,0-2.23-4.3,16.76,16.76,0,0,0-2.7-3.05l-.55-.49c-.37-.27-.74-.56-1.12-.82a8.94,8.94,0,0,0-.84-.51,12.15,12.15,0,0,0-2.13-1,16.73,16.73,0,0,0-9.34-.53,35.21,35.21,0,0,0-9.11,3.52c-2.89,1.58-5.63,3.42-8.42,5.21-5.56,3.61-10.85,7.76-16.17,12l-.76-.65a49.74,49.74,0,0,1,6.57-8.1c1.21-1.24,2.5-2.41,3.8-3.58s2.69-2.23,4.13-3.24a44.3,44.3,0,0,1,9.24-5.06,52.94,52.94,0,0,1,10.21-3,19.46,19.46,0,0,1,10.78,1.15,14.78,14.78,0,0,1,2.42,1.29,12.63,12.63,0,0,1,1.68,1.22l.51.43c.34.32.68.65,1,1a19.16,19.16,0,0,1,2.46,3.16,20.29,20.29,0,0,1,2.23,4.87,25.47,25.47,0,0,1,.8,5.23A46.83,46.83,0,0,1,241.68,327.47Z"/><path class="cls-9" d="M256.82,180.12c-7.07,7-14.28,5.89-22.46,4.65a84.09,84.09,0,0,0-11-1.14h-.28c-8.33,0-19.93,8-30.18,15.14a167.87,167.87,0,0,1-15.24,9.81,40.32,40.32,0,0,1-5.48,2.52,23.92,23.92,0,0,1-8.21,1.48c-.53,0-1.05,0-1.56-.05a26.6,26.6,0,0,1-17.86-9.15l4.64-3.8c.35.42,8.72,10.32,20.95,5.88,5.38-2,12.16-6.65,19.34-11.62,11.66-8.08,23.72-16.46,34-16.21a89,89,0,0,1,11.73,1.21c7.16,1.08,11.72,1.77,16.28-2C253.33,177.86,255.1,179,256.82,180.12Z"/><path class="cls-11" d="M154,186.92s10.55,21.58-10.28,26"/><path class="cls-12" d="M233,320.48s8.56-9.47,19.09,2.24"/><path class="cls-9" d="M274.09,195.66c-5.84,10.13-13.84,9.52-26.3,8.58-4.32-.32-9.22-.69-15-.74h-.24c-12,0-22.06,7.51-32.66,15.45-5.63,4.22-11.38,8.53-17.62,11.83-1,.55-2.1,1.08-3.17,1.57a47.41,47.41,0,0,1-10.61,3.46l-.14,0a52.42,52.42,0,0,1-7.69.58c-14,0-20.85-6.08-21.19-6.38l2-2.22,2-2.24,0,0a20.26,20.26,0,0,0,7.46,3.57c.67.19,1.38.37,2.15.53a41.46,41.46,0,0,0,14.29.21,46,46,0,0,0,14.09-5.57q1.53-.87,3-1.83c4-2.55,7.93-5.47,11.76-8.35,11-8.24,22.4-16.74,36.55-16.65,6,.05,11,.43,15.44.76,12.77,1,17.43,1.31,21.56-7.32C271.29,192.45,272.72,194,274.09,195.66Z"/><path class="cls-10" d="M289.34,276.92c-.63,1.86-1.33,3.68-2.09,5.48-6.48,4.73-16.5,10.43-28.66,12.08-2.63.39-5.12.66-7.49.83-1.13.09-2.24.16-3.32.2-5.69.26-10.69.05-15.3-.15-14.25-.61-24.54-1.06-40,13.76L190.42,307c16.37-15.71,27.76-15.22,42.19-14.6a145.37,145.37,0,0,0,18.86-.08c1.08-.09,2.17-.2,3.3-.33s2.23-.27,3.39-.44C272.39,289.58,283.75,281.6,289.34,276.92Z"/><path class="cls-13" d="M292.62,264c-.11.71-.24,1.41-.39,2.11-6.78.83-17.76,4.08-27.59,15.5-3.33,3.82-6.62,7.23-9.87,10.31-1.23,1.17-2.45,2.28-3.67,3.36a126.22,126.22,0,0,1-14.6,11c-.63.41-1.27.81-1.9,1.2a201.47,201.47,0,0,1-24.3,12.59c-10.19,5-14.16,9.57-15.68,12.17-.7-.12-1.39-.26-2.07-.41,1.51-2.91,5.65-8.08,16.9-13.57a205.16,205.16,0,0,0,23.48-12.09l2.06-1.3a122.32,122.32,0,0,0,12.79-9.43c1.22-1,2.45-2.1,3.69-3.23a143.38,143.38,0,0,0,11.66-11.95C273.78,268,285.55,264.74,292.62,264Z"/><path class="cls-10" d="M293.35,240.68a16.82,16.82,0,1,1-10.29-30.13c.37,0,.74,0,1.1,0a83.79,83.79,0,0,1,7.28,19.14q.74,3,1.25,6.15Q293.09,238.27,293.35,240.68Z"/><path class="cls-13" d="M273.56,234.91a15.84,15.84,0,0,0,2.29,1.58A8,8,0,0,1,273.56,234.91Z"/><path class="cls-9" d="M292.69,235.88c-4,5.1-11.82,3.53-16.84.61,3.74,1.69,7.25-1,10.22-4,3.56-3.6,5.37-2.73,5.37-2.73Q292.18,232.76,292.69,235.88Z"/><ellipse class="cls-9" cx="274.87" cy="222.52" rx="1.75" ry="1.39"/><path class="cls-14" d="M186.08,364.85s31.67,9.35,60.52-3.29c-10.85,1.78-15.52,2.33-19.65-.76s-11.67.07-13.32,1.65c-2.61-3-12.41-10.3-20.53-9.68S177.36,363,186.08,364.85Z"/><path class="cls-15" d="M183.07,131.1a121.49,121.49,0,1,1-12.89,3.66"/><path class="cls-15" d="M293.84,249.75A83,83,0,0,1,292.62,264c-.11.71-.24,1.41-.39,2.11a80.92,80.92,0,0,1-2.89,10.77h0c-.63,1.86-1.33,3.68-2.09,5.48a84.23,84.23,0,0,1-45.57,45.07l-1.16.47a84.4,84.4,0,0,1-45.9,4.37c-.7-.12-1.39-.26-2.07-.41a84,84,0,0,1-33.1-149.27,82,82,0,0,1,7.28-4.91,83.14,83.14,0,0,1,26.77-10.33,85.41,85.41,0,0,1,13.29-1.54c1,0,2.06-.06,3.1-.06a83.67,83.67,0,0,1,41.64,11c1.8,1,3.57,2.14,5.29,3.3a84.69,84.69,0,0,1,13,10.82c1.49,1.51,2.92,3.09,4.29,4.72a83.67,83.67,0,0,1,19.26,45A82.44,82.44,0,0,1,293.84,249.75Z"/><path class="cls-13" d="M227,198.68c-.51-2.22-2.91-9.17-4.11-9.17,0,0-4.19.06-5.62,3.93s-4.88,12.13-.64,15.79,8.48-1.8,9.81-4.45S227.47,200.91,227,198.68Zm-8.89,9c-2.46-2.85,1-12.28,1.09-12.36a20.74,20.74,0,0,1,1.07,3.61C220.54,200.65,220.54,210.49,218.08,207.65Z"/><path class="cls-14" d="M269.33,351.43s18.79-9.74,24.89-19.11c-4.39,2.89-7.17,5.52-13.65,7.76s-9,4.93-11,8.3S268.59,352,269.33,351.43Z"/><path class="cls-14" d="M309.23,189a2.92,2.92,0,0,0-1.47,3.47c.46,2.54,7.58,4.6,10.71,12.67C316.42,197.63,310.89,188.1,309.23,189Z"/><path class="cls-14" d="M129.87,162.17s20.35-20.36,51.54-26.11c-3.68,1.62-4.57,1.42-5,3.21-.42,1.64-1.24,5.14-9.87,7.11S143.23,151.34,129.87,162.17Z"/><ellipse class="cls-16" cx="369.34" cy="271.71" rx="28.39" ry="22.59" transform="translate(-73.74 389.69) rotate(-51.25)"/><path class="cls-17" d="M354.07,297.49l-66.72,86a3.74,3.74,0,0,1-5.28.61l-2-1.63a3.72,3.72,0,0,1-.55-5.28l69.63-83.5c1.3-1.58,3.18-2.39,4.78-1.11h0l0,0C355.55,293.9,355.33,295.88,354.07,297.49Z"/><ellipse class="cls-17" cx="360.19" cy="258.34" rx="1.77" ry="2.1"/><path class="cls-17" d="M346.76,265.85s9.85-6.41,15.21-.42,4,18.23,10.82,19.22,18.39-2.09,20.54-17.28c1.79,5.71-2.86,13.22-2.86,13.22l-6.55,9.61-8.85,5.94-7.82,1.92-8.63-.44-9.7-5.55-4.69-9,.22-12Z"/><circle class="cls-10" cx="464.01" cy="143.38" r="5.84"/><path class="cls-18" d="M185.78,242.07l4.6,5.33a3.84,3.84,0,0,0,2.71,1.34l6.07.35"/><path class="cls-18" d="M206.86,225.69l4.4,5.5a3.94,3.94,0,0,1,.82,2.92l-.77,6"/><path class="cls-18" d="M218.32,248.08s1.05-1.24,4.14.53S240.4,260.8,243,260.82a18.83,18.83,0,0,0,3.3-.45"/><path class="cls-18" d="M214.83,244.15l1.64-.35a1.22,1.22,0,0,0,1-1.22l-.15-7.4a1.61,1.61,0,0,1,.67-1.34l3.71-2.67"/><path class="cls-18" d="M202.15,253.72l-.73,1.52a1.22,1.22,0,0,1-1.41.66L192.84,254a1.57,1.57,0,0,0-1.45.34l-3.46,3"/><path class="cls-18" d="M205.22,258.58s-1.47.71-.52,4.14,7.33,20.42,6.71,22.9a18.88,18.88,0,0,1-1.26,3.08"/><path class="cls-14" d="M199.19,252.63s7,11.3,15.58,13.55,8.72-6.6,8.72-6.6.16-9.42-13.61-21.66c-6.63-3.51-13,1.61-13,1.61S194.94,244.9,199.19,252.63Z"/><path class="cls-17" d="M194.35,238s4.56-4.56,8.66-6-.22,9.78-.22,9.78l-5.81-.26S193.28,239.37,194.35,238Z"/><circle class="cls-14" cx="196.69" cy="241.78" r="4.45"/><circle class="cls-14" cx="204.58" cy="236.16" r="4.45"/><path class="cls-17" d="M223.53,260.4c0,2.83-.24,4.6-2,5.78-2,1.34-6.75,0-6.75,0s.41-7-.93-9.34-12.88-6.64-16-7.1h0c0-.19-.46-2.41,2.29-4.12s4.64,1.06,8.46-.53,1.35-7,1.27-7.15a6.66,6.66,0,0,1,2,1.82h0c0,.34-.06.78-.07,1.31,0,4.34,1.08,14.27,2.78,15.95s7.06,3,8.45,3.25a.68.68,0,0,0,.17,0l.16,0Z"/><path class="cls-17" d="M197,239.07a2,2,0,0,0-.63,2.07c.24,1.48.22,3.08-2,2.79a3,3,0,1,0,2.63-4.86Z"/><path class="cls-11" d="M184.53,271.83s26.34-2.4,10.15,22.72"/><path class="cls-17" d="M207,233.92s1.63.86.72,3.07-2.41,1.81-2.7,1.7-.79-1.22.5-2.09S207.79,235.33,207,233.92Z"/><path class="cls-19" d="M182.87,219.86s-6.05-9.12-20.49,11.31"/><path class="cls-17" d="M203.93,238.27a.71.71,0,0,0-.1-1c-.5-.55-1-.64-1.27-.36a.68.68,0,0,0,.12.94C203.12,238.3,203.64,238.5,203.93,238.27Z"/><path class="cls-20" d="M214.77,266.18s.84,18.33-7,18.33S196,272.5,196,261.91c.18-7.27,1.59-11.35,1.91-12.18h0c3.09.46,14.64,4.76,16,7.1S214.77,266.18,214.77,266.18Z"/><path class="cls-20" d="M242.88,258.37c-1.92,7.13-17.6,2.56-19.35,2l-.16,0-.16,0a.68.68,0,0,1-.17,0c-1.39-.3-6.8-1.6-8.45-3.25s-2.81-11.61-2.78-15.95c0-.53,0-1,.07-1.31h0c.93-.09,5.22-.38,12.24,1.32C234.36,243.82,244.91,250.82,242.88,258.37Z"/><line class="cls-18" x1="191.94" y1="227.71" x2="198.93" y2="236.83"/><path class="cls-18" d="M194.35,235.73a5.43,5.43,0,0,1,4,1.05"/><path class="cls-18" d="M199.05,232.27a7.26,7.26,0,0,0,.11,3.5"/><path class="cls-21" d="M220.17,364.21l-5.34,2.39s-.1,3.53-.16,5.68c-1.6.07-3.16.13-4.78.13a122.45,122.45,0,0,1-25.58-2.72l2.23-9.23,1.39-27.24-61.07-31.33L102.69,192.27,95.3,158.75l28.28-79.38,20.64-61.49,10.37-4.77a7.21,7.21,0,0,1,9.51,3.46l21.82,46a2.91,2.91,0,0,0,3.8,1.42l4.09-1.79c4.16,13.06-24.15,23.34-24.15,23.34L195,141.69s-3.85,1.94-15.5,5.66-19.45-8.59-19.45-8.59l-21.85,13.42,14.1,34.74a92.15,92.15,0,0,1,9.3-13.63c4.75-5.41,17.75-8,19.22,6.14s-10.53,41.15-10.53,41.15.61,2.38,2.14,6.47c24.68-5,26.72,25.58,26.72,25.58l7.17,31.88s11-3.87,17.8,9.23-10.06,26.62-10.06,26.62L226.38,348A12.27,12.27,0,0,1,220.17,364.21Z"/><path class="cls-4" d="M183.2,131.12c-12.48,6.55-14.56,3.19-19,.52L99.45,161.28a6.56,6.56,0,0,1-8.7-3.24L66.53,105.35a6.55,6.55,0,0,1,3.24-8.69L84.43,90,140.8,64.14a6.56,6.56,0,0,1,8.69,3.23l1.33,2.89,22.89,49.8C175.22,123.36,178.72,130.6,183.2,131.12Z"/><path class="cls-4" d="M178.2,65.92c-12.48,6.55-14.56,3.19-19,.52l-8.35,3.82-1.33-2.89a6.56,6.56,0,0,0-8.69-3.23L84.43,90,66.53,50.88a6.56,6.56,0,0,1,3.24-8.7l71-32.52a6.55,6.55,0,0,1,8.69,3.24l19.22,42C170.21,58.15,173.72,65.4,178.2,65.92Z"/><path class="cls-22" d="M178.2,65.92c-12.48,6.55-14.56,3.19-19,.52l-8.35,3.82-1.33-2.89a6.56,6.56,0,0,0-8.69-3.23L84.43,90,66.53,50.88a6.56,6.56,0,0,1,3.24-8.7l71-32.52a6.55,6.55,0,0,1,8.69,3.24l19.22,42C170.21,58.15,173.72,65.4,178.2,65.92Z"/><line class="cls-22" x1="84.04" y1="105.23" x2="136.13" y2="81.52"/><line class="cls-22" x1="88.73" y1="114.51" x2="140.82" y2="90.8"/><line class="cls-22" x1="92.4" y1="123.72" x2="115.51" y2="113.2"/><line class="cls-22" x1="84.04" y1="50.2" x2="136.13" y2="26.49"/><line class="cls-22" x1="88.73" y1="59.48" x2="140.82" y2="35.77"/><line class="cls-22" x1="92.4" y1="68.7" x2="115.51" y2="58.18"/><path class="cls-22" d="M183.2,131.12c-12.48,6.55-14.56,3.19-19,.52L99.45,161.28a6.56,6.56,0,0,1-8.7-3.24L66.53,105.35a6.55,6.55,0,0,1,3.24-8.69L84.43,90,140.8,64.14a6.56,6.56,0,0,1,8.69,3.23l1.33,2.89,22.89,49.8C175.22,123.36,178.72,130.6,183.2,131.12Z"/><line class="cls-18" x1="191.18" y1="228.24" x2="192.69" y2="227.05"/><path class="cls-13" d="M228.73,270.4l-3.09-5.59a.51.51,0,0,0-.85-.06c-1.44,1.91-5.73,7.69-6.47,9.75-.9,2.49,2.85,6.84,6.73,7.47,3.64.6,3.75-10,3.75-11.33A.42.42,0,0,0,228.73,270.4Zm-5.24,2.18c-.52,2.23-.92,3.48-1.92,3.45s-.7-1.17-.7-1.17,2.83-6.77,3.16-6.66S224,270.35,223.49,272.58Z"/><path class="cls-13" d="M243.13,271c-.91-1.92-2.22-1.63-2.22-1.63s-1-.1-2.7,1.85c-2.07,2.29-5.83,6.56-5.42,10.38s5-.12,6.37-1.59S244.27,273.27,243.13,271Zm-4.71,5a14.59,14.59,0,0,1-3.43,3.78c-.18-1.34,1.92-4.63,2.49-5.52s2-2.87,2.54-2.38S239.87,273.69,238.42,276Z"/><path class="cls-10" d="M150.21,232.09c1.25-6.79,5-12.78,10-17.64a24.8,24.8,0,0,1,8.95-5.72,14.8,14.8,0,0,1,5.56-.82,10.73,10.73,0,0,1,2.92.66,9.56,9.56,0,0,1,2.58,1.56,11.36,11.36,0,0,1,3.2,4.72,17.67,17.67,0,0,1,1.07,5.31,20.53,20.53,0,0,1-.41,5.31,21,21,0,0,1-.76,2.57l-.93,2.34c-1.25,3.1-2.66,6.11-4.08,9.12s-2.87,6-4.42,8.92L173,248c2.45-6.14,4.92-12.29,7.08-18.5l.78-2.33a16.32,16.32,0,0,0,.53-2.22,19,19,0,0,0,.17-4.58c-.26-3-1.38-6-3.43-7.71a6.74,6.74,0,0,0-1.68-1,7.6,7.6,0,0,0-1.92-.38,11.43,11.43,0,0,0-4.19.75,21.46,21.46,0,0,0-7.61,5,51.06,51.06,0,0,0-6,7.37c-1.87,2.62-3.65,5.34-5.6,8Z"/><path class="cls-23" d="M154.31,184.75c-.68,5.66-4.28,15.63-8,24.7-2.82,7-5.69,13.41-7.3,17-.81,1.79-1.3,2.84-1.3,2.84s-1.56-4-3.56-9.37c-3.93-10.58-9.59-26.6-8.61-28.73a74.14,74.14,0,0,1,7.77-13.76,22.79,22.79,0,0,1,3.07-3.4C142.14,168.93,155.77,172.52,154.31,184.75Z"/><path class="cls-24" d="M146.35,209.45c-2.82,7-5.69,13.41-7.3,17a9,9,0,0,1-1.27.65l-3.59-7.18c-3.93-10.58-9.59-26.6-8.61-28.73a74.14,74.14,0,0,1,7.77-13.76c-1.22,3.56-2.85,10.45,1.36,13.59C139.65,194.66,145.43,201.26,146.35,209.45Z"/><rect class="cls-17" x="39.15" y="160.07" width="120.32" height="229.88" rx="10.83" transform="translate(-105.47 66.31) rotate(-24.6)"/><path class="cls-4" d="M189.68,355.65l-88.81,40.66a8.38,8.38,0,0,1-11.11-4.13L3.81,204.46a8.38,8.38,0,0,1,4.13-11.11l17.69-8.1a3.85,3.85,0,0,1,5.1,1.9h0a8.38,8.38,0,0,0,11.11,4.13l32.38-14.82a8.38,8.38,0,0,0,4.13-11.11h0a3.83,3.83,0,0,1,1.9-5.1l16.5-7.56a8.38,8.38,0,0,1,11.11,4.13l86,187.72A8.4,8.4,0,0,1,189.68,355.65Z"/><path class="cls-4" d="M194.56,347.78a8.39,8.39,0,0,1-4.88,7.87L162.27,368.2l-1.39.64-1,.48,0,0-12.62,5.77-2.72,1.24-.24.11-43.35,19.85a8.38,8.38,0,0,1-11.11-4.13l-.14-.31L88.31,389l-4.83-10.55-2.66-5.8-3.63-7.93-2-4.38L32.9,268l-7.74-16.92-4.72-10.29L19.61,239l-2.19-4.77L8.07,213.76l-.43-.93-3.83-8.37a8.38,8.38,0,0,1,4.13-11.11l17.63-8.07.06,0a3.85,3.85,0,0,1,.91-.29l.34,0a3.64,3.64,0,0,1,.66,0,3.84,3.84,0,0,1,3.19,2.23,8.36,8.36,0,0,0,2,2.73,8.68,8.68,0,0,0,.9.7,8.37,8.37,0,0,0,8.21.7l32.38-14.82a8.38,8.38,0,0,0,4.13-11.11,3.78,3.78,0,0,1-.35-1.59,3.85,3.85,0,0,1,2.25-3.51l16.5-7.56a8.34,8.34,0,0,1,10.16,2.56,8,8,0,0,1,1,1.57l5.44,11.88c-2.14.81-4.31,1.74-6.5,2.77a54.12,54.12,0,0,1,.35,10.31,103.11,103.11,0,0,1,10.08-4.49l5.13,11.21,2.13,4.65L126,196.4s0,0,0,0l1.16,2.51,3.95,8.63,1.7,3.71,2.81,6.14,1.29,2.82.64,1.4,8.66,18.91h0l6.14,13.4h0l14.93,32.59,19.3,42.15.39.86h0l1,2.18,5.26,11.48.59,1.29A8.32,8.32,0,0,1,194.56,347.78Z"/><path class="cls-4" d="M187,329.58l-1.08-.15-12.38-1.72-1.95-.27-1.88-.26-3-.43-8.09-1.13-1.9-4.29-1.6-3.62-3.37-7.63-5.12-11.58-4.28-9.69-.39-.87h0l-.41-.92-8.54-19.31.76-1.54,12.52-25.59,6.14,13.4h0l14.93,32.59,7.57,16.54,4.85,10.58,6.88,15Z"/><path class="cls-7" d="M194.56,347.78a8.39,8.39,0,0,1-4.88,7.87L162.27,368.2l-1.39.64-1,.48,0,0-12.62,5.77-2.72,1.24-.24.11-43.35,19.85a8.38,8.38,0,0,1-11.11-4.13l-.14-.31L88.31,389l-4.83-10.55-2.66-5.8-3.63-7.93-2-4.38L45.35,295.19,32.9,268l-7.74-16.92-.26-.56-4.46-9.73-.58-1.27-.25-.56-2.19-4.77-1.77-3.88L8.07,213.76l-.43-.93-3.83-8.37a8.38,8.38,0,0,1,4.13-11.11l17.63-8.07.06,0a3.85,3.85,0,0,1,.91-.29l.34,0a3.64,3.64,0,0,1,.66,0,3.84,3.84,0,0,1,3.19,2.23,8.36,8.36,0,0,0,2,2.73,8.68,8.68,0,0,0,.9.7,8.37,8.37,0,0,0,8.21.7l23.68-10.84,8.7-4a8.36,8.36,0,0,0,4.86-6.9,7.89,7.89,0,0,0,0-1.61,6.56,6.56,0,0,0-.14-.87,0,0,0,0,0,0,0,7.7,7.7,0,0,0-.56-1.7,3.78,3.78,0,0,1-.35-1.59,3.85,3.85,0,0,1,2.25-3.51l10.08-4.62,6.42-2.94a8.43,8.43,0,0,1,.83-.33A9.1,9.1,0,0,1,98.9,152a8.75,8.75,0,0,1,1.34-.11c.22,0,.44,0,.65,0a6.82,6.82,0,0,1,.79.1l.61.13.32.09a1.31,1.31,0,0,1,.28.09l.16,0,.31.12.36.16.32.15a6.44,6.44,0,0,1,.63.36l.29.19c.2.14.39.29.58.44a7.69,7.69,0,0,1,1.37,1.42,8,8,0,0,1,1,1.57l3.38,7.37L113,168l.32.71c-2.14.81-4.31,1.74-6.5,2.77a54.12,54.12,0,0,1,.35,10.31,103.11,103.11,0,0,1,10.08-4.49l.68,1.49,4.45,9.72,2.13,4.65L126,196.4s0,0,0,0l1.16,2.51,3.95,8.63.59,1.28,1.11,2.43,2.81,6.14,1.29,2.82.64,1.4,8.66,18.91h0l6.14,13.4h0c-3.56,10.83-3.11,24.57,7.34,29.22,2.63,1.17,5.17,2.27,7.59,3.37l7.57,16.54,4.85,10.58,6.88,15,.39.86h0l1,2.18,5.26,11.48.59,1.29A8.32,8.32,0,0,1,194.56,347.78Z"/><path class="cls-6" d="M194.56,347.78a8.39,8.39,0,0,1-4.88,7.87L162.27,368.2l-1.39.64-1,.48,0,0-12.62,5.77-2.72,1.24-.24.11a1.8,1.8,0,0,0,.2-.19c.78-.75,1.52-1.52,2.21-2.32a34.19,34.19,0,0,0,7.51-13.82,32.27,32.27,0,0,0,.85-4.38,32.68,32.68,0,0,0,.25-4.44,34.4,34.4,0,0,0-.39-4.72c-.14-.95-.33-1.91-.55-2.87a21.86,21.86,0,0,0-1.16-3.48,37.68,37.68,0,0,0-6.1-9.33c-.51-.6-1-1.19-1.58-1.79-1-1.11-2.07-2.21-3.17-3.32-.82-.82-1.66-1.64-2.51-2.47-2.25-2.17-4.61-4.35-7-6.57s-4.7-4.48-6.93-6.79c-.39-.4-.76-.79-1.13-1.19-.58-.61-1.14-1.22-1.69-1.84-.89-1-1.73-2-2.55-3h0c-.26-.31-.5-.62-.74-.94q-1.45-1.86-2.7-3.79a40.79,40.79,0,0,1-4.72-10.83h0a63.68,63.68,0,0,1-1.59-25.93c0-.43.12-.87.19-1.3,1.89-11.76,7.09-23.29,16.5-31.27a98.34,98.34,0,0,0,8.18-8.14c.44-.49.87-1,1.27-1.47l.64,1.4,8.66,18.91h0l6.14,13.4h0c-3.56,10.83-3.11,24.57,7.34,29.22,2.63,1.17,5.17,2.27,7.59,3.37l7.57,16.54,4.85,10.58,6.88,15,.39.86h0l1,2.18,5.26,11.48.59,1.29A8.32,8.32,0,0,1,194.56,347.78Z"/><path class="cls-8" d="M107.15,181.78h0a85.75,85.75,0,0,1-1.69,12.47,86.58,86.58,0,0,1-5.5,17.36,87.35,87.35,0,0,1-10.85,18.3A93.57,93.57,0,0,1,81,239.2l-.91.91h0l-.18.17-.36.35-.36.35-.93.87A114.77,114.77,0,0,1,57.66,257q-2.17,1.26-4.33,2.39A125.86,125.86,0,0,1,32.9,268l-7.74-16.92-.26-.56-4.46-9.73-.58-1.27-.25-.56-2.19-4.77-1.77-3.88L8.07,213.76l-.43-.93-3.83-8.37a8.38,8.38,0,0,1,4.13-11.11l17.63-8.07.06,0a3.85,3.85,0,0,1,.91-.29l.34,0a3.64,3.64,0,0,1,.66,0,3.84,3.84,0,0,1,3.19,2.23,8.36,8.36,0,0,0,2,2.73,8.68,8.68,0,0,0,.9.7,8.37,8.37,0,0,0,8.21.7l23.68-10.84,8.7-4a8.36,8.36,0,0,0,4.86-6.9,7.89,7.89,0,0,0,0-1.61,6.56,6.56,0,0,0-.14-.87,0,0,0,0,0,0,0,7.7,7.7,0,0,0-.56-1.7,3.78,3.78,0,0,1-.35-1.59,3.85,3.85,0,0,1,2.25-3.51l10.08-4.62,6.42-2.94a8.43,8.43,0,0,1,.83-.33,26.4,26.4,0,0,1,4.06,4.72l.26.39A32.2,32.2,0,0,1,106.41,169c.15.79.28,1.61.39,2.45A54.12,54.12,0,0,1,107.15,181.78Z"/><path class="cls-9" d="M106.91,155.25q-2.19.67-4.23,1.44l-1,.39c-9,3.47-16,8-22.56,12.48a7.89,7.89,0,0,0,0-1.61,6.56,6.56,0,0,0-.14-.87,0,0,0,0,0,0,0,7.7,7.7,0,0,0-.56-1.7,3.78,3.78,0,0,1-.35-1.59,3.85,3.85,0,0,1,2.25-3.51l10.08-4.62,6.42-2.94a8.43,8.43,0,0,1,.83-.33A8,8,0,0,1,98.9,152a8.75,8.75,0,0,1,1.34-.11c.22,0,.44,0,.65,0a6.82,6.82,0,0,1,.79.1l.61.13.32.09a1.31,1.31,0,0,1,.28.09l.16,0,.31.12.36.16.32.15a6.44,6.44,0,0,1,.63.36l.29.19c.2.14.39.29.58.44A7.69,7.69,0,0,1,106.91,155.25Z"/><path class="cls-10" d="M147.18,375.11l-2.72,1.24,0-.08c-.37-.72-.77-1.43-1.18-2.12a26.89,26.89,0,0,0-4-5c-.27-.28-.54-.54-.82-.81-.55-.45-1.11-.94-1.68-1.38-.41-.3-.83-.61-1.27-.87a19.5,19.5,0,0,0-3.24-1.75,26.29,26.29,0,0,0-14.56-1.64,55.27,55.27,0,0,0-14.55,4.72c-4.66,2.22-9.1,4.86-13.62,7.42q-3.06,1.76-6.06,3.63l-2.66-5.8c1.7-1.24,3.43-2.47,5.23-3.6A70,70,0,0,1,100.93,362a83.09,83.09,0,0,1,16.23-3.87c5.6-.53,11.58.08,16.76,2.74a22.4,22.4,0,0,1,3.67,2.22,19.19,19.19,0,0,1,2.52,2.06l.77.71c.5.53,1,1.08,1.47,1.62a29.91,29.91,0,0,1,3.58,5.16c.24.45.48.9.7,1.36S147,374.72,147.18,375.11Z"/><path class="cls-9" d="M107.15,181.78h0c-7.82,3.93-16,8.93-23.62,13.64-3,1.87-6.06,3.72-9,5.48-5.47,3.26-10.73,6.23-15.67,8.54h0a62.13,62.13,0,0,1-8.78,3.46,38.4,38.4,0,0,1-4.7,1.11h0c-.58.1-1.16.19-1.73.26l-1,.11-1,.09a35.53,35.53,0,0,1-4.49,0c-.83-.05-1.64-.12-2.43-.22h0c-.87-.11-1.73-.25-2.57-.42a39.55,39.55,0,0,1-12.77-5c-.31-.18-.61-.37-.91-.56s-.61-.39-.91-.59a39.93,39.93,0,0,1-10-9.3l7.59-5.54a34,34,0,0,0,8.53,7.66l.86.53c.28.17.57.34.87.5a27.67,27.67,0,0,0,15.46,3.53c.35,0,.69,0,1-.09s.67-.07,1-.12.67-.1,1-.17a32.34,32.34,0,0,0,3.48-.83,80.28,80.28,0,0,0,14.84-6.74c5.17-2.86,10.71-6.26,16.41-9.76,7.51-4.61,15.12-9.29,22.57-13.17q2.83-1.47,5.62-2.78A54.12,54.12,0,0,1,107.15,181.78Z"/><path class="cls-25" d="M27.83,191.07l-.06,1.15c0,.3-.05.59-.08.88a24.33,24.33,0,0,1-2.29,8.44l0,.06a20,20,0,0,1-6.06,7.3l-.32.25a28.89,28.89,0,0,1-10.92,4.61l-.43-.93-.21-1a27.37,27.37,0,0,0,10.06-4.1l.32-.22a18.19,18.19,0,0,0,5.79-6.87l0-.09a22.06,22.06,0,0,0,2-7.38c0-.37.07-.74.1-1.11s0-.6.05-.9a37.43,37.43,0,0,0-.25-5.9l.06,0a3.85,3.85,0,0,1,.91-.29l.34,0a3.64,3.64,0,0,1,.66,0A38.3,38.3,0,0,1,27.83,191.07Z"/><path class="cls-9" d="M131.1,207.58c-2,.48-3.91,1.06-5.84,1.74-1.21.43-2.42.89-3.62,1.39s-2.23.95-3.33,1.47c-8.62,4-17,9.64-25.69,15.41l-3.51,2.33c-8,5.34-16.3,10.6-25.06,14.63h0c-1.68.77-3.38,1.51-5.1,2.18h0a74,74,0,0,1-16.88,4.49l-.22,0a82.78,82.78,0,0,1-12.07.24c-1.6-.09-3.13-.23-4.6-.41l-.26-.56-4.46-9.73a60.72,60.72,0,0,0,12.79,1.4h1.4q3,0,6.25-.3a71.86,71.86,0,0,0,22.51-7.48h0q2.46-1.23,4.87-2.59h0c6.52-3.64,12.87-7.87,19.11-12,4.14-2.76,8.31-5.53,12.56-8.15a128.6,128.6,0,0,1,17.35-9.23c1.55-.66,3.11-1.28,4.69-1.84,1.42-.5,2.84-1,4.29-1.37a8.37,8.37,0,0,1,.86-.23Z"/><path class="cls-10" d="M194.56,347.78a87,87,0,0,1-16.63,3c-4.15.39-8.07.59-11.79.65-1.77.05-3.52.06-5.21,0l-1.76,0c-1.34,0-2.65-.07-3.93-.13-6.61-.27-12.6-.86-18.22-1.41-21.07-2.08-36.59-3.62-59.83,14.83l-2-4.38c24.25-18.88,41.19-17.21,62.3-15.13,5.38.53,11.1,1.09,17.37,1.37,1.63.08,3.31.13,5,.16,2.29,0,4.65,0,7.1,0,1.7-.05,3.41-.13,5.19-.23s3.51-.23,5.34-.4a82.29,82.29,0,0,0,15.71-2.85l.59,1.29A8.32,8.32,0,0,1,194.56,347.78Z"/><path class="cls-13" d="M188,331.77c-5.35,5.46-10.61,10.33-15.79,14.73-2,1.72-4,3.35-6,4.93q-3.57,2.81-7.11,5.32-2.44,1.75-4.89,3.38c-3.94,2.64-7.87,5.06-11.79,7.3-1,.59-2,1.16-3.07,1.71-12.86,7.09-25.71,12.4-39.09,17.59a101.16,101.16,0,0,0-10.57,5.14L88.31,389A102.92,102.92,0,0,1,99,383.82c12.93-5,25.36-10.14,37.76-16.87,1.12-.61,2.22-1.23,3.33-1.85,4.94-2.81,9.9-5.89,14.88-9.35q2-1.41,4.08-2.91.93-.68,1.86-1.38c2-1.51,4-3.07,6-4.73a223.05,223.05,0,0,0,18.9-17.3l.37-.38.32-.33.39.86h0Z"/><path class="cls-13" d="M131.69,208.86l-.59-1.28L127.15,199,126,196.44c.1.52.19,1,.25,1.56a11.61,11.61,0,0,1,.05,1.18,46.23,46.23,0,0,1-1,10.14c-.66,2.61-1.68,4.09-3.16,2.17a3.81,3.81,0,0,1-.46-.78c-1.16-2.43-.6-6.47.36-10.16a62.85,62.85,0,0,1,2.49-7.4l-2.13-4.65c-.12.22-.23.46-.34.7-1.37,3.16-3.75,8.23-4.71,13.19-.69,3.57-.66,7.08,1,9.79a8.71,8.71,0,0,0,1.34,1.66,7,7,0,0,0,4.88,2.18c3.13,0,6.11-2.3,8.27-4.73Z"/><path class="cls-17" d="M88.92,275.16h-.06l-9.45-1.06a6.6,6.6,0,0,1-4.47-2.53l-6.73-8.74a.52.52,0,0,1,.09-.7.53.53,0,0,1,.71.09L75.73,271a5.62,5.62,0,0,0,3.8,2.14L89,274.16a.5.5,0,0,1-.06,1Z"/><path class="cls-17" d="M108.69,262.2h-.09a.5.5,0,0,1-.4-.58l1.73-9.35A5.62,5.62,0,0,0,109,248l-6.4-9a.51.51,0,0,1,.11-.7.5.5,0,0,1,.7.12l6.4,9a6.56,6.56,0,0,1,1.11,5l-1.73,9.35A.49.49,0,0,1,108.69,262.2Z"/><path class="cls-17" d="M156.93,297.31h-.55c-2.8-.18-12.91-7.5-23.92-15.65-3.23-2.39-6-4.45-7.33-5.3-4.2-2.73-5.79-1.28-5.8-1.26a.5.5,0,0,1-.7,0,.49.49,0,0,1,0-.7c.08-.09,2.1-2.11,7.07,1.12,1.33.87,4,2.84,7.37,5.34,7.73,5.71,20.66,15.28,23.38,15.45a28.14,28.14,0,0,0,5.08-.42.51.51,0,0,1,.58.41.51.51,0,0,1-.41.58A31,31,0,0,1,156.93,297.31Z"/><path class="cls-17" d="M113.85,268.79a.5.5,0,0,1-.49-.42.49.49,0,0,1,.42-.57l2.6-.4a1.43,1.43,0,0,0,1.21-1.36l.41-11.59a3,3,0,0,1,1.39-2.43l6-3.85a.5.5,0,0,1,.69.15.49.49,0,0,1-.16.69l-6,3.85a2,2,0,0,0-.93,1.63l-.41,11.58a2.43,2.43,0,0,1-2,2.31l-2.61.4Z"/><path class="cls-17" d="M70.65,287.13a.51.51,0,0,1-.4-.2.5.5,0,0,1,.09-.7L76,281.86a3,3,0,0,1,2.76-.49l11,3.54a1.43,1.43,0,0,0,1.69-.68l1.25-2.31a.51.51,0,0,1,.68-.2.5.5,0,0,1,.2.68l-1.26,2.31a2.43,2.43,0,0,1-2.87,1.15l-11-3.54a2,2,0,0,0-1.85.33L71,287A.48.48,0,0,1,70.65,287.13Z"/><path class="cls-17" d="M102.68,338.05a.59.59,0,0,1-.26-.07.51.51,0,0,1-.17-.69,28.59,28.59,0,0,0,2.2-4.61c.8-2.59-3.55-18.07-6.16-27.32-1.13-4.05-2-7.25-2.37-8.8-1.26-5.79,1.35-6.95,1.46-7a.49.49,0,0,1,.65.27.5.5,0,0,1-.25.65c-.06,0-1.94,1-.88,5.87.33,1.52,1.27,4.86,2.36,8.73,3.7,13.19,7,25.24,6.14,27.91a29.64,29.64,0,0,1-2.29,4.81A.5.5,0,0,1,102.68,338.05Z"/><path class="cls-14" d="M88.66,280.19s9.94,18.29,23.2,22.55,14.2-9.57,14.2-9.57,1.07-14.71-19.4-35.05c-10.07-6.06-20.54,1.38-20.54,1.38S82.69,267.75,88.66,280.19Z"/><path class="cls-17" d="M82.37,256.89s7.52-6.75,14-8.62-1.19,15.27-1.19,15.27l-9-.91S80.57,259,82.37,256.89Z"/><circle class="cls-14" cx="85.7" cy="263.01" r="6.97"/><circle class="cls-14" cx="98.52" cy="254.92" r="6.97"/><path class="cls-17" d="M126.05,294.45c-.23,4.43-.77,7.17-3.64,8.87-3.25,1.92-10.56-.59-10.56-.59s1.25-10.92-.64-14.68-19.57-11.5-24.36-12.49v0c0-.3-.51-3.8,3.94-6.24,4.64-2.54,7.16,2.06,13.27-.1s2.72-10.76,2.61-11.07a10.54,10.54,0,0,1,3,3h0v0c-.09.53-.16,1.21-.22,2-.42,6.78.45,22.41,3,25.18s10.79,5.23,12.94,5.82a1,1,0,0,0,.26.07,1.59,1.59,0,0,0,.25.08A1.25,1.25,0,0,0,126.05,294.45Z"/><path class="cls-17" d="M86.38,258.8A3.15,3.15,0,0,0,85.22,262c.25,2.34.07,4.84-3.36,4.19,1.36,2.18,5.23,2.67,6.88,1C90.55,265.73,91.66,260.58,86.38,258.8Z"/><path class="cls-25" d="M78.8,346l-1.62-1.17c8.44-11.64,11.11-20.56,7.95-26.51-4.69-8.79-20.86-8.32-21-8.32L64,308c.71,0,17.59-.51,22.85,9.38C90.45,324,87.73,333.64,78.8,346Z"/><path class="cls-17" d="M102.53,251.61s2.47,1.5.87,4.87-3.94,2.62-4.38,2.43-1.12-2,1-3.23S103.62,253.89,102.53,251.61Z"/><path class="cls-26" d="M33.35,243.76l-.78-.62c13.38-16.86,22.11-20,27.08-19.63a8.65,8.65,0,0,1,6.77,3.78l-.87.51a7.58,7.58,0,0,0-6-3.29C54.84,224.19,46.44,227.27,33.35,243.76Z"/><path class="cls-17" d="M97.32,258.14a1.09,1.09,0,0,0-.08-1.53c-.72-.9-1.51-1.08-1.95-.67a1.06,1.06,0,0,0,.11,1.47C96.05,258.14,96.85,258.49,97.32,258.14Z"/><g class="cls-27"><path class="cls-4" d="M111.85,302.73s-.27,28.74-12.48,28.06S81.89,311,82.81,294.42c.91-11.35,3.47-17.61,4-18.88v0c4.79,1,22.48,8.71,24.36,12.49S111.85,302.73,111.85,302.73Z"/></g><g class="cls-27"><path class="cls-4" d="M156.49,293c-3.62,11-27.75,2.48-30.44,1.5a1.25,1.25,0,0,1-.24-.09,1.59,1.59,0,0,1-.25-.08,1,1,0,0,1-.26-.07c-2.15-.59-10.5-3.09-12.94-5.82s-3.38-18.4-3-25.18c.06-.83.13-1.51.22-2v0h0c1.46-.06,8.19-.14,19,3.13C144.42,269.46,160.31,281.32,156.49,293Z"/></g><path class="cls-17" d="M89.63,256a.49.49,0,0,1-.41-.21L79.07,240.89a.5.5,0,1,1,.82-.57L90,255.18a.5.5,0,0,1-.13.7A.46.46,0,0,1,89.63,256Z"/><path class="cls-17" d="M88.67,255.83a.51.51,0,0,1-.36-.15c-2.07-2.09-5.66-1.83-5.7-1.83a.5.5,0,0,1-.54-.46.49.49,0,0,1,.46-.53c.16,0,4.09-.31,6.49,2.12a.5.5,0,0,1,0,.71A.54.54,0,0,1,88.67,255.83Z"/><path class="cls-17" d="M90.07,254.32a.48.48,0,0,1-.46-.32c-.7-1.81-.16-4.59.1-5.7a.5.5,0,0,1,1,.08s0,.12,0,.15a9.63,9.63,0,0,0-.15,5.11.51.51,0,0,1-.28.65A.63.63,0,0,1,90.07,254.32Z"/><path class="cls-17" d="M78.25,241.86A.5.5,0,0,1,78,241l2.46-1.72a.5.5,0,0,1,.7.12.51.51,0,0,1-.12.7l-2.47,1.72A.52.52,0,0,1,78.25,241.86Z"/><path class="cls-13" d="M133.32,310.54l-4.35-9a.79.79,0,0,0-1.32-.16c-1,1.16-2.74,3.26-4.59,5.57-2.7,3.4-5.58,7.23-6.38,9.11-1.62,3.82,3.87,10.94,9.88,12.27,3.73.83,5.47-6.15,6.25-11.56.41-2.78.56-5.14.6-5.84A.76.76,0,0,0,133.32,310.54Zm-8.38,3c-1,3.44-1.74,5.36-3.31,5.23s-1-1.89-1-1.89,2.46-5.09,4.11-8.06c.7-1.27,1.26-2.15,1.41-2.09.33.13.15,1.45-.28,3.28C125.63,311,125.3,312.24,124.94,313.5Z"/><path class="cls-13" d="M155.79,312.7c-1.26-3.08-3.33-2.74-3.33-2.74a2.06,2.06,0,0,0-.8.12,9.5,9.5,0,0,0-3.59,2.53c-2.47,2.46-6.4,6.44-8.29,10.72a11,11,0,0,0-1.08,5.05c.22,4.1,3.8,2.72,6.76.74a23.79,23.79,0,0,0,3.34-2.68,36,36,0,0,0,6.23-8.73C155.92,315.81,156.35,314,155.79,312.7ZM148,320.19a22.81,22.81,0,0,1-5.69,5.61c-.16-2.11,3.41-7.07,4.37-8.42s3.36-4.31,4.18-3.5S150.45,316.65,148,320.19Z"/><path class="cls-10" d="M68.51,228.16a31.78,31.78,0,0,1-.22,3.65h0a30,30,0,0,1-.88,4.61,31.59,31.59,0,0,1-1.4,4L64.34,244c-.09.2-.19.4-.29.6h0c-2,4.23-4.18,8.33-6.38,12.42l-.48.88c-2.48,4.57-5,9.11-7.7,13.57l-1.38-.74q2.63-5.65,5.23-11.32c1.92-4.2,3.8-8.4,5.6-12.63q.95-2.18,1.84-4.37l1.43-3.57a26.89,26.89,0,0,0,1-3.42c.07-.32.13-.65.19-1a28.52,28.52,0,0,0,.46-6.18,22,22,0,0,0-.18-2.3l-.09-.66c0-.21-.07-.43-.11-.64a15.69,15.69,0,0,0-4.12-8.56l-.19-.19a9.72,9.72,0,0,0-2.54-1.65,11.76,11.76,0,0,0-3-.77,17.51,17.51,0,0,0-6.6.81A26.23,26.23,0,0,0,44,215.38l-.51.22-1.07.52c-.37.18-.73.38-1.09.58a38.38,38.38,0,0,0-6.59,4.69,79.68,79.68,0,0,0-10,11c-1.72,2.14-3.4,4.34-5.11,6.56l-2.19-4.77a51.94,51.94,0,0,1,6.58-9.9,60,60,0,0,1,4.2-4.55c.92-.9,1.87-1.77,2.84-2.62a45.33,45.33,0,0,1,3.61-2.82h0a37.51,37.51,0,0,1,7.19-4l1-.41c.34-.13.68-.26,1-.37.54-.19,1.08-.36,1.64-.52a24.49,24.49,0,0,1,5.81-.92,18.45,18.45,0,0,1,3,.11,16.94,16.94,0,0,1,4.5,1.28l0,0h0a15.49,15.49,0,0,1,3.85,2.64c.11.11.22.21.31.32a17.73,17.73,0,0,1,4.28,7.35A27.3,27.3,0,0,1,68.51,228.16Z"/><path class="cls-4" d="M137.54,221.65a5.53,5.53,0,0,1-1.91.07c-1.28-.18-1.55-.9-1.55-.9-.34-.58-.2-1.61,1.53-3.39l1.29,2.82Z"/><circle class="cls-4" cx="61.85" cy="190.73" r="2.12"/><path class="cls-26" d="M159.48,369.42c-9.62-36.25,19.2-48.39,19.49-48.51l1.13,2.78c-1.09.45-26.64,11.32-17.72,45Z"/><rect class="cls-26" x="68.11" y="214.89" width="11.14" height="2" transform="translate(-150.4 173.15) rotate(-60.36)"/><path class="cls-25" d="M41.59,225.19l-1.92-.58c3.83-12.6,1.57-27.77,1.54-27.92l2-.31C43.29,197,45.55,212.16,41.59,225.19Z"/><path class="cls-4" d="M34.67,191.19a19,19,0,0,1-7,1.91c-.72.06-1.4.09-2,.09h0a20.22,20.22,0,0,1-3.89-.34l.4-2a19.64,19.64,0,0,0,3.65.29c.62,0,1.3,0,2-.11a17.92,17.92,0,0,0,4.9-1.19,8.68,8.68,0,0,0,.9.7A8.32,8.32,0,0,0,34.67,191.19Z"/><circle class="cls-4" cx="26.04" cy="221.96" r="3.1"/><path class="cls-9" d="M117.91,178.78l-.68-1.49a103.11,103.11,0,0,0-10.08,4.49,54.12,54.12,0,0,0-.35-10.31c2.19-1,4.36-2,6.5-2.77L113,168Z"/><path class="cls-28" d="M105.54,153.83l-2.86,2.86-.78.78L62.2,197.18h0L51.34,208l-6,6h0L44,215.38l-.54.55-2.36,2.35L19.86,239.52l-.25-.56-2.19-4.77-1.77-3.88,74.68-74.68,6.42-2.94a8.43,8.43,0,0,1,.83-.33A8,8,0,0,1,98.9,152a8.75,8.75,0,0,1,1.34-.11c.22,0,.44,0,.65,0a6.82,6.82,0,0,1,.79.1l.61.13.32.09a1.31,1.31,0,0,1,.28.09l.16,0,.31.12.36.16.32.15a6.44,6.44,0,0,1,.63.36l.29.19C105.16,153.53,105.35,153.68,105.54,153.83Z"/><path class="cls-28" d="M131.69,208.86,124.53,216,90.39,250.15l-1.11,1.11h0l-1.14,1.13-.14.15h0l-.55.55-.47.48-.78.77-1.8,1.81-2.25,2.24-3.24,3.25-5.82,5.81L45.35,295.19,32.9,268l-7.74-16.92-.26-.56,8.33-8.33.52-.51,0,0,0,0,13.1-13.09.06-.05,12.41-12.42L63,212.41l11.51-11.5,26.66-26.66,5.23-5.23,4.83-4.83,2.06,4.51c-2.14.81-4.31,1.74-6.5,2.77a54.12,54.12,0,0,1,.35,10.31,103.11,103.11,0,0,1,10.08-4.49l5.13,11.21,2.13,4.65L126,196.4s0,0,0,0l1.16,2.51,3.95,8.63Z"/><circle class="cls-29" cx="133.18" cy="345.95" r="12.86"/><circle class="cls-29" cx="133.18" cy="345.95" r="8.28"/><polygon class="cls-28" points="179.69 313.69 166.62 326.75 153.14 340.24 147.26 346.11 142.91 350.46 133 360.37 129.94 363.44 116.78 376.6 97.55 395.83 89.87 388.15 89.84 388.12 133.16 344.8 147.04 330.91 156.63 321.33 174.84 303.11 179.69 313.69"/><path class="cls-4" d="M226.05,213.17s.72,1.66,5.26-.87,5.93-4.46,5.31-5.41-4.3-.62-7.47,2S225.7,212.65,226.05,213.17Z"/><circle class="cls-4" cx="265.24" cy="272.79" r="1.35"/><circle class="cls-4" cx="255.4" cy="312.14" r="1.26"/><circle class="cls-4" cx="171.75" cy="181.49" r="1.42"/><circle class="cls-4" cx="178.94" cy="196.54" r="1.35"/><path class="cls-12" d="M258.61,276.27s-17.45,8.22-10.21,30.45"/><path class="cls-12" d="M269.37,267.12A16.92,16.92,0,0,1,276.21,281"/><path class="cls-12" d="M279.43,254.72s-2.6,2.75-3.22,8.76"/><line class="cls-30" x1="188.95" y1="208.98" x2="185.78" y2="215.35"/><path class="cls-11" d="M166.61,200.93s2.06,9.74,0,18.14"/><path class="cls-29" d="M153.55,198.67a13.18,13.18,0,0,0,8.09-1.63"/><circle class="cls-4" cx="157.21" cy="217.71" r="1.98"/><circle class="cls-10" cx="350.83" cy="149.82" r="6.18"/><path class="cls-31" d="M350.83,147.35S348.1,65.12,305.25,22.7c-43.81-39.42-90-21.57-110,24.93C180.23,75,172,118.46,157.59,118.46"/><circle class="cls-10" cx="157.59" cy="118.46" r="5.71"/><circle class="cls-6" cx="242.04" cy="454.84" r="3.31"/><circle class="cls-6" cx="34.67" cy="124.17" r="3.31"/><circle class="cls-6" cx="330.25" cy="384.92" r="2.19"/><circle class="cls-6" cx="506.63" cy="335.85" r="2.75"/><circle class="cls-6" cx="523.9" cy="179.75" r="2.25"/><circle class="cls-6" cx="527.78" cy="87.74" r="2.19"/><circle class="cls-6" cx="494.31" cy="143.38" r="2.76"/><circle class="cls-6" cx="494.31" cy="151.98" r="2.76"/><circle class="cls-6" cx="494.31" cy="160.58" r="2.76"/><circle class="cls-6" cx="494.31" cy="169.19" r="2.76"/><circle class="cls-6" cx="494.31" cy="177.79" r="2.76"/><circle class="cls-6" cx="477.93" cy="63.39" r="2.95"/><path class="cls-6" d="M257.09,66.82c0-.12-1.35-12,8.7-14.75,7.92-1.93,11.17,5.29,11.2,5.37l-1.1.48c-.11-.26-2.9-6.36-9.79-4.68-9,2.5-7.87,13.12-7.81,13.58Z"/><path class="cls-6" d="M278.1,75.3H255.75a5.1,5.1,0,0,1-5.4-5.4c0-4,2.73-6.13,7.67-6.13V65c-5.4,0-6.47,2.61-6.47,4.93a3.9,3.9,0,0,0,4.2,4.19H278.1c3.18,0,6.68-1,6.68-6.53a8.09,8.09,0,0,0-1.74-5,6.25,6.25,0,0,0-4.78-1.75,7.11,7.11,0,0,0-6.27,4l-1.1-.49a8.32,8.32,0,0,1,7.37-4.74,7.36,7.36,0,0,1,5.67,2.15A9.08,9.08,0,0,1,286,67.61C286,72.59,283.3,75.3,278.1,75.3Z"/><polygon class="cls-6" points="273.3 65.06 270 63.12 270.52 66.01 273.3 65.06"/><polygon class="cls-6" points="277.5 55.8 274.16 57.66 276.92 58.68 277.5 55.8"/><line class="cls-32" x1="124.41" y1="371.42" x2="157.51" y2="356.55"/><rect class="cls-4" x="19.09" y="188.61" width="84.22" height="8.48" rx="1.91" transform="translate(-74.73 42.98) rotate(-24.6)"/><path class="cls-17" d="M97.81,401.32a11.14,11.14,0,0,1-10.11-6.49L1,205.51a11.11,11.11,0,0,1,5.48-14.73L96.2,149.71a11,11,0,0,1,4.62-1,11.14,11.14,0,0,1,10.11,6.49l86.68,189.32a11.13,11.13,0,0,1-5.48,14.73l-89.7,41.07a11.05,11.05,0,0,1-4.62,1ZM27.21,185.19H26.9l-.33,0a3.73,3.73,0,0,0-.82.26L8.06,193.61a8.09,8.09,0,0,0-4,10.73l3.83,8.37.43.93,7.58,16.55,1.77,3.88,2.19,4.77.25.56L25.42,251l7.74,16.92,42.28,92.35L90,392.06a8.11,8.11,0,0,0,7.36,4.73,8,8,0,0,0,3.37-.74l43.59-20,15.34-7,2.47-1.14,27.41-12.55a8.09,8.09,0,0,0,4.72-7.6,8,8,0,0,0-.73-3.13l-6.87-15h0l-7.25-15.83-4.85-10.58-28.66-62.6h0L131.43,209l-4.54-9.91-1.19-2.57v-.06l-1.47-3.17-6.58-14.37L111,164.31l-3.38-7.37a7.25,7.25,0,0,0-.92-1.52,7.13,7.13,0,0,0-1.32-1.37c-.18-.15-.37-.29-.56-.43l-.28-.18c-.2-.13-.4-.24-.61-.35l-.32-.15c-.11-.06-.23-.1-.34-.15l-.31-.12-.1,0a1,1,0,0,0-.29-.09l-.34-.1-.5-.11a7.8,7.8,0,0,0-.84-.11l-.63,0a8.55,8.55,0,0,0-1.3.11,9.14,9.14,0,0,0-1.28.32c-.26.09-.53.19-.79.31l-16.5,7.57a3.56,3.56,0,0,0-2.09,3.25,3.43,3.43,0,0,0,.33,1.47,8.09,8.09,0,0,1,.56,1.68l0,0v.15a4.74,4.74,0,0,1,.14.84,8.41,8.41,0,0,1,0,1.66,8.69,8.69,0,0,1-5,7.14L42,191.54a8.71,8.71,0,0,1-7.42-.1,8.89,8.89,0,0,1-1.07-.63,8.5,8.5,0,0,1-.93-.72,8.62,8.62,0,0,1-2.07-2.82,3.56,3.56,0,0,0-2.95-2.07Z"/><path class="cls-17" d="M197.35,344.62,110.67,155.3A10.83,10.83,0,0,0,96.32,150L6.61,191a10.82,10.82,0,0,0-5.34,14.35L88,394.71a10.83,10.83,0,0,0,14.36,5.34L192,359A10.83,10.83,0,0,0,197.35,344.62Zm-7.67,11L162.27,368.2l-1.39.64-1,.48,0,0-12.62,5.77-2.72,1.24-.24.11-43.35,19.85a8.38,8.38,0,0,1-11.11-4.13l-.14-.31L88.31,389l-4.83-10.55-2.66-5.8-3.63-7.93-2-4.38L45.35,295.19,32.9,268l-7.74-16.92-.26-.56-4.46-9.73-.58-1.27-.25-.56-2.19-4.77-1.77-3.88L8.07,213.76l-.43-.93-3.83-8.37a8.38,8.38,0,0,1,4.13-11.11l17.63-8.07.06,0a3.85,3.85,0,0,1,.91-.29l.34,0a3.64,3.64,0,0,1,.66,0,3.84,3.84,0,0,1,3.19,2.23,8.36,8.36,0,0,0,2,2.73,8.68,8.68,0,0,0,.9.7,8.37,8.37,0,0,0,8.21.7l23.68-10.84,8.7-4a8.36,8.36,0,0,0,4.86-6.9,7.89,7.89,0,0,0,0-1.61,6.56,6.56,0,0,0-.14-.87,0,0,0,0,0,0,0,7.7,7.7,0,0,0-.56-1.7,3.78,3.78,0,0,1-.35-1.59,3.85,3.85,0,0,1,2.25-3.51l10.08-4.62,6.42-2.94a8.43,8.43,0,0,1,.83-.33A9.1,9.1,0,0,1,98.9,152a8.75,8.75,0,0,1,1.34-.11c.22,0,.44,0,.65,0a6.82,6.82,0,0,1,.79.1l.61.13.32.09a1.31,1.31,0,0,1,.28.09l.16,0,.31.12.36.16.32.15a6.44,6.44,0,0,1,.63.36l.29.19c.2.14.39.29.58.44a7.69,7.69,0,0,1,1.37,1.42,8,8,0,0,1,1,1.57l3.38,7.37,6.67,14.59,4.45,9.72,2.13,4.65L126,196.4s0,0,0,0l1.16,2.51,3.95,8.63.59,1.28,1.11,2.43,2.81,6.14,1.29,2.82.64,1.4,8.66,18.91h0l6.14,13.4,22.5,49.14,4.85,10.58,6.88,15,.39.86h0l1,2.18,5.26,11.48.59,1.29a8.41,8.41,0,0,1-4.13,11.11Z"/><path class="cls-23" d="M180.72,426.46c.1,10.56-20.11,18.32-48.88,27.48S90,465.58,70.72,461.4,37.18,418.6,31.3,404.47s-3.58-31.36-2.68-50.27c.61-13-.89-27.56-2.74-39.15-.78-4.94-1.63-9.35-2.4-12.88-.05-.21-.09-.42-.14-.63-2.59-11.65,7.27-15.23,7.27-15.23s4.92-2.57,12.34,0c21.17,10.11,24,62.31,46.69,74,24.48,14,31.05,31.25,31.05,31.25s53.86-24.38,65.8-30c.8,16.33-7.86,30.56-11.65,36.93S180.62,415.91,180.72,426.46Z"/><path class="cls-24" d="M186.49,361.56c-16.38,41.27-57.29,45.6-57.29,45.6s-.17.85-1.1,9.9c-1.52-7.78-7.41-25.54-7.41-25.54S174.55,367.14,186.49,361.56Z"/><path class="cls-33" d="M35.47,312.86c-.83,2.49-6,4.15-9.06,2.25-.78-4.94-1.63-9.35-2.4-12.88a5.26,5.26,0,0,1,6.4-4.46C35,299.41,36.7,308.14,35.47,312.86Z"/><path class="cls-24" d="M41.74,407.75c2.7,8.27,17.6,35.67,29.88,38.77S86.83,448,85.16,451.9c-1.7,3-12.06,3.21-21-3.13C53.85,442.24,43.09,420,41.74,407.75Z"/><circle class="cls-24" cx="92.6" cy="451.71" r="2.49"/><path class="cls-23" d="M186.1,272.32c-3.42,10.45-11.69,21.35-21.81,16.36a13.19,13.19,0,0,1-7.15-9.56,22.59,22.59,0,0,1,0-8.56c2.25-16.79,7.31-24.26,13.75-25.87a14.7,14.7,0,0,1,8.63.79C189.84,249.27,189.51,261.88,186.1,272.32Z"/><path class="cls-23" d="M179.65,285.29c-4.51,2.15-9,7.44-13.48,17.72-3.51,8.44-1.67,15.1,2.26,17.72s11.9,4.61,22.28-7.76,6.61-23,2.52-25.69S184.16,283.14,179.65,285.29Z"/><path class="cls-24" d="M173.2,260.25c-1.66,5.06-12.61,11.91-16.06,18.87a22.59,22.59,0,0,1,0-8.56c2.25-16.79,7.31-24.26,13.75-25.87C172.12,248.82,174.15,256.44,173.2,260.25Z"/><path class="cls-23" d="M155.26,229.58s-14.33-3.2-19.95,10-10.18,38.41,4.08,43.17,23.83-24.71,25.94-34.94C166.52,241.44,164.39,232.3,155.26,229.58Z"/><path class="cls-33" d="M171.84,312.75s.26,5.09,6.31,4.7c3.37-1.74,8.21-7.52,3.56-11.75C175.43,302.41,171.84,312.75,171.84,312.75Z"/><path class="cls-33" d="M137.89,260.52s8.35-4.28,12.78,3c0,0-.61,11.45-8.45,11.19S137.89,260.52,137.89,260.52Z"/><path class="cls-33" d="M166.18,269.32s8.56-4.46,11.16,3.41c-1.58,8.69-4.54,11.64-8.75,10.83C163.24,282.36,164.05,273.66,166.18,269.32Z"/><path class="cls-31" d="M464,143.38s-37.82-1.15-39.43,45.58,9.5,83.29-.17,129.77c-9,37-24.52,74.41-76.71,92.69-54.43,19.51-109.31,5.64-137.09-21.14-25-26.69-31.08-41.77-31.08-41.77"/><circle class="cls-10" cx="179.99" cy="349.27" r="5.84"/></g></g></g></svg>