<?xml version="1.0" encoding="UTF-8" standalone="no"?>
<!-- Generator: Adobe Illustrator 23.0.2, SVG Export Plug-In . SVG Version: 6.00 Build 0)  -->

<svg
   xmlns:dc="http://purl.org/dc/elements/1.1/"
   xmlns:cc="http://creativecommons.org/ns#"
   xmlns:rdf="http://www.w3.org/1999/02/22-rdf-syntax-ns#"
   xmlns:svg="http://www.w3.org/2000/svg"
   xmlns="http://www.w3.org/2000/svg"
   xmlns:sodipodi="http://sodipodi.sourceforge.net/DTD/sodipodi-0.dtd"
   xmlns:inkscape="http://www.inkscape.org/namespaces/inkscape"
   version="1.1"
   id="Layer_1"
   x="0px"
   y="0px"
   viewBox="0 0 841.9 595.3"
   style="enable-background:new 0 0 841.9 595.3;"
   xml:space="preserve"
   sodipodi:docname="ttry.svg"
   inkscape:version="0.92.3 (2405546, 2018-03-11)"><metadata
   id="metadata4498"><rdf:RDF><cc:Work
       rdf:about=""><dc:format>image/svg+xml</dc:format><dc:type
         rdf:resource="http://purl.org/dc/dcmitype/StillImage" /></cc:Work></rdf:RDF></metadata><defs
   id="defs4496" /><sodipodi:namedview
   pagecolor="#ffffff"
   bordercolor="#666666"
   borderopacity="1"
   objecttolerance="10"
   gridtolerance="10"
   guidetolerance="10"
   inkscape:pageopacity="0"
   inkscape:pageshadow="2"
   inkscape:window-width="1920"
   inkscape:window-height="1021"
   id="namedview4494"
   showgrid="false"
   inkscape:zoom="0.49116187"
   inkscape:cx="-200.19324"
   inkscape:cy="531.81199"
   inkscape:window-x="0"
   inkscape:window-y="33"
   inkscape:window-maximized="1"
   inkscape:current-layer="Layer_1" />
<style
   type="text/css"
   id="style4135">
	.st0{fill:#54B0E3;}
	.st1{fill:#0E2D40;}
	.st2{fill:#1A5B82;}
	.st3{fill:#FBBFA8;}
	.st4{fill:#E7988F;}
	.st5{fill:#FFFFFF;}
	.st6{fill:#3DA1DA;}
	.st7{opacity:0.45;}
</style>
<g
   id="g4139"
   transform="matrix(1.5978253,0,0,1.4068832,-259.34373,-135.48464)">
	<path
   class="st0"
   d="m 175.6,221.7 c -0.1,0 -0.1,0 -0.1,0 -0.3,-0.1 -0.4,-0.4 -0.3,-0.6 0.1,-0.3 9.4,-30.4 35.4,-24.3 7.3,1.7 15.3,4.7 23.8,7.8 21.8,8.1 49,18.1 82.1,13.8 45.1,-5.9 50.3,-10.8 77.1,-47.3 0.2,-0.2 0.5,-0.3 0.7,-0.1 0.2,0.2 0.3,0.5 0.1,0.7 -27.1,36.8 -32.3,41.8 -77.8,47.7 -33.3,4.3 -60.6,-5.8 -82.5,-13.8 -8.5,-3.1 -16.5,-6.1 -23.7,-7.8 -25.1,-5.9 -34.1,23.3 -34.2,23.6 -0.1,0.2 -0.3,0.3 -0.6,0.3 z"
   id="path4137"
   inkscape:connector-curvature="0"
   style="fill:#54b0e3" />
</g>
<g
   id="g4143"
   transform="matrix(1.5978253,0,0,1.4068832,-259.34373,-135.48464)">
	<path
   class="st0"
   d="m 294.3,427.3 c -22.9,0 -42.9,-8.4 -59.7,-15.5 -8.7,-3.7 -17,-7.1 -24.3,-8.9 -25.1,-5.9 -34.1,23.3 -34.2,23.6 -0.1,0.3 -0.4,0.4 -0.6,0.3 -0.3,-0.1 -0.4,-0.4 -0.3,-0.6 0.1,-0.3 9.4,-30.4 35.4,-24.3 7.4,1.7 15.7,5.2 24.4,8.9 21.9,9.2 49.3,20.7 81.3,12.7 49,-12.3 85.1,-63.4 126.9,-122.6 56.6,-80.3 120.8,-171.3 235.5,-182.7 0.3,0 0.5,0.2 0.5,0.4 0,0.2 -0.2,0.5 -0.5,0.6 -114.1,11.4 -178.2,102.2 -234.7,182.3 -41.9,59.4 -78.1,110.7 -127.5,123 -7.7,2 -15.1,2.8 -22.2,2.8 z"
   id="path4141"
   inkscape:connector-curvature="0"
   style="fill:#54b0e3" />
</g>
<g
   id="g4147"
   transform="matrix(1.5978253,0,0,1.4068832,-259.34373,-135.48464)">
	<path
   class="st0"
   d="m 294.3,491.2 c -22.9,0 -42.9,-8.4 -59.7,-15.5 -8.7,-3.7 -17,-7.1 -24.3,-8.9 -25.1,-5.9 -34.1,23.3 -34.2,23.6 -0.1,0.3 -0.4,0.4 -0.6,0.3 -0.3,-0.1 -0.4,-0.4 -0.3,-0.6 0.1,-0.3 9.4,-30.4 35.4,-24.3 7.4,1.7 15.7,5.2 24.4,8.9 21.9,9.2 49.3,20.7 81.3,12.7 49,-12.3 85.1,-63.4 126.9,-122.6 56.6,-80.3 120.8,-171.3 235.5,-182.7 0.3,0 0.5,0.2 0.5,0.4 0,0.2 -0.2,0.5 -0.5,0.6 -114.1,11.4 -178.2,102.2 -234.7,182.3 -41.9,59.4 -78.1,110.7 -127.5,123.1 -7.7,1.9 -15.1,2.7 -22.2,2.7 z"
   id="path4145"
   inkscape:connector-curvature="0"
   style="fill:#54b0e3" />
</g>
<g
   id="g4151"
   transform="matrix(1.5978253,0,0,1.4068832,-259.34373,-135.48464)">
	<circle
   class="st0"
   cx="365.60001"
   cy="101.1"
   id="ellipse4149"
   r="3.3"
   style="fill:#54b0e3" />
</g>
<g
   id="g4155"
   transform="matrix(1.5978253,0,0,1.4068832,-259.34373,-135.48464)">
	<circle
   class="st0"
   cx="291.5"
   cy="450.39999"
   id="ellipse4153"
   r="3.3"
   style="fill:#54b0e3" />
</g>
<g
   id="g4159"
   transform="matrix(1.5978253,0,0,1.4068832,-259.34373,-135.48464)">
	<circle
   class="st0"
   cx="199.89999"
   cy="218.60001"
   id="ellipse4157"
   r="3.3"
   style="fill:#54b0e3" />
</g>
<g
   id="g4163"
   transform="matrix(1.5978253,0,0,1.4068832,-259.34373,-135.48464)">
	<ellipse
   class="st0"
   cx="207"
   cy="209.10001"
   rx="2.2"
   ry="2.0999999"
   id="ellipse4161"
   style="fill:#54b0e3" />
</g>
<g
   id="g4167"
   transform="matrix(1.5978253,0,0,1.4068832,-259.34373,-135.48464)">
	<ellipse
   class="st0"
   cx="638.59998"
   cy="252.60001"
   rx="2.3"
   ry="2.2"
   id="ellipse4165"
   style="fill:#54b0e3" />
</g>
<g
   id="g4171"
   transform="matrix(1.5978253,0,0,1.4068832,-259.34373,-135.48464)">
	<ellipse
   class="st0"
   cx="325"
   cy="395"
   rx="2.3"
   ry="2.2"
   id="ellipse4169"
   style="fill:#54b0e3" />
</g>
<g
   id="g4175"
   transform="matrix(1.5978253,0,0,1.4068832,-259.34373,-135.48464)">
	<ellipse
   class="st0"
   cx="606.90002"
   cy="164.60001"
   rx="2.2"
   ry="2.0999999"
   id="ellipse4173"
   style="fill:#54b0e3" />
</g>
<g
   id="g4181"
   transform="matrix(1.5978253,0,0,1.4068832,-259.34373,-135.48464)">
	<g
   id="g4179">
		<path
   class="st1"
   d="m 630.7,346.5 v 8.5 c 0,1.9 -1.6,3.5 -3.5,3.5 H 202.8 c -1.9,0 -3.5,-1.6 -3.5,-3.5 v -8.5 c 0,-1.9 1.6,-3.5 3.5,-3.5 h 424.3 c 2,0 3.6,1.6 3.6,3.5 z"
   id="path4177"
   inkscape:connector-curvature="0"
   style="fill:#0e2d40" />
	</g>
</g>
<g
   id="g4185"
   transform="matrix(1.5978253,0,0,1.4068832,-259.34373,-135.48464)">
	<path
   class="st1"
   d="m 586.1,134 v 199.1 c 0,5.5 -4.4,9.9 -9.9,9.9 H 253.7 c -1,0 -2,-0.1 -2.9,-0.5 -4,-1.2 -7,-5 -7,-9.5 V 134 c 0,-5.5 4.4,-9.9 9.9,-9.9 h 322.5 c 0.9,0 1.7,0.1 2.5,0.3 3.8,1 6.6,4.1 7.3,8 0.1,0.6 0.1,1.1 0.1,1.6 z"
   id="path4183"
   inkscape:connector-curvature="0"
   style="fill:#0e2d40" />
</g>
<g
   id="g4189"
   transform="matrix(1.5978253,0,0,1.4068832,-259.34373,-135.48464)">
	<path
   class="st2"
   d="m 579.5,141.8 v 66.6 l -3.5,5.3 c 0,0 -1.4,-15.9 -2.3,-25 -0.4,-3.4 -1.8,-7.9 -3.5,-12.1 v -23.3 c 0,-5.5 -4.4,-9.9 -9.9,-9.9 H 269.7 c -5.5,0 -9.9,4.4 -9.9,9.9 v 104.5 c 0,19.4 -16,34.1 -16,34.1 v -147 c 0.9,-6.1 2.3,-10 6.6,-13.4 3.6,-2.9 6.5,-3.4 11.5,-2.8 3.9,0.5 10.6,4.8 15,6.9 8.6,4.1 27.9,1.8 46.9,-4.1 19,-5.9 28.3,-0.9 32.4,0.9 4.2,1.8 10.5,1.3 10.5,1.3 0,0 192.1,-0.1 202.1,-0.1 10.1,-0.1 10.7,8.2 10.7,8.2 z"
   id="path4187"
   inkscape:connector-curvature="0"
   style="fill:#1a5b82" />
</g>
<g
   id="g4193"
   transform="matrix(1.5978253,0,0,1.4068832,-259.34373,-135.48464)">
	<path
   class="st0"
   d="m 570.1,153.4 v 156.3 c 0,5.5 -4.4,9.9 -9.9,9.9 H 269.7 c -5.5,0 -9.9,-4.4 -9.9,-9.9 V 153.4 c 0,-5.5 4.4,-9.9 9.9,-9.9 h 290.5 c 5.5,0 9.9,4.4 9.9,9.9 z"
   id="path4191"
   inkscape:connector-curvature="0"
   style="fill:#54b0e3" />
</g>
<g
   id="g4197"
   transform="matrix(1.5978253,0,0,1.4068832,-259.34373,-135.48464)">
	<path
   class="st2"
   d="m 253.2,343 c 0,0 -5.4,-8.7 1.5,-16.6 9.7,-11.1 39.9,3.3 52.2,6.9 12.3,3.6 28.6,-0.3 33.5,-2.8 4.9,-2.5 -1.1,4.4 12,5.7 13.1,1.3 32.4,-0.1 55,-3.7 22.6,-3.6 61.2,-10.7 86.9,-9 25.7,1.7 12.4,19.6 12.4,19.6 H 253.2 Z"
   id="path4195"
   inkscape:connector-curvature="0"
   style="fill:#1a5b82" />
</g>
<g
   id="g4201"
   transform="matrix(1.5978253,0,0,1.4068832,-259.34373,-135.48464)">
	<path
   class="st3"
   d="m 516.5,288.2 v 51.7 c 0,0 -17.7,-2.3 -23.9,-9.8 -1.4,-1.7 -2.2,-3.6 -2.1,-5.9 0.5,-10.9 8.6,-11.5 20.4,-10.9 1.5,0.1 3.1,0.1 4.7,0.2 -1.5,-0.2 -3,-0.4 -4.4,-0.6 -2.2,-0.4 -4.1,-0.8 -5.9,-1.3 -3.8,-1.1 -6.8,-2.6 -9,-4.4 0,0 0,0 0,0 0,0 0,0 0,0 -4.5,-3.7 -5,-8.6 -1.1,-14 3.6,-4.7 11.8,-5.4 17,-5.3 2.5,0.1 4.3,0.3 4.3,0.3 z"
   id="path4199"
   inkscape:connector-curvature="0"
   style="fill:#fbbfa8" />
</g>
<g
   id="g4205"
   transform="matrix(1.5978253,0,0,1.4068832,-259.34373,-135.48464)">
	<path
   class="st3"
   d="m 516.5,374.6 c 0,0 -5.2,0.1 -9.9,-1.6 -4.1,-1.5 -7.8,-4.3 -7.8,-9.6 0,-9.8 7.3,-12.3 12.4,-12.8 2.8,-0.3 4.9,0 4.9,0 z"
   id="path4203"
   inkscape:connector-curvature="0"
   style="fill:#fbbfa8" />
</g>
<g
   id="g4209"
   transform="matrix(1.5978253,0,0,1.4068832,-259.34373,-135.48464)">
	<path
   class="st4"
   d="m 516.5,288.2 v 51.7 c 0,0 -17.7,-2.3 -23.9,-9.8 2.2,1.3 5.7,2.7 10.9,2.9 0.8,-7.1 4.5,-16.7 7.4,-19.7 0.1,-0.1 0.2,-0.3 0.4,-0.4 -2.1,-0.2 -4.1,-0.7 -5.9,-1.3 -5,-1.6 -8.6,-4.1 -9,-4.4 0,0 0,0 0,0 0.3,0 6.6,1.1 9.4,1.1 -0.2,-4.2 2.7,-16.1 6.4,-20.4 2.5,0.1 4.3,0.3 4.3,0.3 z"
   id="path4207"
   inkscape:connector-curvature="0"
   style="fill:#e7988f" />
</g>
<g
   id="g4213"
   transform="matrix(1.5978253,0,0,1.4068832,-259.34373,-135.48464)">
	<path
   class="st4"
   d="m 516.5,374.6 c 0,0 -5.2,0.1 -9.9,-1.6 -1.7,-12.6 2.6,-19.8 4.6,-22.4 2.8,-0.3 4.9,0 4.9,0 z"
   id="path4211"
   inkscape:connector-curvature="0"
   style="fill:#e7988f" />
</g>
<g
   id="g4217"
   transform="matrix(1.5978253,0,0,1.4068832,-259.34373,-135.48464)">
	<path
   class="st1"
   d="m 619.1,393.1 c 0,6.3 -5,11.3 -11.3,11.4 H 589.5 574 l -31.7,0.1 H 527 526.5 c -6.3,0 -11.3,-5 -11.4,-11.3 v -16.4 l -0.1,-29 v -15 l -0.1,-26.1 -0.1,-25.3 v -15.2 l -0.1,-18.9 -0.1,-30 c 0,-6.3 2.1,-11.4 11.3,-11.4 l 17.4,-0.1 h 11.5 15.5 4.8 l 15.3,-0.1 16.7,-0.1 c 10.9,0.1 11.3,7.5 11.3,11.3 l 0.1,35.1 v 15 6.1 5 l 0.1,34.4 v 0 15.2 14.1 z"
   id="path4215"
   inkscape:connector-curvature="0"
   style="fill:#0e2d40" />
</g>
<g
   id="g4221"
   transform="matrix(1.5978253,0,0,1.4068832,-259.34373,-135.48464)">
	<path
   class="st5"
   d="m 525.2,401.3 84.4,-0.3 c 4,0 7.2,-3.3 7.2,-7.3 l -0.5,-178.3 c 0,-4 -3.3,-7.2 -7.3,-7.2 l -16.8,0.1 c -1.8,0 -3.3,1.5 -3.3,3.3 v 0 c 0,4 -3.2,7.3 -7.2,7.3 l -30.8,0.1 c -4,0 -7.3,-3.2 -7.3,-7.2 v 0 c 0,-1.8 -1.5,-3.3 -3.3,-3.3 h -15.7 c -4,0 -7.2,3.3 -7.2,7.3 l 0.5,178.3 c 0.1,3.9 3.3,7.2 7.3,7.2 z"
   id="path4219"
   inkscape:connector-curvature="0"
   style="fill:#ffffff" />
</g>
<g
   id="g4227"
   transform="matrix(1.5978253,0,0,1.4068832,-259.34373,-135.48464)">
	<g
   id="g4225">
		<path
   class="st5"
   d="m 518.5,396.9 c 1.1,2.6 3.7,4.4 6.7,4.4 l 26,-0.1 h 1.3 1 v 0 h 12 2.6 0.2 l 41.2,-0.1 c 4,0 7.2,-3.3 7.2,-7.3 v -0.3 -2.7 -10 -5.5 -7.5 -4.2 l -0.3,-87.7 v -16.1 -9.8 -1.7 -4.5 l -0.1,-19.4 v -0.9 -7.9 c 0,-4 -3.3,-7.2 -7.3,-7.2 l -16.8,0.1 h -0.1 c -0.3,0 -0.5,0 -0.8,0.1 l -0.3,0.1 c -0.2,0.1 -0.3,0.1 -0.5,0.2 -1,0.6 -1.7,1.7 -1.7,2.9 0,1 -0.2,2 -0.6,2.9 -0.1,0.3 -0.3,0.6 -0.5,0.9 -0.2,0.3 -0.4,0.6 -0.6,0.9 -0.7,0.9 -1.6,1.5 -2.6,2 -0.9,0.4 -1.9,0.7 -3,0.7 l -30.8,0.1 c -2.7,0 -5.1,-1.5 -6.3,-3.6 -0.6,-1.1 -1,-2.3 -1,-3.6 0,-0.5 -0.1,-1 -0.3,-1.4 -0.5,-1.1 -1.7,-1.9 -3,-1.9 h -15.7 c -0.3,0 -0.5,0 -0.8,0 -3.1,0.3 -5.6,2.6 -6.3,5.6 -0.1,0.5 -0.2,1 -0.2,1.6 v 11.3 8.2 10.6 4.4 3.1 c 0,0 0,0 0,0 v 2.4 8.2 3.5 5.8 2.7 1.3 18 0 12.7 c 0,0 0,0 0,0 l 0.1,31 0.1,40 v 0.8 0 2.1 10.9 1.2 c 0.6,0.8 0.8,1.8 1.2,2.7 z"
   id="path4223"
   inkscape:connector-curvature="0"
   style="fill:#ffffff" />
	</g>
</g>
<g
   id="g4231"
   transform="matrix(1.5978253,0,0,1.4068832,-259.34373,-135.48464)">
	<path
   class="st6"
   d="m 549.2,390.8 h 35.7 c 0.4,0 0.7,-0.3 0.7,-0.7 v -1 c 0,-0.4 -0.3,-0.7 -0.7,-0.7 h -35.7 c -0.4,0 -0.7,0.3 -0.7,0.7 v 1 c -0.1,0.3 0.3,0.7 0.7,0.7 z"
   id="path4229"
   inkscape:connector-curvature="0"
   style="fill:#3da1da" />
</g>
<g
   id="g4235"
   transform="matrix(1.5978253,0,0,1.4068832,-259.34373,-135.48464)">
	<path
   class="st6"
   d="m 536.1,333.9 59.3,-0.2 c 2.5,0 4.6,2 4.6,4.6 l 0.1,34 c 0,2.5 -2,4.6 -4.6,4.6 l -59.3,0.2 c -2.5,0 -4.6,-2 -4.6,-4.6 l -0.1,-34 c 0,-2.5 2.1,-4.5 4.6,-4.6 z"
   id="path4233"
   inkscape:connector-curvature="0"
   style="fill:#3da1da" />
</g>
<g
   class="st7"
   id="g4239"
   transform="matrix(1.5978253,0,0,1.4068832,-259.34373,-135.48464)"
   style="opacity:0.45">
	<path
   class="st5"
   d="M 618.7,273.4 515.1,377 515,348 v -15 l -0.1,-26.1 99.4,-99.4 c 0.7,0.4 1.1,0.8 1.6,1.2 2.2,2.2 2.7,5.3 2.7,8.4 l 0.1,35.1 v 15 z"
   id="path4237"
   inkscape:connector-curvature="0"
   style="fill:#ffffff" />
</g>
<g
   class="st7"
   id="g4243"
   transform="matrix(1.5978253,0,0,1.4068832,-259.34373,-135.48464)"
   style="opacity:0.45">
	<polygon
   class="st5"
   points="618.9,328.1 542.3,404.7 527,404.7 618.9,312.9 "
   id="polygon4241"
   style="fill:#ffffff" />
</g>
<g
   id="g4247"
   transform="matrix(1.5978253,0,0,1.4068832,-259.34373,-135.48464)">
	<path
   class="st3"
   d="m 557.8,453.6 c 3.7,8.3 22.4,7.1 48.3,3.9 25.9,-3.2 37,-6 50.6,-16.3 13.6,-10.3 10.8,-45.7 10.3,-58.9 -0.5,-13.2 -8.5,-25.9 -16.1,-40.4 -5.2,-10 -9.3,-21.9 -12,-31.7 -1.2,-4.2 -2.1,-7.9 -2.8,-11 0,-0.2 -0.1,-0.4 -0.1,-0.5 -2.2,-10.1 -11.2,-9.3 -11.2,-9.3 0,0 -4.8,-0.2 -9.7,4.5 -12.9,15.6 3.7,57.5 -9.8,74.9 -14.1,19.8 -13,35.7 -13,35.7 0,0 -51.1,0.4 -62.4,0.3 5.3,13.1 17.2,21.1 22.5,24.8 5.2,3.5 1.7,15.6 5.4,24 z"
   id="path4245"
   inkscape:connector-curvature="0"
   style="fill:#fbbfa8" />
</g>
<g
   id="g4251"
   transform="matrix(1.5978253,0,0,1.4068832,-259.34373,-135.48464)">
	<path
   class="st4"
   d="m 529.8,404.7 c 27.8,26.4 61.4,15 61.4,15 0,0 0.4,0.6 4.4,7.4 -1.6,-6.6 -3.4,-22.7 -3.4,-22.7 0,0 -51,0.4 -62.4,0.3 z"
   id="path4249"
   inkscape:connector-curvature="0"
   style="fill:#e7988f" />
</g>
<g
   id="g4255"
   transform="matrix(1.5978253,0,0,1.4068832,-259.34373,-135.48464)">
	<path
   class="st4"
   d="m 633.4,313.3 c -1.3,0 -2.5,-0.4 -3.1,-1.1 v 0 c -2.8,-3.4 -4.7,-11.1 -1.5,-14.3 1,-0.8 2.4,-1.2 3.7,-1.1 1.4,0.2 2.8,1 3.7,2.3 l 0.1,0.2 c 0.5,2.4 1.4,6.2 2.8,10.9 l 0.1,0.2 -0.1,0.2 c -1.1,1.7 -3.3,2.5 -4.9,2.6 -0.4,0.1 -0.6,0.1 -0.8,0.1 z m -2.4,-1.7 c 0.5,0.6 1.7,0.9 2.9,0.7 1.7,-0.1 3.3,-0.9 4.1,-2 -1.3,-4.6 -2.2,-8.3 -2.7,-10.7 -1,-1.3 -2.1,-1.7 -2.9,-1.8 -1,-0.1 -2.2,0.2 -2.9,0.8 -2.7,2.7 -1,9.9 1.5,13 z"
   id="path4253"
   inkscape:connector-curvature="0"
   style="fill:#e7988f" />
</g>
<g
   id="g4259"
   transform="matrix(1.5978253,0,0,1.4068832,-259.34373,-135.48464)">
	<path
   class="st4"
   d="m 660.1,388.6 c 0.9,7.5 -0.9,34.3 -9.4,41.2 -8.5,6.9 -11.4,6.7 -8.7,9.1 2.4,1.7 10.6,-1.9 15.4,-10.1 5.6,-8.8 6,-30.1 2.7,-40.2 z"
   id="path4257"
   inkscape:connector-curvature="0"
   style="fill:#e7988f" />
</g>
<g
   id="g4263"
   transform="matrix(1.5978253,0,0,1.4068832,-259.34373,-135.48464)">
	<path
   class="st6"
   d="m 524.6,226.6 h 5.6 c 0.4,0 0.7,0.3 0.7,0.7 v 1.6 c 0,0.4 -0.3,0.7 -0.7,0.7 h -5.6 c -0.4,0 -0.7,-0.3 -0.7,-0.7 v -1.6 c 0,-0.4 0.3,-0.7 0.7,-0.7 z"
   id="path4261"
   inkscape:connector-curvature="0"
   style="fill:#3da1da" />
</g>
<g
   id="g4267"
   transform="matrix(1.5978253,0,0,1.4068832,-259.34373,-135.48464)">
	<path
   class="st6"
   d="m 600.6,226.6 h 5.6 c 0.4,0 0.7,0.3 0.7,0.7 v 1.6 c 0,0.4 -0.3,0.7 -0.7,0.7 h -5.6 c -0.4,0 -0.7,-0.3 -0.7,-0.7 v -1.6 c 0.1,-0.4 0.4,-0.7 0.7,-0.7 z"
   id="path4265"
   inkscape:connector-curvature="0"
   style="fill:#3da1da" />
</g>
<g
   id="g4271"
   transform="matrix(1.5978253,0,0,1.4068832,-259.34373,-135.48464)">
	<path
   class="st2"
   d="m 558.5,211.7 h 14.8 c 0.8,0 1.5,0.6 1.5,1.4 v 0 c 0,0.8 -0.7,1.4 -1.5,1.4 h -14.8 c -0.8,0 -1.5,-0.6 -1.5,-1.4 v 0 c 0,-0.8 0.7,-1.4 1.5,-1.4 z"
   id="path4269"
   inkscape:connector-curvature="0"
   style="fill:#1a5b82" />
</g>
<g
   id="g4277"
   transform="matrix(1.5978253,0,0,1.4068832,-259.34373,-135.48464)">
	<g
   id="g4275">
		<path
   class="st0"
   d="m 450.7,343 h -1.1 c 0,0.1 0,0.2 0,0.3 v 4 c 0,0.7 -0.6,1.3 -1.3,1.3 h -68.9 c -0.7,0 -1.3,-0.6 -1.3,-1.3 v -4 c 0,-0.1 0,-0.2 0,-0.3 H 377 c 0,0.1 0,0.2 0,0.3 v 4 c 0,1.3 1.1,2.4 2.4,2.4 h 68.9 c 1.3,0 2.4,-1.1 2.4,-2.4 v -4 c 0,-0.1 0,-0.2 0,-0.3 z"
   id="path4273"
   inkscape:connector-curvature="0"
   style="fill:#54b0e3" />
	</g>
</g>
<g
   id="g4281"
   transform="matrix(1.5978253,0,0,1.4068832,-259.34373,-135.48464)">
	<path
   class="st5"
   d="m 587.1,352.3 h -42.6 c -0.9,0 -1.7,-0.8 -1.7,-1.7 V 348 c 0,-0.9 0.8,-1.7 1.7,-1.7 h 42.6 c 0.9,0 1.7,0.8 1.7,1.7 v 2.5 c 0,1 -0.8,1.8 -1.7,1.8 z"
   id="path4279"
   inkscape:connector-curvature="0"
   style="fill:#ffffff" />
</g>
<g
   id="g4285"
   transform="matrix(1.5978253,0,0,1.4068832,-259.34373,-135.48464)">
	<path
   class="st5"
   d="m 587.1,364.9 h -42.6 c -0.9,0 -1.7,-0.8 -1.7,-1.7 v -2.5 c 0,-0.9 0.8,-1.7 1.7,-1.7 h 42.6 c 0.9,0 1.7,0.8 1.7,1.7 v 2.5 c 0,1 -0.8,1.7 -1.7,1.7 z"
   id="path4283"
   inkscape:connector-curvature="0"
   style="fill:#ffffff" />
</g>
<g
   id="g4289"
   transform="matrix(1.5978253,0,0,1.4068832,-259.34373,-135.48464)">
	<circle
   class="st5"
   cx="277.10001"
   cy="215.2"
   r="2"
   id="circle4287"
   style="fill:#ffffff" />
</g>
<g
   id="g4293"
   transform="matrix(1.5978253,0,0,1.4068832,-259.34373,-135.48464)">
	<circle
   class="st5"
   cx="277.10001"
   cy="224.60001"
   r="2"
   id="circle4291"
   style="fill:#ffffff" />
</g>
<g
   id="g4297"
   transform="matrix(1.5978253,0,0,1.4068832,-259.34373,-135.48464)">
	<circle
   class="st5"
   cx="277.10001"
   cy="233.89999"
   r="2"
   id="circle4295"
   style="fill:#ffffff" />
</g>
<g
   id="g4301"
   transform="matrix(1.5978253,0,0,1.4068832,-259.34373,-135.48464)">
	<circle
   class="st5"
   cx="277.10001"
   cy="243.3"
   r="2"
   id="circle4299"
   style="fill:#ffffff" />
</g>
<g
   id="g4305"
   transform="matrix(1.5978253,0,0,1.4068832,-259.34373,-135.48464)">
	<circle
   class="st5"
   cx="277.10001"
   cy="252.60001"
   r="2"
   id="circle4303"
   style="fill:#ffffff" />
</g>
<g
   id="g4327"
   transform="matrix(1.5978253,0,0,1.4068832,-259.34373,-135.48464)">
	<g
   id="g4311">
		<g
   id="g4309">
			<path
   class="st6"
   d="m 548.6,285.4 c 0,-0.2 -2.1,-18.6 13.5,-22.9 12.3,-3 17.3,8.2 17.4,8.3 l -1.7,0.8 c -0.2,-0.4 -4.5,-9.9 -15.2,-7.3 -14,3.9 -12.2,20.4 -12.1,21.1 z"
   id="path4307"
   inkscape:connector-curvature="0"
   style="fill:#3da1da" />
		</g>
	</g>
	<g
   id="g4317">
		<g
   id="g4315">
			<path
   class="st6"
   d="m 581.2,298.6 h -34.7 c -5,0 -8.4,-3.3 -8.4,-8.4 0,-6.1 4.3,-9.5 11.9,-9.5 v 1.9 c -8.4,0 -10,4.1 -10,7.6 0,4 2.5,6.5 6.5,6.5 h 34.7 c 5,0 10.4,-1.5 10.4,-10.1 0,-0.1 0,-4.8 -2.7,-7.8 -1.7,-1.8 -4.2,-2.7 -7.4,-2.7 -6.8,0 -9.6,6 -9.7,6.3 l -1.7,-0.8 c 0.1,-0.3 3.4,-7.4 11.5,-7.4 3.8,0 6.8,1.1 8.8,3.3 3.3,3.6 3.2,8.9 3.2,9.1 -0.1,7.8 -4.3,12 -12.4,12 z"
   id="path4313"
   inkscape:connector-curvature="0"
   style="fill:#3da1da" />
		</g>
	</g>
	<g
   id="g4321">
		<polygon
   class="st6"
   points="573.8,282.7 568.7,279.7 569.5,284.2 "
   id="polygon4319"
   style="fill:#3da1da" />
	</g>
	<g
   id="g4325">
		<polygon
   class="st6"
   points="580.3,268.3 575.1,271.2 579.4,272.8 "
   id="polygon4323"
   style="fill:#3da1da" />
	</g>
</g>
<g
   id="g4331"
   transform="matrix(1.5978253,0,0,1.4068832,-259.34373,-135.48464)">
	<path
   class="st3"
   d="m 525.5,432.1 c 0,0 0.6,5.9 1,18.8 0.1,2.8 -1,5.9 -2.8,9.1 -3,5.4 -8.2,11.3 -13.7,16.7 -6.8,6.6 -14.1,12.5 -18.6,15.8 -10.4,7.6 -12.9,26.4 -21.2,25.6 -11.9,-1.4 -25.3,-6.7 -37.6,-13.1 0,0 0,0 -0.1,0 -1.5,-0.8 -2.9,-1.5 -4.4,-2.3 -15,-8.3 -27.8,-17.6 -33.2,-22.3 -10.3,-9 4.8,-27.1 4.8,-27.1 0,0 -1.6,-5.3 -2.2,-9.4 -2.5,-11 6.3,-28.8 15.2,-45.5 8.9,-16.7 19.2,-34.3 31.3,-33.3 10,1.7 10.7,7.5 10.7,7.5 0,0 7.8,-7.2 19.6,-3.3 8.9,3.1 9.7,14.4 9.7,14.4 0,0 9.3,-6 19.1,-0.5 9.6,5.4 5.4,18.7 5.2,19.3 0.5,-1 18,-34.5 24.6,-42.3 6.7,-7.9 20.1,-4.8 22,4.4 1.6,8.9 -28.9,66.6 -29.4,67.5 z"
   id="path4329"
   inkscape:connector-curvature="0"
   style="fill:#fbbfa8" />
</g>
<g
   id="g4335"
   transform="matrix(1.5978253,0,0,1.4068832,-259.34373,-135.48464)">
	<path
   class="st4"
   d="m 510,476.7 c -6.8,6.6 -14.1,12.5 -18.6,15.8 -10.4,7.6 -12.9,26.4 -21.2,25.6 -11.9,-1.4 -25.3,-6.7 -37.6,-13.1 6.8,3.1 20.6,7.6 34.7,1 -1.8,3.4 -1.8,3.4 -1.8,3.4 0,0 5.1,-0.8 9.9,-8.5 3.8,-6.3 21.8,-15.2 34.6,-24.2 z"
   id="path4333"
   inkscape:connector-curvature="0"
   style="fill:#e7988f" />
</g>
<g
   id="g4339"
   transform="matrix(1.5978253,0,0,1.4068832,-259.34373,-135.48464)">
	<path
   class="st4"
   d="m 526.5,450.9 c 0.1,2.8 -1,5.9 -2.8,9.1 -1.1,-4.9 0.6,-12.4 0.6,-12.4 0,0 -0.4,0.6 -4.3,1.9 -3.9,1.3 -2.8,1.7 -4.4,4.8 -2.4,-3.2 9.9,-22.3 9.9,-22.3 0,0 0.6,6 1,18.9 z"
   id="path4337"
   inkscape:connector-curvature="0"
   style="fill:#e7988f" />
</g>
<g
   id="g4343"
   transform="matrix(1.5978253,0,0,1.4068832,-259.34373,-135.48464)">
	<circle
   class="st4"
   cx="399.70001"
   cy="475.5"
   r="2"
   id="circle4341"
   style="fill:#e7988f" />
</g>
<g
   id="g4347"
   transform="matrix(1.5978253,0,0,1.4068832,-259.34373,-135.48464)">
	<path
   class="st4"
   d="m 403.8,479.3 c 0,0 10.4,8.1 23.2,13.7 -5.8,-4.6 -17,-12.2 -19.6,-15 -2.6,-2.8 -4.7,0.5 -3.6,1.3 z"
   id="path4345"
   inkscape:connector-curvature="0"
   style="fill:#e7988f" />
</g>
<g
   id="g4375"
   transform="matrix(1.5978253,0,0,1.4068832,-259.34373,-135.48464)">
	<path
   class="st6"
   d="M 543.4,304.7 H 543 V 304 h 0.4 v -0.2 c 0,-0.4 0.1,-0.6 0.3,-0.8 0.2,-0.2 0.4,-0.3 0.7,-0.3 0.3,0 0.5,0 0.6,0.1 v 0.8 c -0.1,0 -0.3,-0.1 -0.4,-0.1 -0.2,0 -0.3,0.1 -0.3,0.3 v 0.1 h 0.7 v 0.7 h -0.7 v 2.4 h -0.9 z"
   id="path4349"
   inkscape:connector-curvature="0"
   style="fill:#3da1da" />
	<path
   class="st6"
   d="m 545.3,305.5 c 0,-0.9 0.6,-1.7 1.6,-1.7 1.1,0 1.5,0.8 1.5,1.7 0,0.1 0,0.1 0,0.2 h -2.2 c 0.1,0.4 0.4,0.6 0.8,0.6 0.3,0 0.5,-0.1 0.8,-0.3 l 0.5,0.5 c -0.3,0.4 -0.7,0.6 -1.3,0.6 -1,0.1 -1.7,-0.6 -1.7,-1.6 z m 2.2,-0.2 c 0,-0.4 -0.3,-0.7 -0.7,-0.7 -0.4,0 -0.6,0.3 -0.7,0.7 z"
   id="path4351"
   inkscape:connector-curvature="0"
   style="fill:#3da1da" />
	<path
   class="st6"
   d="m 548.9,305.5 c 0,-0.9 0.7,-1.7 1.6,-1.7 1.1,0 1.5,0.8 1.5,1.7 0,0.1 0,0.1 0,0.2 h -2.2 c 0.1,0.4 0.4,0.6 0.8,0.6 0.3,0 0.5,-0.1 0.8,-0.3 l 0.5,0.5 c -0.3,0.4 -0.7,0.6 -1.3,0.6 -1,0.1 -1.7,-0.6 -1.7,-1.6 z m 2.3,-0.2 c 0,-0.4 -0.3,-0.7 -0.7,-0.7 -0.4,0 -0.6,0.3 -0.7,0.7 z"
   id="path4353"
   inkscape:connector-curvature="0"
   style="fill:#3da1da" />
	<path
   class="st6"
   d="m 552.6,305.5 c 0,-1.1 0.7,-1.6 1.5,-1.6 0.5,0 0.8,0.2 1,0.5 v -1.6 h 0.9 v 4.3 h -1 v -0.5 c -0.2,0.3 -0.5,0.5 -1,0.5 -0.7,0.1 -1.4,-0.5 -1.4,-1.6 z m 2.4,0 c 0,-0.5 -0.4,-0.9 -0.8,-0.9 -0.4,0 -0.8,0.3 -0.8,0.9 0,0.5 0.4,0.9 0.8,0.9 0.4,0 0.8,-0.3 0.8,-0.9 z"
   id="path4355"
   inkscape:connector-curvature="0"
   style="fill:#3da1da" />
	<path
   class="st6"
   d="m 557.6,306.7 v 0.4 h -0.9 v -4.3 h 0.9 v 1.6 c 0.2,-0.3 0.5,-0.5 1,-0.5 0.7,0 1.5,0.6 1.5,1.7 0,1.1 -0.7,1.6 -1.5,1.6 -0.5,0 -0.8,-0.2 -1,-0.5 z m 1.6,-1.2 c 0,-0.5 -0.4,-0.9 -0.8,-0.9 -0.4,0 -0.8,0.4 -0.8,0.9 0,0.5 0.3,0.9 0.8,0.9 0.4,0 0.8,-0.3 0.8,-0.9 z"
   id="path4357"
   inkscape:connector-curvature="0"
   style="fill:#3da1da" />
	<path
   class="st6"
   d="m 560.5,306.2 c 0,-0.7 0.5,-1 1.3,-1 0.3,0 0.5,0 0.8,0.1 v 0 c 0,-0.4 -0.2,-0.6 -0.7,-0.6 -0.3,0 -0.6,0.1 -0.9,0.2 l -0.2,-0.7 c 0.3,-0.1 0.7,-0.3 1.2,-0.3 0.5,0 0.8,0.1 1.1,0.4 0.2,0.2 0.3,0.6 0.3,1 v 1.9 h -0.9 v -0.3 c -0.2,0.2 -0.5,0.4 -1,0.4 -0.5,-0.1 -1,-0.5 -1,-1.1 z m 2.1,-0.2 v -0.2 c -0.2,-0.1 -0.4,-0.1 -0.6,-0.1 -0.4,0 -0.6,0.1 -0.6,0.5 0,0.2 0.2,0.4 0.5,0.4 0.4,0 0.7,-0.3 0.7,-0.6 z"
   id="path4359"
   inkscape:connector-curvature="0"
   style="fill:#3da1da" />
	<path
   class="st6"
   d="m 564.1,305.5 c 0,-0.9 0.7,-1.7 1.7,-1.7 0.6,0 1,0.2 1.3,0.6 l -0.5,0.5 c -0.2,-0.2 -0.4,-0.3 -0.7,-0.3 -0.5,0 -0.8,0.4 -0.8,0.9 0,0.5 0.3,0.9 0.8,0.9 0.3,0 0.5,-0.1 0.7,-0.3 l 0.5,0.5 c -0.3,0.3 -0.7,0.6 -1.3,0.6 -1,0 -1.7,-0.7 -1.7,-1.7 z"
   id="path4361"
   inkscape:connector-curvature="0"
   style="fill:#3da1da" />
	<path
   class="st6"
   d="m 567.6,302.8 h 0.9 v 2.3 l 1.1,-1.2 h 1.1 l -1.2,1.3 1.3,1.9 h -1 l -0.8,-1.3 -0.3,0.3 v 1 h -0.9 z"
   id="path4363"
   inkscape:connector-curvature="0"
   style="fill:#3da1da" />
	<path
   class="st6"
   d="m 570.8,305.5 c 0,-0.9 0.7,-1.7 1.7,-1.7 0.6,0 1,0.2 1.3,0.6 l -0.5,0.5 c -0.2,-0.2 -0.4,-0.3 -0.7,-0.3 -0.5,0 -0.8,0.4 -0.8,0.9 0,0.5 0.3,0.9 0.8,0.9 0.3,0 0.5,-0.1 0.7,-0.3 l 0.5,0.5 c -0.3,0.3 -0.7,0.6 -1.3,0.6 -1,0 -1.7,-0.7 -1.7,-1.7 z"
   id="path4365"
   inkscape:connector-curvature="0"
   style="fill:#3da1da" />
	<path
   class="st6"
   d="m 574.4,302.8 h 0.9 v 4.3 h -0.9 z"
   id="path4367"
   inkscape:connector-curvature="0"
   style="fill:#3da1da" />
	<path
   class="st6"
   d="m 576,305.5 c 0,-0.9 0.7,-1.7 1.7,-1.7 1,0 1.7,0.7 1.7,1.7 0,0.9 -0.7,1.7 -1.7,1.7 -1,0 -1.7,-0.7 -1.7,-1.7 z m 2.6,0 c 0,-0.5 -0.3,-0.9 -0.8,-0.9 -0.5,0 -0.8,0.4 -0.8,0.9 0,0.5 0.3,0.9 0.8,0.9 0.5,0 0.8,-0.4 0.8,-0.9 z"
   id="path4369"
   inkscape:connector-curvature="0"
   style="fill:#3da1da" />
	<path
   class="st6"
   d="m 580.1,306 v -2 h 0.9 v 1.8 c 0,0.4 0.2,0.6 0.5,0.6 0.3,0 0.6,-0.2 0.6,-0.6 V 304 h 0.9 v 3.2 h -0.9 v -0.5 c -0.2,0.3 -0.5,0.5 -0.9,0.5 -0.7,0 -1.1,-0.5 -1.1,-1.2 z"
   id="path4371"
   inkscape:connector-curvature="0"
   style="fill:#3da1da" />
	<path
   class="st6"
   d="m 583.7,305.5 c 0,-1.1 0.7,-1.6 1.5,-1.6 0.5,0 0.8,0.2 1,0.5 v -1.6 h 0.9 v 4.3 h -0.9 v -0.5 c -0.2,0.3 -0.5,0.5 -1,0.5 -0.8,0.1 -1.5,-0.5 -1.5,-1.6 z m 2.4,0 c 0,-0.5 -0.3,-0.9 -0.8,-0.9 -0.4,0 -0.8,0.3 -0.8,0.9 0,0.5 0.4,0.9 0.8,0.9 0.5,0 0.8,-0.3 0.8,-0.9 z"
   id="path4373"
   inkscape:connector-curvature="0"
   style="fill:#3da1da" />
</g>
<g
   id="g4455"
   transform="matrix(1.5978253,0,0,1.4068832,-259.34373,-135.48464)">
	<g
   id="g4379">
		<path
   class="st6"
   d="m 463.8,287.4 h -94.1 c -3,0 -5.5,-2.5 -5.5,-5.5 v -88.4 c 0,-3.1 2.5,-5.5 5.5,-5.5 h 94.1 c 3,0 5.5,2.5 5.5,5.5 v 88.4 c 0,3 -2.4,5.5 -5.5,5.5 z"
   id="path4377"
   inkscape:connector-curvature="0"
   style="fill:#3da1da" />
	</g>
	<g
   id="g4383">
		<path
   class="st5"
   d="m 464.7,203.2 v 69.2 c 0,2.6 -2.1,4.7 -4.7,4.7 h -85.1 c -2.6,0 -4.7,-2.1 -4.7,-4.7 v -69.2 c 0,-2.6 2.1,-4.7 4.7,-4.7 H 460 c 2.6,0 4.7,2.1 4.7,4.7 z"
   id="path4381"
   inkscape:connector-curvature="0"
   style="fill:#ffffff" />
	</g>
	<g
   id="g4387">
		<rect
   x="368.60001"
   y="217.39999"
   class="st6"
   width="98"
   height="3.5999999"
   id="rect4385"
   style="fill:#3da1da" />
	</g>
	<g
   id="g4391">
		<rect
   x="368.60001"
   y="267.70001"
   class="st6"
   width="98"
   height="1.8"
   id="rect4389"
   style="fill:#3da1da" />
	</g>
	<g
   id="g4395">
		<path
   class="st1"
   d="m 476.5,187.7 v 18.7 c 0,0.8 -0.2,1.5 -0.6,2.1 v 0 c -0.7,1 -1.8,1.6 -3.1,1.6 h -8.1 v -6.9 c 0,-2.6 -2.1,-4.7 -4.7,-4.7 h -85.1 c -2.6,0 -4.7,2.1 -4.7,4.7 v 6.9 h -8.1 c -2,0 -3.7,-1.7 -3.7,-3.7 v -18.7 c 0,-2.1 1.7,-3.7 3.7,-3.7 h 110.7 c 2.1,0 3.7,1.6 3.7,3.7 z"
   id="path4393"
   inkscape:connector-curvature="0"
   style="fill:#0e2d40" />
	</g>
	<g
   id="g4399">
		<path
   class="st2"
   d="m 475.9,208.4 v 0 c -0.7,1 -1.8,1.7 -3.1,1.7 h -8.1 v -6.9 c 0,-2.6 -2.1,-4.7 -4.7,-4.7 h -85.1 c -2.6,0 -4.7,2.1 -4.7,4.7 v 6.9 h -8.1 c -2,0 -3.7,-1.7 -3.7,-3.7 v -14.1 c 0,0 0.3,-4.4 5.4,-4.4 h 79.7 c 6.3,0 9.1,4.8 14.8,3.1 5.6,-1.6 3.6,-2.5 9,-2.5 5.4,0 5.6,1.1 5.6,7.2 v 8.5 c -0.1,0.8 3.2,0.7 3,4.2 z"
   id="path4397"
   inkscape:connector-curvature="0"
   style="fill:#1a5b82" />
	</g>
	<g
   id="g4403">
		<circle
   class="st6"
   cx="385.39999"
   cy="204.7"
   r="4"
   id="circle4401"
   style="fill:#3da1da" />
	</g>
	<g
   id="g4407">
		<circle
   class="st6"
   cx="401.5"
   cy="204.7"
   r="4"
   id="circle4405"
   style="fill:#3da1da" />
	</g>
	<g
   id="g4411">
		<circle
   class="st6"
   cx="417.5"
   cy="204.7"
   r="4"
   id="circle4409"
   style="fill:#3da1da" />
	</g>
	<g
   id="g4415">
		<circle
   class="st6"
   cx="433.5"
   cy="204.7"
   r="4"
   id="circle4413"
   style="fill:#3da1da" />
	</g>
	<g
   id="g4419">
		<circle
   class="st6"
   cx="449.60001"
   cy="204.7"
   r="4"
   id="circle4417"
   style="fill:#3da1da" />
	</g>
	<g
   id="g4423">
		<path
   class="st1"
   d="m 385.6,203.7 h -0.3 c -0.7,0 -1.3,-0.6 -1.3,-1.3 v -10.3 c 0,-0.7 0.6,-1.3 1.3,-1.3 h 0.3 c 0.7,0 1.3,0.6 1.3,1.3 v 10.3 c 0,0.7 -0.6,1.3 -1.3,1.3 z"
   id="path4421"
   inkscape:connector-curvature="0"
   style="fill:#0e2d40" />
	</g>
	<g
   id="g4427">
		<path
   class="st1"
   d="m 401.6,203.7 h -0.3 c -0.7,0 -1.3,-0.6 -1.3,-1.3 v -10.3 c 0,-0.7 0.6,-1.3 1.3,-1.3 h 0.3 c 0.7,0 1.3,0.6 1.3,1.3 v 10.3 c 0,0.7 -0.6,1.3 -1.3,1.3 z"
   id="path4425"
   inkscape:connector-curvature="0"
   style="fill:#0e2d40" />
	</g>
	<g
   id="g4431">
		<path
   class="st1"
   d="m 417.6,203.7 h -0.3 c -0.7,0 -1.3,-0.6 -1.3,-1.3 v -10.3 c 0,-0.7 0.6,-1.3 1.3,-1.3 h 0.3 c 0.7,0 1.3,0.6 1.3,1.3 v 10.3 c 0,0.7 -0.5,1.3 -1.3,1.3 z"
   id="path4429"
   inkscape:connector-curvature="0"
   style="fill:#0e2d40" />
	</g>
	<g
   id="g4435">
		<path
   class="st1"
   d="m 433.7,203.7 h -0.3 c -0.7,0 -1.3,-0.6 -1.3,-1.3 v -10.3 c 0,-0.7 0.6,-1.3 1.3,-1.3 h 0.3 c 0.7,0 1.3,0.6 1.3,1.3 v 10.3 c 0,0.7 -0.6,1.3 -1.3,1.3 z"
   id="path4433"
   inkscape:connector-curvature="0"
   style="fill:#0e2d40" />
	</g>
	<g
   id="g4439">
		<path
   class="st1"
   d="m 449.7,203.7 h -0.3 c -0.7,0 -1.3,-0.6 -1.3,-1.3 v -10.3 c 0,-0.7 0.6,-1.3 1.3,-1.3 h 0.3 c 0.7,0 1.3,0.6 1.3,1.3 v 10.3 c 0,0.7 -0.6,1.3 -1.3,1.3 z"
   id="path4437"
   inkscape:connector-curvature="0"
   style="fill:#0e2d40" />
	</g>
	<g
   id="g4443">
		<path
   class="st6"
   d="M 421.6,232 H 410 v -4.7 h 17.8 v 4.1 L 416.7,252 h -6.1 z"
   id="path4441"
   inkscape:connector-curvature="0"
   style="fill:#3da1da" />
	</g>
	<g
   id="g4453">
		<path
   class="st6"
   d="m 406.5,261.9 -0.1,1.3 H 405 v -2.7 h 0.6 c 0.5,-1 0.5,-2.4 0.5,-3.8 v -0.5 h 4.6 v 4.3 h 0.8 l -0.2,2.7 H 410 v -1.3 z m 2.7,-1.3 v -2.9 h -1.5 v 0.1 c 0,1 -0.1,1.9 -0.4,2.8 z"
   id="path4445"
   inkscape:connector-curvature="0"
   style="fill:#3da1da" />
		<path
   class="st6"
   d="m 417.5,261.9 h -1.6 v -2.1 h -2 v 2.1 h -1.6 v -5.6 h 1.6 v 2.2 h 2 v -2.2 h 1.6 z"
   id="path4447"
   inkscape:connector-curvature="0"
   style="fill:#3da1da" />
		<path
   class="st6"
   d="m 418.7,259.1 c 0,-1.6 1.1,-2.9 2.8,-2.9 1.9,0 2.7,1.5 2.7,3 0,0.1 0,0.3 0,0.4 h -3.9 c 0.2,0.7 0.7,1.1 1.4,1.1 0.5,0 0.9,-0.2 1.4,-0.6 l 0.9,0.8 c -0.5,0.6 -1.3,1 -2.3,1 -1.8,0.1 -3,-1 -3,-2.8 z m 4,-0.4 c -0.1,-0.7 -0.5,-1.2 -1.2,-1.2 -0.7,0 -1.1,0.5 -1.2,1.2 z"
   id="path4449"
   inkscape:connector-curvature="0"
   style="fill:#3da1da" />
		<path
   class="st6"
   d="m 430.6,261.9 h -1.5 v -3.3 l -2.2,3.3 h -1.5 v -5.6 h 1.5 v 3.3 l 2.2,-3.3 h 1.5 z m -4.3,-7.7 0.9,-0.2 c 0.1,0.4 0.4,0.7 0.8,0.7 0.4,0 0.7,-0.3 0.8,-0.7 l 0.9,0.2 c -0.1,1 -0.8,1.6 -1.8,1.6 -0.8,0 -1.5,-0.6 -1.6,-1.6 z"
   id="path4451"
   inkscape:connector-curvature="0"
   style="fill:#3da1da" />
	</g>
</g>
<g
   class="st7"
   id="g4459"
   transform="matrix(1.5978253,0,0,1.4068832,-259.34373,-135.48464)"
   style="opacity:0.45">
	<polygon
   class="st5"
   points="590.6,206 514.9,281.7 514.8,266.5 575.3,206 "
   id="polygon4457"
   style="fill:#ffffff" />
</g>
<g
   id="g4463"
   transform="matrix(1.5978253,0,0,1.4068832,-259.34373,-135.48464)">
	<path
   class="st4"
   d="m 546.1,375.7 h -0.3 c -5.2,-0.7 -9.1,-2.9 -11.7,-6.4 l -0.2,-0.3 0.1,-0.3 c 0.1,-0.2 2.7,-5.5 6.8,-6.9 1.6,-0.5 3.2,-0.4 4.8,0.5 1.6,1 2.5,2.4 2.9,4.1 0.9,4.1 -2.1,8.8 -2.3,9 z m -11,-6.7 c 2.4,3.1 5.9,4.9 10.5,5.7 0.6,-1 2.6,-4.8 2,-8 -0.3,-1.4 -1.1,-2.6 -2.4,-3.4 -1.3,-0.7 -2.6,-0.8 -4,-0.4 -3.2,1 -5.5,5 -6.1,6.1 z"
   id="path4461"
   inkscape:connector-curvature="0"
   style="fill:#e7988f" />
</g>
<g
   class="st7"
   id="g4467"
   transform="matrix(1.5978253,0,0,1.4068832,-259.34373,-135.48464)"
   style="opacity:0.45">
	<path
   class="st5"
   d="M 539.5,124.1 320.6,343 h -66.9 c -1,0 -2,-0.1 -2.9,-0.5 L 469.2,124.1 c 0,0 70.3,0 70.3,0 z"
   id="path4465"
   inkscape:connector-curvature="0"
   style="fill:#ffffff" />
</g>
<g
   class="st7"
   id="g4471"
   transform="matrix(1.5978253,0,0,1.4068832,-259.34373,-135.48464)"
   style="opacity:0.45">
	<polygon
   class="st5"
   points="443.9,124.1 243.8,324.2 243.8,309 428.7,124.1 "
   id="polygon4469"
   style="fill:#ffffff" />
</g>
<g
   class="st7"
   id="g4475"
   transform="matrix(1.5978253,0,0,1.4068832,-259.34373,-135.48464)"
   style="opacity:0.45">
	<path
   class="st5"
   d="M 586,132.4 375.4,343 H 360.1 L 578.7,124.4 c 3.8,1 6.7,4.2 7.3,8 z"
   id="path4473"
   inkscape:connector-curvature="0"
   style="fill:#ffffff" />
</g>
<g
   id="g4479"
   transform="matrix(1.5978253,0,0,1.4068832,-259.34373,-135.48464)">
	<circle
   class="st6"
   cx="535.40002"
   cy="228"
   r="1.5"
   id="circle4477"
   style="fill:#3da1da" />
</g>
<g
   id="g4483"
   transform="matrix(1.5978253,0,0,1.4068832,-259.34373,-135.48464)">
	<circle
   class="st6"
   cx="595.79999"
   cy="228"
   r="1.5"
   id="circle4481"
   style="fill:#3da1da" />
</g>
<g
   id="g4487"
   transform="matrix(1.5978253,0,0,1.4068832,-259.34373,-135.48464)">
	<circle
   class="st6"
   cx="590.59998"
   cy="228"
   r="1.5"
   id="circle4485"
   style="fill:#3da1da" />
</g>
<g
   id="g4491"
   transform="matrix(1.5978253,0,0,1.4068832,-259.34373,-135.48464)">
	<circle
   class="st5"
   cx="551.09998"
   cy="213.10001"
   r="1.5"
   id="circle4489"
   style="fill:#ffffff" />
</g>
</svg>